<svg width="1586" height="1062" viewBox="0 0 1586 1062" fill="none" xmlns="http://www.w3.org/2000/svg">
<mask id="mask0_1218_6118" style="mask-type:alpha" maskUnits="userSpaceOnUse" x="0" y="0" width="1586" height="1062">
<rect width="1586" height="1062" fill="#D9D9D9"/>
</mask>
<g mask="url(#mask0_1218_6118)">
<g clip-path="url(#clip0_1218_6118)">
<path opacity="0.05" d="M1700.81 -119.822L1840.37 63.0152L1840.37 1189.56L184.226 1189.56L167.486 1167.63C198.725 1127.32 231.225 1088.03 266.337 1050.87C354.979 957.058 461.163 880.478 576.615 823.078C755.724 734.036 979.911 720.7 1109.16 550.416C1161.49 481.48 1190.32 399.458 1239.15 328.506C1348.55 169.581 1535.58 86.6189 1657.9 -60.5382C1673.53 -79.3446 1687.94 -99.1128 1700.81 -119.822Z" fill="url(#paint0_linear_1218_6118)"/>
<path opacity="0.05" d="M1780.81 -119.822L1920.37 63.0152L1920.37 1189.56L264.226 1189.56L247.486 1167.63C278.725 1127.32 311.225 1088.03 346.337 1050.87C434.979 957.058 541.163 880.478 656.615 823.078C835.724 734.036 1059.91 720.7 1189.16 550.416C1241.49 481.48 1270.32 399.458 1319.15 328.506C1428.55 169.581 1615.58 86.6189 1737.9 -60.5382C1753.53 -79.3446 1767.94 -99.1128 1780.81 -119.822Z" fill="url(#paint1_linear_1218_6118)"/>
<circle cx="1094" cy="654" r="14" transform="rotate(180 1094 654)" fill="url(#paint2_linear_1218_6118)" fill-opacity="0.2"/>
<circle cx="1066.5" cy="640.5" r="7.5" transform="rotate(180 1066.5 640.5)" fill="url(#paint3_linear_1218_6118)" fill-opacity="0.2"/>
<g opacity="0.2" clip-path="url(#clip1_1218_6118)">
<path d="M1457.46 580L1387.76 579.903L1353 520.088L1387.93 460.36L1457.62 460.457L1492.39 520.272L1457.46 580Z" fill="url(#paint4_linear_1218_6118)"/>
<path d="M1510.11 521.454L1451 521.376L1450.75 520.941L1421.53 470.654L1451.14 420L1510.25 420.077L1510.5 420.513L1539.72 470.799L1510.1 521.444L1510.11 521.454ZM1452.03 519.614L1509.09 519.691L1537.68 470.799L1509.22 421.84L1452.16 421.762L1423.57 470.654L1452.03 519.624V519.614Z" fill="url(#paint5_linear_1218_6118)"/>
<path d="M1596.2 560.943L1548.71 560.875L1525.02 520.118L1548.82 479.428L1596.31 479.496L1620 520.253L1596.2 560.943ZM1549.73 559.123L1595.17 559.181L1617.94 520.244L1595.28 481.248L1549.84 481.19L1527.07 520.127L1549.73 559.123Z" fill="url(#paint6_linear_1218_6118)"/>
</g>
<g opacity="0.3" clip-path="url(#clip2_1218_6118)">
<path d="M982.433 891.352C992.824 883.129 992.764 876.898 992.992 872.144C993.22 867.39 993.16 861.16 1003.55 852.937" stroke="url(#paint7_linear_1218_6118)" stroke-width="2" stroke-linejoin="round"/>
<path d="M971.744 878.122C982.135 869.899 988.259 871.327 992.993 872.156C997.727 872.984 1003.85 874.413 1014.24 866.189" stroke="url(#paint8_linear_1218_6118)" stroke-width="2" stroke-linejoin="round"/>
<path d="M1001.67 854.785L1012.08 867.678" stroke="url(#paint9_linear_1218_6118)" stroke-width="2" stroke-linejoin="round"/>
<path d="M996.204 861.328L1004.64 871.784" stroke="url(#paint10_linear_1218_6118)" stroke-width="2" stroke-linejoin="round"/>
<path d="M982.135 872.036L990.296 882.132" stroke="url(#paint11_linear_1218_6118)" stroke-width="2" stroke-linejoin="round"/>
<path d="M974.704 876.142L985.106 889.023" stroke="url(#paint12_linear_1218_6118)" stroke-width="2" stroke-linejoin="round"/>
</g>
</g>
<path d="M1129.45 851.942H1368.71L1369.75 943.279H1130.5L1129.45 851.942Z" fill="#A4D68D"/>
<path d="M1135.6 804.379C1141.22 804.379 1146.77 801.732 1150.24 796.77L1178.5 756.393C1184.12 748.343 1182.15 737.261 1174.07 731.655C1165.99 726.031 1154.87 728.016 1149.25 736.066L1120.99 776.444C1115.36 784.493 1117.34 795.576 1125.42 801.181C1128.51 803.35 1132.07 804.379 1135.6 804.379Z" fill="#81B571"/>
<path d="M1102.32 735.937L1134.6 768.853C1138.46 768.633 1142.4 769.643 1145.81 772.014C1153.89 777.638 1155.87 788.702 1150.24 796.752C1146.31 802.375 1140.13 805.904 1133.27 806.474C1132.63 806.529 1132 806.547 1131.37 806.547C1125.21 806.547 1119.31 804.085 1114.96 799.655L1079.49 763.487C1085.98 753.176 1092.73 743.123 1102.34 735.919L1102.32 735.937Z" fill="#81B571"/>
<path d="M1083.25 743.932C1077.19 751.798 1075.88 760.95 1080.34 764.368C1084.8 767.787 1093.34 764.166 1099.41 756.3C1105.48 748.434 1106.79 739.282 1102.32 735.863C1097.86 732.445 1089.32 736.066 1083.25 743.932Z" fill="#59955D"/>
<path d="M1158.23 729.377L1190.67 716.732L1196.44 718.001H1205.68L1210.75 779.403L1185.8 774.422L1156.81 747.424L1158.23 729.377Z" fill="#81B571"/>
<path d="M1214.44 711.273L1218.13 712.744C1235.05 719.507 1251.28 727.869 1266.58 737.738C1273.39 742.112 1278.72 748.416 1281.89 755.841C1283.48 759.554 1284.27 763.542 1284.22 767.585L1282.83 862.638H1171.73C1171.73 862.638 1156.97 762.329 1156.81 761.483L1214.44 711.292V711.273Z" fill="#81B571"/>
<path d="M1226.12 676.887C1224.27 687.547 1215.46 703.995 1204.76 702.158C1194.06 700.32 1185.52 680.875 1187.37 670.216C1189.21 659.556 1199.39 652.407 1210.09 654.245C1220.79 656.083 1227.96 666.228 1226.12 676.887Z" fill="#282B38"/>
<path d="M1223.98 711.769C1223.5 714.508 1218.32 720.628 1213.37 719.782C1208.43 718.937 1205.61 711.42 1206.09 708.682C1206.57 705.943 1210.96 704.418 1215.9 705.263C1220.84 706.109 1224.46 709.031 1224 711.769H1223.98Z" fill="#F2F2F2"/>
<path d="M1222.67 721.823L1211.23 677.678L1185.8 684.22L1194.1 716.236C1193.05 719.158 1190.19 724.083 1190.39 724.58C1190.67 725.241 1192.7 747.075 1192.7 747.075L1197.55 750.714L1202.12 742.26C1209.28 735.643 1216.58 729.358 1222.67 721.841V721.823Z" fill="#FAC5BC"/>
<path d="M1200.46 719.948L1208.98 702.433L1208.03 700.669L1189.27 697.673L1194.08 716.217C1193.51 717.797 1192.42 719.966 1191.55 721.693L1195.63 722.392C1197.6 722.741 1199.58 721.73 1200.46 719.929V719.948Z" fill="#DC8781"/>
<path d="M1206.4 736.158L1203.86 730.167L1202.33 729.193L1201.39 728.586L1201.31 728.843L1197.24 744.888L1195.54 727.594L1190.87 728.127H1190.76L1190.54 730.681L1190.23 734.228L1191.04 735.441L1189.89 737.904L1194.01 789.694C1194.08 790.687 1195.45 790.889 1195.82 789.97L1219.66 731.729L1206.4 736.158Z" fill="#F2F2F2"/>
<path d="M1223.68 709.895C1223.68 709.895 1220.6 721.952 1201.39 728.568L1206.2 741.561C1206.2 741.561 1217.97 737.077 1225.09 724.083C1226.91 720.757 1227.02 716.75 1225.36 713.332L1223.68 709.877V709.895Z" fill="white"/>
<path d="M1195.56 727.576C1195.56 727.576 1193.97 722.963 1194.49 717.725L1193.38 713.112L1190.67 716.733C1190.67 716.733 1186.83 729.726 1189.89 737.886L1195.56 727.558V727.576Z" fill="white"/>
<path d="M1180.07 699.093C1167.69 690.974 1164.26 674.391 1172.41 662.055C1180.56 649.718 1197.2 646.299 1209.58 654.418C1221.96 662.537 1225.39 679.12 1217.24 691.456C1209.09 703.793 1192.45 707.212 1180.07 699.093Z" fill="#282B38"/>
<path d="M1203.49 651.432C1203.36 651.377 1201.26 652.37 1201.26 652.37L1197.77 651.763L1204.21 657.663L1211.82 658.692L1213.78 655.255C1213.78 655.255 1203.6 651.469 1203.47 651.414L1203.49 651.432Z" fill="#282B38"/>
<path d="M1190.02 713.662C1181.43 714.305 1173.94 707.873 1173.3 699.308L1171.6 676.611C1170.99 668.433 1177.13 661.32 1185.34 660.714L1195.93 659.923C1204.13 659.317 1211.27 665.437 1211.88 673.615L1212.89 687.16C1213.91 700.779 1203.67 712.633 1190.01 713.643L1190.02 713.662Z" fill="#FAC5BC"/>
<path d="M1184.4 713.038C1184.56 712.119 1184.05 711.219 1183.2 710.833C1178.61 708.793 1175.36 704.382 1174.97 699.181L1173.28 676.484C1173.17 675.124 1173.28 673.782 1173.59 672.495L1171.95 672.22C1171.64 673.616 1171.51 675.105 1171.62 676.612L1173.31 699.31C1173.81 705.926 1178.39 711.237 1184.4 713.038Z" fill="#F5ABA2"/>
<path d="M1174.86 685.212C1176.14 685.432 1177.21 684.311 1177 683.043C1176.69 681.169 1176.69 679.11 1177.06 676.978C1177.98 671.667 1180.93 667.477 1184.38 665.97C1183.18 662.331 1180.82 659.703 1177.72 659.17C1172.39 658.251 1166.95 663.875 1165.59 671.722C1164.76 676.482 1165.62 680.966 1167.63 683.981L1174.86 685.23V685.212Z" fill="#282B38"/>
<path d="M1222.72 666.558L1212.08 664.72C1212.6 663.948 1212.82 663.268 1212.43 662.919C1211.07 661.651 1199.52 657.35 1199.52 657.35L1184.25 656.303L1179.47 659.115V665.455L1183.46 666.834C1183.29 676.317 1190.06 684.789 1199.74 686.443C1210.44 688.281 1220.62 681.132 1222.47 670.473C1222.69 669.149 1222.78 667.844 1222.74 666.558H1222.72Z" fill="#282B38"/>
<path d="M1185.01 665.272L1181.28 665.198C1176.41 673.873 1181.08 679.46 1184.38 682.07C1184.62 682.272 1184.93 681.941 1184.73 681.702C1179.23 675.067 1185.01 665.29 1185.01 665.29V665.272Z" fill="#282B38"/>
<path d="M1199.74 681.077C1199.74 681.077 1203.69 686.866 1203.86 691.81C1203.89 693.041 1205 693.978 1206.24 693.85L1207.73 693.703C1207.73 693.703 1211.75 678.191 1211.64 678.265" fill="#282B38"/>
<path d="M1194.04 690.249C1194.17 691.866 1193.31 693.245 1192.13 693.336C1190.95 693.428 1189.88 692.197 1189.77 690.58C1189.64 688.962 1190.5 687.584 1191.68 687.492C1192.86 687.4 1193.93 688.632 1194.04 690.249Z" fill="#232027"/>
<path d="M1178.61 689.476C1178.74 691.093 1177.96 692.454 1176.89 692.545C1175.82 692.637 1174.86 691.388 1174.75 689.77C1174.62 688.153 1175.4 686.793 1176.47 686.701C1177.54 686.609 1178.5 687.859 1178.61 689.476Z" fill="#232027"/>
<path d="M1183.26 700.523C1183.14 700.523 1183.03 700.523 1182.92 700.467L1180.75 699.512C1180.06 699.181 1179.55 698.593 1179.33 697.876C1179.11 697.159 1179.2 696.406 1179.58 695.763C1180.32 694.531 1181.3 692.693 1181.74 690.911C1182.44 688.191 1181.12 687.345 1181.06 687.309C1180.75 687.106 1180.62 686.684 1180.82 686.371C1181.01 686.04 1181.43 685.93 1181.76 686.114C1181.85 686.169 1184.09 687.456 1183.11 691.26C1182.61 693.19 1181.58 695.156 1180.78 696.479C1180.6 696.792 1180.56 697.141 1180.65 697.49C1180.77 697.839 1180.99 698.115 1181.32 698.262L1183.48 699.218C1183.83 699.365 1183.99 699.787 1183.83 700.137C1183.72 700.376 1183.49 700.523 1183.24 700.541L1183.26 700.523Z" fill="#DC8781"/>
<path d="M1188.2 681.407C1190.23 681.554 1192.42 681.462 1194.47 681.168C1196.68 680.819 1199.74 680.249 1201.44 682.399C1201.99 683.282 1200.74 684.017 1200.19 683.171C1199.73 682.694 1198.62 682.473 1197.84 682.528C1195.85 682.638 1193.57 683.41 1191.46 683.502C1190.21 683.41 1187.09 684.439 1186.98 682.491C1186.98 681.848 1187.57 681.334 1188.22 681.407H1188.2Z" fill="#232027"/>
<path d="M1179.25 683.375C1177.19 683.007 1174.7 681.611 1172.85 682.529C1172.5 682.75 1172.06 682.64 1171.84 682.291C1171.64 681.978 1171.71 681.555 1172 681.316C1174.27 679.699 1177.24 680.967 1179.64 681.169C1181.17 681.39 1180.78 683.669 1179.25 683.356V683.375Z" fill="#232027"/>
<path d="M1212.84 695.651L1205.17 706.844" stroke="white" stroke-width="0.75" stroke-linecap="round" stroke-linejoin="round"/>
<path d="M1208.62 687.473L1200.94 698.684" stroke="white" stroke-width="0.75" stroke-linecap="round" stroke-linejoin="round"/>
<path d="M1207.8 694.015C1207.36 693.114 1207.1 692.085 1207.1 690.927C1207.14 687.068 1209.96 683.557 1213.43 683.08C1216.9 682.602 1219.66 685.34 1219.64 689.181C1219.64 691.24 1218.81 693.188 1217.52 694.64L1216.2 696.606C1216.12 696.716 1216.07 696.808 1215.99 696.918L1215.9 697.047C1215.03 698.187 1213.8 699.014 1212.43 699.197C1209.83 699.565 1207.73 697.507 1207.75 694.584C1207.75 694.382 1207.79 694.198 1207.8 693.996V694.015Z" fill="#FAC5BC"/>
<path d="M1210.74 696.202C1210.44 696.238 1210.15 696.091 1210 695.816C1209.04 693.904 1209.22 691.019 1209.24 690.89C1209.26 688.134 1211.27 685.561 1213.71 685.193C1214.66 685.064 1215.53 685.303 1216.2 685.91C1217.03 686.626 1217.49 687.821 1217.47 689.163C1217.47 689.549 1217.14 689.861 1216.75 689.861C1216.36 689.861 1216.05 689.549 1216.05 689.144C1216.05 688.207 1215.77 687.417 1215.26 686.957C1214.89 686.626 1214.43 686.516 1213.89 686.59C1212.14 686.847 1210.64 688.85 1210.63 690.964C1210.63 691.037 1210.46 693.647 1211.23 695.209C1211.4 695.558 1211.27 695.981 1210.92 696.147C1210.85 696.183 1210.77 696.202 1210.72 696.22L1210.74 696.202Z" fill="#DC8781"/>
<path d="M1213.83 694.621C1213.52 694.676 1213.19 694.492 1213.08 694.18C1212.34 692.25 1210.35 691.791 1210.28 691.772C1209.89 691.68 1209.65 691.313 1209.74 690.945C1209.83 690.559 1210.2 690.32 1210.57 690.412C1210.68 690.431 1213.41 691.037 1214.41 693.702C1214.54 694.07 1214.35 694.474 1214 694.603C1213.95 694.603 1213.91 694.639 1213.85 694.639L1213.83 694.621Z" fill="#DC8781"/>
<path d="M1085.19 882.009H1162.08V943.179H1085.19V882.009Z" fill="#DFF2E9"/>
<path d="M1155.26 870.871L1162.08 882.008H1085.17L1092.01 870.871H1155.26Z" fill="white"/>
<path d="M1159.98 782.858C1157.45 765.674 1155.63 753.397 1155.55 753.048" stroke="#59955D" stroke-width="0.75" stroke-linecap="round" stroke-linejoin="round"/>
<path d="M1129.82 763.982L1143.12 777.546" stroke="#59955D" stroke-width="0.75" stroke-linecap="round" stroke-linejoin="round"/>
<path d="M1072.67 730.644C1077.94 725.516 1086.39 725.608 1091.53 730.864L1104.81 744.391C1104.3 748.085 1102.45 752.349 1099.41 756.3C1095.94 760.803 1091.66 763.909 1087.81 765.103L1072.46 749.463C1067.32 744.207 1067.41 735.79 1072.69 730.662L1072.67 730.644Z" fill="#62ADB5"/>
<path d="M1065.2 716.529L1077.26 714.6L1076.3 708.59C1075.77 705.263 1072.63 703.003 1069.29 703.536C1065.95 704.069 1063.68 707.193 1064.22 710.52L1065.18 716.529H1065.2Z" fill="#62ADB5"/>
<path d="M1092.7 745.438C1094.58 745.438 1096.27 744.133 1096.66 742.203C1098.52 733.308 1094.52 724.192 1086.7 719.506L1078.99 714.893C1077.07 713.735 1074.57 714.36 1073.42 716.271C1072.26 718.183 1072.89 720.682 1074.81 721.821L1082.52 726.434C1087.37 729.338 1089.86 735.017 1088.71 740.531C1088.25 742.718 1089.67 744.868 1091.87 745.327C1092.14 745.383 1092.42 745.419 1092.7 745.419V745.438Z" fill="#62ADB5"/>
<path d="M1075.03 711.494C1073.53 711.071 1071.95 711.034 1070.42 711.439L1065.07 712.817" stroke="#4C93AA" stroke-width="0.75" stroke-linecap="round" stroke-linejoin="round"/>
<path d="M1063.22 723.568C1063.33 723.568 1063.46 723.568 1063.57 723.568C1065.29 723.421 1066.67 722.227 1067.13 720.665L1072.46 719.286C1072.63 719.249 1072.8 719.268 1072.93 719.341L1076.17 721.179C1078.13 722.282 1080.6 721.602 1081.7 719.672C1082.81 717.724 1082.13 715.261 1080.19 714.14L1076.95 712.302C1074.95 711.181 1072.63 710.869 1070.42 711.439L1063.98 713.111C1060.94 713.901 1058.91 716.75 1059.18 719.874C1059.37 721.988 1061.14 723.568 1063.22 723.568Z" fill="#62ADB5"/>
<path d="M1063.78 728.954C1063.89 728.954 1064.02 728.954 1064.13 728.954C1065.92 728.807 1067.32 727.521 1067.72 725.866L1073.7 724.323C1073.96 724.249 1074.23 724.286 1074.46 724.415L1077.98 726.418C1079.93 727.521 1082.41 726.841 1083.51 724.892C1084.62 722.944 1083.94 720.482 1082 719.36L1078.48 717.357C1076.39 716.181 1073.98 715.85 1071.65 716.457L1064.66 718.258C1061.51 719.066 1059.44 722.007 1059.72 725.242C1059.9 727.355 1061.67 728.936 1063.76 728.936L1063.78 728.954Z" fill="#62ADB5"/>
<path d="M1063.78 728.954C1063.89 728.954 1064.02 728.954 1064.13 728.954C1065.92 728.807 1067.32 727.521 1067.72 725.866L1073.7 724.323C1073.96 724.249 1074.23 724.286 1074.46 724.415L1077.98 726.418C1079.93 727.521 1082.41 726.841 1083.51 724.892C1084.62 722.944 1083.94 720.482 1082 719.36L1078.48 717.357C1076.39 716.181 1073.98 715.85 1071.65 716.457L1064.66 718.258C1061.51 719.066 1059.44 722.007 1059.72 725.242C1059.9 727.355 1061.67 728.936 1063.76 728.936L1063.78 728.954Z" stroke="#4C93AA" stroke-width="0.75" stroke-linecap="round" stroke-linejoin="round"/>
<path d="M1065.01 735.404C1065.12 735.404 1065.25 735.404 1065.36 735.404C1067.15 735.257 1068.55 733.971 1068.96 732.317L1074.94 730.773C1075.19 730.699 1075.47 730.736 1075.69 730.865L1079.21 732.868C1081.17 733.971 1083.64 733.291 1084.75 731.343C1085.85 729.394 1085.17 726.932 1083.24 725.811L1079.71 723.807C1077.63 722.631 1075.21 722.3 1072.89 722.907L1065.9 724.708C1062.74 725.517 1060.68 728.457 1060.96 731.692C1061.14 733.805 1062.91 735.386 1064.99 735.386L1065.01 735.404Z" fill="#62ADB5"/>
<path d="M1065.01 735.404C1065.12 735.404 1065.25 735.404 1065.36 735.404C1067.15 735.257 1068.55 733.971 1068.96 732.317L1074.94 730.773C1075.19 730.699 1075.47 730.736 1075.69 730.865L1079.21 732.868C1081.17 733.971 1083.64 733.291 1084.75 731.343C1085.85 729.394 1085.17 726.932 1083.24 725.811L1079.71 723.807C1077.63 722.631 1075.21 722.3 1072.89 722.907L1065.9 724.708C1062.74 725.517 1060.68 728.457 1060.96 731.692C1061.14 733.805 1062.91 735.386 1064.99 735.386L1065.01 735.404Z" stroke="#4C93AA" stroke-width="0.75" stroke-linecap="round" stroke-linejoin="round"/>
<path d="M1081.26 753.93C1082.98 753.93 1084.56 752.846 1085.12 751.137C1085.82 749.005 1084.64 746.726 1082.52 746.028L1070.73 742.223C1069.94 741.966 1069.38 741.268 1069.31 740.441L1069.18 739.007L1074.95 737.518C1075.21 737.445 1075.49 737.482 1075.71 737.61L1079.23 739.613C1081.19 740.716 1083.66 740.036 1084.77 738.106C1085.87 736.158 1085.19 733.696 1083.25 732.593L1079.73 730.59C1077.65 729.413 1075.21 729.083 1072.91 729.689L1065.92 731.49C1062.76 732.299 1060.7 735.239 1060.97 738.474L1061.21 741.157C1061.56 745.237 1064.31 748.674 1068.22 749.942L1080.01 753.746C1080.43 753.875 1080.86 753.949 1081.26 753.949V753.93Z" fill="#62ADB5"/>
<path d="M1071.82 766.243C1071.82 767.621 1074.05 768.761 1076.84 768.761C1079.62 768.761 1081.87 767.676 1081.87 766.28C1081.87 764.901 1079.64 763.762 1076.85 763.762C1074.07 763.762 1071.82 764.846 1071.82 766.243Z" fill="#BDC642"/>
<path d="M1080.38 768.907C1080.51 768.852 1080.62 768.797 1080.75 768.742C1081.98 768.135 1082.66 767.271 1082.66 766.279C1082.66 765.838 1082.31 765.489 1081.89 765.489C1081.46 765.489 1081.1 765.838 1081.1 766.261C1081.1 766.61 1080.69 767.014 1080.04 767.327C1079.2 767.731 1078.03 767.97 1076.84 767.951C1075.64 767.951 1074.46 767.694 1073.63 767.29C1072.98 766.977 1072.59 766.555 1072.59 766.224C1072.59 765.783 1072.24 765.434 1071.82 765.434C1071.39 765.434 1071.03 765.783 1071.03 766.205C1071.03 767.18 1071.69 768.062 1072.93 768.687C1073.98 769.22 1075.36 769.514 1076.84 769.514C1078.13 769.514 1079.38 769.293 1080.38 768.889V768.907Z" fill="#BDC642"/>
<path d="M1078.26 829.446L1078.13 826.321C1078.09 825.458 1077.89 824.594 1077.35 823.914C1077.09 823.583 1076.93 823.16 1076.91 822.682L1073.55 737.884C1073.5 736.708 1074.44 735.697 1075.62 735.661C1076.8 735.605 1077.81 736.543 1077.85 737.719L1081.21 822.517C1081.21 822.921 1081.13 823.289 1080.95 823.601C1080.54 824.355 1080.23 825.182 1080.27 826.046L1080.39 829.372C1080.39 829.795 1080.19 830.162 1079.84 830.346C1079.69 830.42 1079.53 830.475 1079.34 830.493C1078.75 830.512 1078.26 830.052 1078.22 829.464L1078.26 829.446Z" fill="white"/>
<path d="M1074.77 737.848C1074.77 737.499 1074.94 737.168 1075.25 737.003C1075.38 736.929 1075.53 736.892 1075.67 736.874C1075.93 736.874 1076.15 736.948 1076.34 737.113C1076.52 737.278 1076.63 737.517 1076.63 737.756L1079.99 822.371L1078.13 822.279L1074.79 737.83L1074.77 737.848Z" fill="#DFF2E9"/>
<path d="M1076.87 763.762C1074.09 763.762 1071.84 764.846 1071.84 766.243C1071.84 766.243 1071.84 766.261 1071.84 766.279L1070.71 738.032C1070.64 736.157 1071.6 734.43 1073.24 733.492C1073.94 733.106 1074.71 732.867 1075.53 732.849C1076.85 732.794 1078.14 733.272 1079.12 734.172C1080.1 735.073 1080.67 736.304 1080.73 737.646L1081.85 766.077C1081.61 764.809 1079.49 763.817 1076.89 763.798L1076.87 763.762Z" fill="#DCE651"/>
<path d="M1082.18 767.014C1082.46 766.904 1082.66 766.628 1082.66 766.297C1082.66 764.423 1080.17 763.008 1076.87 762.989C1073.55 762.989 1071.04 764.368 1071.04 766.242C1071.04 766.683 1071.39 767.033 1071.82 767.033C1072.24 767.033 1072.61 766.683 1072.61 766.261C1072.61 765.562 1074.27 764.551 1076.87 764.57C1079.45 764.57 1081.11 765.617 1081.11 766.316C1081.11 766.757 1081.46 767.106 1081.89 767.106C1082 767.106 1082.09 767.088 1082.18 767.051V767.014Z" fill="#BDC642"/>
<path d="M1079.23 739.595L1075.71 737.591C1075.47 737.463 1075.21 737.426 1074.95 737.5L1069.18 738.988L1069.31 740.385H1061.16L1060.99 738.437C1060.72 735.202 1062.8 732.28 1065.93 731.453L1072.93 729.652C1075.25 729.046 1077.67 729.376 1079.75 730.553L1083.27 732.556C1085.23 733.659 1085.91 736.14 1084.78 738.069C1083.68 740.017 1081.19 740.697 1079.25 739.576L1079.23 739.595Z" fill="#62ADB5"/>
<path d="M1069.18 738.988L1074.95 737.5C1075.21 737.426 1075.49 737.463 1075.71 737.592L1079.23 739.595C1081.19 740.698 1083.66 740.018 1084.77 738.088C1085.87 736.14 1085.19 733.677 1083.25 732.574L1079.73 730.571C1077.65 729.395 1075.21 729.064 1072.91 729.671L1065.92 731.472C1064.05 731.949 1062.56 733.181 1061.71 734.78" stroke="#4C93AA" stroke-width="0.75" stroke-linecap="round" stroke-linejoin="round"/>
<path d="M1140.39 831.119C1141.57 831.119 1142.75 830.678 1143.68 829.796C1145.54 827.995 1145.57 825.017 1143.77 823.161L1140.13 819.43C1137.15 816.361 1132.96 814.597 1128.68 814.597H1128.48C1125.88 814.597 1123.77 816.692 1123.77 819.283C1123.77 821.875 1125.88 823.97 1128.48 823.97H1128.68C1130.45 823.97 1132.17 824.686 1133.38 825.955L1137.02 829.685C1137.94 830.641 1139.17 831.101 1140.39 831.101V831.119Z" fill="#62ADB5"/>
<path d="M1110.48 825.919C1110.97 825.919 1111.49 825.845 1111.99 825.661L1114.92 824.669C1117.39 823.842 1118.7 821.177 1117.87 818.714C1117.04 816.251 1114.37 814.947 1111.9 815.774L1108.96 816.766C1106.49 817.593 1105.18 820.258 1106.01 822.721C1106.68 824.669 1108.5 825.9 1110.48 825.9V825.919Z" fill="#62ADB5"/>
<path d="M1124.42 881.77C1110.43 881.77 1099.1 870.472 1099.1 856.536C1099.1 842.6 1110.43 831.303 1124.42 831.303C1138.41 831.303 1149.74 842.6 1149.74 856.536C1149.74 870.472 1138.41 881.77 1124.42 881.77Z" fill="white"/>
<path d="M1115.9 799.637H1132.96V847.678H1115.9V799.637Z" fill="white"/>
<path d="M1119.4 798.772H1129.44V847.677H1119.4V798.772Z" fill="#DFF2E9"/>
<path d="M1124.42 802.099C1119.7 802.099 1115.88 800.997 1115.88 799.637C1115.88 798.276 1119.7 797.174 1124.42 797.174C1129.14 797.174 1132.96 798.276 1132.96 799.637C1132.96 800.997 1129.14 802.099 1124.42 802.099Z" fill="#DFF2E9"/>
<path d="M1124.42 798.093C1120.05 798.093 1117.25 799.067 1116.82 799.637C1117.23 800.206 1120.03 801.18 1124.42 801.18C1128.81 801.18 1131.59 800.206 1132.02 799.637C1131.61 799.067 1128.81 798.093 1124.42 798.093ZM1124.42 797.174C1129.14 797.174 1132.96 798.277 1132.96 799.637C1132.96 800.997 1129.14 802.099 1124.42 802.099C1119.7 802.099 1115.88 800.997 1115.88 799.637C1115.88 798.277 1119.7 797.174 1124.42 797.174Z" fill="white"/>
<path d="M1124.42 878.223C1136.43 878.223 1146.18 868.501 1146.18 856.536C1146.18 844.572 1136.43 834.85 1124.42 834.85C1112.41 834.85 1102.66 844.572 1102.66 856.536C1102.66 868.501 1112.41 878.223 1124.42 878.223Z" fill="#DFF2E9"/>
<path d="M1135.36 819.908L1136.98 816.931L1149.3 823.694L1149.04 826.212L1139.62 825.734L1134.79 823.988L1135.36 819.908Z" fill="#62ADB5"/>
<path d="M1118.44 856.738C1118.91 856.738 1119.37 856.702 1119.85 856.646L1155.48 853.099C1157.64 852.879 1159.2 850.968 1159 848.817C1158.78 846.667 1156.88 845.086 1154.7 845.307L1119 848.872C1119 848.872 1118.89 848.872 1118.83 848.891C1118.2 848.983 1117.56 848.836 1117.04 848.486L1114.59 846.832C1115.14 845.895 1115.29 844.719 1114.9 843.616C1114.2 841.576 1111.97 840.473 1109.92 841.172C1107.67 841.925 1106.09 843.873 1105.77 846.207C1105.46 848.56 1106.49 850.839 1108.47 852.162L1112.67 854.974C1114.4 856.132 1116.42 856.738 1118.46 856.738H1118.44Z" fill="#62ADB5"/>
<path d="M1127.08 833.398C1129.4 827.866 1133.96 822.555 1142.42 822.555C1145.78 822.555 1148.88 823.327 1151.4 824.613C1152.53 825.183 1153.76 825.514 1155.04 825.514H1170.57V853.541H1140.71L1121.25 849.883C1113.59 849.277 1123.76 841.301 1127.08 833.398Z" fill="#62ADB5"/>
<path d="M1115.81 849.57C1116.34 849.57 1116.88 849.533 1117.41 849.46L1133.64 847.126C1136.22 846.758 1137.99 844.369 1137.63 841.814C1137.26 839.241 1134.86 837.459 1132.3 837.845L1116.06 840.179C1115.62 840.234 1115.18 840.142 1114.81 839.903L1112.91 838.635C1113.3 837.642 1113.35 836.521 1112.98 835.437C1112.15 832.993 1109.48 831.669 1107.01 832.496C1104.46 833.36 1102.67 835.529 1102.32 838.175C1101.97 840.822 1103.14 843.395 1105.35 844.884L1109.55 847.695C1111.42 848.945 1113.57 849.588 1115.79 849.588L1115.81 849.57Z" fill="#62ADB5"/>
<path d="M1115.81 842.734C1116.34 842.734 1116.88 842.697 1117.41 842.624L1133.64 840.29C1136.22 839.922 1137.99 837.533 1137.63 834.978C1137.26 832.405 1134.88 830.623 1132.3 831.008L1116.06 833.343C1115.62 833.398 1115.18 833.306 1114.81 833.067L1112.91 831.799C1113.3 830.806 1113.35 829.685 1112.98 828.601C1112.15 826.138 1109.48 824.833 1107.01 825.66C1104.46 826.524 1102.67 828.693 1102.32 831.339C1101.97 833.986 1103.14 836.559 1105.35 838.047L1109.55 840.859C1111.42 842.109 1113.57 842.752 1115.79 842.752L1115.81 842.734Z" fill="#62ADB5"/>
<path d="M1117.74 833.876C1118.28 833.876 1118.81 833.839 1119.35 833.765L1135.58 831.431C1138.16 831.064 1139.93 828.674 1139.56 826.12C1139.19 823.547 1136.81 821.764 1134.23 822.15L1118 824.484C1117.56 824.539 1117.12 824.447 1116.75 824.208L1114.85 822.94C1115.23 821.948 1115.29 820.827 1114.92 819.743C1114.09 817.28 1111.42 815.975 1108.95 816.802C1106.4 817.666 1104.61 819.834 1104.26 822.481C1103.91 825.127 1105.07 827.7 1107.29 829.189L1111.49 832.001C1113.35 833.251 1115.51 833.894 1117.72 833.894L1117.74 833.876Z" fill="#62ADB5"/>
<path d="M1105.37 844.847L1106.53 845.619L1109.57 847.659C1111.44 848.908 1113.59 849.552 1115.81 849.552C1116.34 849.552 1116.88 849.515 1117.41 849.441" stroke="#4C93AA" stroke-width="0.75" stroke-linecap="round" stroke-linejoin="round"/>
<path d="M1103.67 836.43C1104.13 837.036 1104.7 837.588 1105.37 838.029L1109.57 840.841C1111.44 842.09 1113.59 842.733 1115.81 842.733C1116.34 842.733 1116.88 842.697 1117.41 842.623" stroke="#4C93AA" stroke-width="0.75" stroke-linecap="round" stroke-linejoin="round"/>
<path d="M1105.28 827.093C1105.79 827.901 1106.47 828.618 1107.3 829.17L1111.51 831.981C1113.37 833.231 1115.53 833.874 1117.74 833.874C1118.28 833.874 1118.81 833.838 1119.35 833.764" stroke="#4C93AA" stroke-width="0.75" stroke-linecap="round" stroke-linejoin="round"/>
<path d="M1246.76 851.941C1256.68 851.941 1265.62 845.122 1267.91 835.088L1283.77 765.415C1286.43 753.763 1279.09 742.166 1267.4 739.52C1255.7 736.873 1244.06 744.17 1241.41 755.84L1225.55 825.512C1222.89 837.164 1230.23 848.761 1241.92 851.408C1243.55 851.775 1245.15 851.941 1246.76 851.941Z" fill="#81B571"/>
<path d="M1161.27 816.195H1230.27C1235.34 810.332 1243.44 807.373 1251.53 809.211C1263.23 811.858 1270.55 823.454 1267.89 835.106C1264.63 849.46 1252.03 859.476 1237.26 859.476H1161.27V816.195Z" fill="#81B571"/>
<path d="M1227.69 816.194L1237.81 771.682" stroke="#59955D" stroke-width="0.75" stroke-linecap="round" stroke-linejoin="round"/>
<path d="M1279.53 784.033L1267.91 835.089C1267.84 835.419 1267.73 835.75 1267.64 836.081C1264.02 849.883 1251.7 859.458 1237.28 859.458H1162.86" stroke="#59955D" stroke-width="0.75" stroke-linecap="round" stroke-linejoin="round"/>
<path d="M1162.86 816.194H1240.45" stroke="#59955D" stroke-width="0.75" stroke-linecap="round" stroke-linejoin="round"/>
<path d="M1227.98 814.871L1228.77 811.416L1239.29 816.194L1229.03 816.415C1226.54 816.231 1227.98 814.871 1227.98 814.871Z" fill="#59955D"/>
<path d="M1234.33 722.08L1239.07 729.45C1240.78 732.115 1240.65 735.551 1238.73 738.069L1218.85 764.222L1222.52 770.287C1224.11 772.896 1223.65 776.26 1221.42 778.355L1196.76 801.622" stroke="#59955D" stroke-width="0.75" stroke-linecap="round" stroke-linejoin="round"/>
<path d="M1168.96 730.202L1180.91 760.343L1175.8 765.14C1173.61 767.198 1173.15 770.524 1174.7 773.097L1192.26 802.356" stroke="#59955D" stroke-width="0.75" stroke-linecap="round" stroke-linejoin="round"/>
<path d="M1181.43 691.957L1199.69 695.964C1200.3 696.093 1200.81 696.515 1201.09 697.067L1206.11 704.308C1206.66 705.466 1206.37 706.844 1205.41 707.689C1201.74 710.924 1197.16 713.221 1192.09 714.251C1191.04 714.471 1189.95 714.581 1188.88 714.581C1182.83 714.581 1175.16 711.586 1173.22 703.058C1172.83 701.386 1172.39 699.713 1172.21 698.004C1172.13 697.25 1172.5 696.515 1173.13 696.111L1178.85 692.417C1179.6 691.921 1180.54 691.755 1181.43 691.939V691.957Z" fill="white"/>
<path d="M1199.3 697.673L1181.04 693.667C1180.93 693.648 1180.8 693.63 1180.69 693.63C1180.38 693.63 1180.06 693.722 1179.79 693.887L1174.07 697.581" stroke="#D8D8D8" stroke-width="0.35" stroke-linecap="round" stroke-linejoin="round"/>
<path d="M1394.29 899.817C1394.49 899.817 1394.71 899.817 1394.93 899.817C1406.37 899.468 1415.33 889.967 1415 878.572L1413.52 830.218C1413.1 816.012 1407.44 802.504 1397.63 792.193L1393.03 787.378C1385.16 779.126 1372.06 778.777 1363.76 786.625C1355.48 794.472 1355.13 807.521 1363.01 815.791L1367.6 820.606C1370.4 823.547 1372.03 827.425 1372.16 831.486L1373.63 879.84C1373.96 891.014 1383.17 899.836 1394.31 899.836L1394.29 899.817Z" fill="#DCE651"/>
<path d="M1262.36 914.373C1264.02 914.373 1265.68 914.226 1267.36 913.895C1277.15 912.021 1284.94 904.927 1287.68 895.37L1308.93 821.25C1312.23 809.763 1305.54 797.78 1294.01 794.509C1282.48 791.219 1270.46 797.872 1267.17 809.377L1249.38 871.478C1248.05 872.121 1246.78 872.893 1245.56 873.83C1236.06 881.127 1234.29 894.708 1241.61 904.173C1246.66 910.697 1254.3 914.392 1262.36 914.392V914.373Z" fill="#DCE651"/>
<path d="M1232.61 871.938V829.373C1237.24 830.494 1241.52 833.122 1244.65 837.184L1276.01 877.763C1283.33 887.228 1281.56 900.81 1272.04 908.106C1268.1 911.139 1263.43 912.609 1258.82 912.609C1252.31 912.609 1245.87 909.705 1241.59 904.173L1216.69 871.938H1232.59H1232.61Z" fill="#DCE651"/>
<path d="M1272.1 872.691L1255.59 851.335" stroke="#BDC642" stroke-width="0.75" stroke-linecap="round" stroke-linejoin="round"/>
<path d="M1219.85 826.598C1222.25 830.2 1226.41 831.652 1229.14 829.833C1231.87 828.013 1232.15 823.639 1229.73 820.037C1227.34 816.435 1223.17 814.983 1220.44 816.803C1217.71 818.604 1217.43 822.996 1219.85 826.598Z" fill="#4C93AA"/>
<path d="M1228.65 850.767L1225.86 856.942C1224.53 859.882 1220.77 860.801 1218.22 858.798L1211.53 853.523L1228.65 850.785V850.767Z" fill="#4C93AA"/>
<path d="M1204.32 890.207L1226.73 844.702V808.294H1243.79V844.702L1266.34 890.519C1266.45 890.832 1266.53 891.162 1266.53 891.475C1266.53 896.437 1252.53 900.462 1235.27 900.462C1218 900.462 1204 896.437 1204 891.475C1204 891.052 1204.15 890.629 1204.34 890.225L1204.32 890.207Z" fill="white"/>
<path d="M1210.75 885.079L1229.88 846.227C1230.12 845.749 1230.23 845.216 1230.23 844.683V807.43H1240.26V844.683C1240.26 845.216 1240.39 845.749 1240.61 846.227L1259.72 885.06C1261.64 888.938 1259.52 893.625 1255.33 894.727C1250.7 895.94 1244.03 896.933 1235.23 896.933C1226.43 896.933 1219.77 895.94 1215.14 894.727C1210.94 893.625 1208.84 888.956 1210.74 885.06L1210.75 885.079Z" fill="#DFF2E9"/>
<path d="M1222.54 861.132H1247.96L1261.49 888.644C1262.36 890.39 1261.59 892.522 1259.78 893.276C1255.59 895.022 1247.42 896.951 1235.23 896.951C1223.04 896.951 1214.89 895.04 1210.7 893.294C1208.89 892.541 1208.12 890.427 1208.98 888.663L1222.52 861.15L1222.54 861.132Z" fill="#9AD1B8"/>
<path d="M1205.41 888.754C1209.39 885.097 1221.23 882.45 1235.23 882.45C1249.23 882.45 1261.07 885.097 1265.05 888.754" stroke="white" stroke-width="0.5" stroke-linecap="round" stroke-linejoin="round"/>
<path d="M1222.69 860.948C1222.69 862.951 1228.31 864.568 1235.25 864.568C1242.18 864.568 1247.81 862.951 1247.81 860.948C1247.81 858.944 1242.18 857.327 1235.25 857.327C1228.31 857.327 1222.69 858.944 1222.69 860.948Z" fill="#AAE2C6"/>
<path d="M1222.69 860.948C1222.69 862.951 1228.31 864.569 1235.25 864.569C1242.18 864.569 1247.81 862.951 1247.81 860.948" stroke="white" stroke-width="0.5" stroke-linecap="round" stroke-linejoin="round"/>
<path d="M1235.25 810.756C1230.53 810.756 1226.71 809.654 1226.71 808.294C1226.71 806.934 1230.53 805.831 1235.25 805.831C1239.96 805.831 1243.79 806.934 1243.79 808.294C1243.79 809.654 1239.96 810.756 1235.25 810.756Z" fill="#DFF2E9"/>
<path d="M1235.25 806.75C1230.88 806.75 1228.07 807.724 1227.65 808.294C1228.05 808.863 1230.86 809.838 1235.25 809.838C1239.64 809.838 1242.42 808.863 1242.85 808.294C1242.44 807.724 1239.64 806.75 1235.25 806.75ZM1235.25 805.831C1239.97 805.831 1243.79 806.934 1243.79 808.294C1243.79 809.654 1239.97 810.756 1235.25 810.756C1230.53 810.756 1226.71 809.654 1226.71 808.294C1226.71 806.934 1230.53 805.831 1235.25 805.831Z" fill="white"/>
<path d="M1230.47 835.254C1232.28 835.254 1233.9 833.968 1234.27 832.13C1234.68 830.035 1233.31 828.013 1231.21 827.591L1217.65 824.944C1215.55 824.54 1213.52 825.9 1213.1 827.995C1212.67 830.09 1214.06 832.112 1216.16 832.534L1229.71 835.181C1229.97 835.236 1230.21 835.254 1230.47 835.254Z" fill="#62ADB5"/>
<path d="M1227.58 842.551C1229.38 842.551 1231.01 841.265 1231.37 839.427C1231.78 837.332 1230.42 835.31 1228.31 834.887L1213.61 832.02C1211.51 831.616 1209.48 832.976 1209.06 835.071C1208.65 837.166 1210.02 839.188 1212.12 839.611L1226.82 842.478C1227.08 842.533 1227.32 842.551 1227.58 842.551Z" fill="#62ADB5"/>
<path d="M1231.37 839.426C1231.78 837.331 1230.42 835.309 1228.31 834.887L1213.61 832.02" stroke="#4C93AA" stroke-width="0.75" stroke-linecap="round" stroke-linejoin="round"/>
<path d="M1225.47 849.093C1227.28 849.093 1228.9 847.806 1229.27 845.969C1229.68 843.873 1228.31 841.852 1226.21 841.429L1212.27 838.709C1210.16 838.286 1208.14 839.665 1207.71 841.76C1207.31 843.855 1208.67 845.877 1210.77 846.299L1224.72 849.019C1224.97 849.075 1225.21 849.093 1225.47 849.093Z" fill="#62ADB5"/>
<path d="M1223.79 856.261C1225.6 856.261 1227.22 854.975 1227.59 853.137C1228 851.042 1226.63 849.02 1224.53 848.598L1213.95 846.539C1211.84 846.116 1209.81 847.495 1209.39 849.59C1208.98 851.685 1210.35 853.707 1212.45 854.129L1223.04 856.188C1223.3 856.243 1223.54 856.261 1223.79 856.261Z" fill="#62ADB5"/>
<path d="M1226.54 849.682C1226.01 849.149 1225.33 848.781 1224.55 848.616L1213.96 846.558" stroke="#4C93AA" stroke-width="0.75" stroke-linecap="round" stroke-linejoin="round"/>
<path d="M1228.37 842.643C1227.83 842.036 1227.1 841.595 1226.23 841.43L1212.29 838.71" stroke="#4C93AA" stroke-width="0.75" stroke-linecap="round" stroke-linejoin="round"/>
<path d="M1297.44 753.207L1325.41 755.729L1320.66 808.041L1292.69 805.519L1297.44 753.207Z" fill="#282B38"/>
<path d="M1339.36 724.542H1348.57L1361.75 783.371L1332.06 784.162" fill="#282B38"/>
<path d="M1272.1 813.623C1271.56 808.109 1273.3 802.706 1276.76 798.552L1276.23 797.174L1287.65 789.786L1302.83 778.557L1342.3 771.536L1383.09 781.13C1390.38 782.839 1395.14 789.841 1394.01 797.211L1379.4 894.12C1378.72 898.697 1378.65 903.346 1379.24 907.959L1389.27 943H1274.02L1278.41 917.516C1279.66 904.559 1279.64 891.511 1278.41 878.554L1272.12 813.623H1272.1Z" fill="#DCE651"/>
<path d="M1355.35 779.604L1360.54 787.672C1362.42 790.575 1362.27 794.343 1360.17 797.1L1338.4 825.715L1342.42 832.35C1344.16 835.198 1343.66 838.874 1341.23 841.171L1314.24 866.625" stroke="#BDC642" stroke-width="0.75" stroke-linecap="round" stroke-linejoin="round"/>
<path d="M1284.97 795.869L1296.92 826.01L1291.81 830.807C1289.62 832.865 1289.16 836.191 1290.71 838.764L1308.26 868.023C1308.76 868.85 1309.04 869.806 1309.04 870.78L1309.04 933" stroke="#BDC642" stroke-width="0.75" stroke-linecap="round" stroke-linejoin="round"/>
<path d="M1305.14 743.048L1334.82 739.307L1340.5 784.069L1310.82 787.81L1305.14 743.048Z" fill="#FAC5BC"/>
<path d="M1326.88 742.351C1326.54 741.285 1326.42 740.091 1326.62 738.823C1327.3 734.577 1331.01 731.159 1334.92 731.196C1338.83 731.232 1341.43 734.724 1340.75 738.97C1340.38 741.23 1339.16 743.252 1337.5 744.649L1335.69 746.597C1335.6 746.707 1335.51 746.799 1335.42 746.891L1335.3 747.019C1334.14 748.141 1332.67 748.839 1331.12 748.821C1328.19 748.784 1326.21 746.156 1326.73 742.958C1326.77 742.737 1326.84 742.535 1326.89 742.333L1326.88 742.351Z" fill="#DC8781"/>
<path d="M1332.19 743.4C1332.19 743.4 1330.09 763.322 1341.65 771.537L1342.39 732.759" fill="#282B38"/>
<path d="M1327.48 751.467C1327.41 751.577 1321.97 762.163 1318.5 768.945C1316.75 772.345 1313.25 774.477 1309.43 774.477L1309.11 774.201L1306.16 750.897L1319.33 742.627C1319.65 742.7 1327.63 751.302 1327.5 751.467H1327.48Z" fill="#DC8781"/>
<path d="M1310.18 705.062C1311.24 705.062 1312.29 705.172 1313.3 705.356C1314.74 705.613 1316.18 705.686 1317.62 705.503C1319 705.319 1320.44 705.209 1321.9 705.209C1336.74 705.209 1348.79 714.857 1348.79 726.767C1348.79 736.838 1338.07 738.621 1330.34 745.494C1326.65 751.044 1319.11 756.687 1312.55 756.668C1300.65 756.632 1290.49 745.053 1289.82 730.791C1289.16 716.53 1298.29 705.025 1310.18 705.062Z" fill="#282B38"/>
<path d="M1327.63 713.975C1327.63 713.975 1327.82 714.379 1328.09 715.096C1326.8 714.232 1325.4 713.479 1323.93 712.891L1327.61 713.993L1327.63 713.975Z" fill="#FAC5BC"/>
<path d="M1319.3 711.512L1319.5 711.567C1319.13 711.493 1318.76 711.457 1318.39 711.401L1319.3 711.512Z" fill="#FAC5BC"/>
<path d="M1315.09 711.144C1315.75 711.144 1316.4 711.181 1317.05 711.236L1319.09 711.475C1319.24 711.512 1319.37 711.53 1319.52 711.567L1323.94 712.872C1325.42 713.478 1326.8 714.214 1328.11 715.077C1329.62 718.845 1334.12 731.544 1331.28 743.013C1331.16 743.509 1331.03 743.987 1330.88 744.446C1328 753.874 1319.96 760.601 1310.48 762.53C1304.15 763.817 1297.57 760.876 1294.99 754.977C1294.84 754.664 1293.12 749.114 1293.12 749.114C1291.98 745.291 1291.7 741.267 1292.31 737.334C1292.35 737.076 1292.37 736.801 1292.35 736.543L1291.96 731.673C1293.29 720.113 1303.14 711.126 1315.11 711.126L1315.09 711.144Z" fill="#FAC5BC"/>
<path d="M1293.51 731.729L1293.88 736.452C1293.92 736.819 1293.88 737.205 1293.82 737.61C1293.25 741.304 1293.51 745.126 1294.58 748.692C1294.89 749.666 1295.21 750.695 1295.48 751.614H1293.86C1293.46 750.328 1293.09 749.151 1293.09 749.151C1291.94 745.329 1291.67 741.304 1292.28 737.371C1292.31 737.113 1292.33 736.838 1292.31 736.58L1291.93 731.71C1293.25 720.187 1303.03 711.237 1314.92 711.163V712.707C1303.99 712.78 1294.8 720.922 1293.49 731.729H1293.51Z" fill="#F5ABA2"/>
<path d="M1306.75 723.072C1310.41 730.718 1319.89 736.875 1327.96 736.82C1336.02 736.764 1339.62 730.516 1335.97 722.852C1332.32 715.207 1322.84 709.05 1314.76 709.105C1306.7 709.16 1303.1 715.409 1306.75 723.072Z" fill="#282B38"/>
<path d="M1308.19 735.865C1308.19 737.592 1309.23 738.989 1310.5 738.989C1311.77 738.989 1312.8 737.592 1312.8 735.865C1312.8 734.137 1311.77 732.74 1310.5 732.74C1309.23 732.74 1308.19 734.137 1308.19 735.865Z" fill="#232027"/>
<path d="M1293.62 736.121C1293.62 737.849 1294.42 739.246 1295.39 739.246C1296.37 739.246 1297.16 737.849 1297.16 736.121C1297.16 734.394 1296.37 732.997 1295.39 732.997C1294.42 732.997 1293.62 734.394 1293.62 736.121Z" fill="#232027"/>
<path d="M1315.68 786.773L1340.36 780.745L1312.99 863.816C1312.4 865.598 1309.78 865.304 1309.61 863.43L1302.83 786.222L1315.68 786.773Z" fill="#F2F2F2"/>
<path d="M1337.89 762.666L1315.67 786.775L1327.56 797.652L1346.68 776.9C1348.39 775.045 1348.27 772.163 1346.41 770.46L1337.89 762.666Z" fill="white"/>
<path d="M1304.67 797.652L1298.1 782.582C1297.64 781.534 1297.74 780.321 1298.36 779.347L1304.84 769.11L1316.57 786.772L1304.67 797.652Z" fill="white"/>
<path d="M1300.52 731.857C1300.67 733.824 1300.19 736.709 1297.72 739.227C1296.98 739.981 1297.02 741.12 1297.62 741.837C1297.83 742.076 1298.12 742.278 1298.45 742.407L1301.28 743.399" stroke="#DC8781" stroke-linecap="round" stroke-linejoin="round"/>
<path d="M1301.28 713.387L1304.21 709.196L1312.07 708.682C1312.07 708.682 1315.09 711.163 1308.76 716.125C1304.87 719.176 1305.17 724.175 1305.98 727.575C1306.31 728.935 1304.76 729.964 1303.64 729.137C1294.77 722.612 1301.22 713.46 1301.29 713.387H1301.28Z" fill="#282B38"/>
<path d="M1300.08 738.399L1318.34 742.406C1318.95 742.534 1319.46 742.957 1319.74 743.508L1324.76 753.892C1325.31 755.05 1325.01 756.428 1324.05 757.274C1320.38 760.508 1315.81 762.806 1310.74 763.835C1309.69 764.055 1308.6 764.166 1307.53 764.166C1301.48 764.166 1296.08 760.784 1293.77 755.528C1293.62 755.215 1292.64 752.091 1291.85 749.518C1291.35 747.882 1291.02 746.173 1290.84 744.464C1290.76 743.71 1291.13 742.975 1291.76 742.571L1297.48 738.877C1298.23 738.381 1299.17 738.215 1300.06 738.399H1300.08Z" fill="white"/>
<path d="M1317.95 744.115L1299.69 740.108C1299.58 740.09 1299.45 740.071 1299.34 740.071C1299.03 740.071 1298.71 740.163 1298.44 740.329L1292.72 744.023" stroke="#D8D8D8" stroke-width="0.35" stroke-linecap="round" stroke-linejoin="round"/>
<path d="M1331.62 745.09L1323.94 756.301" stroke="white" stroke-width="0.75" stroke-linecap="round" stroke-linejoin="round"/>
<path d="M1326.27 732.243L1318.6 743.454" stroke="white" stroke-width="0.75" stroke-linecap="round" stroke-linejoin="round"/>
<path d="M1325.35 739.172C1325.01 738.124 1324.9 736.948 1325.09 735.698C1325.75 731.527 1329.4 728.163 1333.24 728.218C1337.08 728.255 1339.64 731.674 1338.98 735.864C1338.62 738.088 1337.41 740.073 1335.78 741.451L1334.01 743.381C1333.92 743.491 1333.83 743.583 1333.74 743.675L1333.63 743.803C1332.5 744.906 1331.03 745.604 1329.51 745.586C1326.62 745.549 1324.7 742.976 1325.2 739.834C1325.23 739.613 1325.31 739.411 1325.36 739.209L1325.35 739.172Z" fill="#FAC5BC"/>
<path d="M1328.19 742.02C1327.85 742.02 1327.56 741.818 1327.45 741.487C1326.73 739.263 1327.39 736.157 1327.43 736.029C1327.91 733.033 1330.51 730.57 1333.22 730.57C1334.27 730.57 1335.18 730.993 1335.82 731.747C1336.6 732.665 1336.91 734.025 1336.67 735.477C1336.6 735.9 1336.19 736.176 1335.78 736.121C1335.36 736.047 1335.08 735.661 1335.14 735.238C1335.31 734.228 1335.12 733.327 1334.62 732.739C1334.27 732.335 1333.81 732.114 1333.2 732.114C1331.27 732.114 1329.31 734.044 1328.94 736.323C1328.94 736.396 1328.31 739.208 1328.91 741.028C1329.03 741.432 1328.81 741.873 1328.41 742.002C1328.33 742.02 1328.24 742.038 1328.17 742.038L1328.19 742.02Z" fill="#DC8781"/>
<path d="M1331.8 740.807C1331.45 740.807 1331.12 740.568 1331.04 740.2C1330.56 737.977 1328.48 737.168 1328.39 737.131C1327.98 736.984 1327.8 736.543 1327.95 736.139C1328.09 735.734 1328.54 735.551 1328.94 735.679C1329.07 735.716 1331.91 736.819 1332.58 739.87C1332.67 740.292 1332.39 740.697 1331.99 740.788C1331.93 740.788 1331.87 740.788 1331.82 740.788L1331.8 740.807Z" fill="#DC8781"/>
<path d="M1319.02 730.864L1319.22 733.75C1319.22 733.75 1323.22 743.619 1320.49 747.901C1323.04 747.901 1325.25 746.155 1325.82 743.692C1326.69 739.888 1327.67 734.411 1326.89 731.195" fill="#282B38"/>
<path d="M1371.9 823.622L1373.61 879.823" stroke="#BDC642" stroke-width="0.75" stroke-linecap="round" stroke-linejoin="round"/>
<path d="M1278.39 917.516C1279.64 904.56 1279.62 891.511 1278.39 878.554L1272.1 813.623" stroke="#BDC642" stroke-width="0.75" stroke-linecap="round" stroke-linejoin="round"/>
<path d="M1382.26 862.399C1385.49 860.101 1389.4 858.704 1393.66 858.576C1405.13 858.227 1414.63 867.195 1415 878.572C1415.35 890.297 1409.04 900.828 1398.51 906.066C1394.21 908.198 1389.64 909.245 1385.1 909.245C1378.5 909.245 1371.99 907.021 1366.53 902.684L1322.39 867.526C1328.78 856.738 1333.24 844.627 1340.95 834.427C1342.22 832.736 1344.66 832.442 1346.32 833.747L1382.26 862.399Z" fill="#DCE651"/>
<path d="M1376.42 907.94C1372.89 906.856 1369.55 905.092 1366.53 902.684L1322.39 867.526C1328.78 856.738 1333.24 844.627 1340.95 834.427C1342.22 832.736 1344.66 832.442 1346.32 833.747L1382.26 862.399" stroke="#BDC642" stroke-width="0.75" stroke-linecap="round" stroke-linejoin="round"/>
<path d="M1322.17 842.145C1315.61 851.39 1315.5 862.582 1321.93 867.122C1328.37 871.661 1338.94 867.857 1345.5 858.612C1352.07 849.368 1352.18 838.176 1345.74 833.636C1339.31 829.097 1328.74 832.901 1322.17 842.145Z" fill="#BDC642"/>
<path d="M1345.74 833.636C1339.31 829.097 1328.74 832.901 1322.17 842.145C1315.61 851.39 1315.5 862.582 1321.93 867.122" stroke="#BDC642" stroke-width="0.75" stroke-linecap="round" stroke-linejoin="round"/>
<path d="M1309.35 808.091C1315.29 803.882 1323.52 805.242 1327.76 811.16C1327.76 811.16 1341.37 830.182 1350.47 842.881C1350.82 847.751 1349.17 853.467 1345.52 858.613C1342 863.575 1337.32 866.957 1332.76 868.335L1305.87 825.807C1302.18 819.963 1303.66 812.152 1309.37 808.091H1309.35Z" fill="#FAC5BC"/>
<path d="M1350.47 842.881C1350.82 847.751 1349.17 853.467 1345.52 858.613C1342 863.575 1337.32 866.957 1332.76 868.335L1328.96 862.325C1334.35 863.079 1348.73 859.293 1350.48 842.899L1350.47 842.881Z" fill="#DC8781"/>
<path d="M1306.13 810.645L1305.44 800.169L1318.04 797.651L1321.93 802.172L1324.64 806.675L1324.2 807.3C1325.71 808.237 1327.04 809.45 1328.09 810.921L1338.26 825.127C1338.39 825.311 1338.42 825.531 1338.39 825.734C1336.49 833.342 1329.22 840.492 1320.51 842.679C1319.24 842.991 1318 843.193 1316.82 843.267C1316.55 843.285 1316.29 843.156 1316.14 842.917L1305.46 826.028C1302.38 821.139 1302.81 815.019 1306.11 810.627L1306.13 810.645Z" fill="#62ADB5"/>
<path d="M1318.89 800.151C1319.81 800.151 1320.75 799.821 1321.49 799.141C1323.08 797.707 1323.19 795.263 1321.75 793.682L1313.1 784.199C1311.83 782.82 1310.2 781.81 1308.4 781.313L1298.2 778.446C1296.13 777.858 1293.99 779.071 1293.42 781.111C1292.83 783.17 1294.05 785.302 1296.09 785.871L1306.29 788.738C1306.7 788.849 1307.07 789.088 1307.34 789.4L1315.99 798.883C1316.77 799.729 1317.8 800.151 1318.87 800.151H1318.89Z" fill="#62ADB5"/>
<path d="M1332.04 825.515C1332.52 825.515 1333.02 825.423 1333.5 825.22C1335.47 824.412 1335.78 824.651 1334.97 822.666L1326.71 798.37C1325.9 796.385 1323.63 795.447 1321.66 796.256C1319.68 797.065 1318.72 799.307 1319.54 801.292L1328.44 823.089C1329.05 824.596 1330.51 825.496 1332.04 825.496V825.515Z" fill="#62ADB5"/>
<path d="M1322.82 832.498C1323.06 832.498 1323.22 832.498 1323.37 832.48C1325.31 832.278 1326.77 830.715 1326.8 828.786C1326.86 826.341 1324.85 824.651 1322.69 824.779C1322.23 824.779 1320.35 824.651 1312.64 823.952C1311.31 823.824 1310.18 822.905 1309.83 821.636L1306.92 811.381C1306.33 809.305 1304.15 808.147 1302.09 808.735C1300.08 809.305 1300.04 808.716 1300.61 810.738L1302.18 822.28C1302.38 823.713 1302.77 825.128 1303.51 826.36C1305.28 829.319 1308.34 831.304 1311.92 831.634C1319.19 832.296 1321.71 832.498 1322.84 832.498H1322.82Z" fill="#62ADB5"/>
<path d="M1282.83 808.606C1282.3 809.874 1283.94 811.785 1286.5 812.851C1289.07 813.917 1291.58 813.752 1292.11 812.483C1292.64 811.215 1291 809.304 1288.44 808.238C1285.88 807.172 1283.37 807.337 1282.83 808.606Z" fill="#77B49D"/>
<path d="M1282.83 808.604C1282.3 809.873 1283.94 811.784 1286.5 812.85C1289.07 813.916 1291.57 813.75 1292.11 812.482" stroke="#77B49D" stroke-linecap="round" stroke-linejoin="round"/>
<path d="M1264.52 869.474L1265.61 866.533C1265.9 865.725 1266.05 864.842 1265.83 864.015C1265.72 863.593 1265.72 863.152 1265.88 862.71L1295.32 783.077C1295.72 781.956 1296.98 781.386 1298.09 781.809C1299.21 782.213 1299.78 783.444 1299.36 784.565L1269.92 864.199C1269.79 864.567 1269.55 864.879 1269.28 865.118C1268.59 865.669 1268 866.294 1267.71 867.103L1266.55 870.227C1266.4 870.613 1266.05 870.87 1265.66 870.926C1265.5 870.944 1265.33 870.926 1265.16 870.87C1264.61 870.668 1264.32 870.043 1264.52 869.492V869.474Z" fill="white"/>
<path d="M1296.46 783.5C1296.59 783.169 1296.87 782.949 1297.22 782.894C1297.37 782.875 1297.51 782.894 1297.66 782.949C1297.9 783.041 1298.09 783.206 1298.18 783.427C1298.29 783.647 1298.29 783.904 1298.21 784.143L1268.83 863.593L1267.14 862.785L1296.46 783.482V783.5Z" fill="#DFF2E9"/>
<path d="M1288.44 808.237C1285.88 807.171 1283.37 807.337 1282.83 808.605C1282.83 808.605 1282.83 808.623 1282.83 808.642L1292.64 782.103C1293.29 780.339 1294.86 779.107 1296.72 778.868C1297.51 778.777 1298.33 778.868 1299.08 779.144C1300.34 779.604 1301.33 780.523 1301.9 781.735C1302.46 782.948 1302.51 784.308 1302.05 785.558L1292.18 812.244C1292.44 810.976 1290.87 809.248 1288.48 808.237H1288.44Z" fill="#9AD1B8"/>
<path d="M1292.11 812.483C1292.64 811.215 1291 809.304 1288.44 808.238C1285.88 807.172 1283.37 807.337 1282.83 808.606" stroke="#77B49D" stroke-linecap="round" stroke-linejoin="round"/>
<path d="M1294.73 794.656L1304.65 791.164C1306.9 790.374 1309.32 790.227 1311.64 790.742L1319.7 792.506C1322.86 793.204 1325.47 795.391 1326.69 798.369C1327.5 800.354 1326.54 802.596 1324.57 803.404C1324.09 803.607 1323.59 803.698 1323.11 803.698C1321.58 803.698 1320.13 802.798 1319.52 801.291C1319.26 800.666 1318.71 800.207 1318.04 800.06L1309.98 798.295C1309.06 798.093 1308.1 798.148 1307.22 798.461L1297.29 801.953C1296.87 802.1 1296.43 802.173 1296 802.173C1294.4 802.173 1292.9 801.181 1292.35 799.6C1291.63 797.578 1292.7 795.373 1294.71 794.675L1294.73 794.656Z" fill="#62ADB5"/>
<path d="M1292.68 809.396C1293 809.396 1293.33 809.359 1293.64 809.267L1307.9 805.628C1308.67 805.426 1309.5 805.407 1310.3 805.591L1315.94 806.841C1318.02 807.3 1320.11 805.996 1320.57 803.9C1321.03 801.824 1319.72 799.747 1317.62 799.287L1311.97 798.038C1310 797.597 1307.93 797.633 1305.96 798.13L1291.7 801.768C1289.64 802.301 1288.38 804.397 1288.92 806.473C1289.36 808.219 1290.95 809.377 1292.66 809.377L1292.68 809.396Z" fill="#62ADB5"/>
<path d="M1297.14 814.377C1297.37 814.377 1297.59 814.358 1297.81 814.321L1305.02 813.072C1306 812.906 1306.99 812.906 1307.97 813.072L1313.04 814.009C1315.15 814.395 1317.17 813.017 1317.56 810.903C1317.95 808.808 1316.57 806.786 1314.45 806.4L1309.37 805.463C1307.49 805.114 1305.57 805.114 1303.69 805.426L1296.48 806.676C1294.38 807.044 1292.96 809.047 1293.33 811.142C1293.66 813.017 1295.3 814.34 1297.14 814.34V814.377Z" fill="#62ADB5"/>
<path d="M1300.58 813.844L1305.02 813.072C1306 812.907 1306.99 812.907 1307.97 813.072L1313.04 814.01" stroke="#4C93AA" stroke-width="0.75" stroke-linecap="round" stroke-linejoin="round"/>
<path d="M1317.65 799.287L1312.01 798.038C1310.04 797.597 1307.97 797.633 1306 798.13L1291.74 801.768" stroke="#4C93AA" stroke-width="0.75" stroke-linecap="round" stroke-linejoin="round"/>
<path d="M1314.45 806.419L1309.37 805.482C1307.49 805.132 1305.57 805.132 1303.69 805.445L1296.48 806.695C1295.43 806.878 1294.54 807.466 1293.97 808.275" stroke="#4C93AA" stroke-width="0.75" stroke-linecap="round" stroke-linejoin="round"/>
<path d="M1308.76 790.448C1309.74 790.448 1310.7 790.54 1311.66 790.742L1319.72 792.507" stroke="#4C93AA" stroke-width="0.75" stroke-linecap="round" stroke-linejoin="round"/>
<path d="M1321.95 867.122C1328.39 871.662 1338.96 867.857 1345.52 858.613C1352.09 849.369 1352.2 838.176 1345.76 833.637" stroke="#BDC642" stroke-width="0.75" stroke-linecap="round" stroke-linejoin="round"/>
<g opacity="0.3" clip-path="url(#clip3_1218_6118)">
<path d="M1389.56 677.059C1379.17 668.897 1379.23 662.713 1379 657.994C1378.77 653.276 1378.83 647.092 1368.44 638.93" stroke="url(#paint13_linear_1218_6118)" stroke-width="2" stroke-linejoin="round"/>
<path d="M1400.26 663.928C1389.86 655.766 1383.73 657.184 1379 658.006C1374.26 658.828 1368.14 660.246 1357.74 652.084" stroke="url(#paint14_linear_1218_6118)" stroke-width="2" stroke-linejoin="round"/>
<path d="M1370.32 640.765L1359.9 653.562" stroke="url(#paint15_linear_1218_6118)" stroke-width="2" stroke-linejoin="round"/>
<path d="M1375.79 647.258L1367.35 657.636" stroke="url(#paint16_linear_1218_6118)" stroke-width="2" stroke-linejoin="round"/>
<path d="M1389.86 657.887L1381.7 667.908" stroke="url(#paint17_linear_1218_6118)" stroke-width="2" stroke-linejoin="round"/>
<path d="M1397.29 661.962L1386.89 674.747" stroke="url(#paint18_linear_1218_6118)" stroke-width="2" stroke-linejoin="round"/>
</g>
</g>
<defs>
<linearGradient id="paint0_linear_1218_6118" x1="1366.38" y1="161.348" x2="1510.64" y2="1020.89" gradientUnits="userSpaceOnUse">
<stop stop-color="#44D157"/>
<stop offset="0.543269" stop-color="#ACD037"/>
<stop offset="0.985577" stop-color="#ACD037" stop-opacity="0"/>
</linearGradient>
<linearGradient id="paint1_linear_1218_6118" x1="1446.38" y1="161.348" x2="1590.64" y2="1020.89" gradientUnits="userSpaceOnUse">
<stop stop-color="#44D157"/>
<stop offset="0.543269" stop-color="#ACD037"/>
<stop offset="0.985577" stop-color="#ACD037" stop-opacity="0"/>
</linearGradient>
<linearGradient id="paint2_linear_1218_6118" x1="1080.49" y1="648.902" x2="1108" y2="669.052" gradientUnits="userSpaceOnUse">
<stop stop-color="#44D157"/>
<stop offset="1" stop-color="#ACD037"/>
</linearGradient>
<linearGradient id="paint3_linear_1218_6118" x1="1059.26" y1="637.769" x2="1074" y2="648.564" gradientUnits="userSpaceOnUse">
<stop stop-color="#44D157"/>
<stop offset="1" stop-color="#ACD037"/>
</linearGradient>
<linearGradient id="paint4_linear_1218_6118" x1="1422.69" y1="460.36" x2="1422.69" y2="580" gradientUnits="userSpaceOnUse">
<stop stop-color="#44D157"/>
<stop offset="1" stop-color="#ACD037"/>
</linearGradient>
<linearGradient id="paint5_linear_1218_6118" x1="1480.62" y1="420" x2="1480.62" y2="521.454" gradientUnits="userSpaceOnUse">
<stop stop-color="#44D157"/>
<stop offset="1" stop-color="#ACD037"/>
</linearGradient>
<linearGradient id="paint6_linear_1218_6118" x1="1572.51" y1="479.428" x2="1572.51" y2="560.943" gradientUnits="userSpaceOnUse">
<stop stop-color="#44D157"/>
<stop offset="1" stop-color="#ACD037"/>
</linearGradient>
<linearGradient id="paint7_linear_1218_6118" x1="992.992" y1="852.937" x2="992.992" y2="891.352" gradientUnits="userSpaceOnUse">
<stop stop-color="#44D157"/>
<stop offset="1" stop-color="#ACD037"/>
</linearGradient>
<linearGradient id="paint8_linear_1218_6118" x1="992.993" y1="866.189" x2="992.993" y2="878.122" gradientUnits="userSpaceOnUse">
<stop stop-color="#44D157"/>
<stop offset="1" stop-color="#ACD037"/>
</linearGradient>
<linearGradient id="paint9_linear_1218_6118" x1="1006.88" y1="854.785" x2="1006.88" y2="867.678" gradientUnits="userSpaceOnUse">
<stop stop-color="#44D157"/>
<stop offset="1" stop-color="#ACD037"/>
</linearGradient>
<linearGradient id="paint10_linear_1218_6118" x1="1000.42" y1="861.328" x2="1000.42" y2="871.784" gradientUnits="userSpaceOnUse">
<stop stop-color="#44D157"/>
<stop offset="1" stop-color="#ACD037"/>
</linearGradient>
<linearGradient id="paint11_linear_1218_6118" x1="986.215" y1="872.036" x2="986.215" y2="882.132" gradientUnits="userSpaceOnUse">
<stop stop-color="#44D157"/>
<stop offset="1" stop-color="#ACD037"/>
</linearGradient>
<linearGradient id="paint12_linear_1218_6118" x1="979.905" y1="876.142" x2="979.905" y2="889.023" gradientUnits="userSpaceOnUse">
<stop stop-color="#44D157"/>
<stop offset="1" stop-color="#ACD037"/>
</linearGradient>
<linearGradient id="paint13_linear_1218_6118" x1="1379" y1="638.93" x2="1379" y2="677.059" gradientUnits="userSpaceOnUse">
<stop stop-color="#44D157"/>
<stop offset="1" stop-color="#ACD037"/>
</linearGradient>
<linearGradient id="paint14_linear_1218_6118" x1="1379" y1="652.084" x2="1379" y2="663.928" gradientUnits="userSpaceOnUse">
<stop stop-color="#44D157"/>
<stop offset="1" stop-color="#ACD037"/>
</linearGradient>
<linearGradient id="paint15_linear_1218_6118" x1="1365.11" y1="640.765" x2="1365.11" y2="653.562" gradientUnits="userSpaceOnUse">
<stop stop-color="#44D157"/>
<stop offset="1" stop-color="#ACD037"/>
</linearGradient>
<linearGradient id="paint16_linear_1218_6118" x1="1371.57" y1="647.258" x2="1371.57" y2="657.636" gradientUnits="userSpaceOnUse">
<stop stop-color="#44D157"/>
<stop offset="1" stop-color="#ACD037"/>
</linearGradient>
<linearGradient id="paint17_linear_1218_6118" x1="1385.78" y1="657.887" x2="1385.78" y2="667.908" gradientUnits="userSpaceOnUse">
<stop stop-color="#44D157"/>
<stop offset="1" stop-color="#ACD037"/>
</linearGradient>
<linearGradient id="paint18_linear_1218_6118" x1="1392.09" y1="661.962" x2="1392.09" y2="674.747" gradientUnits="userSpaceOnUse">
<stop stop-color="#44D157"/>
<stop offset="1" stop-color="#ACD037"/>
</linearGradient>
<clipPath id="clip0_1218_6118">
<rect width="2000" height="965.22" fill="white" transform="translate(2 1075.45) rotate(-37.3532)"/>
</clipPath>
<clipPath id="clip1_1218_6118">
<rect width="267" height="160" fill="white" transform="translate(1353 420)"/>
</clipPath>
<clipPath id="clip2_1218_6118">
<rect width="43.9837" height="40.3" fill="white" transform="translate(971 852)"/>
</clipPath>
<clipPath id="clip3_1218_6118">
<rect width="44" height="40" fill="white" transform="matrix(-1 0 0 1 1401 638)"/>
</clipPath>
</defs>
</svg>
