<svg width="270" height="180" viewBox="0 0 270 180" fill="none" xmlns="http://www.w3.org/2000/svg">
<g clip-path="url(#clip0_1178_19034)">
<path d="M127.762 241.453C129.256 242.919 130.813 244.42 132.434 245.956C132.876 246.156 133.326 246.34 133.784 246.507L144.707 213.398L141.504 204.521L127.762 241.453ZM144.04 148.674C143.624 148.976 143.179 149.302 142.708 149.648L191.632 165.59L194.184 158.605L148.223 145.562C147.57 146.068 146.175 147.105 144.039 148.674H144.04Z" fill="#4B5160"/>
<path d="M141.504 204.521L138.301 195.652L155.599 180.376L144.707 213.397L133.784 246.507L127.774 264.73L152.71 271.998L191.632 165.589L142.709 149.647C140.591 151.196 137.91 153.149 134.665 155.505C128.824 159.745 123.723 163.687 119.362 167.333C114.096 171.381 109.623 176.145 105.944 181.627C103.922 184.642 102.574 187.945 101.9 191.533C101.048 196.079 100.839 200.63 101.274 205.186C101.397 206.473 101.722 207.714 102.247 208.908C104.862 214.856 108.301 220.304 112.563 225.251C114.422 227.409 116.314 229.536 118.241 231.634C121.068 234.722 124.242 237.995 127.762 241.452L141.504 204.52V204.521Z" fill="#5D6474"/>
<path d="M187.592 68.1025L182.531 79.0096C183.388 81.2642 184.264 83.5045 185.16 85.7321C187.786 85.3609 190.582 84.8241 193.55 84.1217L198.611 73.2147L187.592 68.1025Z" fill="#ECB49A"/>
<path d="M188.514 86.7725L186.758 89.6118L187.204 93.8418L197.1 83.4904L194.906 80.9222L186.416 83.7811L188.513 86.7725M180.913 92.055L183.557 88.2889L183.199 85.0615L186.354 83.7757L183.11 77.665L179.197 78.6237L180.913 92.055" fill="white"/>
<path d="M183.557 88.2896L180.913 92.0557L182.053 99.5373L187.206 93.8425L186.759 89.6125L183.557 88.2896H183.557Z" fill="#485987"/>
<path d="M186.416 83.7811L186.353 83.7764L183.198 85.0622L183.556 88.2895L186.758 89.6125L188.514 86.7732L186.416 83.7818V83.7811Z" fill="#535F7E"/>
<path d="M147.752 145.496L148.224 145.563L194.185 158.606L221.665 103.611C216.053 95.5222 207.865 88.8153 197.101 83.4909L187.206 93.8422L182.053 99.5371L180.913 92.0555L179.196 78.6241L169.894 64.4917C163.46 73.397 158.706 83.2103 155.636 93.9308C155.631 93.9531 155.625 93.9734 155.62 93.993C155.615 94.0126 155.61 94.0308 155.605 94.0484C151.274 109.244 148.657 126.392 147.753 145.496" fill="#6969F3"/>
<path d="M198.902 87.345L179.402 105.614L175.545 80.6841" stroke="#4949D3" stroke-width="1.08165" stroke-linecap="round" stroke-linejoin="round"/>
<path d="M168.992 -26.3403C168.887 -26.2828 168.784 -26.222 168.682 -26.1571C168.312 -26.7053 167.751 -26.9859 166.997 -26.9994C165.572 -27.0244 164.157 -26.2598 162.754 -24.7056C162.694 -24.6428 162.633 -24.5772 162.573 -24.5096L162.632 -24.7225L162.116 -24.7908C161.922 -24.7942 161.705 -24.7489 161.464 -24.6543C161.036 -24.398 160.625 -24.1297 160.231 -23.8484C160.159 -23.7835 159.649 -23.0967 158.702 -21.7879C158.435 -21.4228 158.185 -21.0213 157.954 -20.5819C157.255 -19.1784 156.734 -17.7108 156.392 -16.1802C156.019 -14.5368 155.674 -12.892 155.357 -11.2445C155.251 -10.6969 155.171 -10.146 155.117 -9.59028C155.016 -8.57015 154.668 -7.6636 154.073 -6.87129C152.747 -3.82848 151.622 -1.02498 150.698 1.53988C150.116 3.15491 149.614 4.67666 149.193 6.10511C148.102 9.78947 147.151 13.3758 146.342 16.8635C145.53 20.3511 144.918 24.1423 144.507 28.2383C144.477 28.5581 144.448 28.8752 144.421 29.1895C144.007 33.8467 143.845 38.5086 143.933 43.1772L166.457 36.2304C166.44 32.6643 166.66 27.1445 167.115 19.671C167.496 13.3366 168.04 7.89524 168.747 3.34691C169.147 0.785429 169.597 -1.49549 170.097 -3.49654C170.241 -4.40242 170.636 -6.11481 171.283 -8.63235C171.283 -8.63505 171.283 -8.63708 171.283 -8.63978C171.41 -9.12788 171.544 -9.64233 171.687 -10.1838C172.062 -10.7882 172.523 -11.521 173.07 -12.3836C173.872 -13.6431 174.427 -14.5774 174.733 -15.1878C175.166 -16.0497 175.388 -16.7589 175.398 -17.3153C175.406 -17.7486 175.23 -18.0535 174.871 -18.2293C174.678 -18.3239 174.463 -18.3733 174.227 -18.3773C174.127 -18.3793 174.025 -18.3746 173.925 -18.3638C174.613 -20.8442 174.985 -22.1881 175.04 -22.3963C175.07 -22.5755 175.087 -22.7391 175.089 -22.8864C175.099 -23.482 175.018 -23.9958 174.843 -24.4271C174.588 -25.0592 174.163 -25.381 173.57 -25.3911L172.904 -25.3141C172.853 -25.4925 172.789 -25.6582 172.71 -25.8123C172.345 -26.5424 171.724 -26.9156 170.845 -26.9305C170.343 -26.9392 169.725 -26.7418 168.992 -26.3382M171.678 -24.2804C171.688 -24.2851 171.702 -24.2885 171.719 -24.2906C171.701 -24.2885 171.688 -24.2851 171.678 -24.2804ZM169.563 -15.223C165.735 -15.4427 163.829 -13.4464 163.844 -9.23536C163.844 -9.13666 163.856 -9.03661 163.879 -8.93588C163.856 -9.03729 163.844 -9.13734 163.844 -9.23536C163.828 -13.4464 165.734 -15.4427 169.563 -15.223ZM164.945 -21.602C165.395 -22.3821 165.951 -23.0953 166.615 -23.7409C167.134 -24.2513 167.663 -24.6705 168.203 -24.999C167.663 -24.6712 167.134 -24.252 166.615 -23.7409C165.951 -23.0953 165.395 -22.3821 164.945 -21.602C164.438 -20.7245 164.102 -19.8267 163.938 -18.908C164.102 -19.8261 164.438 -20.7238 164.945 -21.602Z" fill="#F6DFD0"/>
<path d="M143.932 43.1766C143.937 43.4821 143.944 43.7897 143.953 44.1007C143.956 44.2264 143.959 44.3535 143.962 44.4813C143.992 45.5481 144.032 46.6067 144.08 47.6566C144.356 53.8254 144.936 59.6643 145.817 65.1732C146.692 70.6653 147.844 75.6963 149.274 80.2676C150.454 84.046 151.756 87.3085 153.177 90.0538C154.018 91.6892 154.81 92.9723 155.551 93.9038L155.636 93.9309C158.706 83.2111 163.459 73.3978 169.894 64.4918L170.172 64.4262C168.242 56.0691 167.034 47.614 166.551 39.0602C166.495 38.3179 166.463 37.3742 166.456 36.229L143.932 43.1759V43.1766Z" fill="white"/>
<path d="M177.692 60.0348C176.51 60.5013 175.662 61.3213 175.149 62.4949C174.633 63.6685 174.603 64.8488 175.059 66.0359C175.523 67.2291 176.341 68.0823 177.515 68.5954C178.688 69.1112 179.87 69.1355 181.061 68.6691C182.254 68.2053 183.108 67.3866 183.624 66.2137C184.137 65.0401 184.16 63.8584 183.693 62.668C183.229 61.4748 182.411 60.6203 181.238 60.1051C180.064 59.592 178.883 59.569 177.692 60.0355V60.0348Z" fill="#ECB49A"/>
<path d="M207.409 72.6538C207.431 72.5957 207.454 72.5389 207.476 72.4835C203.493 66.7007 199.426 61.4392 195.276 56.7002C191.344 56.8259 186.84 57.4553 181.764 58.589C181.107 59.4881 180.542 60.4779 180.068 61.5588C178.415 65.3345 178.322 69.1344 179.789 72.9594C181.261 76.7844 183.864 79.5162 187.597 81.1542C191.323 82.7848 195.092 82.8463 198.904 81.3395C202.711 79.8299 205.442 77.1886 207.097 73.4157C207.211 73.1622 207.315 72.9087 207.41 72.6545L207.409 72.6538Z" fill="#F6DFD0"/>
<path d="M207.954 70.9508C208.099 70.3972 208.209 69.8421 208.282 69.2871C208.61 66.873 208.305 64.4501 207.371 62.0191C206.072 58.6417 203.892 56.1174 200.83 54.4449L200.826 54.4408C200.816 54.4165 200.805 54.3955 200.795 54.3766C200.369 53.4403 199.723 52.6872 198.857 52.1187C197.986 51.5494 197.031 51.2162 195.991 51.1181C195.372 51.0938 194.746 51.0938 194.115 51.1175C193.241 51.1398 192.378 51.0965 191.525 50.9883C191.305 50.9525 191.087 50.9126 190.872 50.8694C190.501 50.7963 190.134 50.7058 189.775 50.5989C189.412 50.4915 189.052 50.3745 188.694 50.2488C188.631 50.221 188.567 50.1933 188.504 50.1656C188.375 50.1102 188.246 50.052 188.116 49.9912C187.232 49.5714 186.435 49.0062 185.726 48.2964C185.436 49.5024 185.364 50.722 185.51 51.9544C185.617 52.867 185.885 53.7364 186.315 54.5645L186.211 54.6308C185.454 55.0966 184.723 55.6056 184.016 56.1579C183.173 56.8725 182.422 57.6837 181.764 58.591C186.84 57.4573 191.344 56.8279 195.276 56.7021C199.426 61.4418 203.493 66.7027 207.476 72.4854C207.663 71.975 207.823 71.4639 207.954 70.9522V70.9508Z" fill="#374C63"/>
<path d="M211.318 74.9825C211.832 73.811 211.855 72.6293 211.39 71.4381C210.925 70.247 210.106 69.3945 208.935 68.8807C207.763 68.3669 206.582 68.3433 205.39 68.8084C204.213 69.2796 203.368 70.1016 202.854 71.2732C202.34 72.4447 202.31 73.623 202.761 74.8088C203.226 76 204.044 76.8524 205.216 77.3662C206.388 77.88 207.569 77.9037 208.76 77.4386C209.952 76.9735 210.804 76.1548 211.318 74.9832V74.9825Z" fill="#F6DFD0"/>
<path d="M191.535 64.9127C191.351 65.8943 190.819 66.3229 189.939 66.1986L190.157 67.8555M194.806 63.2768C196.303 62.8157 197.505 63.2348 198.414 64.5335M188.763 60.1278C190.387 60.0338 191.344 60.7038 191.636 62.139" stroke="#572709" stroke-width="0.67603" stroke-linecap="round" stroke-linejoin="round"/>
<path d="M196.529 66.2808C196.395 65.936 196.157 65.6886 195.819 65.5405C195.481 65.3925 195.139 65.3851 194.792 65.5196C194.448 65.6548 194.201 65.8921 194.053 66.2308C193.904 66.5701 193.897 66.9115 194.031 67.2556C194.166 67.6011 194.404 67.8485 194.742 67.9966C195.08 68.1453 195.422 68.152 195.768 68.0175C196.113 67.883 196.359 67.6464 196.508 67.3077C196.657 66.9683 196.664 66.6269 196.529 66.2815V66.2808Z" fill="#2C1705"/>
<path d="M189.849 63.357C189.715 63.0122 189.477 62.7648 189.139 62.6167C188.801 62.4687 188.458 62.4612 188.112 62.5958C187.768 62.731 187.521 62.9676 187.373 63.3069C187.224 63.6463 187.217 63.9877 187.35 64.3318C187.486 64.6773 187.724 64.9247 188.062 65.0727C188.401 65.2215 188.742 65.2282 189.088 65.0937C189.433 64.9592 189.679 64.7226 189.828 64.3839C189.977 64.0445 189.984 63.7031 189.849 63.3576V63.357Z" fill="#2C1705"/>
<path d="M193.02 73.3232C193.276 72.9156 193.465 72.4903 193.584 72.0475C192.926 71.7798 192.251 71.6345 191.56 71.6115C190.013 71.5608 188.722 71.9319 187.687 72.7263C187.499 72.8703 187.326 73.0244 187.169 73.1894C187.429 73.6139 187.751 73.9526 188.137 74.2061C188.609 74.5198 189.132 74.7219 189.708 74.8112C190.015 74.874 190.324 74.8875 190.635 74.8524C191.656 74.7361 192.451 74.2257 193.02 73.3219V73.3232Z" fill="#D47476"/>
<path d="M193.705 70.2608C193.704 70.2466 193.703 70.2324 193.704 70.2202L186.567 69.7139C186.37 70.7347 186.485 71.7298 186.913 72.6992C186.991 72.8736 187.076 73.0372 187.169 73.1907C187.328 73.0257 187.5 72.8716 187.688 72.7276C188.722 71.9333 190.013 71.5615 191.561 71.6128C192.252 71.6358 192.926 71.7812 193.585 72.0489C193.736 71.4824 193.777 70.8868 193.706 70.2621L193.705 70.2608Z" fill="#CC7274"/>
<path d="M187.007 68.7151C187.443 67.6294 187.428 66.5457 186.963 65.4641C186.5 64.3885 185.724 63.6327 184.634 63.1973C183.546 62.76 182.461 62.7735 181.383 63.2359C180.305 63.6996 179.55 64.4771 179.117 65.5689C178.68 66.6552 178.694 67.7376 179.156 68.8158C179.619 69.8954 180.394 70.6526 181.481 71.0873C182.57 71.522 183.655 71.5071 184.736 71.0427C185.815 70.5803 186.572 69.8042 187.008 68.7144L187.007 68.7151Z" fill="url(#paint0_radial_1178_19034)"/>
<path d="M204.966 73.7418C205.403 72.6554 205.388 71.5704 204.922 70.4881C204.46 69.4118 203.683 68.6554 202.592 68.2193C201.503 67.7819 200.418 67.7941 199.339 68.2579C198.26 68.7216 197.505 69.4997 197.071 70.5922C196.634 71.6792 196.647 72.7622 197.11 73.8419C197.572 74.9228 198.348 75.6807 199.436 76.1154C200.526 76.55 201.611 76.5358 202.693 76.0714C203.773 75.609 204.531 74.8322 204.967 73.7418H204.966Z" fill="url(#paint1_radial_1178_19034)"/>
<path d="M201.656 123.213L201.822 127.925L206.859 133.621L225.903 134.576C226.031 132.397 226.074 129.826 226.029 126.862C226.026 125.184 226.014 123.504 225.993 121.821C225.923 116.534 225.014 111.416 223.265 106.467C221.433 101.275 218.227 97.1639 213.647 94.1332C213.512 94.046 213.38 93.9595 213.248 93.875L201.657 123.213H201.656Z" fill="white"/>
<path d="M180.164 101.438C179.807 99.7698 179.27 97.8789 178.553 95.7656C177.839 93.6524 176.55 92.1813 174.684 91.3525C172.821 90.5264 171.432 90.2547 170.517 90.5372C169.599 90.8218 168.898 91.2504 168.414 91.8224C168.163 92.1164 167.918 92.4619 167.677 92.8601L167.795 92.9378C168.967 92.447 170.164 92.3747 171.385 92.7208C171.441 92.735 171.497 92.7506 171.552 92.7675V92.7715L171.443 92.8297L171.385 92.7208C170.164 92.3747 168.967 92.447 167.795 92.9378L167.803 92.9419C167.728 92.9696 167.654 93.002 167.582 93.0379C167.574 93.0433 167.567 93.0467 167.562 93.0494C166.551 93.6017 165.768 94.5184 165.213 95.8001L165.352 95.8664C166.549 95.4716 168.037 95.5669 169.816 96.1517C170.621 96.4187 171.233 96.6905 171.651 96.9663C171.896 97.1224 172.185 97.3469 172.518 97.6403C172.184 97.3469 171.896 97.1224 171.651 96.9663C171.233 96.6898 170.621 96.4187 169.816 96.1517C168.037 95.5669 166.549 95.4716 165.352 95.8664H165.356C165.289 95.8894 165.223 95.9137 165.159 95.9387C165.076 96.1395 164.998 96.3497 164.925 96.5695L164.708 96.3619C164.034 97.0481 163.648 97.6815 163.553 98.2629C163.437 98.9585 163.407 99.6319 163.462 100.282C163.493 100.629 163.656 101.014 163.952 101.437C163.963 101.123 164.018 100.822 164.116 100.533C164.512 99.3283 165.256 98.6793 166.347 98.5867C166.763 98.5516 167.247 98.5969 167.798 98.724C168.138 98.7963 168.604 98.9308 169.197 99.1275C169.676 99.2851 169.99 99.3959 170.138 99.4595C170.392 99.5676 170.642 99.7089 170.89 99.884C170.642 99.7096 170.392 99.5676 170.138 99.4595C169.99 99.3959 169.676 99.2851 169.197 99.1275C168.604 98.9308 168.138 98.7963 167.798 98.724C167.247 98.5969 166.763 98.5516 166.347 98.5867C165.256 98.6793 164.513 99.3283 164.116 100.533C164.018 100.822 163.963 101.123 163.952 101.437C163.955 101.437 163.956 101.438 163.956 101.441C163.94 101.79 163.973 102.149 164.057 102.521C164.196 103.131 164.458 103.742 164.844 104.356C165.183 104.887 165.574 105.356 166.014 105.766C166.42 106.146 166.773 106.387 167.076 106.487C167.327 106.569 167.489 106.598 167.561 106.576C167.583 106.569 167.628 106.543 167.698 106.498C167.733 106.477 167.907 106.499 168.22 106.563C168.292 106.261 168.378 105.956 168.48 105.649C168.547 105.448 168.614 105.255 168.682 105.07C168.615 105.255 168.547 105.448 168.48 105.649C168.378 105.956 168.292 106.261 168.22 106.563C168.223 106.563 168.226 106.563 168.228 106.563C168.005 107.494 167.918 108.401 167.969 109.283C168.03 110.277 168.261 111.206 168.664 112.071C168.941 112.662 169.28 113.186 169.678 113.646C169.764 113.743 169.853 113.838 169.945 113.93L169.744 113.975C170.886 119.328 172.422 124.4 174.352 129.189C177.067 135.938 180.502 142.305 184.655 148.288C185.89 149.974 187.17 151.51 188.493 152.897C192.619 157.232 197.256 160.249 202.402 161.946C205.066 162.824 207.542 163.21 209.831 163.106C211.974 163.01 213.914 162.488 215.654 161.539C217.283 160.646 218.696 159.406 219.893 157.818C221.026 156.31 221.928 154.542 222.597 152.514C223.978 148.322 224.95 143.814 225.513 138.988C225.688 137.513 225.817 136.042 225.902 134.574L206.858 133.619L201.821 127.923L200.301 126.203L180.814 104.674C180.575 103.414 180.358 102.334 180.164 101.436" fill="#F6DFD0"/>
<path d="M170.881 99.8827C170.634 99.7083 170.383 99.5663 170.129 99.4582C169.981 99.3946 169.668 99.2837 169.188 99.1262C168.595 98.9295 168.129 98.795 167.79 98.7226C167.238 98.5955 166.754 98.5502 166.338 98.5854C165.248 98.678 164.504 99.327 164.107 100.532C164.009 100.82 163.954 101.121 163.944 101.436M172.51 97.6383C172.176 97.3449 171.888 97.1204 171.643 96.9643C171.224 96.6878 170.613 96.4167 169.808 96.1497C168.029 95.5649 166.541 95.4696 165.344 95.8644M175.525 95.1505C174.348 94.0918 173.021 93.2975 171.544 92.7682M171.377 92.7181C170.156 92.372 168.959 92.4443 167.787 92.9351M169.09 104.069C168.946 104.37 168.808 104.703 168.673 105.069C168.606 105.254 168.539 105.447 168.471 105.648C168.37 105.955 168.283 106.26 168.211 106.562M166.953 102.758C167.373 103.37 167.947 104.14 168.674 105.069M208.105 135.92L214.789 144.284" stroke="#DC8D5D" stroke-width="0.811236" stroke-linecap="round" stroke-linejoin="round"/>
</g>
<g clip-path="url(#clip1_1178_19034)">
<path d="M37.3995 134.371V121.521H0.653687V134.371C0.653687 139.275 2.38737 143.459 5.85412 146.924C9.32087 150.393 13.5065 152.128 18.4105 152.128H19.6427C24.5448 152.128 28.7292 150.393 32.196 146.924C35.6652 143.459 37.3995 139.275 37.3995 134.371Z" fill="#DC8E7F"/>
<path d="M19.6427 87.7275H18.4105C13.5065 87.7275 9.32087 89.4618 5.85412 92.9311C2.38737 96.3978 0.653687 100.582 0.653687 105.484V121.521H37.3995V105.484C37.3995 100.582 35.6652 96.3978 32.196 92.9311C28.7292 89.4618 24.5448 87.7275 19.6427 87.7275Z" fill="#E89F8F"/>
<path d="M63.3171 102.659C63.2424 101.686 63.1831 96.8751 63.1392 88.2246C63.0954 79.8539 63.0651 74.9116 63.0485 73.3984L28.2834 76.4742C28.1697 79.3314 28.1098 82.8494 28.1024 87.0283C28.095 90.9817 28.263 97.0085 28.6058 105.109L63.3171 102.659Z" fill="#BB6D7C"/>
<path d="M43.6141 50.8843C43.1787 50.9831 42.7451 51.0999 42.3134 51.2339C39.9293 51.9738 37.817 53.1862 35.9771 54.8705C33.8247 56.8271 32.1163 59.3804 30.852 62.5303C29.4062 66.1237 28.565 70.4261 28.3284 75.4363C28.3124 75.7704 28.2975 76.1163 28.2833 76.4733L63.0484 73.3975C63.0447 73.1918 63.0422 73.0498 63.0404 72.9707C62.9626 69.5157 62.6389 66.0866 62.0689 62.6823C61.3623 58.4898 59.145 55.2145 55.417 52.8564C51.8008 50.5669 47.8665 49.9091 43.6141 50.8837V50.8843Z" fill="#C67E8B"/>
<path d="M84.031 146.099H33.551L22.0619 199.475H93.0731L84.031 146.099Z" fill="#556386"/>
<path d="M34.5604 141.417L33.5511 146.099H84.0312L82.6199 141.417H34.5604Z" fill="#424E6C"/>
<path d="M110.332 58.9188C110.231 58.7316 110.085 58.5124 109.892 58.2628C109.618 58.8477 109.172 59.3894 108.554 59.886C108.036 60.2899 107.438 60.6321 106.758 60.9118C106.138 61.1663 105.537 61.3324 104.953 61.4121C104.604 61.4597 104.284 61.4807 103.994 61.4757C103.961 61.6925 103.958 61.8914 103.982 62.0736C104.055 62.6097 104.257 63.0427 104.586 63.3737C105.021 63.8073 105.628 64.0025 106.409 63.958C106.523 63.9512 106.641 63.9401 106.762 63.9234C107.129 63.8734 107.542 63.7468 108 63.5436C108.498 63.3237 108.95 63.0532 109.355 62.7332C110.379 61.9248 110.827 61.0477 110.698 60.1015C110.638 59.6568 110.516 59.2622 110.332 58.9181M110.178 56.2648C110.065 55.4316 109.816 54.7708 109.431 54.2816C109.37 54.2038 109.308 54.1346 109.247 54.0747C109.189 54.2662 109.109 54.47 109.005 54.6874C108.736 55.2544 108.352 55.8146 107.855 56.3679C107.337 56.9442 106.775 57.4229 106.171 57.8027C105.507 58.2196 104.866 58.4704 104.247 58.5544C103.215 58.6946 102.379 58.4654 101.741 57.8669C101.708 57.92 101.682 57.9744 101.661 58.0306C101.593 58.219 101.574 58.4531 101.604 58.7341C101.624 58.899 101.666 59.1652 101.729 59.5327C101.83 60.2812 102.115 60.8081 102.583 61.1138C102.934 61.3399 103.404 61.4609 103.994 61.4757C104.284 61.4807 104.604 61.4591 104.953 61.4121C105.537 61.3331 106.138 61.1663 106.758 60.9118C107.438 60.6314 108.037 60.2899 108.554 59.886C109.172 59.3888 109.618 58.8477 109.892 58.2628C110.18 57.6471 110.275 56.9813 110.178 56.2654M100.986 54.94C100.835 55.3272 100.789 55.7312 100.846 56.1524C100.934 56.8052 101.221 57.3667 101.708 57.8354C101.717 57.8453 101.729 57.8558 101.742 57.8676C102.38 58.466 103.215 58.6952 104.248 58.555C104.866 58.471 105.507 58.2208 106.171 57.8033C106.776 57.4229 107.337 56.9448 107.855 56.3686C108.353 55.8152 108.736 55.255 109.006 54.688C109.109 54.4706 109.19 54.2668 109.248 54.0753C109.343 53.7486 109.372 53.4564 109.337 53.1983C109.216 52.3064 108.939 51.6283 108.504 51.1638C108.116 50.75 107.55 50.4171 106.804 50.1651C106.924 51.3244 106.51 52.4343 105.563 53.4954C105.162 53.9431 104.714 54.3174 104.221 54.6188C103.758 54.9048 103.329 55.0746 102.934 55.1284C102.201 55.2278 101.552 55.1654 100.987 54.9418M88.0598 47.0492C87.0259 47.245 86.4182 47.6773 86.2372 48.3468C86.0544 49.0169 86.0989 49.8748 86.3712 50.9205C86.6411 51.9667 87.394 53.7832 88.6287 56.371C89.8614 58.957 90.6261 60.5876 90.9232 61.2633C92.025 70.2479 92.8063 77.0215 93.2664 81.5839C93.9946 88.8231 94.5783 94.5738 95.0174 98.8361C95.27 101.283 95.5004 103.772 95.7092 106.302L86.0179 119.566C86.1575 119.699 86.2959 119.832 86.433 119.963C88.2284 121.682 89.4007 122.799 89.9504 123.314C91.1801 124.464 92.2486 125.418 93.1559 126.177C95.3744 128.032 97.3798 129.33 99.1728 130.07C101.242 130.923 103.378 131.2 105.579 130.901C107.875 130.59 109.841 129.715 111.478 128.278C112.971 126.968 114.144 125.228 114.998 123.057C115.791 121.069 116.29 118.808 116.494 116.275C116.685 113.918 116.61 111.486 116.27 108.981C116.01 107.065 115.461 103.929 114.622 99.5729C113.786 95.2341 112.836 90.5846 111.772 85.625C110.069 77.6829 108.281 70.4604 106.409 63.9574C105.628 64.0012 105.021 63.8067 104.586 63.3731C104.257 63.042 104.055 62.6091 103.982 62.073C103.958 61.8908 103.961 61.6913 103.994 61.4751C103.404 61.4603 102.934 61.3392 102.583 61.1132C102.115 60.8075 101.83 60.2806 101.729 59.5321C101.666 59.1652 101.624 58.899 101.604 58.7335C101.575 58.4524 101.593 58.2177 101.661 58.03C101.682 57.9744 101.709 57.9194 101.741 57.8663C101.729 57.8546 101.717 57.8441 101.707 57.8342C101.221 57.3654 100.934 56.8046 100.845 56.1512C100.789 55.7306 100.835 55.326 100.986 54.9388C100.876 54.8943 100.768 54.8443 100.664 54.7899C100.052 54.4619 99.7071 54.016 99.6305 53.4521C99.536 52.7554 99.8615 52.06 100.606 51.3639C100.915 51.0767 101.253 50.8352 101.622 50.6394C101.98 50.4474 102.305 50.3312 102.595 50.2917C102.304 50.3312 101.98 50.4467 101.622 50.6394C101.253 50.8352 100.915 51.0767 100.606 51.3639C99.8609 52.0594 99.536 52.7554 99.6305 53.4521C99.7071 54.016 100.052 54.4619 100.664 54.7899C100.768 54.8443 100.876 54.8937 100.986 54.9388C101.551 55.1623 102.2 55.2247 102.933 55.1253C103.328 55.0715 103.757 54.9017 104.219 54.6157C104.714 54.3143 105.161 53.9401 105.562 53.4923C106.509 52.4312 106.923 51.3213 106.803 50.162C106.797 50.1206 106.792 50.0805 106.787 50.0416C106.644 48.9891 106.26 48.2282 105.635 47.7582C104.998 47.2789 104.13 47.114 103.032 47.2629C102.082 47.392 101.282 47.5779 100.632 47.8206C100.018 48.0522 99.3495 48.408 98.6262 48.8885C98.2309 49.1522 97.3792 49.768 96.0699 50.737C94.9834 51.5387 93.9557 52.2811 92.9879 52.9648C92.7532 52.3429 92.5574 51.8457 92.4011 51.4732C92.0028 50.5419 91.6025 49.7711 91.1992 49.1608C90.1375 47.555 89.0906 46.8509 88.0586 47.0479L88.0598 47.0492Z" fill="#F6DFD0"/>
<path d="M73.9884 89.5828C73.7951 89.6087 73.532 89.6865 73.1979 89.8162L76.0322 109.679C79.6935 113.394 83.0225 116.689 86.018 119.566L95.7092 106.303C95.5004 103.772 95.2701 101.284 95.0175 98.8367C91.6224 95.9456 88.3996 93.7159 85.3497 92.1478C81.1381 89.9817 77.3508 89.1269 73.9878 89.5828H73.9884Z" fill="white"/>
<path d="M106.405 63.9573C105.624 64.0012 105.016 63.8066 104.582 63.3731C104.252 63.042 104.051 62.6091 103.978 62.0729C103.953 61.8907 103.957 61.6913 103.99 61.4751C103.4 61.4603 102.929 61.3392 102.578 61.1132C102.11 60.8074 101.826 60.2806 101.724 59.532C101.661 59.1652 101.619 58.899 101.6 58.7334C101.57 58.4524 101.589 58.2177 101.656 58.03C101.677 57.9737 101.705 57.9194 101.737 57.8663C101.724 57.8545 101.713 57.844 101.703 57.8342C101.217 57.3654 100.93 56.8046 100.841 56.1511C100.784 55.7305 100.831 55.326 100.981 54.9387C100.871 54.8943 100.764 54.8442 100.659 54.7899C100.047 54.4619 99.7028 54.016 99.6262 53.4521C99.5317 52.7554 99.8572 52.06 100.602 51.3639C100.91 51.0767 101.249 50.8352 101.617 50.6394C101.976 50.4473 102.301 50.3312 102.591 50.2917M106.8 50.1626C106.92 51.3219 106.506 52.4318 105.559 53.4929C105.158 53.9406 104.71 54.3149 104.216 54.6163C103.754 54.9023 103.325 55.0721 102.93 55.1259C102.197 55.2253 101.548 55.1629 100.982 54.9393M109.243 54.0734C109.185 54.2649 109.104 54.4687 109.001 54.6861C108.731 55.2531 108.348 55.8133 107.851 56.3667C107.332 56.9429 106.771 57.4216 106.166 57.8014C105.502 58.2183 104.862 58.4691 104.243 58.5531C103.21 58.6933 102.375 58.4641 101.737 57.8657M109.887 58.2616C109.613 58.8465 109.167 59.3875 108.55 59.8847C108.033 60.2886 107.434 60.6308 106.754 60.9106C106.135 61.165 105.533 61.3312 104.95 61.4109C104.6 61.4584 104.281 61.4794 103.99 61.4745" stroke="#E7AF8B" stroke-width="0.988206" stroke-linecap="round" stroke-linejoin="round"/>
<path d="M92.9152 54.1312C98.0952 53.2825 100.113 55.451 98.9673 60.6366C98.9593 60.6731 98.937 60.7083 98.9018 60.7416" stroke="#E7AF8B" stroke-width="0.988206" stroke-linecap="round" stroke-linejoin="round"/>
<path d="M8.51173 126.639C8.41044 128.032 8.35053 129.437 8.33262 130.853C8.27271 135.466 8.63835 139.833 9.42891 143.953C9.81061 145.948 10.4424 147.726 11.3256 149.287C12.2564 150.933 13.4361 152.276 14.8634 153.315C16.3853 154.423 18.1498 155.154 20.1565 155.508C22.3034 155.887 24.6862 155.825 27.3049 155.322C27.5094 155.283 27.7144 155.242 27.9189 155.198V126.908L26.5811 128.073L8.51173 126.639Z" fill="#F6DFD0"/>
<path d="M27.919 126.908L32.0293 123.322L34.3985 112.581L23.7018 89.2461C20.382 92.7746 17.5681 96.8164 15.2607 101.37C12.9618 105.894 11.2201 110.809 10.0368 116.115C9.26905 119.57 8.76074 123.078 8.51245 126.639L26.5818 128.074L27.9196 126.908L27.919 126.908Z" fill="white"/>
<path d="M25.1131 130.092L17.7855 137.154" stroke="#DC8D5D" stroke-width="0.988206" stroke-linecap="round" stroke-linejoin="round"/>
<path d="M54.3004 68.1152L56.0507 79.4123C54.674 81.246 53.2831 83.0625 51.878 84.861C49.5774 83.8302 47.1643 82.603 44.6382 81.1799L42.8878 69.8829L54.3004 68.1152Z" fill="#ECB49A"/>
<path d="M54.1063 88.2037L50.9243 89.0524L49.9843 92.9879L54.1471 98.9937L56.1408 92.0769L54.1069 88.2031L54.1063 88.2037Z" fill="#5799FB"/>
<path d="M52.0212 83.617L51.9626 83.6133L49.618 86.174L50.9237 89.0527L54.1057 88.2041L54.8407 85.2154L52.0206 83.617H52.0212Z" fill="#6290EA"/>
<path d="M44.3108 79.8749L41.9336 82.0254L49.9844 92.9877L50.9244 89.0522L49.6187 86.1734L51.9633 83.6127L44.3115 79.8742M59.4032 79.6371L55.8333 78.2505L52.0219 83.6164L54.842 85.2149L54.1071 88.2036L56.1409 92.0773L59.4038 79.6371H59.4032Z" fill="white"/>
<path d="M77.7505 80.3173L59.4032 79.6367L56.1403 92.077L54.1465 98.9938L49.9837 92.988L41.9329 82.0257C37.0191 82.9546 30.9219 85.3689 23.64 89.268L37.9202 141.406H83.4814C83.7643 140.002 83.9657 138.363 84.0849 136.49C84.2553 131.457 84.1602 126.429 83.7995 121.405C83.1751 112.687 82.0708 104.031 80.4853 95.435C79.5564 90.3946 78.6442 85.3553 77.7492 80.3173" fill="#6969F3"/>
<path d="M40.2844 85.0088L55.0031 104.212L62.5858 82.0244" stroke="#6160EA" stroke-width="0.988206" stroke-linecap="round" stroke-linejoin="round"/>
<path d="M77.7505 80.3179L69.8164 80.2339C78.1266 96.199 82.3876 118.146 82.5995 146.076H88.155C88.5917 115.079 86.1669 95.1033 77.7498 80.3185L77.7505 80.3179Z" fill="#F1CEC6"/>
<path d="M26.0326 87.605L20.0632 91.0137C29.3048 103.287 33.6622 120.864 33.136 143.746H40.4734C40.3542 117.957 35.5404 99.2436 26.0332 87.605H26.0326Z" fill="#F1CEC6"/>
<path d="M30.729 72.1709C30.5691 70.9659 30.8581 69.8814 31.5968 68.9166C32.3355 67.9519 33.307 67.3892 34.512 67.2293C35.717 67.0693 36.8015 67.3583 37.7663 68.097C38.7168 68.8376 39.2721 69.8103 39.432 71.0147C39.592 72.2197 39.3097 73.3036 38.5859 74.2665C37.8472 75.2313 36.8757 75.7939 35.6707 75.9539C34.4657 76.1138 33.3811 75.8248 32.4164 75.0861C31.4516 74.3474 30.889 73.3759 30.729 72.1709Z" fill="#F6DFD0"/>
<path d="M57.2359 68.1157C57.0759 66.9107 57.3649 65.8262 58.1036 64.8614C58.8423 63.8967 59.8138 63.3341 61.0188 63.1741C62.2238 63.0141 63.3084 63.3032 64.2731 64.0419C65.2236 64.7824 65.7789 65.7552 65.9389 66.9595C66.0988 68.1645 65.8166 69.2485 65.0927 70.2113C64.354 71.1761 63.3825 71.7387 62.1775 71.8987C60.9725 72.0587 59.888 71.7696 58.9232 71.0309C57.9585 70.2923 57.3958 69.3207 57.2359 68.1157Z" fill="#F6DFD0"/>
<path d="M58.6546 59.8875C59.8016 60.3125 60.9318 60.6676 62.046 60.9517C61.156 58.4954 59.6126 56.4239 57.4144 54.7359C56.3336 53.9015 55.2064 53.2443 54.0329 52.7638C51.8582 51.875 49.5236 51.5977 47.0278 51.9319C43.1935 52.4439 40.1011 54.2474 37.751 57.3417C36.2594 59.3169 35.3459 61.4495 35.0106 63.7409C34.9321 64.2696 34.8846 64.8051 34.8685 65.3486C34.8543 65.8507 34.8673 66.3591 34.9062 66.8735C40.4494 64.1862 45.5473 60.4558 50.2005 55.6809C53.1182 57.4757 55.9358 58.8783 58.654 59.8875H58.6546Z" fill="#C67E8B"/>
<path d="M62.8124 64.1154C62.6623 62.9999 62.4073 61.9456 62.0466 60.9525C60.9324 60.6678 59.8015 60.3132 58.6552 59.8883C55.937 58.8791 53.1194 57.4765 50.2017 55.6816C45.5485 60.4565 40.4506 64.187 34.9073 66.8743C34.9092 66.933 34.9141 66.9917 34.9209 67.051C34.9407 67.3036 34.9703 67.5623 35.0086 67.8279C35.5237 71.7091 37.3217 74.8386 40.4018 77.2177C43.4844 79.6018 46.9431 80.5387 50.7773 80.0286C54.4522 79.5382 57.4459 77.8595 59.7583 74.993C59.8596 74.8658 59.9608 74.7355 60.0621 74.6008C62.4128 71.4948 63.3294 67.9996 62.8124 64.116V64.1154Z" fill="#F6DFD0"/>
<path d="M50.5976 65.2402C50.5081 66.1858 50.8805 66.7176 51.7155 66.8362L51.08 68.2907M54.3868 61.5999C53.0113 61.4918 52.0089 61.9902 51.3783 63.0939M48.1475 63.4126C46.8678 62.8901 45.5961 62.8772 44.3318 63.3737M52.6167 71.7716C50.5519 72.1447 48.8071 71.7136 47.3829 70.4789" stroke="#572709" stroke-width="0.617629" stroke-linecap="round" stroke-linejoin="round"/>
<path d="M45.5472 65.3308C45.7609 65.051 46.0426 64.8873 46.3915 64.841C46.7399 64.7947 47.0542 64.8781 47.3359 65.0918C47.615 65.3061 47.7775 65.5871 47.8244 65.9361C47.8714 66.285 47.788 66.5994 47.5749 66.8786C47.3593 67.159 47.0777 67.322 46.73 67.3684C46.381 67.4153 46.0666 67.3313 45.7862 67.1176C45.5065 66.9039 45.3428 66.6229 45.2965 66.2739C45.2501 65.925 45.3335 65.6106 45.5472 65.3302V65.3308Z" fill="#2C1705"/>
<path d="M52.4319 64.4099C52.6456 64.1301 52.9272 63.9664 53.2762 63.9201C53.6245 63.8738 53.9389 63.9572 54.2205 64.1709C54.4997 64.3852 54.6621 64.6662 54.7091 65.0152C54.756 65.3641 54.6726 65.6785 54.4595 65.9577C54.244 66.2381 53.9623 66.4011 53.6146 66.4475C53.2657 66.4944 52.9513 66.4104 52.6709 66.1967C52.3911 65.983 52.2274 65.702 52.1811 65.353C52.1348 65.0041 52.2182 64.6897 52.4319 64.4093V64.4099Z" fill="#2C1705"/>
<path d="M53.9636 68.5589C53.8518 67.4521 54.1513 66.4657 54.8616 65.6011C55.5676 64.7407 56.4761 64.2546 57.5866 64.1447C58.6965 64.0323 59.6828 64.33 60.5469 65.0378C61.4085 65.7456 61.8933 66.6553 62.0014 67.7665C62.1138 68.8739 61.8161 69.859 61.1095 70.7224C60.4024 71.5871 59.4951 72.0744 58.387 72.1844C57.2778 72.2943 56.2908 71.9941 55.4255 71.2851C54.5621 70.5779 54.0748 69.6694 53.9642 68.5595L53.9636 68.5589Z" fill="url(#paint2_radial_1178_19034)"/>
<path d="M36.565 71.4183C36.4532 70.3115 36.7528 69.3251 37.4631 68.4604C38.169 67.6001 39.0775 67.114 40.188 67.0041C41.2979 66.8917 42.2849 67.1894 43.1483 67.8972C44.0099 68.605 44.4948 69.5147 44.6028 70.6258C44.7153 71.7332 44.4176 72.7184 43.711 73.5818C43.0038 74.4465 42.0965 74.9338 40.9885 75.0437C39.8792 75.1537 38.8922 74.8535 38.027 74.1445C37.1635 73.4373 36.6762 72.5288 36.5656 71.4189L36.565 71.4183Z" fill="url(#paint3_radial_1178_19034)"/>
<path d="M105.864 79.6211C105.981 78.6311 105.731 77.7849 105.113 77.0827C104.497 76.3829 103.694 76.0327 102.701 76.0327H67.8517C66.8616 76.0327 65.9741 76.3829 65.1897 77.0827C64.4071 77.7849 63.9563 78.6311 63.8371 79.6211L61.2955 101.037C61.1782 102.027 61.4271 102.873 62.0429 103.573C62.6623 104.275 63.4677 104.626 64.4578 104.626H99.3075C100.3 104.626 101.187 104.275 101.969 103.573C102.754 102.873 103.203 102.027 103.319 101.037L105.864 79.6211Z" fill="#FAFFFD"/>
<path d="M65.1329 80.989C65.2502 79.9977 65.7017 79.1516 66.4867 78.4518C67.2686 77.7521 68.1556 77.4019 69.1469 77.4019H103.992C104.985 77.4019 105.79 77.7521 106.408 78.4518C107.025 79.1516 107.274 79.9977 107.157 80.989L104.615 102.399C104.497 103.39 104.047 104.237 103.263 104.936C102.48 105.636 101.592 105.986 100.598 105.986H65.7536C64.7623 105.986 63.9582 105.636 63.3418 104.936C62.7235 104.237 62.4734 103.39 62.5907 102.399L65.1329 80.989Z" fill="#ACC7F4"/>
<path d="M84.5426 89.4756C83.8335 89.4756 83.1794 89.7257 82.5803 90.226C81.9825 90.7281 81.615 91.334 81.4779 92.0431C81.3408 92.7521 81.4736 93.3574 81.8775 93.8577C82.2826 94.3598 82.8398 94.6112 83.5488 94.6112H87.5245C88.2335 94.6112 88.887 94.3598 89.4848 93.8577C90.0839 93.3574 90.452 92.7521 90.5891 92.0431C90.7263 91.334 90.5928 90.7281 90.1877 90.226C89.7844 89.7257 89.2279 89.4756 88.5182 89.4756H84.5426Z" fill="#90ABD9"/>
<path d="M67.9486 93.3838C67.5626 92.7859 66.953 92.2974 66.121 91.9181C65.2934 91.5364 63.9501 91.6217 62.0904 92.1732C60.2332 92.7248 58.838 93.9526 57.9041 95.8555C56.9684 97.7566 56.2297 99.4717 55.6868 101C55.3947 101.826 55.0581 102.816 54.6764 103.972L33.6671 121.875L27.9158 126.892V155.18C32.7456 154.15 37.2809 151.92 41.5221 148.49C42.9384 147.344 44.3323 146.053 45.7047 144.619C50.353 139.485 54.3719 133.905 57.7627 127.878C60.1696 123.595 62.238 119.002 63.9692 114.099L63.7901 114.037C63.8865 113.959 63.9822 113.88 64.0761 113.799C64.5084 113.413 64.892 112.958 65.228 112.434C65.7109 111.669 66.042 110.821 66.2211 109.892C66.3774 109.07 66.4082 108.204 66.3144 107.296C66.6201 107.275 66.7881 107.277 66.8177 107.303C66.8776 107.351 66.9178 107.381 66.9382 107.392C67.0049 107.42 67.1624 107.41 67.4107 107.361C67.7046 107.306 68.0672 107.125 68.4971 106.817C68.9615 106.486 69.3864 106.089 69.7731 105.627C70.2122 105.098 70.534 104.555 70.7384 103.996C70.8626 103.658 70.9386 103.326 70.9657 103C71.2992 102.632 71.5012 102.284 71.5729 101.958C71.7063 101.354 71.7625 100.717 71.7421 100.048C71.7192 99.4872 71.432 98.8424 70.8799 98.1136L70.6526 98.2791C70.6112 98.0654 70.563 97.8585 70.5081 97.6584C70.4531 97.6263 70.3944 97.5954 70.332 97.5651L70.4735 97.5237C70.1078 96.2459 69.4853 95.2848 68.6045 94.6413C68.5928 94.6369 68.5848 94.6295 68.5804 94.6209C68.5181 94.5795 68.4526 94.5418 68.384 94.5072L68.515 94.4486C68.3359 94.0483 68.1469 93.6932 67.9492 93.3832M64.8728 93.8908C64.9259 93.8816 64.9784 93.8736 65.0315 93.8668L64.9661 93.96L64.8728 93.8908Z" fill="#F6DFD0"/>
<path d="M64.6857 100.616C64.9383 100.48 65.1916 100.377 65.4442 100.306C65.5912 100.267 65.9006 100.203 66.3718 100.113C66.9536 100 67.4082 99.9288 67.7374 99.8992C68.2729 99.8485 68.7337 99.8671 69.1203 99.9542C70.1388 100.173 70.7601 100.874 70.9855 102.057C71.0405 102.344 71.0566 102.638 71.0337 102.937M63.4202 98.2989C63.7716 98.0642 64.0718 97.8876 64.3201 97.7678C64.7499 97.5609 65.3589 97.3817 66.1476 97.2298C67.8968 96.8944 69.3142 96.9865 70.3988 97.5059M68.0333 103.806C67.562 104.334 66.9252 104.991 66.1229 105.775C66.1668 105.956 66.2069 106.146 66.2434 106.344C66.3008 106.645 66.3447 106.942 66.3743 107.237M65.858 104.782C65.9525 105.085 66.0408 105.416 66.1236 105.775M60.8898 95.5894C62.1331 94.7482 63.4838 94.1664 64.9408 93.8446M65.1026 93.8168C66.2934 93.642 67.4095 93.8526 68.4508 94.448" stroke="#E7AF8B" stroke-width="0.988206" stroke-linecap="round" stroke-linejoin="round"/>
</g>
<circle cx="198" cy="150" r="160" stroke="white" stroke-opacity="0.1" stroke-width="60"/>
<defs>
<radialGradient id="paint0_radial_1178_19034" cx="0" cy="0" r="1" gradientUnits="userSpaceOnUse" gradientTransform="translate(181.702 65.9751) rotate(23.68) scale(4.32244)">
<stop stop-color="#E27A7A"/>
<stop offset="0.51" stop-color="#E48787"/>
<stop offset="1" stop-color="#EEBFBF"/>
</radialGradient>
<radialGradient id="paint1_radial_1178_19034" cx="0" cy="0" r="1" gradientUnits="userSpaceOnUse" gradientTransform="translate(199.836 71.1048) rotate(23.7) scale(4.32304 4.32304)">
<stop stop-color="#E27A7A"/>
<stop offset="0.51" stop-color="#E48787"/>
<stop offset="1" stop-color="#EEBFBF"/>
</radialGradient>
<radialGradient id="paint2_radial_1178_19034" cx="0" cy="0" r="1" gradientUnits="userSpaceOnUse" gradientTransform="translate(55.205 66.315) rotate(172.43) scale(4.12967)">
<stop stop-color="#E27A7A"/>
<stop offset="0.51" stop-color="#E48787"/>
<stop offset="1" stop-color="#EEBFBF"/>
</radialGradient>
<radialGradient id="paint3_radial_1178_19034" cx="0" cy="0" r="1" gradientUnits="userSpaceOnUse" gradientTransform="translate(37.8064 69.1744) rotate(172.43) scale(4.12967)">
<stop stop-color="#E27A7A"/>
<stop offset="0.51" stop-color="#E48787"/>
<stop offset="1" stop-color="#EEBFBF"/>
</radialGradient>
<clipPath id="clip0_1178_19034">
<rect width="124.992" height="299" fill="white" transform="translate(101.053 -27)"/>
</clipPath>
<clipPath id="clip1_1178_19034">
<rect width="115.944" height="203.73" fill="white" transform="translate(0.653564 47.0171)"/>
</clipPath>
</defs>
</svg>
