<svg width="262" height="180" viewBox="0 0 262 180" fill="none" xmlns="http://www.w3.org/2000/svg">
<circle cx="190" cy="150" r="160" stroke="white" stroke-opacity="0.1" stroke-width="60"/>
<g clip-path="url(#clip0_1178_19033)">
<path d="M270.592 91.5283H85.7436V155.408H270.592V91.5283Z" fill="white"/>
<path d="M279.995 95.1487H80L92.2974 81.0513H267.695L279.995 95.1487Z" fill="#5F80D3"/>
<path d="M105.051 101.077H95.241C94.2285 101.077 93.4077 101.898 93.4077 102.91V110.767C93.4077 111.779 94.2285 112.6 95.241 112.6H105.051C106.064 112.6 106.885 111.779 106.885 110.767V102.91C106.885 101.898 106.064 101.077 105.051 101.077Z" fill="#DCE8FF"/>
<path d="M100.564 101.077H99.7257V112.6H100.564V101.077Z" fill="#ACB8CC"/>
<path d="M106.885 106.479H93.4078V107.197H106.885V106.479Z" fill="#ACB8CC"/>
<path d="M121.81 101.077H112C110.988 101.077 110.167 101.898 110.167 102.91V110.767C110.167 111.779 110.988 112.6 112 112.6H121.81C122.823 112.6 123.644 111.779 123.644 110.767V102.91C123.644 101.898 122.823 101.077 121.81 101.077Z" fill="#DCE8FF"/>
<path d="M117.323 101.077H116.485V112.6H117.323V101.077Z" fill="#ACB8CC"/>
<path d="M123.644 106.479H110.167V107.197H123.644V106.479Z" fill="#ACB8CC"/>
<path d="M138.569 101.077H128.759C127.747 101.077 126.926 101.898 126.926 102.91V110.767C126.926 111.779 127.747 112.6 128.759 112.6H138.569C139.582 112.6 140.403 111.779 140.403 110.767V102.91C140.403 101.898 139.582 101.077 138.569 101.077Z" fill="#DCE8FF"/>
<path d="M134.082 101.077H133.244V112.6H134.082V101.077Z" fill="#ACB8CC"/>
<path d="M140.403 106.479H126.926V107.197H140.403V106.479Z" fill="#ACB8CC"/>
<path d="M105.051 118.279H95.241C94.2285 118.279 93.4077 119.1 93.4077 120.113V127.969C93.4077 128.982 94.2285 129.802 95.241 129.802H105.051C106.064 129.802 106.885 128.982 106.885 127.969V120.113C106.885 119.1 106.064 118.279 105.051 118.279Z" fill="#DCE8FF"/>
<path d="M100.564 118.279H99.7257V129.802H100.564V118.279Z" fill="#ACB8CC"/>
<path d="M106.885 123.679H93.4078V124.397H106.885V123.679Z" fill="#ACB8CC"/>
<path d="M121.81 118.279H112C110.988 118.279 110.167 119.1 110.167 120.113V127.969C110.167 128.982 110.988 129.802 112 129.802H121.81C122.823 129.802 123.644 128.982 123.644 127.969V120.113C123.644 119.1 122.823 118.279 121.81 118.279Z" fill="#DCE8FF"/>
<path d="M117.323 118.279H116.485V129.802H117.323V118.279Z" fill="#ACB8CC"/>
<path d="M123.644 123.679H110.167V124.397H123.644V123.679Z" fill="#ACB8CC"/>
<path d="M138.569 118.279H128.759C127.747 118.279 126.926 119.1 126.926 120.113V127.969C126.926 128.982 127.747 129.802 128.759 129.802H138.569C139.582 129.802 140.403 128.982 140.403 127.969V120.113C140.403 119.1 139.582 118.279 138.569 118.279Z" fill="#DCE8FF"/>
<path d="M134.082 118.279H133.244V129.802H134.082V118.279Z" fill="#ACB8CC"/>
<path d="M140.403 123.679H126.926V124.397H140.403V123.679Z" fill="#ACB8CC"/>
<path d="M105.051 135.479H95.241C94.2285 135.479 93.4077 136.3 93.4077 137.313V145.169C93.4077 146.182 94.2285 147.003 95.241 147.003H105.051C106.064 147.003 106.885 146.182 106.885 145.169V137.313C106.885 136.3 106.064 135.479 105.051 135.479Z" fill="#DCE8FF"/>
<path d="M100.564 135.479H99.7257V147.003H100.564V135.479Z" fill="#ACB8CC"/>
<path d="M106.885 140.882H93.4078V141.6H106.885V140.882Z" fill="#ACB8CC"/>
<path d="M121.81 135.479H112C110.988 135.479 110.167 136.3 110.167 137.313V145.169C110.167 146.182 110.988 147.003 112 147.003H121.81C122.823 147.003 123.644 146.182 123.644 145.169V137.313C123.644 136.3 122.823 135.479 121.81 135.479Z" fill="#DCE8FF"/>
<path d="M117.323 135.479H116.485V147.003H117.323V135.479Z" fill="#ACB8CC"/>
<path d="M123.644 140.882H110.167V141.6H123.644V140.882Z" fill="#ACB8CC"/>
<path d="M138.569 135.479H128.759C127.747 135.479 126.926 136.3 126.926 137.313V145.169C126.926 146.182 127.747 147.003 128.759 147.003H138.569C139.582 147.003 140.403 146.182 140.403 145.169V137.313C140.403 136.3 139.582 135.479 138.569 135.479Z" fill="#DCE8FF"/>
<path d="M134.082 135.479H133.244V147.003H134.082V135.479Z" fill="#ACB8CC"/>
<path d="M140.403 140.882H126.926V141.6H140.403V140.882Z" fill="#ACB8CC"/>
<path d="M226.928 101.077H217.118C216.105 101.077 215.285 101.898 215.285 102.91V110.767C215.285 111.779 216.105 112.6 217.118 112.6H226.928C227.941 112.6 228.762 111.779 228.762 110.767V102.91C228.762 101.898 227.941 101.077 226.928 101.077Z" fill="#DCE8FF"/>
<path d="M222.441 101.077H221.603V112.6H222.441V101.077Z" fill="#ACB8CC"/>
<path d="M228.762 106.479H215.285V107.197H228.762V106.479Z" fill="#ACB8CC"/>
<path d="M243.687 101.077H233.877C232.864 101.077 232.044 101.898 232.044 102.91V110.767C232.044 111.779 232.864 112.6 233.877 112.6H243.687C244.7 112.6 245.521 111.779 245.521 110.767V102.91C245.521 101.898 244.7 101.077 243.687 101.077Z" fill="#DCE8FF"/>
<path d="M243.687 101.077H233.877C232.864 101.077 232.044 101.898 232.044 102.91V110.767C232.044 111.779 232.864 112.6 233.877 112.6H243.687C244.7 112.6 245.521 111.779 245.521 110.767V102.91C245.521 101.898 244.7 101.077 243.687 101.077Z" fill="#DCE8FF"/>
<path d="M239.203 101.077H238.364V112.6H239.203V101.077Z" fill="#ACB8CC"/>
<path d="M239.203 101.077H238.364V112.6H239.203V101.077Z" fill="#ACB8CC"/>
<path d="M245.521 106.479H232.044V107.197H245.521V106.479Z" fill="#ACB8CC"/>
<path d="M260.446 101.077H250.636C249.623 101.077 248.803 101.898 248.803 102.91V110.767C248.803 111.779 249.623 112.6 250.636 112.6H260.446C261.459 112.6 262.279 111.779 262.279 110.767V102.91C262.279 101.898 261.459 101.077 260.446 101.077Z" fill="#DCE8FF"/>
<path d="M255.962 101.077H255.123V112.6H255.962V101.077Z" fill="#ACB8CC"/>
<path d="M262.279 106.479H248.803V107.197H262.279V106.479Z" fill="#ACB8CC"/>
<path d="M226.928 118.279H217.118C216.105 118.279 215.285 119.1 215.285 120.113V127.969C215.285 128.982 216.105 129.802 217.118 129.802H226.928C227.941 129.802 228.762 128.982 228.762 127.969V120.113C228.762 119.1 227.941 118.279 226.928 118.279Z" fill="#DCE8FF"/>
<path d="M222.441 118.279H221.603V129.802H222.441V118.279Z" fill="#ACB8CC"/>
<path d="M228.762 123.679H215.285V124.397H228.762V123.679Z" fill="#ACB8CC"/>
<path d="M243.687 118.279H233.877C232.864 118.279 232.044 119.1 232.044 120.113V127.969C232.044 128.982 232.864 129.802 233.877 129.802H243.687C244.7 129.802 245.521 128.982 245.521 127.969V120.113C245.521 119.1 244.7 118.279 243.687 118.279Z" fill="#DCE8FF"/>
<path d="M239.203 118.279H238.364V129.802H239.203V118.279Z" fill="#ACB8CC"/>
<path d="M245.521 123.679H232.044V124.397H245.521V123.679Z" fill="#ACB8CC"/>
<path d="M260.446 118.279H250.636C249.623 118.279 248.803 119.1 248.803 120.113V127.969C248.803 128.982 249.623 129.802 250.636 129.802H260.446C261.459 129.802 262.279 128.982 262.279 127.969V120.113C262.279 119.1 261.459 118.279 260.446 118.279Z" fill="#DCE8FF"/>
<path d="M255.962 118.279H255.123V129.802H255.962V118.279Z" fill="#ACB8CC"/>
<path d="M262.279 123.679H248.803V124.397H262.279V123.679Z" fill="#ACB8CC"/>
<path d="M226.928 135.479H217.118C216.105 135.479 215.285 136.3 215.285 137.313V145.169C215.285 146.182 216.105 147.003 217.118 147.003H226.928C227.941 147.003 228.762 146.182 228.762 145.169V137.313C228.762 136.3 227.941 135.479 226.928 135.479Z" fill="#DCE8FF"/>
<path d="M222.441 135.479H221.603V147.003H222.441V135.479Z" fill="#ACB8CC"/>
<path d="M228.762 140.882H215.285V141.6H228.762V140.882Z" fill="#ACB8CC"/>
<path d="M243.687 135.479H233.877C232.864 135.479 232.044 136.3 232.044 137.313V145.169C232.044 146.182 232.864 147.003 233.877 147.003H243.687C244.7 147.003 245.521 146.182 245.521 145.169V137.313C245.521 136.3 244.7 135.479 243.687 135.479Z" fill="#DCE8FF"/>
<path d="M239.203 135.479H238.364V147.003H239.203V135.479Z" fill="#ACB8CC"/>
<path d="M245.521 140.882H232.044V141.6H245.521V140.882Z" fill="#ACB8CC"/>
<path d="M260.446 135.479H250.636C249.623 135.479 248.803 136.3 248.803 137.313V145.169C248.803 146.182 249.623 147.003 250.636 147.003H260.446C261.459 147.003 262.279 146.182 262.279 145.169V137.313C262.279 136.3 261.459 135.479 260.446 135.479Z" fill="#DCE8FF"/>
<path d="M255.962 135.479H255.123V147.003H255.962V135.479Z" fill="#ACB8CC"/>
<path d="M262.279 140.882H248.803V141.6H262.279V140.882Z" fill="#ACB8CC"/>
<path d="M188.179 40.464L178.505 36.8999V44.0307L188.179 40.464Z" fill="#E88099"/>
<path d="M178.4 50.9435C178.164 50.9435 177.972 50.7512 177.972 50.5153V36.9409C177.972 36.705 178.164 36.5127 178.4 36.5127C178.636 36.5127 178.828 36.705 178.828 36.9409V50.5153C178.828 50.7512 178.636 50.9435 178.4 50.9435Z" fill="#27375A"/>
<path d="M207.454 155.407H149.346V70.8485L177.703 53.4639L207.454 70.8485V155.407Z" fill="white"/>
<path d="M149.346 155.407V95.1484" stroke="#E5E5E6" stroke-width="0.692308" stroke-miterlimit="10"/>
<path d="M207.454 95.1484V155.407" stroke="#E5E5E6" stroke-width="0.692308" stroke-miterlimit="10"/>
<path d="M211.403 74.9897L178.392 56.4435L145.397 74.9897V68.3563L178.392 49.8076L211.403 68.3563V74.9897Z" fill="#5F80D3"/>
<path d="M166.095 93.3105H155.8C154.787 93.3105 153.967 94.1314 153.967 95.1439V109.89C153.967 110.903 154.787 111.723 155.8 111.723H166.095C167.107 111.723 167.928 110.903 167.928 109.89V95.1439C167.928 94.1314 167.107 93.3105 166.095 93.3105Z" fill="#DCE8FF"/>
<path d="M161.379 93.3101H160.513V111.723H161.379V93.3101Z" fill="#ACB8CC"/>
<path d="M167.928 102.123H153.967V102.908H167.928V102.123Z" fill="#ACB8CC"/>
<path d="M183.459 93.3105H173.164C172.152 93.3105 171.331 94.1314 171.331 95.1439V109.89C171.331 110.903 172.152 111.723 173.164 111.723H183.459C184.471 111.723 185.292 110.903 185.292 109.89V95.1439C185.292 94.1314 184.471 93.3105 183.459 93.3105Z" fill="#DCE8FF"/>
<path d="M178.744 93.3101H177.877V111.723H178.744V93.3101Z" fill="#ACB8CC"/>
<path d="M185.292 102.123H171.331V102.908H185.292V102.123Z" fill="#ACB8CC"/>
<path d="M200.821 93.3105H190.526C189.513 93.3105 188.692 94.1314 188.692 95.1439V109.89C188.692 110.903 189.513 111.723 190.526 111.723H200.821C201.833 111.723 202.654 110.903 202.654 109.89V95.1439C202.654 94.1314 201.833 93.3105 200.821 93.3105Z" fill="#DCE8FF"/>
<path d="M196.108 93.3101H195.241V111.723H196.108V93.3101Z" fill="#ACB8CC"/>
<path d="M202.654 102.123H188.692V102.908H202.654V102.123Z" fill="#ACB8CC"/>
<path d="M165.487 155.443V122.477H193.536V155.443" fill="#DCE8FF"/>
<path d="M165.487 155.443V122.477H193.536V155.443" stroke="#ACB8CC" stroke-width="0.923077" stroke-miterlimit="10"/>
<path d="M177.169 137.487V140.148" stroke="#ACB8CC" stroke-width="1.15385" stroke-linecap="round" stroke-linejoin="round"/>
<path d="M181.792 137.487V140.148" stroke="#ACB8CC" stroke-width="1.15385" stroke-linecap="round" stroke-linejoin="round"/>
<path d="M179.513 122.477V155.443" stroke="#ACB8CC" stroke-width="0.923077" stroke-miterlimit="10"/>
<path d="M178.31 84.2614C173.354 84.2614 169.32 80.2819 169.32 75.3871C169.32 70.4922 173.354 66.5127 178.31 66.5127C183.267 66.5127 187.3 70.4922 187.3 75.3871C187.3 80.2819 183.267 84.2614 178.31 84.2614Z" fill="white"/>
<path d="M178.31 67.541C182.703 67.541 186.274 71.0615 186.274 75.3897C186.274 79.7179 182.703 83.2385 178.31 83.2385C173.918 83.2385 170.346 79.7179 170.346 75.3897C170.346 71.0615 173.918 67.541 178.31 67.541ZM178.31 65.4897C172.779 65.4897 168.295 69.9231 168.295 75.3897C168.295 80.8564 172.779 85.2897 178.31 85.2897C183.841 85.2897 188.326 80.8564 188.326 75.3897C188.326 69.9231 183.841 65.4897 178.31 65.4897Z" fill="#5F80D3"/>
<path d="M177.759 69.6616L178.31 75.3873L174.71 78.2642" stroke="#ACB8CC" stroke-width="0.692308" stroke-linecap="round" stroke-linejoin="round"/>
</g>
<defs>
<clipPath id="clip0_1178_19033">
<rect width="200" height="120" fill="white" transform="translate(80 36)"/>
</clipPath>
</defs>
</svg>
