<svg width="14" height="12" viewBox="0 0 14 12" fill="none" xmlns="http://www.w3.org/2000/svg">
<g clip-path="url(#clip0_415_6425)">
<path d="M0 11.0855L5.11778 6.62354L0 2.22754V11.0855Z" fill="#283891"/>
<path d="M7.92577 7.38175C7.65549 7.49175 7.36577 7.54975 7.06632 7.55175C7.06243 7.55175 7.05854 7.55175 7.05271 7.55175C6.71632 7.55175 6.3916 7.47975 6.0941 7.34375L0.812988 11.9497H13.1835L7.92577 7.38175Z" fill="#283891"/>
<path d="M8.9209 6.67605L13.9998 11.088V2.24805L8.9209 6.67605Z" fill="#283891"/>
<path d="M6.18722 5.982C6.42056 6.224 6.72778 6.358 7.06028 6.354C7.39083 6.354 7.7 6.216 7.92944 5.974L7.97028 5.934L14 0.674V0.666C14 0.298 13.7103 0 13.3525 0H0.6475C0.289722 0 0 0.298 0 0.666L6.18722 5.982Z" fill="#283891"/>
</g>
<defs>
<clipPath id="clip0_415_6425">
<rect width="14" height="12" fill="white"/>
</clipPath>
</defs>
</svg>
