<svg width="65" height="68" viewBox="0 0 65 68" fill="none" xmlns="http://www.w3.org/2000/svg">
<g clip-path="url(#clip0_1446_95)">
<path d="M19.5672 29.6433V38.3563H20.7474V40.8531H15.902V38.3563H17.0822V29.6433H15.902V27.1465H20.7474V29.6433H19.5672Z" fill="#283891"/>
<path d="M0 40.8487V27.1445H2.74675L11.2927 37.1563V27.1445H13.812V40.8487H11.0653L2.50094 30.8172V40.8475H0V40.8487Z" fill="#283891"/>
<path d="M25.1794 40.8494C24.7 40.8494 24.261 40.729 23.8635 40.4882C23.466 40.2474 23.1469 39.9267 22.9072 39.5273C22.6675 39.128 22.5476 38.6869 22.5476 38.204V29.792C22.5476 29.3103 22.6675 28.8692 22.9072 28.4686C23.1469 28.0693 23.466 27.7486 23.8635 27.5077C24.261 27.2669 24.7 27.1465 25.1794 27.1465H34.4274V29.6777H25.7102C25.5084 29.6777 25.3469 29.7354 25.2271 29.8497C25.1072 29.964 25.0473 30.1286 25.0473 30.3449V37.6535C25.0473 37.8562 25.1072 38.0184 25.2271 38.1388C25.3469 38.2593 25.5084 38.3195 25.7102 38.3195H34.4274V40.8507H25.1794V40.8494Z" fill="#283891"/>
<path d="M36.4366 40.8487V27.1445H47.6988V29.6757H38.9559V32.7206H47.6988V35.2714H38.9559V38.3175H47.6988V40.8487H36.4366Z" fill="#283891"/>
<path d="M49.6177 40.8487V27.1445H52.3644L57.3088 33.0634L62.2337 27.1445H65V40.8487H62.4807V30.7988L57.3088 36.9843L52.1186 30.8172V40.8475H49.6189L49.6177 40.8487Z" fill="#283891"/>
<path d="M65 21.7181H62.7448C58.3373 15.0239 50.7697 10.609 42.187 10.609C33.6043 10.609 26.033 15.0239 21.6206 21.7181H0C5.32107 8.96001 17.8686 0 32.5 0C47.1314 0 59.6789 8.96001 65 21.7181Z" fill="url(#paint0_linear_1446_95)"/>
<path d="M65 46.2852C59.674 59.0383 47.1314 67.9983 32.5 67.9983C17.8686 67.9983 5.32596 59.0383 0 46.2852H2.25513C6.66265 52.9794 14.2303 57.3893 22.813 57.3893C31.3957 57.3893 38.967 52.9794 43.3794 46.2852H64.9987H65Z" fill="#283891"/>
</g>
<defs>
<linearGradient id="paint0_linear_1446_95" x1="62.5" y1="16" x2="3" y2="17" gradientUnits="userSpaceOnUse">
<stop stop-color="#00AB4F"/>
<stop offset="1" stop-color="#B6D433"/>
</linearGradient>
<clipPath id="clip0_1446_95">
<rect width="65" height="68" fill="white"/>
</clipPath>
</defs>
</svg>
