<svg width="24" height="24" viewBox="0 0 24 24" fill="none" xmlns="http://www.w3.org/2000/svg">
<rect width="24" height="24" rx="12" fill="#283891"/>
<g clip-path="url(#clip0_477_6707)">
<path d="M17.8168 14.9585L15.7996 13.2097C15.462 12.8845 14.9281 12.8824 14.6028 13.2097L13.9768 13.8356C13.8295 13.9726 13.6944 14.0688 13.5962 14.1117C13.183 14.2631 12.3585 14.3981 11.4952 13.5942L10.4252 12.5245C9.58026 11.6143 9.76848 10.7491 9.88305 10.4382C9.93829 10.3114 10.0303 10.1805 10.1572 10.0414L10.7955 9.40116C11.1228 9.0739 11.1249 8.54414 10.8037 8.21483L9.05858 6.20216L9.04221 6.1858C8.89696 6.04058 8.65964 5.97308 8.38754 6.0099C8.14409 6.04262 7.90268 6.15512 7.7431 6.31466L6.90022 7.15736L6.88181 7.17782C4.35111 10.205 8.06839 13.9849 8.10522 14.0238L9.9792 15.8994C10.0078 15.928 12.1151 18 14.4453 18C15.2411 18 16.0635 17.7586 16.8368 17.1103L17.6859 16.2614C17.8454 16.1019 17.96 15.8605 17.9907 15.6171C18.0255 15.3512 17.9621 15.118 17.8127 14.9605L17.8168 14.9585Z" fill="white"/>
</g>
<defs>
<clipPath id="clip0_477_6707">
<rect width="12" height="12" fill="white" transform="translate(6 6)"/>
</clipPath>
</defs>
</svg>
