<svg xmlns="http://www.w3.org/2000/svg" width="20" height="20" viewBox="0 0 20 20" fill="none">
<path d="M3.33398 18.333C3.33398 14.6511 6.31875 11.6663 10.0007 11.6663C13.6826 11.6663 16.6673 14.6511 16.6673 18.333H15.0007C15.0007 15.5716 12.7621 13.333 10.0007 13.333C7.23923 13.333 5.00065 15.5716 5.00065 18.333H3.33398ZM10.0007 10.833C7.23815 10.833 5.00065 8.59551 5.00065 5.83301C5.00065 3.07051 7.23815 0.833008 10.0007 0.833008C12.7632 0.833008 15.0007 3.07051 15.0007 5.83301C15.0007 8.59551 12.7632 10.833 10.0007 10.833ZM10.0007 9.16634C11.8423 9.16634 13.334 7.67467 13.334 5.83301C13.334 3.99134 11.8423 2.49967 10.0007 2.49967C8.15898 2.49967 6.66732 3.99134 6.66732 5.83301C6.66732 7.67467 8.15898 9.16634 10.0007 9.16634Z" fill="#283891"/>
</svg>