<svg width="22" height="24" viewBox="0 0 22 24" fill="none" xmlns="http://www.w3.org/2000/svg">
<g clip-path="url(#clip0_340_6536)">
<path d="M7 6.73411V3.32283C7 3.00055 7.06713 2.69652 7.18309 2.4168C7.29904 2.13709 7.46992 1.88778 7.68352 1.68104C7.89712 1.46821 8.14734 1.29795 8.42197 1.18242C8.7027 1.06689 9.00785 1 9.3313 1H18.6626C18.9861 1 19.2912 1.06689 19.5719 1.18242C19.8527 1.29795 20.1029 1.46821 20.3165 1.68104C20.524 1.89386 20.6949 2.14317 20.8169 2.4168C20.9329 2.69652 21 3.00055 21 3.32283V20.6772C21 20.9994 20.9329 21.3035 20.8169 21.5832C20.701 21.8629 20.5301 22.1122 20.3165 22.319C20.1029 22.5318 19.8527 22.696 19.5719 22.8176C19.2912 22.9392 18.9861 23 18.6626 23H9.3313C9.00785 23 8.7027 22.9331 8.42197 22.8176C8.14124 22.702 7.89102 22.5318 7.68352 22.319C7.46992 22.1061 7.29904 21.8568 7.18309 21.5832C7.06713 21.3035 7 20.9994 7 20.6772V17.2659" stroke="#666666" stroke-width="2" stroke-linecap="round" stroke-linejoin="round"/>
<path d="M13 4H15" stroke="#666666" stroke-width="2" stroke-linecap="round" stroke-linejoin="round"/>
<path d="M14 12C14 13.1034 13.0292 14 11.8343 14H3.16571C1.97084 14 1 13.1034 1 12C1 10.8966 1.97084 10 3.16571 10H11.8343C13.0292 10 14 10.8966 14 12Z" stroke="#283891" stroke-width="2" stroke-linecap="round" stroke-linejoin="round"/>
</g>
<defs>
<clipPath id="clip0_340_6536">
<rect width="22" height="24" fill="white"/>
</clipPath>
</defs>
</svg>
