<svg xmlns="http://www.w3.org/2000/svg" width="20" height="20" viewBox="0 0 20 20" fill="none">
  <path d="M11.6673 11.8763V13.6175C11.146 13.4333 10.5851 13.333 10.0007 13.333C7.23923 13.333 5.00065 15.5716 5.00065 18.333H3.33398C3.33398 14.6511 6.31875 11.6663 10.0007 11.6663C10.5762 11.6663 11.1347 11.7393 11.6673 11.8763ZM10.0007 10.833C7.23815 10.833 5.00065 8.59551 5.00065 5.83301C5.00065 3.07051 7.23815 0.833008 10.0007 0.833008C12.7632 0.833008 15.0007 3.07051 15.0007 5.83301C15.0007 8.59551 12.7632 10.833 10.0007 10.833ZM10.0007 9.16634C11.8423 9.16634 13.334 7.67467 13.334 5.83301C13.334 3.99134 11.8423 2.49967 10.0007 2.49967C8.15898 2.49967 6.66732 3.99134 6.66732 5.83301C6.66732 7.67467 8.15898 9.16634 10.0007 9.16634ZM15.0007 14.1663V11.6663H16.6673V14.1663H19.1673V15.833H16.6673V18.333H15.0007V15.833H12.5007V14.1663H15.0007Z" fill="#333333"/>
</svg>