<svg width="35" height="36" viewBox="0 0 35 36" fill="none" xmlns="http://www.w3.org/2000/svg">
<path d="M1 13.7051V33.2429C1 34.2123 1.77794 35.0004 2.7348 35.0004H32.2574C33.2143 35.0004 33.9922 34.2123 33.9922 33.2429V13.7051H1Z" fill="#283891" stroke="white" stroke-width="2" stroke-linecap="round" stroke-linejoin="round"/>
<path d="M34 6.86398C34 5.89458 33.2221 5.10645 32.2652 5.10645H2.73479C1.77793 5.10645 1 5.89458 1 6.86398V13.705H34V6.86398Z" fill="#4D64E2" stroke="white" stroke-width="2" stroke-linecap="round" stroke-linejoin="round"/>
<path d="M8.71793 6.8637C8.71793 7.94344 7.85442 8.81827 6.78865 8.81827C5.72288 8.81827 4.85938 7.94344 4.85938 6.8637V2.95457C4.85938 1.87483 5.72288 1 6.78865 1C7.85442 1 8.71793 1.87483 8.71793 2.95457V6.8637Z" fill="#283891" stroke="white" stroke-width="2" stroke-linecap="round" stroke-linejoin="round"/>
<path d="M30.1418 6.8637C30.1418 7.94344 29.2783 8.81827 28.2125 8.81827C27.1467 8.81827 26.2832 7.94344 26.2832 6.8637V2.95457C26.2832 1.87483 27.1467 1 28.2125 1C29.2783 1 30.1418 1.87483 30.1418 2.95457V6.8637Z" fill="#283891" stroke="white" stroke-width="2" stroke-linecap="round" stroke-linejoin="round"/>
<path d="M11.6191 22.745L16.808 26.9458L23.5449 19.0645" stroke="white" stroke-width="2" stroke-linecap="round" stroke-linejoin="round"/>
</svg>
