<svg width="100" height="100" viewBox="0 0 100 100" fill="none" xmlns="http://www.w3.org/2000/svg">
<g clip-path="url(#clip0_340_6851)">
<rect width="100" height="100" rx="50" fill="white"/>
<g clip-path="url(#clip1_340_6851)">
<path d="M65.9189 39.6809C67.2819 39.0195 68.8858 39.3892 69.955 40.5026C71.1752 41.7721 71.2935 43.8016 71.0201 45.5477C70.7548 47.2568 70.208 49.0768 69.1388 50.3832C68.0369 51.7267 66.4249 52.0471 64.8783 51.9033C64.2498 51.8458 64.2865 50.8105 64.8497 50.7448L64.1559 44.6562C63.8948 44.726 63.6132 44.6069 63.5846 44.2248C63.4499 42.3678 64.3437 40.441 65.9189 39.6809Z" fill="#FFBAAC"/>
<path d="M-4.50203 79.7251L36.7726 65.7402L57.2548 69.6843L61.4623 68.5791C64.0781 68.7393 86.8539 76.3193 86.8539 76.3193L95.7136 85.9986L109.899 102.74L112.784 73.8214C113.547 71.7919 116.024 71.9356 118.22 72.2561L138.331 73.0778C140.347 73.3736 140.033 75.6003 139.882 77.5723L137.319 113.841C136.67 122.28 135.948 132.279 126.818 139.181C122.729 142.271 115.857 143.906 107.63 141.622C107.63 141.622 96.7705 139.925 92.9181 133.224C95.1341 151.059 94.8362 151.564 95.5299 161.502C96.1135 169.908 98.5947 209.135 94.477 209.702L77.2759 211.107C75.6558 211.287 74.0764 210.531 73.1868 209.159L68.9467 191.847C68.9467 191.847 66.0452 213.399 56.659 213.531C37.3398 213.802 1.73365 212.093 1.06845 209.192L2.32946 167.578C2.32946 167.578 -13.5576 169.09 -20.0096 164.855C-24.6904 161.782 -33.0155 154.091 -23.9599 125.291C-17.4182 104.474 -9.99089 89.2113 -9.99089 89.2113L-4.50203 79.7333V79.7251Z" fill="#303030"/>
<path d="M38.4459 54.1709L59.6015 61.3482L58.8873 70.9248L59.7116 109.646L36.6992 65.7524L38.4459 54.1709Z" fill="#FFBAAC"/>
<mask id="mask0_340_6851" style="mask-type:luminance" maskUnits="userSpaceOnUse" x="36" y="54" width="24" height="56">
<path d="M38.4459 54.1709L59.6015 61.3482L58.8873 70.9248L59.7116 109.646L36.6992 65.7524L38.4459 54.1709Z" fill="white"/>
</mask>
<g mask="url(#mask0_340_6851)">
<path d="M39.1518 53.5221C37.6336 57.1662 43.4571 66.6154 50.2029 69.8569C56.9446 73.0984 62.054 68.9038 63.5721 65.2638C65.0902 61.6238 60.8583 56.0405 54.1125 52.799C47.3708 49.5575 40.6739 49.8821 39.1518 53.5262V53.5221Z" fill="#FFA795"/>
</g>
<path d="M67.8287 45.3668C67.8531 44.3232 67.7021 43.2468 67.7715 42.2074C67.8409 41.1105 68.3428 40.067 68.6693 39.044C69.3753 36.8296 69.0121 34.5412 68.0449 32.4213C67.0941 30.3383 65.7637 28.3006 64.0211 26.8175C60.5931 23.9087 55.7654 23.4363 51.6232 24.3401C47.8076 25.1741 44.2245 27.3844 41.8494 30.5397C39.2947 33.9291 38.0051 38.288 38.2745 42.6265C37.6542 42.0677 36.8911 41.6939 35.9443 41.6446C34.8914 41.5871 33.8712 42.1252 33.2182 42.9428C32.4143 43.9494 37.8827 54.1381 38.4459 54.171C38.5438 54.1751 39.3641 56.8332 40.8659 58.1643C42.8696 59.9432 45.0407 61.3483 46.9873 62.4288C49.0808 63.5915 54.284 65.432 58.5282 64.0927C60.6176 63.4353 62.4785 62.3754 65.2373 57.2728C66.3269 55.2597 66.4901 54.6352 66.9839 52.3879C67.4899 50.0873 67.7715 47.7291 67.8287 45.3585V45.3668Z" fill="#FFC6BB"/>
<path d="M59.4872 37.5607C61.2624 36.4186 63.5844 36.2378 65.5188 37.0512C65.8289 37.1827 65.6698 37.5771 65.3351 37.5525C63.213 37.3922 62.3316 37.421 59.7075 38.0455C59.381 38.1235 59.2096 37.7373 59.4872 37.5566V37.5607Z" fill="black"/>
<path d="M48.2399 37.75C50.0804 36.7229 52.4065 36.69 54.2879 37.6226C54.5898 37.7705 54.4062 38.1567 54.0756 38.1115C51.9658 37.8198 51.0843 37.7911 48.4276 38.2512C48.0971 38.3087 47.9461 37.9143 48.2399 37.75Z" fill="black"/>
<path d="M29.1289 36.6943C29.288 38.3746 29.5696 40.0426 30.1164 41.6243C30.7857 43.5676 31.7407 46.0285 32.2916 48.0128C33.2792 51.5748 33.6097 50.9462 35.3441 54.4589C35.5686 54.9149 37.9396 58.3248 38.0049 57.7907C38.1355 56.702 38.4334 54.1672 38.3844 53.0743C38.3314 51.8254 38.1355 52.5279 37.9886 51.2872C37.8784 50.3628 37.7845 49.3686 37.4744 48.4894C37.4581 48.4483 37.4376 48.3579 37.4254 48.3374C37.4703 48.1854 37.4907 48.0251 37.5397 47.8731C37.6743 47.4582 37.8621 47.0556 38.0702 46.6776C38.2865 46.2791 38.5354 45.8559 38.8741 45.5519C39.0782 45.367 39.0904 44.7672 39.2414 44.9069C39.5271 45.1739 40.1229 45.5273 40.1923 45.1287C40.3106 44.4139 40.4657 43.7073 40.6698 43.017C40.8371 42.4501 41.0003 41.7311 41.3349 41.2381C41.6941 40.7123 42.5062 40.7533 43.0612 40.6876C43.6203 40.626 44.1794 40.5767 44.7344 40.5109C46.6034 40.2891 48.4113 39.8125 49.5254 38.1199C50.5415 36.5751 50.9578 34.6935 51.4312 32.9187C51.672 32.0148 51.9168 31.111 52.2759 30.2482C52.5616 29.5621 52.8881 28.8267 53.5043 28.4036C54.7531 27.5408 56.7568 27.2409 58.0994 28.0338C58.1933 28.1037 58.3035 28.1406 58.4218 28.1201C58.43 28.1201 58.4382 28.1201 58.4463 28.1201C58.4545 28.1201 58.4626 28.116 58.4708 28.1119C58.5443 28.0955 58.6096 28.0585 58.6626 28.0092C59.5931 27.2615 61.05 27.8284 61.8947 28.4734C62.7803 29.1472 62.968 30.1414 63.3516 31.148C63.7801 32.2654 64.1841 33.3829 64.4779 34.5456C64.6697 35.3139 64.8126 36.0451 65.1391 36.7682C65.4002 37.3475 65.5471 37.9802 65.8369 38.5389C66.2817 39.3935 66.9755 40.1165 67.5835 41.0491C68.1263 41.879 68.2773 40.9259 68.563 40.4575C70.0484 38.0048 70.1137 36.1602 70.3749 33.3295C70.5871 31.0494 70.6932 28.7405 70.028 26.522C69.3914 24.3938 68.1018 22.5574 66.498 21.0907C64.58 19.3405 62.1641 17.8122 59.7155 17.0316C57.5893 16.3537 54.5857 15.7621 52.9166 17.6397C49.0765 14.7515 43.8325 16.2058 39.9229 18.1984C36.1399 20.1293 32.1202 22.5985 30.1695 26.6534C29.4145 28.2269 29.2023 29.8744 29.1044 31.604C29.0105 33.2925 28.9534 35.0181 29.1125 36.7066L29.1289 36.6943ZM37.4295 48.3908C37.4213 48.3251 37.4213 48.3333 37.4254 48.3374C37.4254 48.3456 37.4254 48.362 37.4295 48.3908Z" fill="black"/>
<mask id="mask1_340_6851" style="mask-type:luminance" maskUnits="userSpaceOnUse" x="29" y="16" width="42" height="42">
<path d="M29.1289 36.6943C29.288 38.3746 29.5696 40.0426 30.1164 41.6243C30.7857 43.5676 31.7407 46.0285 32.2916 48.0128C33.2792 51.5748 33.6097 50.9462 35.3441 54.4589C35.5686 54.9149 37.9396 58.3248 38.0049 57.7907C38.1355 56.702 38.4334 54.1672 38.3844 53.0743C38.3314 51.8254 38.1355 52.5279 37.9886 51.2872C37.8784 50.3628 37.7845 49.3686 37.4744 48.4894C37.4581 48.4483 37.4376 48.3579 37.4254 48.3374C37.4703 48.1854 37.4907 48.0251 37.5397 47.8731C37.6743 47.4582 37.8621 47.0556 38.0702 46.6776C38.2865 46.2791 38.5354 45.8559 38.8741 45.5519C39.0782 45.367 39.0904 44.7672 39.2414 44.9069C39.5271 45.1739 40.1229 45.5273 40.1923 45.1287C40.3106 44.4139 40.4657 43.7073 40.6698 43.017C40.8371 42.4501 41.0003 41.7311 41.3349 41.2381C41.6941 40.7123 42.5062 40.7533 43.0612 40.6876C43.6203 40.626 44.1794 40.5767 44.7344 40.5109C46.6034 40.2891 48.4113 39.8125 49.5254 38.1199C50.5415 36.5751 50.9578 34.6935 51.4312 32.9187C51.672 32.0148 51.9168 31.111 52.2759 30.2482C52.5616 29.5621 52.8881 28.8267 53.5043 28.4036C54.7531 27.5408 56.7568 27.2409 58.0994 28.0338C58.1933 28.1037 58.3035 28.1406 58.4218 28.1201C58.43 28.1201 58.4382 28.1201 58.4463 28.1201C58.4545 28.1201 58.4626 28.116 58.4708 28.1119C58.5443 28.0955 58.6096 28.0585 58.6626 28.0092C59.5931 27.2615 61.05 27.8284 61.8947 28.4734C62.7803 29.1472 62.968 30.1414 63.3516 31.148C63.7801 32.2654 64.1841 33.3829 64.4779 34.5456C64.6697 35.3139 64.8126 36.0451 65.1391 36.7682C65.4002 37.3475 65.5471 37.9802 65.8369 38.5389C66.2817 39.3935 66.9755 40.1165 67.5835 41.0491C68.1263 41.879 68.2773 40.9259 68.563 40.4575C70.0484 38.0048 70.1137 36.1602 70.3749 33.3295C70.5871 31.0494 70.6932 28.7405 70.028 26.522C69.3914 24.3938 68.1018 22.5574 66.498 21.0907C64.58 19.3405 62.1641 17.8122 59.7155 17.0316C57.5893 16.3537 54.5857 15.7621 52.9166 17.6397C49.0765 14.7515 43.8325 16.2058 39.9229 18.1984C36.1399 20.1293 32.1202 22.5985 30.1695 26.6534C29.4145 28.2269 29.2023 29.8744 29.1044 31.604C29.0105 33.2925 28.9534 35.0181 29.1125 36.7066L29.1289 36.6943ZM37.4295 48.3908C37.4213 48.3251 37.4213 48.3333 37.4254 48.3374C37.4254 48.3456 37.4254 48.362 37.4295 48.3908Z" fill="white"/>
</mask>
<g mask="url(#mask1_340_6851)">
<path d="M28.4921 37.9064C28.6513 39.5867 29.1696 41.2506 29.7164 42.8364C30.3857 44.7797 31.4671 46.5709 32.0181 48.5512C33.0057 52.1131 32.973 52.1583 34.7074 55.671C34.9319 56.127 37.8456 60.223 37.9109 59.6889C38.0415 58.6002 38.0946 57.2445 38.0456 56.1516C37.9926 54.9027 37.4988 53.74 37.3519 52.4993C37.2417 51.5749 37.1478 50.5807 36.8377 49.7015C36.8213 49.6604 36.8009 49.57 36.7887 49.5495C36.8336 49.3975 36.854 49.2373 36.9029 49.0853C37.0376 48.6703 37.2253 48.2677 37.4335 47.8897C37.6498 47.4912 37.8987 47.068 38.2374 46.764C38.4415 46.5791 38.5557 46.4929 38.7026 46.6326C38.9883 46.8996 39.4862 46.7394 39.5515 46.3409C39.6698 45.626 39.8249 44.9194 40.0289 44.2292C40.1963 43.6622 40.3595 42.9432 40.6941 42.4502C41.0533 41.9244 41.8654 41.9655 42.4204 41.8997C42.9795 41.8381 43.5386 41.7888 44.0936 41.7231C45.9626 41.5012 47.7705 41.0246 48.8846 39.332C49.9007 37.7872 50.317 35.9056 50.7904 34.1308C51.0312 33.227 51.276 32.3231 51.6351 31.4604C51.9208 30.7743 52.2473 30.0389 52.8635 29.6157C54.1123 28.7529 56.116 28.453 57.4586 29.2459C57.5525 29.3158 57.6627 29.3528 57.781 29.3322C57.7892 29.3322 57.7973 29.3322 57.8055 29.3322C57.8137 29.3322 57.8218 29.3281 57.83 29.324C57.9035 29.3076 57.9687 29.2706 58.0218 29.2213C58.9523 28.4736 60.4092 29.0405 61.2539 29.6855C62.1395 30.3593 62.3272 31.3535 62.7108 32.3601C63.1393 33.4776 63.5433 34.595 63.8371 35.7577C64.0289 36.526 64.1718 37.2573 64.4983 37.9803C64.7594 38.5596 64.9063 39.1923 65.1961 39.751C65.6409 40.6056 66.8978 41.5341 66.5755 42.5981C66.3836 43.2267 67.261 43.4198 67.5467 42.9474C69.0322 40.4947 69.477 37.3682 69.7382 34.5375C69.9504 32.2574 70.0565 29.9485 69.3913 27.73C68.7547 25.6018 67.4651 23.7654 65.8613 22.2987C63.9432 20.5485 61.5273 19.0202 59.0788 18.2396C56.9526 17.5618 53.949 16.9701 52.2799 18.8477C48.4398 15.9595 43.1958 17.4139 39.2862 19.4064C35.5032 21.3373 31.4835 23.8065 29.5328 27.8614C28.7778 29.4349 28.5656 31.0824 28.4676 32.812C28.3738 34.5005 28.3167 36.2261 28.4758 37.9146L28.4921 37.9064ZM36.7887 49.607C36.7805 49.5413 36.7805 49.5495 36.7846 49.5536C36.7846 49.5618 36.7846 49.5783 36.7887 49.607Z" fill="black"/>
</g>
<path d="M32.6795 42.3878C33.6181 41.1635 35.1729 40.6253 36.6013 41.1347C38.25 41.7222 39.3559 43.5381 39.4253 45.3992C39.4416 45.7813 39.1723 45.9333 38.9029 45.8881L38.8907 52.0137C39.462 52.0137 39.6089 53.0408 38.9927 53.1681C37.4664 53.4804 35.83 53.3366 34.5853 52.1205C33.3773 50.9414 32.6346 49.1912 32.1775 47.5191C31.7123 45.8141 31.6062 43.7846 32.6795 42.3919V42.3878Z" fill="#FFBAAC"/>
<path d="M61.2136 52.8028L51.6152 52.7412C51.6152 52.7412 52.4029 56.0361 56.647 55.8389C60.2831 55.6705 61.2136 52.7987 61.2136 52.7987V52.8028Z" fill="white"/>
<path d="M61.4095 68.9078L64.5151 139.383L33.4673 66.6565L36.3892 62.4454C36.5402 62.1496 36.9198 62.0838 37.1605 62.3057L55.0799 77.9668C55.4309 78.2749 55.9737 78.1065 56.1043 77.6504L59.2874 66.5743L61.4054 68.9078H61.4095Z" fill="white"/>
<path opacity="0.51" d="M42.9351 79.8723L52.1172 87.633L54.9085 79.8805L56.8511 79.7285L59.822 84.6257L61.5033 86.2855L58.3528 92.5795L55.2758 94.4529L42.9351 79.8723Z" fill="#DBDBDB"/>
<path d="M59.6505 85.2507C59.5322 84.9549 57.9855 81.9106 57.2101 80.3864C56.9448 79.8646 56.4062 79.5524 55.8389 79.5935C55.2349 79.6386 54.7207 80.07 54.5575 80.674L52.97 86.5366L55.3002 90.1479C55.3002 90.1479 52.3579 110.246 52.3864 110.649C52.4068 110.932 59.6138 133.347 63.6335 144.029C64.3273 145.874 64.2334 125.184 64.3722 123.212L64.0171 111.663L58.3691 89.3837L59.6464 85.2425L59.6505 85.2507Z" fill="#00276E"/>
<path d="M58.2017 40.6422C58.418 42.6923 58.7527 44.7999 60.0463 46.472C60.2953 46.7965 60.5646 47.0307 60.6503 47.4456C60.7156 47.7702 60.6666 48.1194 60.5197 48.4193C60.1198 49.2164 59.1485 49.7463 58.4221 50.1818C58.1732 50.3297 57.9324 49.9476 58.1813 49.7956C58.8506 49.393 59.9525 48.8466 60.181 48.029C60.3238 47.5237 60.0912 47.2361 59.7892 46.8705C59.5117 46.5336 59.2669 46.1721 59.0547 45.7859C58.1895 44.2165 57.9324 42.417 57.7488 40.6586C57.7161 40.3669 58.1691 40.3546 58.2017 40.6463V40.6422Z" fill="#EE806D"/>
<path d="M61.9071 28.4646L58.1812 28.2633C58.1812 28.2633 60.3236 26.0242 61.9071 28.4646Z" fill="#351C17"/>
<path d="M58.4137 28.259L53.5166 28.3987C53.5166 28.3987 56.0141 25.8638 58.4137 28.259Z" fill="#351C17"/>
<path d="M52.7454 44.0768C52.774 43.9454 52.8025 43.8098 52.8311 43.6783C52.9127 43.4154 52.9372 43.1401 52.9086 42.8607C52.9168 42.5691 52.8678 42.2897 52.7617 42.0226C52.676 41.7556 52.5495 41.5337 52.3822 41.353C52.2394 41.1435 52.068 40.9873 51.868 40.8846C51.7333 40.8353 51.5987 40.786 51.464 40.7367C51.1702 40.6833 50.8927 40.7326 50.6315 40.8805C50.5172 40.975 50.4029 41.0654 50.2846 41.1599C50.0765 41.39 49.9214 41.6734 49.8275 42.0185C49.799 42.15 49.7704 42.2856 49.7418 42.417C49.6602 42.68 49.6357 42.9552 49.6643 43.2346C49.6561 43.5222 49.7051 43.8057 49.8112 44.0727C49.8969 44.3398 50.0234 44.5616 50.1907 44.7424C50.3336 44.9519 50.505 45.108 50.7049 45.2107C50.8396 45.26 50.9743 45.3093 51.1089 45.3586C51.4028 45.412 51.6803 45.3627 51.9415 45.2148C52.0557 45.1204 52.17 45.03 52.2883 44.9355C52.4965 44.7054 52.6515 44.4219 52.7454 44.0768Z" fill="white"/>
<path d="M52.3538 44.0563C52.3824 43.9248 52.4109 43.7893 52.4395 43.6578C52.5211 43.3949 52.5456 43.1196 52.517 42.8402C52.5252 42.5527 52.4762 42.2692 52.3701 42.0021C52.2844 41.7351 52.1579 41.5132 51.9906 41.3325C51.8478 41.1229 51.6764 40.9668 51.4764 40.8641C51.3417 40.8148 51.207 40.7655 51.0724 40.7162C50.7786 40.6628 50.501 40.7121 50.2399 40.86C50.1256 40.9545 50.0113 41.0449 49.893 41.1394C49.6849 41.3694 49.5298 41.6529 49.4359 41.998C49.4074 42.1295 49.3788 42.2651 49.3502 42.3965C49.2686 42.6595 49.2441 42.9306 49.2727 43.2141C49.2645 43.5017 49.3135 43.7852 49.4196 44.0522C49.5053 44.3193 49.6318 44.5411 49.7991 44.7219C49.942 44.9314 50.1134 45.0875 50.3133 45.1902C50.448 45.2395 50.5827 45.2888 50.7173 45.3381C51.0112 45.3915 51.2887 45.3422 51.5498 45.1943C51.6641 45.0998 51.7784 45.0095 51.8967 44.915C52.1049 44.6849 52.2599 44.4014 52.3538 44.0563Z" fill="black"/>
<path d="M63.1805 43.7926C63.209 43.6612 63.2376 43.5256 63.2662 43.3941C63.3478 43.1312 63.3723 42.86 63.3437 42.5766C63.3519 42.289 63.3029 42.0055 63.1968 41.7385C63.1111 41.4714 62.9846 41.2496 62.8172 41.0688C62.6744 40.8593 62.503 40.7032 62.3031 40.6004C62.1684 40.5511 62.0337 40.5018 61.899 40.4525C61.6052 40.3991 61.3277 40.4484 61.0665 40.5963C60.9523 40.6908 60.838 40.7812 60.7196 40.8757C60.5115 41.1058 60.3564 41.3893 60.2626 41.7344C60.234 41.8658 60.2055 42.0014 60.1769 42.1329C60.0953 42.3958 60.0708 42.6711 60.0993 42.9504C60.0912 43.238 60.1402 43.5215 60.2463 43.7885C60.332 44.0556 60.4585 44.2774 60.6258 44.4582C60.7686 44.6677 60.94 44.8238 61.14 44.9266C61.2747 44.9759 61.4093 45.0252 61.544 45.0745C61.8378 45.1279 62.1153 45.0786 62.3765 44.9307C62.4908 44.8362 62.605 44.7458 62.7234 44.6513C62.9315 44.4212 63.0866 44.1377 63.1805 43.7926Z" fill="white"/>
<path d="M62.7928 43.7721C62.8213 43.6407 62.8499 43.5051 62.8785 43.3736C62.9601 43.1107 62.9846 42.8395 62.956 42.5561C62.9642 42.2685 62.9152 41.985 62.8091 41.718C62.7234 41.4509 62.5969 41.2291 62.4296 41.0483C62.2867 40.8388 62.1153 40.6826 61.9154 40.5799C61.7807 40.5306 61.646 40.4813 61.5113 40.432C61.2175 40.3786 60.94 40.4279 60.6788 40.5758C60.5646 40.6703 60.4503 40.7607 60.332 40.8552C60.1238 41.0853 59.9688 41.3687 59.8749 41.7138C59.8463 41.8453 59.8178 41.9809 59.7892 42.1124C59.7076 42.3753 59.6831 42.6464 59.7117 42.9299C59.7035 43.2175 59.7525 43.501 59.8586 43.768C59.9443 44.0351 60.0708 44.2569 60.2381 44.4377C60.3809 44.6472 60.5523 44.8033 60.7523 44.906C60.887 44.9553 61.0216 45.0046 61.1563 45.0539C61.4501 45.1074 61.7276 45.0581 61.9888 44.9102C62.1031 44.8157 62.2174 44.7253 62.3357 44.6308C62.5438 44.4007 62.6989 44.1172 62.7928 43.7721Z" fill="black"/>
<path d="M31.0593 72.753C30.2553 78.4636 29.4514 84.1783 28.6434 89.889C28.623 90.0287 28.676 90.1642 28.8229 90.2053C31.1287 90.8585 33.3977 91.6391 35.6177 92.543C35.5565 92.4362 35.4993 92.3334 35.4381 92.2266L33.214 99.0876C33.1854 99.178 33.2181 99.2725 33.2793 99.3382C36.2584 102.567 39.2375 105.797 42.2206 109.026C42.6491 109.49 43.0776 109.954 43.5061 110.418C43.7306 110.661 44.0897 110.299 43.8653 110.057C40.8862 106.828 37.9071 103.599 34.9239 100.369C34.4954 99.9052 34.0669 99.4409 33.6384 98.9767C33.6588 99.0588 33.6833 99.1451 33.7037 99.2273C34.4424 96.9389 35.1851 94.6547 35.9278 92.3663C35.9727 92.2225 35.8707 92.0993 35.7483 92.05C33.5242 91.1461 31.2592 90.3655 28.9535 89.7123L29.1331 90.0287C29.937 84.318 30.741 78.6033 31.549 72.8926C31.5939 72.5681 31.1042 72.4284 31.0552 72.7571L31.0593 72.753Z" fill="black"/>
<path d="M67.1103 73.9488C68.5428 78.353 69.9752 82.753 71.4076 87.1572C71.6116 87.7776 71.8116 88.4021 72.0156 89.0224C72.0564 88.9238 72.0932 88.8293 72.134 88.7307C70.7995 89.6099 69.465 90.4891 68.1306 91.3642C67.9959 91.4505 67.9551 91.6477 68.0775 91.7668C69.412 93.0445 70.7465 94.3181 72.0809 95.5958C72.0605 95.5136 72.036 95.4274 72.0156 95.3452C71.3015 98.8825 70.5873 102.416 69.8691 105.953C69.767 106.458 69.665 106.964 69.563 107.469C69.4977 107.794 69.9874 107.929 70.0568 107.605C70.5547 105.135 71.0566 102.666 71.5545 100.197C71.8279 98.8373 72.1054 97.4733 72.3788 96.1135C72.4196 95.9163 72.538 95.6246 72.5135 95.415C72.4768 95.0782 71.8891 94.7084 71.6687 94.4989C70.5914 93.4677 69.5099 92.4365 68.4326 91.4053C68.4162 91.5408 68.3999 91.6723 68.3795 91.8079C69.714 90.9287 71.0484 90.0495 72.3829 89.1744C72.4727 89.1128 72.538 88.9937 72.5013 88.8827C71.0689 84.4786 69.6364 80.0785 68.204 75.6743L67.596 73.8091C67.494 73.4969 67.0002 73.6284 67.1022 73.9447L67.1103 73.9488Z" fill="black"/>
<path d="M2.11307 87.5926C5.91651 95.4149 9.71586 103.233 13.5193 111.055C13.6621 111.351 14.1029 111.092 13.96 110.797C10.1566 102.974 6.35725 95.1561 2.55382 87.3337C2.41098 87.0379 1.97024 87.2968 2.11307 87.5926Z" fill="black"/>
<path d="M85.1764 86.4008C86.6986 92.7647 87.9515 99.1943 88.9635 105.661C90.0123 112.353 90.8122 119.087 91.3182 125.845C91.5917 129.481 91.7712 133.129 91.8488 136.774C91.8569 137.102 92.367 137.106 92.3589 136.774C92.2201 130.167 91.7345 123.569 90.9999 117.004C90.2531 110.316 89.2451 103.66 87.9841 97.0497C87.2944 93.4343 86.5231 89.8354 85.6702 86.2611C85.5927 85.9407 85.103 86.0763 85.1764 86.3967V86.4008Z" fill="black"/>
</g>
</g>
<defs>
<clipPath id="clip0_340_6851">
<rect width="100" height="100" rx="50" fill="white"/>
</clipPath>
<clipPath id="clip1_340_6851">
<rect width="168" height="350" fill="white" transform="translate(-28 16)"/>
</clipPath>
</defs>
</svg>
