<svg width="24" height="24" viewBox="0 0 24 24" fill="none" xmlns="http://www.w3.org/2000/svg">
<rect width="24" height="24" rx="12" fill="#283891"/>
<g clip-path="url(#clip0_477_6690)">
<path d="M6 16.2381L10.3867 12.5198L6 8.85645V16.2381Z" fill="white"/>
<path d="M12.7934 13.1518C12.5618 13.2435 12.3134 13.2918 12.0568 13.2935C12.0534 13.2935 12.0501 13.2935 12.0451 13.2935C11.7568 13.2935 11.4784 13.2335 11.2234 13.1201L6.69678 16.9585H17.3001L12.7934 13.1518Z" fill="white"/>
<path d="M13.6467 12.5635L18.0001 16.2402V8.87354L13.6467 12.5635Z" fill="white"/>
<path d="M11.3033 11.985C11.5033 12.1867 11.7667 12.2983 12.0517 12.295C12.335 12.295 12.6 12.18 12.7967 11.9783L12.8317 11.945L18 7.56167V7.555C18 7.24833 17.7517 7 17.445 7H6.555C6.24833 7 6 7.24833 6 7.555L11.3033 11.985Z" fill="white"/>
</g>
<defs>
<clipPath id="clip0_477_6690">
<rect width="12" height="10" fill="white" transform="translate(6 7)"/>
</clipPath>
</defs>
</svg>
