<svg width="24" height="24" viewBox="0 0 24 24" fill="none" xmlns="http://www.w3.org/2000/svg">
<rect width="24" height="24" rx="12" fill="#283891"/>
<path d="M7 16.5V17C7 17.2778 6.90278 17.5139 6.70833 17.7083C6.51389 17.9028 6.27778 18 6 18C5.72222 18 5.48611 17.9028 5.29167 17.7083C5.09722 17.5139 5 17.2778 5 17V11.294C5 11.2009 5.01042 11.1078 5.03125 11.0146C5.05208 10.9215 5.07639 10.8264 5.10417 10.7292L6.62896 6.94708C6.73743 6.66292 6.92014 6.43403 7.17708 6.26042C7.43403 6.08681 7.71528 6 8.02083 6H15.9792C16.2847 6 16.566 6.08681 16.8229 6.26042C17.0799 6.43403 17.2626 6.66292 17.371 6.94708L18.8958 10.7292C18.9236 10.8264 18.9479 10.9215 18.9688 11.0146C18.9896 11.1078 19 11.2009 19 11.294V17C19 17.2778 18.9028 17.5139 18.7083 17.7083C18.5139 17.9028 18.2778 18 18 18C17.7222 18 17.4861 17.9028 17.2917 17.7083C17.0972 17.5139 17 17.2778 17 17V16.5H7ZM7.02083 10H16.9792L15.9792 7.5H8.02083L7.02083 10ZM8.5 14.25C8.77778 14.25 9.01389 14.1528 9.20833 13.9583C9.40278 13.7639 9.5 13.5278 9.5 13.25C9.5 12.9722 9.40278 12.7361 9.20833 12.5417C9.01389 12.3472 8.77778 12.25 8.5 12.25C8.22222 12.25 7.98611 12.3472 7.79167 12.5417C7.59722 12.7361 7.5 12.9722 7.5 13.25C7.5 13.5278 7.59722 13.7639 7.79167 13.9583C7.98611 14.1528 8.22222 14.25 8.5 14.25ZM15.5 14.25C15.7778 14.25 16.0139 14.1528 16.2083 13.9583C16.4028 13.7639 16.5 13.5278 16.5 13.25C16.5 12.9722 16.4028 12.7361 16.2083 12.5417C16.0139 12.3472 15.7778 12.25 15.5 12.25C15.2222 12.25 14.9861 12.3472 14.7917 12.5417C14.5972 12.7361 14.5 12.9722 14.5 13.25C14.5 13.5278 14.5972 13.7639 14.7917 13.9583C14.9861 14.1528 15.2222 14.25 15.5 14.25Z" fill="white"/>
</svg>
