<svg width="213" height="89" viewBox="0 0 213 89" fill="none" xmlns="http://www.w3.org/2000/svg">
<path d="M82.1865 10.5L78.1865 15L82.1865 19.5" stroke="white"/>
<path d="M76.1865 10.5L72.1865 15L76.1865 19.5" stroke="white"/>
<path d="M70.1865 10.5L66.1865 15L70.1865 19.5" stroke="white"/>
<rect x="98.9365" y="0.75" width="14.5" height="28.5" rx="6.75" stroke="white" stroke-width="1.5"/>
<rect x="105.187" y="6" width="2" height="6" rx="1" fill="white"/>
<path d="M130.187 10.5L134.187 15L130.187 19.5" stroke="white"/>
<path d="M136.187 10.5L140.187 15L136.187 19.5" stroke="white"/>
<path d="M142.187 10.5L146.187 15L142.187 19.5" stroke="white"/>
<path d="M11.2187 48.2656V56.5781H9.48434V54.625H6.64059V55.7188H-3.8147e-05V49.3281H6.64059V50.4219H9.48434V48.2656H11.2187ZM1.73434 50.7031V54.3281H4.92184V50.7031H1.73434ZM6.43746 56.9531C9.43746 56.9531 11.2656 57.9531 11.2656 59.6719C11.2656 61.3906 9.43746 62.375 6.43746 62.375C3.45309 62.375 1.62496 61.3906 1.64059 59.6719C1.62496 57.9531 3.45309 56.9531 6.43746 56.9531ZM6.43746 58.2812C4.46871 58.2812 3.35934 58.7656 3.35934 59.6719C3.35934 60.5469 4.46871 61.0312 6.43746 61.0312C8.40621 61.0312 9.53121 60.5469 9.53121 59.6719C9.53121 58.7656 8.40621 58.2812 6.43746 58.2812ZM6.64059 53.2188H9.48434V51.7969H6.64059V53.2188ZM24.0393 48.2656V52.2344H26.0237V53.6719H24.0393V58.4844H22.305V48.2656H24.0393ZM19.8206 49.4375V50.8281H15.2112V54.6719C17.8675 54.6797 19.344 54.5859 21.0237 54.2344L21.2112 55.6406C19.3675 56 17.7112 56.0938 14.6331 56.0938H13.4925V49.4375H19.8206ZM24.6018 60.7031V62.1094H14.9925V57.4062H16.7268V60.7031H24.6018ZM41.6493 48.2656V55.8438H39.8993V48.2656H41.6493ZM34.0243 56.5V57.9531H39.915V56.5H41.6493V62.2188H32.3056V56.5H34.0243ZM34.0243 60.8125H39.915V59.3125H34.0243V60.8125ZM33.9462 48.8906C36.1181 48.875 37.7431 50.2344 37.7431 52.2031C37.7431 54.125 36.1181 55.4844 33.9462 55.4844C31.7587 55.4844 30.1337 54.125 30.1337 52.2031C30.1337 50.2344 31.7587 48.875 33.9462 48.8906ZM33.9462 50.3438C32.7118 50.3438 31.8212 51.0625 31.8368 52.2031C31.8212 53.3281 32.7118 54.0469 33.9462 54.0625C35.165 54.0469 36.04 53.3281 36.04 52.2031C36.04 51.0625 35.165 50.3438 33.9462 50.3438ZM50.1418 49.1094V53.3594H45.6887V55.0938C47.9543 55.1016 49.259 55.0312 50.7512 54.75L50.9231 56.1562C49.2356 56.4375 47.7668 56.4844 45.0012 56.4844H43.97V52.0625H48.4075V50.4844H43.9387V49.1094H50.1418ZM55.22 48.2812V56.9688H53.4856V54.6406H50.9856V53.25H53.4856V51.6719H50.9856V50.2812H53.4856V48.2812H55.22ZM55.22 57.6406V62.3906H53.4856V59.0312H45.5637V57.6406H55.22ZM69.775 55.5625V56.9531H56.9V55.5625H69.775ZM68.3218 60.7031V62.1094H58.4937V58H60.2281V60.7031H68.3218ZM63.3218 48.7188C66.4 48.7188 68.4 49.7969 68.4156 51.5781C68.4 53.375 66.4 54.4688 63.3218 54.4688C60.2437 54.4688 58.2281 53.375 58.2281 51.5781C58.2281 49.7969 60.2437 48.7188 63.3218 48.7188ZM63.3218 50.1094C61.275 50.1094 60.025 50.6406 60.0406 51.5781C60.025 52.5312 61.275 53.0625 63.3218 53.0469C65.3843 53.0625 66.6187 52.5312 66.6187 51.5781C66.6187 50.6406 65.3843 50.1094 63.3218 50.1094ZM74.4631 61V49.6875H78.7131C81.3068 49.6875 82.6975 51.2656 82.6975 53.4375C82.6975 55.6094 81.2912 57.1719 78.6818 57.1719H76.4943V61H74.4631ZM76.4943 55.5H78.4006C79.9318 55.5 80.6193 54.6406 80.6193 53.4375C80.6193 52.2188 79.9318 51.3906 78.4006 51.3906H76.4943V55.5ZM91.6431 53.5C91.4087 52.1406 90.315 51.3594 88.94 51.3594C87.0806 51.3594 85.7837 52.7812 85.7837 55.3438C85.7837 57.9375 87.0962 59.3281 88.94 59.3281C90.2837 59.3281 91.3775 58.5781 91.6431 57.25H93.69C93.3775 59.4219 91.5962 61.1562 88.9087 61.1562C85.9243 61.1562 83.7368 58.9844 83.7368 55.3438C83.7368 51.6875 85.9556 49.5312 88.9087 49.5312C91.4087 49.5312 93.3462 50.9844 93.69 53.5H91.6431ZM109.784 48.2656V55.8438H108.034V48.2656H109.784ZM102.159 56.5V57.9531H108.05V56.5H109.784V62.2188H100.441V56.5H102.159ZM102.159 60.8125H108.05V59.3125H102.159V60.8125ZM102.081 48.8906C104.253 48.875 105.878 50.2344 105.878 52.2031C105.878 54.125 104.253 55.4844 102.081 55.4844C99.8937 55.4844 98.2687 54.125 98.2687 52.2031C98.2687 50.2344 99.8937 48.875 102.081 48.8906ZM102.081 50.3438C100.847 50.3438 99.9562 51.0625 99.9718 52.2031C99.9562 53.3281 100.847 54.0469 102.081 54.0625C103.3 54.0469 104.175 53.3281 104.175 52.2031C104.175 51.0625 103.3 50.3438 102.081 50.3438ZM118.277 49.1094V53.3594H113.824V55.0938C116.089 55.1016 117.394 55.0312 118.886 54.75L119.058 56.1562C117.371 56.4375 115.902 56.4844 113.136 56.4844H112.105V52.0625H116.542V50.4844H112.074V49.1094H118.277ZM123.355 48.2812V56.9688H121.621V54.6406H119.121V53.25H121.621V51.6719H119.121V50.2812H121.621V48.2812H123.355ZM123.355 57.6406V62.3906H121.621V59.0312H113.699V57.6406H123.355ZM131.457 48.4844C134.676 48.4844 136.535 49.3438 136.551 50.9062C136.535 52.4844 134.676 53.3281 131.457 53.3438C128.238 53.3281 126.363 52.4844 126.363 50.9062C126.363 49.3438 128.238 48.4844 131.457 48.4844ZM131.457 49.7656C129.301 49.7656 128.176 50.1719 128.191 50.9062C128.176 51.6875 129.301 52.0469 131.457 52.0469C133.644 52.0469 134.754 51.6875 134.754 50.9062C134.754 50.1719 133.644 49.7656 131.457 49.7656ZM137.91 54.0938V55.4844H125.035V54.0938H137.91ZM136.301 56.4375V59.8906H128.269V60.9375H136.691V62.2656H126.566V58.6562H134.597V57.7188H126.551V56.4375H136.301ZM153.957 48.2812V58.9219H152.192V57.2188H149.317V55.8438H152.192V48.2812H153.957ZM154.286 60.7031V62.1094H143.942V57.7969H145.676V60.7031H154.286ZM141.926 53.7031C143.645 53.6953 145.778 53.6719 147.911 53.5469C148.114 52.2344 148.176 51.1875 148.207 50.4219H143.207V49.0312H149.942V49.5625C149.942 50.2969 149.942 51.6172 149.661 53.4062C150.145 53.3594 150.629 53.2969 151.098 53.2344L151.223 54.4688C150.004 54.6797 148.747 54.8281 147.504 54.9219V58.0156H145.786V55.0156C144.473 55.0781 143.231 55.0938 142.145 55.0938L141.926 53.7031ZM160.591 50.8125C160.591 52.5469 161.716 54.1719 163.919 54.8438L163.091 56.2031C161.505 55.7109 160.38 54.7031 159.762 53.4219C159.137 54.9062 157.942 56.0859 156.247 56.6562L155.372 55.2812C157.653 54.5312 158.841 52.7031 158.841 50.8281V50.6562H155.856V49.25H163.528V50.6562H160.591V50.8125ZM166.669 48.2656V51.6562H168.637V53.0781H166.669V56.6875H164.934V48.2656H166.669ZM162.075 57C164.997 57 166.794 57.9844 166.809 59.6719C166.794 61.375 164.997 62.375 162.075 62.375C159.122 62.375 157.294 61.375 157.294 59.6719C157.294 57.9844 159.122 57 162.075 57ZM162.075 58.3594C160.137 58.3594 159.028 58.8125 159.028 59.6719C159.028 60.5469 160.137 61.0156 162.075 61.0156C164.012 61.0156 165.091 60.5469 165.091 59.6719C165.091 58.8125 164.012 58.3594 162.075 58.3594ZM180.177 48.2656V51.75H182.146V53.1875H180.177V56.5156H178.442V48.2656H180.177ZM172.771 57.0781V58.2969H178.442V57.0781H180.177V62.2188H171.052V57.0781H172.771ZM172.771 60.8438H178.442V59.6406H172.771V60.8438ZM177.427 49.5781V50.9688H169.052V49.5781H172.38V48.1562H174.114V49.5781H177.427ZM173.239 51.4531C175.286 51.4531 176.677 52.4375 176.692 53.9375C176.677 55.4375 175.286 56.4219 173.239 56.4219C171.177 56.4219 169.771 55.4375 169.771 53.9375C169.771 52.4375 171.177 51.4531 173.239 51.4531ZM173.239 52.7344C172.161 52.7344 171.458 53.1875 171.458 53.9375C171.458 54.7031 172.161 55.1406 173.239 55.1406C174.317 55.1406 175.036 54.7031 175.036 53.9375C175.036 53.1875 174.317 52.7344 173.239 52.7344ZM194.326 48.2656V62.3906H192.607V48.2656H194.326ZM185.076 49.6406V57.3594C187.06 57.3281 189.169 57.1484 191.341 56.7188L191.56 58.1719C189.076 58.6875 186.763 58.8438 184.576 58.8438H183.357V49.6406H185.076ZM207.115 48.2656V53.625H209.287V55.0469H207.115V62.4062H205.381V48.2656H207.115ZM203.24 49.6094V51.0156H198.365V57.5C200.56 57.5 202.295 57.3906 204.24 57.0469L204.443 58.5156C202.256 58.8906 200.349 58.9531 197.802 58.9531H196.631V49.6094H203.24ZM211.279 61.125C210.607 61.125 210.061 60.5781 210.061 59.9062C210.061 59.25 210.607 58.7031 211.279 58.7031C211.92 58.7031 212.482 59.25 212.482 59.9062C212.482 60.5781 211.92 61.125 211.279 61.125ZM48.3372 75.4688V76.8906H45.384C45.4309 78.4531 46.5793 79.9375 48.7278 80.5625L47.8997 81.9219C46.2903 81.4453 45.1418 80.4609 44.5247 79.2031C43.8997 80.5859 42.7122 81.6641 41.0559 82.1719L40.1653 80.8125C42.3606 80.1562 43.5481 78.5938 43.6184 76.8906H40.6497V75.4688H48.3372ZM45.3684 81.5781V84.0938C46.5247 84.0391 47.6887 83.9453 48.7747 83.7969L48.8997 85.0469C45.9153 85.6094 42.6809 85.5938 40.2747 85.6094L40.0403 84.1875C41.1106 84.1875 42.345 84.1875 43.634 84.1562V81.5781H45.3684ZM53.3684 79.9375V81.3906H51.3215V88.3906H49.5872V74.2656H51.3215V79.9375H53.3684ZM66.6109 82.2188V83.6562H60.9859V88.3906H59.2672V83.6562H53.7047V82.2188H66.6109ZM60.1265 74.7656C63.1265 74.7812 65.2203 76 65.2203 77.9375C65.2203 79.8594 63.1265 81.0625 60.1265 81.0625C57.1109 81.0625 55.0484 79.8594 55.064 77.9375C55.0484 76 57.1109 74.7812 60.1265 74.7656ZM60.1265 76.1719C58.1265 76.1719 56.8297 76.8281 56.8453 77.9375C56.8297 79.0312 58.1265 79.6875 60.1265 79.6875C62.1265 79.6875 63.4234 79.0312 63.4234 77.9375C63.4234 76.8281 62.1265 76.1719 60.1265 76.1719ZM80.1347 85.3125V86.75H67.2284V85.3125H72.7909V83.0156H68.7597V78.3906H76.8847V76.6406H68.7284V75.2344H78.6034V79.7656H70.494V81.5938H78.9315V83.0156H74.5097V85.3125H80.1347ZM91.5103 76.2031C91.5103 78.3906 93.6509 80.5781 96.604 81.0938L95.8228 82.5469C93.4556 82.0469 91.5181 80.6172 90.604 78.7188C89.6665 80.6016 87.729 82.0391 85.3697 82.5469L84.604 81.0938C87.5259 80.5625 89.6509 78.375 89.6665 76.2031V75.1562H91.5103V76.2031ZM97.1197 85.1562V86.5938H84.2134V85.1562H97.1197ZM109.175 75.5781V77.2656C109.175 79.3125 109.175 81.2656 108.55 84.25L106.815 84.0938C107.104 82.8594 107.268 81.7734 107.362 80.7656L99.034 81.2031L98.7997 79.7969L107.44 79.4688C107.472 78.7109 107.472 77.9844 107.472 77.2656V76.9844H99.2215V75.5781H109.175ZM110.597 85.1719V86.5938H97.7215V85.1719H110.597ZM124.12 80.75V82.0312H111.214V80.75H116.808V79.8594H112.855V76.625H120.792V75.7656H112.808V74.5781H122.527V77.75H114.573V78.6719H122.777V79.8594H118.527V80.75H124.12ZM122.558 82.8438V86.0625H114.464V87.0625H122.98V88.2656H112.73V84.9375H120.839V84.0625H112.714V82.8438H122.558ZM139.277 74.2656V79.8906H141.449V81.3281H139.277V88.3906H137.558V74.2656H139.277ZM136.465 76.4375V77.8281H128.137V76.4375H131.48V74.4688H133.215V76.4375H136.465ZM132.355 78.75C134.387 78.75 135.902 80.125 135.902 82.0781C135.902 84.0312 134.387 85.3906 132.355 85.3906C130.293 85.3906 128.777 84.0312 128.793 82.0781C128.777 80.125 130.293 78.75 132.355 78.75ZM132.355 80.1719C131.246 80.1719 130.449 80.9219 130.449 82.0781C130.449 83.2344 131.246 83.9688 132.355 83.9531C133.433 83.9688 134.23 83.2344 134.246 82.0781C134.23 80.9219 133.433 80.1719 132.355 80.1719ZM146.129 77.9688C146.129 80.25 146.926 82.625 148.832 83.8281L147.879 85.1562C146.606 84.3906 145.777 83.0703 145.317 81.5156C144.801 83.2266 143.895 84.6719 142.567 85.4844L141.488 84.1875C143.535 82.9375 144.457 80.4531 144.457 78.0469V75.5156H146.129V77.9688ZM153.91 74.2656V88.3906H152.238V74.2656H153.91ZM150.973 74.5156V87.7031H149.332V80.5625H147.317V79.125H149.332V74.5156H150.973ZM168.137 85.25V86.6719H155.231V85.25H158.215V81.6719C157.09 81.0312 156.411 80.0234 156.418 78.7656C156.403 76.5156 158.622 75.0312 161.653 75.0312C164.7 75.0312 166.918 76.5156 166.918 78.7656C166.918 80 166.262 80.9922 165.168 81.6406V85.25H168.137ZM161.653 76.4062C159.543 76.4062 158.106 77.2969 158.122 78.7656C158.106 80.2188 159.543 81.125 161.653 81.125C163.762 81.125 165.215 80.2188 165.215 78.7656C165.215 77.2969 163.762 76.4062 161.653 76.4062ZM159.934 85.25H163.403V82.2969C162.864 82.4219 162.278 82.4844 161.653 82.4844C161.043 82.4844 160.465 82.4219 159.934 82.3125V85.25ZM170.458 87.125C169.786 87.125 169.239 86.5781 169.239 85.9062C169.239 85.25 169.786 84.7031 170.458 84.7031C171.098 84.7031 171.661 85.25 171.661 85.9062C171.661 86.5781 171.098 87.125 170.458 87.125Z" fill="white"/>
</svg>
