<svg width="18" height="18" viewBox="0 0 18 18" fill="none" xmlns="http://www.w3.org/2000/svg">
<path opacity="0.6" d="M9 12.6C10.049 12.6 10.9406 12.25 11.6748 11.55C12.4091 10.85 12.7762 10 12.7762 9C12.7762 8 12.4091 7.15 11.6748 6.45C10.9406 5.75 10.049 5.4 9 5.4C7.95105 5.4 7.05944 5.75 6.32517 6.45C5.59091 7.15 5.22378 8 5.22378 9C5.22378 10 5.59091 10.85 6.32517 11.55C7.05944 12.25 7.95105 12.6 9 12.6ZM9 11.16C8.37063 11.16 7.83566 10.95 7.3951 10.53C6.95455 10.11 6.73427 9.6 6.73427 9C6.73427 8.4 6.95455 7.89 7.3951 7.47C7.83566 7.05 8.37063 6.84 9 6.84C9.62937 6.84 10.1643 7.05 10.6049 7.47C11.0455 7.89 11.2657 8.4 11.2657 9C11.2657 9.6 11.0455 10.11 10.6049 10.53C10.1643 10.95 9.62937 11.16 9 11.16ZM9 15C7.12587 15 5.41608 14.52 3.87063 13.56C2.32517 12.6 1.1049 11.3333 0.20979 9.76C0.13986 9.64 0.0874126 9.51667 0.0524475 9.39C0.0174825 9.26333 0 9.13333 0 9C0 8.86667 0.0174825 8.73667 0.0524475 8.61C0.0874126 8.48333 0.13986 8.36 0.20979 8.24C1.1049 6.66667 2.32517 5.4 3.87063 4.44C5.41608 3.48 7.12587 3 9 3C10.8741 3 12.5839 3.48 14.1294 4.44C15.6748 5.4 16.8951 6.66667 17.7902 8.24C17.8601 8.36 17.9126 8.48333 17.9476 8.61C17.9825 8.73667 18 8.86667 18 9C18 9.13333 17.9825 9.26333 17.9476 9.39C17.9126 9.51667 17.8601 9.64 17.7902 9.76C16.8951 11.3333 15.6748 12.6 14.1294 13.56C12.5839 14.52 10.8741 15 9 15Z" fill="#666666"/>
</svg>
