<svg width="40" height="34" viewBox="0 0 40 34" fill="none" xmlns="http://www.w3.org/2000/svg">
<g clip-path="url(#clip0_319_6690)">
<path d="M36.2638 15.8525V25.8892" stroke="white" stroke-width="2" stroke-linecap="round" stroke-linejoin="round"/>
<path d="M38.4674 28.1385C38.4674 26.9215 37.4813 25.9355 36.2641 25.9355C35.0468 25.9355 34.0607 26.9215 34.0607 28.1385V33.0375H38.4752V28.1385H38.4674Z" stroke="white" stroke-width="2" stroke-linecap="round" stroke-linejoin="round"/>
<path d="M30.4542 28.5541C24.1445 32.8445 15.8626 32.8445 9.55286 28.5541V12.332H30.4542V28.5541Z" fill="#283891" stroke="white" stroke-width="2" stroke-linecap="round" stroke-linejoin="round"/>
<path d="M20 23.4629L0.963013 14.3505L20 5.23047L39.037 14.3505L20 23.4629Z" fill="#4D64E2" stroke="white" stroke-width="2" stroke-linecap="round" stroke-linejoin="round"/>
<path d="M25.9553 11.2307L31.094 0.962891L35.7165 4.044L25.9553 11.2307Z" stroke="white" stroke-width="2" stroke-linecap="round" stroke-linejoin="round"/>
<path d="M8.75695 1.75718L6.21289 4.30078L8.75695 6.84438L11.301 4.30078L8.75695 1.75718Z" stroke="white" stroke-width="2" stroke-linecap="round" stroke-linejoin="round"/>
</g>
<defs>
<clipPath id="clip0_319_6690">
<rect width="40" height="34" fill="white"/>
</clipPath>
</defs>
</svg>
