<svg width="24" height="38" viewBox="0 0 24 38" fill="none" xmlns="http://www.w3.org/2000/svg">
<g clip-path="url(#clip0_501_6604)">
<path d="M22.6011 4.97583C22.6011 3.22532 21.168 1.80176 19.4057 1.80176C17.6434 1.80176 16.2651 3.17764 16.2171 4.88729C15.9702 4.84642 15.7165 4.82598 15.456 4.82598C12.6857 4.82598 10.4365 7.0601 10.4365 9.81187C10.4365 12.5636 12.6857 14.7978 15.456 14.7978C18.2262 14.7978 20.4754 12.5636 20.4754 9.81187C20.4754 9.19204 20.3588 8.60627 20.1531 8.06136C21.5588 7.72761 22.608 6.47432 22.608 4.97583H22.6011Z" fill="white" stroke="#222222" stroke-width="2" stroke-linecap="round" stroke-linejoin="round"/>
<path d="M9.19542 25.7164C11.6914 26.6359 13.2343 29.3264 16.1828 28.6861C17.0606 28.4954 17.808 28.0527 18.432 27.4533L14.9348 21.4389V10.4727H8.04342V21.4389L5.76685 25.3554C6.9257 25.2328 8.09142 25.3077 9.19542 25.7164Z" fill="#F7F8F9" stroke="#222222" stroke-width="2" stroke-linecap="round" stroke-linejoin="round"/>
<path d="M20.7908 31.5264L18.4251 27.46C17.808 28.0526 17.0605 28.4953 16.176 28.6929C13.2274 29.3331 11.6845 26.6427 9.18852 25.7231C8.08452 25.3145 6.91881 25.2395 5.75995 25.3621L2.17366 31.5332C0.685665 34.0943 1.90624 36.1853 4.87538 36.1853H18.0822C21.0582 36.1853 22.2719 34.0943 20.7839 31.5332L20.7908 31.5264Z" fill="#227A64" stroke="#222222" stroke-width="2" stroke-linecap="round" stroke-linejoin="round"/>
<path d="M15.4492 4.8252C16.1418 4.8252 16.8001 4.96142 17.4035 5.22025L15.4492 4.8252Z" fill="white"/>
<path d="M15.4492 4.8252C16.1418 4.8252 16.8001 4.96142 17.4035 5.22025" stroke="#222222" stroke-width="2" stroke-linecap="round" stroke-linejoin="round"/>
</g>
<defs>
<clipPath id="clip0_501_6604">
<rect width="24" height="38" fill="white"/>
</clipPath>
</defs>
</svg>
