<svg width="18" height="18" viewBox="0 0 18 18" fill="none" xmlns="http://www.w3.org/2000/svg">
<path d="M9 9.98L11.03 12.01C11.1583 12.1383 11.3217 12.2025 11.52 12.2025C11.7183 12.2025 11.8817 12.1383 12.01 12.01C12.1383 11.8817 12.2025 11.7183 12.2025 11.52C12.2025 11.3217 12.1383 11.1583 12.01 11.03L9.98 9L12.01 6.97C12.1383 6.84167 12.2025 6.67833 12.2025 6.48C12.2025 6.28167 12.1383 6.11833 12.01 5.99C11.8817 5.86167 11.7183 5.7975 11.52 5.7975C11.3217 5.7975 11.1583 5.86167 11.03 5.99L9 8.02L6.97 5.99C6.84167 5.86167 6.67833 5.7975 6.48 5.7975C6.28167 5.7975 6.11833 5.86167 5.99 5.99C5.86167 6.11833 5.7975 6.28167 5.7975 6.48C5.7975 6.67833 5.86167 6.84167 5.99 6.97L8.02 9L5.99 11.03C5.86167 11.1583 5.7975 11.3217 5.7975 11.52C5.7975 11.7183 5.86167 11.8817 5.99 12.01C6.11833 12.1383 6.28167 12.2025 6.48 12.2025C6.67833 12.2025 6.84167 12.1383 6.97 12.01L9 9.98ZM9 16C8.03167 16 7.12167 15.8162 6.27 15.4488C5.41833 15.0813 4.6775 14.5825 4.0475 13.9525C3.4175 13.3225 2.91875 12.5817 2.55125 11.73C2.18375 10.8783 2 9.96833 2 9C2 8.03167 2.18375 7.12167 2.55125 6.27C2.91875 5.41833 3.4175 4.6775 4.0475 4.0475C4.6775 3.4175 5.41833 2.91875 6.27 2.55125C7.12167 2.18375 8.03167 2 9 2C9.96833 2 10.8783 2.18375 11.73 2.55125C12.5817 2.91875 13.3225 3.4175 13.9525 4.0475C14.5825 4.6775 15.0813 5.41833 15.4488 6.27C15.8162 7.12167 16 8.03167 16 9C16 9.96833 15.8162 10.8783 15.4488 11.73C15.0813 12.5817 14.5825 13.3225 13.9525 13.9525C13.3225 14.5825 12.5817 15.0813 11.73 15.4488C10.8783 15.8162 9.96833 16 9 16Z" fill="#333333"/>
</svg>
