<svg width="42" height="40" viewBox="0 0 42 40" fill="none" xmlns="http://www.w3.org/2000/svg">
<path d="M0.700928 7.52375V31.7353C0.716584 33.7445 1.53461 35.6652 2.97511 37.0751C4.41562 38.485 6.36067 39.2687 8.38255 39.2538C10.4048 39.2691 12.3504 38.4856 13.7915 37.0757C15.2326 35.6658 16.0511 33.7449 16.0672 31.7353V29.2715H16.0566C16.0436 28.849 15.8656 28.4481 15.5603 28.1539C15.255 27.8596 14.8464 27.695 14.421 27.695C13.9957 27.695 13.5871 27.8596 13.2818 28.1539C12.9765 28.4481 12.7985 28.849 12.7855 29.2715V29.2896V29.3047V31.7353C12.7641 32.8798 12.2915 33.9703 11.4694 34.7722C10.6473 35.574 9.54135 36.0233 8.38938 36.0233C7.23741 36.0233 6.13145 35.574 5.30935 34.7722C4.48725 33.9703 4.01468 32.8798 3.99327 31.7353V7.52375C4.0234 6.38486 4.49986 5.30268 5.32115 4.50774C6.14244 3.7128 7.24363 3.26795 8.39014 3.26795C9.53665 3.26795 10.6378 3.7128 11.4591 4.50774C12.2804 5.30268 12.7569 6.38486 12.787 7.52375V17.3838L12.8068 18.0466V20.0591C12.8232 22.0685 13.6419 23.9892 15.0829 25.399C16.5239 26.8088 18.4693 27.5924 20.4914 27.5775C21.5756 27.5809 22.6462 27.3377 23.6212 26.8664L23.5969 23.1072C23.4063 23.2937 23.1994 23.463 22.9785 23.613C22.2442 24.1062 21.3778 24.3691 20.4914 24.3678C19.3351 24.3763 18.2227 23.9281 17.3988 23.1218C16.5748 22.3156 16.1068 21.2172 16.0976 20.0681V17.9953L16.0763 17.328V7.52375C16.0686 6.52769 15.8634 5.54291 15.4725 4.62569C15.0816 3.70846 14.5126 2.87676 13.7981 2.17812C13.0836 1.47948 12.2376 0.927592 11.3084 0.55399C10.3791 0.180387 9.38492 -0.0076049 8.38255 0.000755356C6.36013 -0.0133111 4.41486 0.771256 2.9744 2.18197C1.53393 3.59269 0.716185 5.51409 0.700928 7.52375Z" fill="white"/>
<path d="M34.001 0.000230327C31.9785 -0.0142371 30.033 0.7702 28.5924 2.181C27.1519 3.59181 26.3343 5.51344 26.3194 7.52323V9.98711C26.3376 10.4062 26.5179 10.8022 26.8228 11.0924C27.1277 11.3825 27.5335 11.5445 27.9557 11.5445C28.3779 11.5445 28.7837 11.3825 29.0886 11.0924C29.3935 10.8022 29.5738 10.4062 29.592 9.98711V9.96447V9.94937V7.52323C29.6221 6.38434 30.0986 5.30215 30.9199 4.50721C31.7412 3.71228 32.8424 3.26742 33.9889 3.26742C35.1354 3.26742 36.2366 3.71228 37.0579 4.50721C37.8792 5.30215 38.3556 6.38434 38.3857 7.52323V31.7303C38.3556 32.8692 37.8792 33.9514 37.0579 34.7463C36.2366 35.5412 35.1354 35.9861 33.9889 35.9861C32.8424 35.9861 31.7412 35.5412 30.9199 34.7463C30.0986 33.9514 29.6221 32.8692 29.592 31.7303V21.8732L29.5722 21.2105V19.1995C29.5566 17.1906 28.7394 15.27 27.3 13.8592C25.8607 12.4485 23.9168 11.6629 21.8952 11.675C20.8127 11.6753 19.7444 11.9205 18.7715 12.3921L18.7912 16.1544C18.9842 15.9687 19.1926 15.7995 19.4142 15.6486C20.1487 15.1569 21.0141 14.8941 21.8997 14.8937C23.0577 14.8857 24.1716 15.3346 24.9968 16.1419C25.822 16.9492 26.2911 18.0488 26.3012 19.1995V21.2663L26.3255 21.9291V31.7303C26.3539 33.7359 27.1756 35.6499 28.6129 37.0583C30.0503 38.4666 31.9878 39.2561 34.0063 39.2561C36.0249 39.2561 37.9624 38.4666 39.3997 37.0583C40.8371 35.6499 41.6588 33.7359 41.6872 31.7303V7.52323C41.6798 6.5277 41.4752 5.54336 41.0849 4.62644C40.6946 3.70953 40.1263 2.87801 39.4126 2.17939C38.6988 1.48077 37.8535 0.928741 36.925 0.554833C35.9964 0.180925 35.0029 -0.00753093 34.001 0.000230327Z" fill="white"/>
</svg>
