<svg width="28" height="28" viewBox="0 0 28 28" fill="none" xmlns="http://www.w3.org/2000/svg">
<rect width="28" height="28" rx="14" fill="#39B54A"/>
<g clip-path="url(#clip0_313_1657)">
<path d="M18.5402 12.7173L20.3731 10.885C21.209 10.0494 21.209 8.69238 20.3731 7.8529L20.1468 7.62674C19.3109 6.79109 17.9535 6.79109 17.1138 7.62674L15.2809 9.45903C13.2831 8.70388 10.9441 9.12937 9.3336 10.7355C9.21473 10.8543 9.10353 10.9808 9 11.1073L16.8952 19C17.0217 18.8927 17.1483 18.7853 17.2671 18.6665C18.8738 17.0604 19.2956 14.7183 18.544 12.7211L18.5402 12.7173Z" fill="white"/>
<path d="M12.8955 15L8 19.8955" stroke="white" stroke-width="1.5" stroke-linecap="round" stroke-linejoin="round"/>
</g>
<defs>
<clipPath id="clip0_313_1657">
<rect width="14" height="14" fill="white" transform="translate(7 7)"/>
</clipPath>
</defs>
</svg>
