<svg width="100" height="100" viewBox="0 0 100 100" fill="none" xmlns="http://www.w3.org/2000/svg">
<g clip-path="url(#clip0_340_6756)">
<rect width="100" height="100" rx="50" fill="white"/>
<g clip-path="url(#clip1_340_6756)">
<path d="M19.1127 165.045L85.2403 164.037C85.2403 164.037 89.0772 86.3424 86.1151 81.095C84.5734 78.3549 61.916 66.4987 61.916 66.4987L58.5901 61.8975L54.1123 61.9233L40.0207 65.6973L38.1585 70.4967L27.5573 80.5349C27.5573 80.5349 17.2506 125.909 19.1127 165.045Z" fill="white"/>
<path d="M38.4702 104.403L44.8448 83.6719L46.2132 83.7322L50.5698 105.877C50.5698 105.877 44.1865 131.037 44.5243 130.02C44.8535 128.995 38.4789 104.403 38.4789 104.403H38.4702Z" fill="#8E0E00"/>
<path d="M35.439 81.4317L44.3166 101.853L62.5656 73.4873L66.6883 74.5644L62.5656 166.399L29.8525 165.572L35.439 81.4317Z" fill="#C6C6C6"/>
<path d="M38.0631 69.5146C38.0631 69.5146 35.3695 150.01 35.4388 163.796C35.4474 165.683 31.6106 165.563 29.861 165.58L15.9253 165.511C14.0891 165.528 12.5648 163.977 12.4695 162.004L12.1144 140.73C12.1144 140.73 -9.01872 150.535 -12.5958 131.467C-15.2807 117.147 7.9484 82.965 12.6167 80.1819C14.4702 79.0789 32.6326 72.0737 32.6326 72.0737L38.0631 69.5146Z" fill="#214B8B"/>
<path d="M61.8294 65.1289L51.7998 103.153L49.6865 163.814C49.7298 165.623 51.1069 167.114 52.8998 167.286C57.9059 167.768 71.1228 169.595 78.7965 168.475C89.467 166.915 93.4511 171.008 93.4511 171.008L92.5504 156.248C92.5504 156.248 113.761 154.99 114.939 136.637C115.728 124.453 107.248 94.7868 99.2974 81.7501C96.4479 77.0714 67.8489 68.7737 67.8489 68.7737L61.8207 65.1289H61.8294Z" fill="#214B8B"/>
<path d="M46.5856 76.7092L46.0313 76.6834L45.6762 76.6661L44.5156 76.623L42.3677 79.1132L44.8447 83.6713L45.3558 83.6972L45.7109 83.7058L46.2132 83.7316L49.106 79.4062L46.5856 76.7092Z" fill="#8E0E00"/>
<path d="M44.005 76.3393C42.3681 78.3039 40.8091 80.346 39.3453 82.4484C39.0249 82.9051 39.7784 83.3359 40.0902 82.8792C41.5106 80.8371 43.0177 78.8554 44.6113 76.9425C44.9664 76.5203 44.3515 75.9085 43.9964 76.3307L44.005 76.3393Z" fill="#C6C6C6"/>
<path d="M45.46 76.5195C47.6513 78.8028 49.8425 81.0776 52.0251 83.361C52.2157 83.5591 52.5708 83.5074 52.7093 83.2748L58.3477 73.3917C58.6162 72.9178 58.8847 72.4439 59.1619 71.97C59.439 71.4874 58.6855 71.048 58.417 71.5391C56.5376 74.8306 54.6581 78.1307 52.7786 81.4222C52.5101 81.8961 52.2416 82.3701 51.9645 82.844C52.1897 82.8181 52.4149 82.7836 52.6487 82.7578C50.4575 80.4744 48.2662 78.1997 46.0836 75.9163C45.6938 75.5113 45.0876 76.1231 45.4687 76.5281L45.46 76.5195Z" fill="#C6C6C6"/>
<path d="M58.3476 62.5176C59.0145 60.8891 59.1357 55.3315 58.7633 55.3832L39.5356 62.8881C39.6742 63.5516 39.553 64.0169 39.9947 66.8345L45.1827 73.4778C46.8629 71.901 58.6854 63.3448 58.3476 62.509V62.5176Z" fill="#FFAF99"/>
<mask id="mask0_340_6756" style="mask-type:luminance" maskUnits="userSpaceOnUse" x="39" y="55" width="20" height="19">
<path d="M58.3476 62.5176C59.0145 60.8891 59.1357 55.3315 58.7633 55.3832L39.5356 62.8881C39.6742 63.5516 39.553 64.0169 39.9947 66.8345L45.1827 73.4778C46.8629 71.901 58.6854 63.3448 58.3476 62.509V62.5176Z" fill="white"/>
</mask>
<g mask="url(#mask0_340_6756)">
<path d="M59.982 57.5335C61.1961 60.6488 57.2394 64.5855 51.1427 66.3244C45.046 68.0633 39.1152 66.946 37.9011 63.8307C36.687 60.7154 40.6438 56.7787 46.7405 55.0398C52.8372 53.3008 58.7679 54.4182 59.982 57.5335Z" fill="#FFA795"/>
</g>
<path d="M111.302 26.5961C110.513 28.8881 108.686 30.4994 106.434 31.2835C104.069 32.1106 101.506 31.9383 99.1846 31.068C93.4856 28.9484 89.5188 23.8647 85.3182 19.7201C83.1616 17.5919 80.8577 15.567 78.1814 14.1367C75.6264 12.7752 72.7596 12.0256 69.8667 11.9998C64.237 11.9481 59.0144 14.6106 55.7318 19.2118C54.1208 21.4693 53.0209 24.0715 52.4579 26.7857C52.2067 27.992 52.4492 29.1896 53.428 29.9996C54.1988 30.6458 55.0736 30.62 56.0176 30.5683C56.3294 30.5511 56.6326 30.5338 56.9444 30.5166C58.0616 30.4304 59.0837 29.8962 59.7592 28.9915C60.3742 28.1643 61.0064 27.5008 61.9418 27.0355C63.8646 26.0791 66.0905 26.1308 68.0826 26.8373C70.3258 27.6301 72.2832 29.0259 74.18 30.439C76.1027 31.8694 78.0255 33.2911 80.0782 34.5405C87.4142 39.0038 96.8115 41.8042 104.745 37.1599C108.591 34.911 111.423 31.2576 112.306 26.846C112.419 26.26 111.492 26.0619 111.302 26.6133V26.5961Z" fill="#543000"/>
<mask id="mask1_340_6756" style="mask-type:luminance" maskUnits="userSpaceOnUse" x="52" y="11" width="61" height="29">
<path d="M111.302 26.5961C110.513 28.8881 108.686 30.4994 106.434 31.2835C104.069 32.1106 101.506 31.9383 99.1846 31.068C93.4856 28.9484 89.5188 23.8647 85.3182 19.7201C83.1616 17.5919 80.8577 15.567 78.1814 14.1367C75.6264 12.7752 72.7596 12.0256 69.8667 11.9998C64.237 11.9481 59.0144 14.6106 55.7318 19.2118C54.1208 21.4693 53.0209 24.0715 52.4579 26.7857C52.2067 27.992 52.4492 29.1896 53.428 29.9996C54.1988 30.6458 55.0736 30.62 56.0176 30.5683C56.3294 30.5511 56.6326 30.5338 56.9444 30.5166C58.0616 30.4304 59.0837 29.8962 59.7592 28.9915C60.3742 28.1643 61.0064 27.5008 61.9418 27.0355C63.8646 26.0791 66.0905 26.1308 68.0826 26.8373C70.3258 27.6301 72.2832 29.0259 74.18 30.439C76.1027 31.8694 78.0255 33.2911 80.0782 34.5405C87.4142 39.0038 96.8115 41.8042 104.745 37.1599C108.591 34.911 111.423 31.2576 112.306 26.846C112.419 26.26 111.492 26.0619 111.302 26.6133V26.5961Z" fill="white"/>
</mask>
<g mask="url(#mask1_340_6756)">
<path d="M109.154 33.6965C108.365 35.9885 106.538 37.5998 104.286 38.3839C101.922 39.2111 99.3578 39.0387 97.0367 38.1685C91.3377 36.0488 87.3709 30.9651 83.1702 26.8205C81.0136 24.6923 78.7184 22.6674 76.0335 21.2371C73.4871 19.8757 70.6116 19.1174 67.7188 19.0916C62.0891 19.0399 56.8664 21.7024 53.5839 26.3036C51.9729 28.5611 50.8729 31.1633 50.31 33.8774C50.0588 35.0838 50.3013 36.2815 51.28 37.0914C52.0508 37.7376 52.9256 37.7118 53.8697 37.6601C54.1815 37.6429 54.4846 37.6256 54.7964 37.6084C55.9137 37.5222 56.9357 36.988 57.6113 36.0833C58.2262 35.2561 58.8585 34.5926 59.7939 34.1273C61.7166 33.1709 63.9426 33.2226 65.9346 33.9205C68.1778 34.7133 70.1352 36.1091 72.032 37.5222C73.9548 38.9526 75.8776 40.3743 77.9302 41.6237C85.2662 46.087 94.6635 48.8874 102.597 44.2431C106.443 41.9942 109.275 38.3408 110.158 33.9292C110.28 33.3432 109.344 33.145 109.154 33.6965Z" fill="#543000"/>
</g>
<path d="M59.2919 26.6651C56.503 26.6737 53.896 28.3539 51.9473 31.3869C50.0072 34.4027 48.9419 38.4093 48.9592 42.6659C48.9765 46.9224 50.0678 50.9119 52.0339 53.919C54.0086 56.9348 56.6329 58.5891 59.4132 58.5805C59.7076 58.5805 60.0021 58.5633 60.2879 58.5202C62.739 58.2014 65.0082 56.5729 66.7578 53.8587C68.6979 50.8429 69.7632 46.8363 69.7459 42.5797C69.7112 33.7823 65.0169 26.6478 59.2832 26.6651H59.2919Z" fill="#543000"/>
<path d="M64.2374 42.6057C59.3871 24.2525 37.9509 23.2703 31.2645 41.408C30.0952 41.3993 26.8127 40.2017 26.6308 46.1384C26.4489 51.8856 30.996 52.0579 31.1346 52.0579C34.0794 68.5585 53.8094 69.2564 61.4571 55.0479C61.8469 55.203 62.7823 55.2374 63.2154 55.2805C66.3767 55.5821 69.971 52.4715 70.1875 48.4735C70.5513 41.8302 64.8003 42.3558 64.246 42.6057H64.2374Z" fill="#FFC6BB"/>
<path d="M41.3201 46.9916C41.3634 47.8447 40.913 48.6374 40.1855 49.051C39.7698 49.2922 39.5099 49.611 39.6658 50.1108C39.8304 50.6623 40.0729 51.1965 40.2981 51.7221C40.454 52.0926 41.0343 51.8513 40.8697 51.4808C40.6532 50.9724 40.428 50.4641 40.2635 49.9385C40.2028 49.7403 40.3241 49.6886 40.48 49.5938C40.6705 49.4818 40.8438 49.3698 41.0083 49.2233C41.6492 48.6288 41.987 47.7757 41.9437 46.9055C41.9177 46.5005 41.3028 46.5867 41.3288 46.983L41.3201 46.9916Z" fill="#E07A69"/>
<path d="M49.8249 46.983C49.7729 48.1463 48.9588 49.051 48.0061 49.0079C47.0533 48.9648 46.3345 47.9825 46.3864 46.8193C46.4384 45.6561 47.2525 44.7514 48.2053 44.7944C49.158 44.8375 49.8769 45.8198 49.8249 46.983Z" fill="white"/>
<path d="M49.3662 46.6978C49.3662 47.8611 48.5867 48.8089 47.6426 48.8003C46.6899 48.8003 45.9277 47.8524 45.9277 46.6806C45.9277 45.5174 46.7072 44.5696 47.6513 44.5782C48.604 44.5782 49.3662 45.526 49.3662 46.6978Z" fill="black"/>
<path d="M39.2673 46.819C39.2153 47.9822 38.4011 48.8869 37.4484 48.8438C36.5044 48.8008 35.7768 47.8185 35.8288 46.6553C35.8808 45.492 36.6949 44.5873 37.6476 44.6304C38.6003 44.6735 39.3192 45.6557 39.2673 46.819Z" fill="white"/>
<path d="M38.8081 46.526C38.8081 47.6892 38.0286 48.637 37.0845 48.6284C36.1318 48.6284 35.3696 47.6806 35.3696 46.5087C35.3696 45.3455 36.1491 44.3977 37.0932 44.4063C38.0459 44.4063 38.8081 45.3541 38.8081 46.526Z" fill="black"/>
<path d="M35.5344 41.8042C36.8596 41.5371 38.2713 41.6147 39.5618 42.0196C39.9516 42.1403 40.1508 41.6405 39.761 41.5199C38.3753 41.089 36.8163 41.0029 35.3872 41.2872C34.9888 41.3648 35.1273 41.8818 35.5344 41.8042Z" fill="#543000"/>
<path d="M45.8412 42.1319C47.1664 41.6494 48.6474 41.4856 50.0505 41.6666C50.4663 41.7183 50.5875 41.1927 50.1718 41.141C48.6648 40.9428 47.0451 41.1238 45.6161 41.6407C45.2263 41.7872 45.4515 42.2697 45.8499 42.1319H45.8412Z" fill="#543000"/>
<path d="M68.3164 36.7116C67.6148 34.1439 66.4022 31.714 64.7999 29.5858C61.5174 25.2431 56.5805 23.761 51.202 23.0028C48.11 22.5633 43.8314 22.9855 41.389 23.6749C34.7112 25.5619 30.2334 30.637 29.7484 37.9955C29.6012 40.253 30.1555 41.3904 30.9003 43.5186C31.0649 43.9839 31.5066 45.7417 31.5326 45.2247C31.5932 43.8116 33.2302 40.6493 33.4467 40.4942C33.516 40.4425 33.6199 40.3908 33.7065 40.3219C33.7585 40.3219 33.8191 40.3047 33.8451 40.3047C34.1483 40.2874 34.4514 40.2702 34.7632 40.253C35.1529 40.2271 35.8025 40.3219 36.0884 39.9945C36.3828 39.6498 36.5907 39.1759 36.8159 38.7882C37.223 38.1075 37.6127 37.4268 37.9938 36.7375C38.6347 35.5915 39.3536 34.3335 40.263 33.3253C40.2803 34.2214 40.4016 35.1348 40.4969 36.0051C40.6008 36.9184 40.7134 37.8231 40.852 38.7279C40.8866 38.9347 41.0685 39.1673 41.2937 39.1759C42.5842 39.2276 43.8747 39.2879 45.1652 39.3396C45.4597 39.3482 45.6935 39.1932 45.7542 38.9002C45.9274 38.0127 46.1699 37.1252 46.4384 36.2635C46.7935 35.1348 47.2006 33.9199 47.8761 32.9204C48.569 34.6178 49.0714 36.4186 49.5477 38.185C49.591 38.3574 49.7902 38.4694 49.9548 38.4952C52.5098 38.9605 55.0648 39.4258 57.6199 39.8825C57.8162 39.9169 58.0096 39.9514 58.2002 39.9859C58.7718 40.7097 60.2355 49.1193 61.63 46.4913C63.0331 43.8461 64.3409 42.4329 66.714 42.769C66.9999 42.8121 68.7841 42.2262 68.7927 41.916C68.8014 41.2094 68.81 40.5029 68.7927 39.7963C68.7667 38.7279 68.5935 37.7456 68.3077 36.7116H68.3164Z" fill="#543000"/>
<path d="M39.0248 55.0049C39.7696 55.9613 41.294 56.1768 42.4199 56.2543C43.7884 56.3405 45.3214 56.2026 46.5426 55.5391C47.0796 55.2462 47.5473 54.8154 47.7205 54.2208C47.8331 53.8158 47.2095 53.6521 47.0969 54.0485C46.9324 54.6172 46.3521 54.9532 45.8324 55.16C45.1049 55.453 44.2994 55.5736 43.5112 55.6167C42.7057 55.6598 41.8829 55.6081 41.0948 55.4185C40.4971 55.272 39.8649 55.048 39.4751 54.5569C39.2153 54.2294 38.7649 54.6861 39.0161 55.0135L39.0248 55.0049Z" fill="black"/>
<path d="M67.1905 72.461L68.2645 80.9052C68.4464 82.3097 68.6196 83.7228 68.8015 85.1273C68.9054 85.9631 69.1306 86.8592 68.5503 87.5054C67.5803 88.5911 66.3504 89.5044 65.2591 90.4609C63.9686 91.5724 62.6781 92.6753 61.3789 93.7782C61.1364 93.985 61.2057 94.3297 61.3789 94.5365C62.8253 96.3459 64.1072 98.2932 65.1725 100.344C65.4843 100.947 65.848 101.188 65.4583 101.731C65.1638 102.145 64.8347 102.533 64.5142 102.929C62.6867 105.186 60.7986 107.418 58.7632 109.495C58.2782 109.994 59.0404 110.753 59.5254 110.253C61.8293 107.909 63.9859 105.367 66.0039 102.782C66.7141 101.878 66.9393 101.456 66.3764 100.327C65.2244 97.9917 63.7694 95.8117 62.1411 93.7782V94.5365C63.5442 93.3474 64.9473 92.1583 66.3331 90.952C67.3897 90.0387 68.6629 89.1339 69.5377 88.0396C69.9534 87.514 70.04 86.8764 70.0054 86.2129C69.9361 84.7309 69.6416 83.2316 69.4597 81.7496C69.07 78.6563 68.6716 75.5543 68.2818 72.461C68.1952 71.7803 67.1126 71.7717 67.1992 72.461H67.1905Z" fill="#184070"/>
<path d="M33.5857 73.3409C32.5637 75.7535 31.1346 77.9248 29.8701 80.2082C29.2465 81.337 28.6315 82.5088 28.1985 83.7237C27.9559 84.3958 27.8087 85.1024 28.1292 85.7745C28.7095 87.0066 29.7315 88.1526 30.5283 89.2555C31.5763 90.7117 32.6503 92.1507 33.7156 93.5896C33.7762 93.3397 33.8455 93.0985 33.9061 92.8486C31.9054 94.2358 30.026 95.7954 28.363 97.579C27.4796 98.5269 27.4882 98.9663 27.9819 100.043C29.3071 102.947 30.8055 105.816 32.4684 108.548C32.8322 109.142 33.7676 108.6 33.4038 108.005C31.9314 105.592 30.6409 103.059 29.4024 100.526C29.1945 100.104 28.978 99.6728 28.7961 99.242C28.5449 98.6561 28.9433 98.5355 29.3937 98.0788C30.9354 96.4761 32.6329 95.0544 34.4604 93.7878C34.677 93.6327 34.8415 93.2966 34.651 93.0468C32.8235 90.5738 30.8314 88.144 29.2291 85.516C28.7528 84.7405 29.2984 83.8357 29.6449 83.0775C30.1472 81.966 30.7275 80.8975 31.3338 79.8377C32.5117 77.8042 33.7156 75.8052 34.6337 73.6338C34.9022 72.9962 33.8542 72.7205 33.5857 73.3495V73.3409Z" fill="#184070"/>
</g>
</g>
<defs>
<clipPath id="clip0_340_6756">
<rect width="100" height="100" rx="50" fill="white"/>
</clipPath>
<clipPath id="clip1_340_6756">
<rect width="157" height="159" fill="white" transform="translate(-42 12)"/>
</clipPath>
</defs>
</svg>
