<svg width="80" height="80" viewBox="0 0 80 80" fill="none" xmlns="http://www.w3.org/2000/svg">
<rect width="80" height="80" rx="40" fill="white"/>
<g clip-path="url(#clip0_374_4398)">
<path d="M51.2223 29.994C51.2223 33.1025 48.7473 35.6168 45.6873 35.6168C42.6273 35.6168 40.1523 33.1025 40.1523 29.994C40.1523 26.8854 42.6363 24.3711 45.6873 24.3711C48.7383 24.3711 51.2223 26.8854 51.2223 29.994Z" stroke="#333333" stroke-width="2" stroke-linecap="round" stroke-linejoin="round"/>
<path d="M42.0961 53.437H55.5601V44.0564C55.5601 41.3684 53.4181 39.1924 50.7721 39.1924H40.6021C40.0261 39.1924 39.4681 39.3021 38.9551 39.4941" stroke="#333333" stroke-width="2" stroke-linecap="round" stroke-linejoin="round"/>
<path d="M38.9546 39.4843C38.4416 39.2923 37.8926 39.1826 37.3076 39.1826H27.1376C24.4916 39.1826 22.3496 41.3586 22.3496 44.0466V53.4272H42.0956V44.0466C42.0956 41.9529 40.7816 40.1609 38.9546 39.4843Z" stroke="#333333" stroke-width="2" stroke-linecap="round" stroke-linejoin="round"/>
<path d="M37.7575 29.994C37.7575 33.1025 35.2825 35.6168 32.2225 35.6168C29.1625 35.6168 26.6875 33.1025 26.6875 29.994C26.6875 26.8854 29.1625 24.3711 32.2225 24.3711C35.2825 24.3711 37.7575 26.8854 37.7575 29.994Z" stroke="#333333" stroke-width="2" stroke-linecap="round" stroke-linejoin="round"/>
</g>
<g clip-path="url(#clip1_374_4398)">
<path d="M63.9958 50C63.9958 54.4172 60.4131 58 55.9958 58C51.5786 58 48 54.4172 48 50C48 45.5828 51.5828 42 56 42C60.4172 42 64 45.5828 64 50H63.9958Z" fill="white" stroke="#333333" stroke-width="2" stroke-linecap="round" stroke-linejoin="round"/>
<path d="M52.5 49.8139L55.2215 52.5L59.5 47" stroke="#283891" stroke-width="2" stroke-linecap="round" stroke-linejoin="round"/>
</g>
<defs>
<clipPath id="clip0_374_4398">
<rect width="36" height="32" fill="white" transform="translate(21 23)"/>
</clipPath>
<clipPath id="clip1_374_4398">
<rect width="18" height="18" fill="white" transform="translate(47 41)"/>
</clipPath>
</defs>
</svg>
