<svg width="14" height="14" viewBox="0 0 14 14" fill="none" xmlns="http://www.w3.org/2000/svg">
<path d="M12.2382 4.40361L8.18636 1.38938C7.48895 0.869556 6.51295 0.869556 5.81365 1.38938L1.76184 4.40361C1.28427 4.75812 1 5.31835 1 5.90063V11.1099C1 12.1514 1.87366 12.9981 2.9482 12.9981H4.74289C5.40998 12.9981 5.95389 12.471 5.95389 11.8244V9.2308C5.95389 9.08936 6.07138 8.97548 6.21731 8.97548H7.78648C7.93241 8.97548 8.04991 9.08936 8.04991 9.2308V11.8244C8.04991 12.471 8.59381 12.9981 9.2609 12.9981H11.0537C12.1282 12.9981 13.0019 12.1514 13.0019 11.1099V5.90063C13.0019 5.31835 12.7176 4.75812 12.2401 4.40361H12.2382ZM12.0524 11.1117C12.0524 11.6462 11.6033 12.0816 11.0518 12.0816H9.259C9.11308 12.0816 8.99558 11.9677 8.99558 11.8262V9.23264C8.99558 8.58607 8.45167 8.0589 7.78459 8.0589H6.21541C5.54833 8.0589 5.00442 8.58607 5.00442 9.23264V11.8262C5.00442 11.9677 4.88692 12.0816 4.741 12.0816H2.9463C2.39482 12.0816 1.94567 11.6462 1.94567 11.1117V5.90247C1.94567 5.60306 2.0916 5.31652 2.33607 5.13283L6.39166 2.1186C6.74984 1.85226 7.25205 1.85226 7.61023 2.1186L11.662 5.13283C11.9065 5.31468 12.0543 5.60306 12.0543 5.90247V11.1117H12.0524Z" fill="#333333" stroke="#333333" stroke-width="0.5"/>
</svg>
