<svg width="64" height="64" viewBox="0 0 64 64" fill="none" xmlns="http://www.w3.org/2000/svg">
<g clip-path="url(#clip0_419_9701)">
<path d="M38 18H26L28.1371 11H35.8629L38 18Z" fill="#5F70D3" stroke="#333333" stroke-width="2" stroke-linecap="round" stroke-linejoin="round"/>
<path d="M23 49.1469C23 51.2741 21.2082 53 19 53C16.7918 53 15 51.2741 15 49.1469V40.8531C15 38.7259 16.7918 37 19 37C21.2082 37 23 38.7259 23 40.8531V49.1469Z" fill="white" stroke="#333333" stroke-width="2" stroke-linecap="round" stroke-linejoin="round"/>
<path d="M49 49.1469C49 51.2741 47.2082 53 45 53C42.7918 53 41 51.2741 41 49.1469V40.8531C41 38.7259 42.7918 37 45 37C47.2082 37 49 38.7259 49 40.8531V49.1469Z" fill="white" stroke="#333333" stroke-width="2" stroke-linecap="round" stroke-linejoin="round"/>
<path d="M51.8186 35.3178C52.389 36.8001 51.5685 38 49.9974 38H14.0026C12.4316 38 11.611 36.79 12.1814 35.3178L17.9453 17.6822C18.5157 16.1999 20.2669 15 21.848 15H42.162C43.7331 15 45.4943 16.21 46.0647 17.6822L51.8286 35.3178H51.8186Z" fill="#EBEDF9" stroke="#333333" stroke-width="2" stroke-linecap="round" stroke-linejoin="round"/>
<path d="M12.6656 31H51.3344C53.913 31 56 33.1695 56 35.8501V42.1499C56 44.8305 53.913 47 51.3344 47H12.6656C10.087 47 8 44.8305 8 42.1499V35.8501C8 33.1695 10.087 31 12.6656 31Z" fill="#5F70D3" stroke="#333333" stroke-width="2" stroke-linecap="round" stroke-linejoin="round"/>
<path d="M21 39C21 40.6573 19.6573 42 18 42C16.3427 42 15 40.6573 15 39C15 37.3427 16.3427 36 18 36C19.6573 36 21 37.3427 21 39Z" fill="white" stroke="#333333" stroke-width="2" stroke-linecap="round" stroke-linejoin="round"/>
<path d="M49 39C49 40.6573 47.6573 42 46 42C44.3427 42 43 40.6573 43 39C43 37.3427 44.3427 36 46 36C47.6573 36 49 37.3427 49 39Z" fill="white" stroke="#333333" stroke-width="2" stroke-linecap="round" stroke-linejoin="round"/>
</g>
<defs>
<clipPath id="clip0_419_9701">
<rect width="50" height="44" fill="white" transform="translate(7 10)"/>
</clipPath>
</defs>
</svg>
