<svg width="18" height="18" viewBox="0 0 18 18" fill="none" xmlns="http://www.w3.org/2000/svg">
<g clip-path="url(#clip0_1200_575)">
<path d="M4 6V1H14V6" stroke="#283891" stroke-width="1.5" stroke-linecap="round" stroke-linejoin="round"/>
<path d="M4.2 14H2.6C2.17565 14 1.76869 13.8127 1.46863 13.4793C1.16857 13.1459 1 12.6937 1 12.2222V7.77778C1 7.30628 1.16857 6.8541 1.46863 6.5207C1.76869 6.1873 2.17565 6 2.6 6H15.4C15.8243 6 16.2313 6.1873 16.5314 6.5207C16.8314 6.8541 17 7.30628 17 7.77778V12.2222C17 12.6937 16.8314 13.1459 16.5314 13.4793C16.2313 13.8127 15.8243 14 15.4 14H13.8" stroke="#283891" stroke-width="1.5" stroke-linecap="round" stroke-linejoin="round"/>
<path d="M13 12H5V17H13V12Z" stroke="#283891" stroke-width="1.5" stroke-linecap="round" stroke-linejoin="round"/>
</g>
<defs>
<clipPath id="clip0_1200_575">
<rect width="18" height="18" fill="white"/>
</clipPath>
</defs>
</svg>
