<svg width="28" height="38" viewBox="0 0 28 38" fill="none" xmlns="http://www.w3.org/2000/svg">
<g clip-path="url(#clip0_501_6622)">
<path d="M22.8879 23.0914L21.9679 17.6501C21.9679 17.6501 25.5919 14.0199 25.7519 13.8582C27.6399 12.0067 27.2799 10.1714 25.0639 9.52458L19.0719 8.6433L16.4639 3.30713C15.2559 1.3182 13.5119 1.3182 12.3039 3.30713L9.69589 8.6433L3.70389 9.52458C1.48789 10.1714 1.12789 11.9986 3.01589 13.8582C3.17589 14.0199 6.80789 17.6501 6.80789 17.6501L5.88789 23.0914C5.51989 25.8242 7.19989 26.9803 9.70389 25.6463C9.92789 25.525 14.3839 23.2127 14.3839 23.2127C14.3839 23.2127 18.8399 25.525 19.0639 25.6463C21.5679 26.9803 23.2479 25.8242 22.8799 23.0914H22.8879Z" fill="#2E627A" stroke="#333333" stroke-width="2" stroke-linecap="round" stroke-linejoin="round"/>
<path d="M22.352 33.7956C22.352 35.2752 21.16 36.4798 19.696 36.4798H9.06396C7.59996 36.4798 6.40796 35.2752 6.40796 33.7956C6.40796 32.316 7.59996 31.1113 9.06396 31.1113H19.696C21.168 31.1113 22.352 32.316 22.352 33.7956Z" fill="#F7F8F9" stroke="#333333" stroke-width="2" stroke-linecap="round" stroke-linejoin="round"/>
</g>
<defs>
<clipPath id="clip0_501_6622">
<rect width="28" height="38" fill="white"/>
</clipPath>
</defs>
</svg>
