<svg width="363" height="72" viewBox="0 0 363 72" fill="none" xmlns="http://www.w3.org/2000/svg">
<g clip-path="url(#clip0_419_9541)">
<path d="M20.8808 31.3879V40.6136H22.1402V43.2573H16.9696V40.6136H18.2289V31.3879H16.9696V28.7441H22.1402V31.3879H20.8808Z" fill="#110B79"/>
<path d="M0 43.2534V28.7428H2.93114L12.0508 39.3437V28.7428H14.7392V43.2534H11.8081L2.66883 32.6316V43.2521H0V43.2534Z" fill="#110B79"/>
<path d="M26.8697 43.2534C26.3581 43.2534 25.8896 43.1259 25.4655 42.8709C25.0413 42.6159 24.7007 42.2763 24.4449 41.8535C24.1891 41.4307 24.0612 40.9636 24.0612 40.4523V31.5453C24.0612 31.0353 24.1891 30.5682 24.4449 30.1441C24.7007 29.7212 25.0413 29.3817 25.4655 29.1266C25.8896 28.8716 26.3581 28.7441 26.8697 28.7441H36.7385V31.4243H27.4361C27.2207 31.4243 27.0485 31.4854 26.9206 31.6064C26.7927 31.7274 26.7287 31.9018 26.7287 32.1308V39.8694C26.7287 40.0841 26.7927 40.2558 26.9206 40.3833C27.0485 40.5108 27.2207 40.5746 27.4361 40.5746H36.7385V43.2547H26.8697V43.2534Z" fill="#110B79"/>
<path d="M38.8827 43.2534V28.7428H50.9009V31.423H41.5711V34.647H50.9009V37.3479H41.5711V40.5732H50.9009V43.2534H38.8827Z" fill="#110B79"/>
<path d="M52.9485 43.2534V28.7428H55.8797L61.156 35.0099L66.4115 28.7428H69.3635V43.2534H66.6751V32.6121L61.156 39.1616L55.6174 32.6316V43.2521H52.9499L52.9485 43.2534Z" fill="#110B79"/>
<path d="M69.3635 22.996H66.957C62.2535 15.9079 54.1779 11.2332 45.019 11.2332C35.8602 11.2332 27.7806 15.9079 23.072 22.996H0C5.67828 9.48724 19.0681 0 34.6817 0C50.2954 0 63.6852 9.48724 69.3635 22.996Z" fill="url(#paint0_linear_419_9541)"/>
<path d="M69.3635 49.0093C63.68 62.5129 50.2954 72.0001 34.6817 72.0001C19.0681 72.0001 5.6835 62.5129 0 49.0093H2.40651C7.10992 56.0974 15.1856 60.7668 24.3444 60.7668C33.5033 60.7668 41.5828 56.0974 46.2915 49.0093H69.3622H69.3635Z" fill="#110B79"/>
<path d="M94.9882 32.5197C94.273 31.6584 93.7301 30.6761 93.3595 29.5716C92.9901 28.4683 92.8048 27.3116 92.8048 26.103V23.0559H90.414V26.103C90.4061 27.3259 90.2143 28.5073 89.8371 29.6457C89.46 30.7841 88.9027 31.8094 88.1654 32.7201C87.428 33.6308 86.5549 34.3178 85.5474 34.7823L87.0391 36.6909C88.1458 36.1288 89.0972 35.3079 89.8945 34.228C90.6515 33.2041 91.2257 32.0344 91.6329 30.7256C92.0309 31.9343 92.5686 33.0271 93.2851 33.9743C94.0642 35.0034 95.0117 35.7945 96.1249 36.3422L97.5421 34.4635C96.5555 34.0276 95.7033 33.3797 94.9869 32.5184L94.9882 32.5197Z" fill="#110B79"/>
<path d="M99.4371 27.6968H95.428V29.5833H99.4371V40.624H101.765V21.5259H99.4371V27.6968Z" fill="#110B79"/>
<path d="M104.039 31.1133H111.539V32.5574H106.081V34.2865H116.967V35.5616H106.092V38.632V39.1277V40.4249H119.812V38.632H108.418V37.2191H119.293V32.5574H113.888V31.1133H121.452V29.2671H104.039V31.1133Z" fill="#110B79"/>
<path d="M109.011 27.8907C110.041 28.1405 111.284 28.268 112.745 28.2758C114.191 28.268 115.428 28.1405 116.459 27.8907C117.489 27.6409 118.27 27.2701 118.805 26.7783C119.342 26.2852 119.609 25.6919 119.609 24.9972C119.609 24.3024 119.342 23.7078 118.805 23.2186C118.27 22.7294 117.485 22.3586 116.452 22.1062C115.42 21.8525 114.184 21.7263 112.745 21.7263C111.305 21.7263 110.041 21.8525 109.011 22.1062C107.98 22.3599 107.194 22.7307 106.651 23.2186C106.109 23.7065 105.837 24.2998 105.837 24.9972C105.837 25.6945 106.109 26.2865 106.651 26.7783C107.194 27.2714 107.98 27.6422 109.011 27.8907ZM108.793 24.1632C109.128 23.9381 109.623 23.7677 110.281 23.6519C110.936 23.5348 111.758 23.4749 112.745 23.4671C113.725 23.4749 114.547 23.5348 115.209 23.6519C115.872 23.7677 116.37 23.9381 116.7 24.1632C117.032 24.3883 117.196 24.6654 117.196 24.9972C117.196 25.3289 117.03 25.6256 116.7 25.8506C116.369 26.0757 115.876 26.2462 115.219 26.362C114.563 26.479 113.738 26.5363 112.743 26.5363C111.749 26.5363 110.916 26.479 110.268 26.362C109.619 26.2462 109.127 26.0757 108.792 25.8506C108.456 25.6256 108.293 25.3406 108.3 24.9972C108.292 24.6654 108.456 24.3883 108.792 24.1632H108.793Z" fill="#110B79"/>
<path d="M136.546 28.9926H134.379V21.885H132.23V39.6339H134.379V30.8804H136.546V40.5719H138.769V21.5259H136.546V28.9926Z" fill="#110B79"/>
<path d="M127.909 34.0654C127.152 34.1122 126.274 34.1421 125.271 34.1539V25.6814H130.052V23.7832H122.911V36.1328H124.212C125.735 36.1249 127.012 36.0872 128.04 36.0157C129.071 35.9454 130.12 35.8049 131.193 35.5941L131.013 33.6751C129.954 33.8728 128.919 34.0016 127.908 34.0654H127.909Z" fill="#110B79"/>
<path d="M155.694 21.5259H153.345V33.476H155.694V28.5177H158.371V26.5883H155.694V21.5259Z" fill="#110B79"/>
<path d="M146.3 32.9269C147.21 32.9269 148.019 32.7799 148.728 32.4885C149.436 32.1971 149.986 31.7872 150.377 31.259C150.767 30.7334 150.967 30.1232 150.975 29.4349C150.967 28.7467 150.769 28.1378 150.377 27.6109C149.986 27.0826 149.438 26.6754 148.731 26.3879C148.025 26.099 147.216 25.9507 146.299 25.9442C145.381 25.952 144.568 26.099 143.861 26.3879C143.151 26.6754 142.6 27.0826 142.206 27.6109C141.811 28.1365 141.614 28.7467 141.614 29.4349C141.614 30.1232 141.811 30.7321 142.206 31.259C142.6 31.7872 143.155 32.1971 143.866 32.4885C144.578 32.7799 145.389 32.9269 146.299 32.9269H146.3ZM144.185 28.5242C144.383 28.2679 144.664 28.0701 145.03 27.9335C145.397 27.7956 145.821 27.724 146.3 27.7162C146.787 27.724 147.214 27.7956 147.58 27.9335C147.946 28.0701 148.233 28.2679 148.437 28.5242C148.64 28.7805 148.743 29.0849 148.743 29.4362C148.743 29.7875 148.641 30.0894 148.437 30.3379C148.233 30.5877 147.946 30.7789 147.58 30.9129C147.214 31.0469 146.787 31.1133 146.3 31.1133C145.813 31.1133 145.389 31.0469 145.026 30.9129C144.664 30.7789 144.383 30.5877 144.185 30.3379C143.986 30.0881 143.888 29.7875 143.888 29.4362C143.888 29.0849 143.986 28.7818 144.185 28.5242Z" fill="#110B79"/>
<path d="M151.971 23.3617H147.485V21.4426H145.127V23.3617H140.619V25.217H151.971V23.3617Z" fill="#110B79"/>
<path d="M142.946 36.2278H153.345V40.572H155.694V34.3503H142.946V36.2278Z" fill="#110B79"/>
<path d="M172.226 25.2169V25.3431C172.226 26.4256 172.213 27.335 172.188 28.0688C172.164 28.8039 172.104 29.6509 172.01 30.6111C171.914 31.5699 171.764 32.5887 171.559 33.6633L173.877 33.8858C174.089 32.7474 174.245 31.6805 174.347 30.6852C174.449 29.6899 174.513 28.8078 174.538 28.0389C174.562 27.2687 174.575 26.3644 174.575 25.3236V23.2679H160.654V25.1545H172.228V25.2182L172.226 25.2169Z" fill="#110B79"/>
<path d="M169.899 30.1323H167.583V36.2173H165.15V30.1323H162.801V36.2173H158.908V38.126H176.322V36.2173H169.899V30.1323Z" fill="#110B79"/>
<path d="M194.141 33.9495C193.15 33.675 191.97 33.5371 190.603 33.5371C189.235 33.5371 188.03 33.675 187.032 33.9495C186.034 34.2241 185.27 34.6248 184.738 35.1517C184.205 35.6786 183.939 36.3122 183.939 37.0499C183.939 37.7876 184.205 38.4212 184.738 38.9482C185.27 39.4751 186.034 39.8758 187.028 40.1503C188.023 40.4249 189.214 40.5628 190.604 40.5628C191.994 40.5628 193.161 40.4249 194.147 40.1503C195.135 39.8758 195.895 39.4751 196.427 38.9482C196.96 38.4212 197.226 37.7876 197.226 37.0499C197.226 36.3122 196.96 35.6786 196.427 35.1517C195.895 34.6248 195.133 34.2241 194.142 33.9495H194.141ZM194.369 37.9776C194.038 38.2313 193.553 38.4238 192.919 38.5566C192.285 38.6906 191.512 38.7608 190.603 38.7673C189.679 38.7608 188.9 38.6906 188.264 38.5566C187.63 38.4238 187.15 38.23 186.821 37.9776C186.493 37.7239 186.333 37.4155 186.34 37.0499C186.333 36.6778 186.493 36.3643 186.821 36.1106C187.15 35.8569 187.629 35.6695 188.259 35.542C188.889 35.4158 189.671 35.3508 190.603 35.3508C191.535 35.3508 192.297 35.4158 192.935 35.542C193.573 35.6682 194.055 35.8569 194.38 36.1106C194.703 36.3643 194.865 36.6778 194.865 37.0499C194.865 37.422 194.699 37.7252 194.369 37.9776Z" fill="#40A629"/>
<path d="M191.788 28.3811H197.373V26.4828H186.521V21.8524H184.171V26.4828V27.348V28.3811H189.461V30.481H181.918V32.3883H199.362V30.481H191.788V28.3811Z" fill="#40A629"/>
<path d="M212.404 28.264H214.308V33.2418H216.551V21.548H214.308V26.3566H212.404V21.8954H210.215V32.642H212.404V28.264Z" fill="#40A629"/>
<path d="M205.067 28.5294C205.372 29.1929 205.744 29.8135 206.242 30.3535C206.887 31.0482 207.686 31.5764 208.639 31.9342L209.886 30.1531C209.074 29.8447 208.393 29.4232 207.839 28.8924C207.285 28.3616 206.869 27.7683 206.591 27.1112C206.312 26.4542 206.173 25.7699 206.173 25.0595V22.7085H203.9V25.0595C203.892 25.7985 203.749 26.5271 203.465 27.2479C203.183 27.9686 202.75 28.6348 202.164 29.2463C201.58 29.8578 200.866 30.347 200.028 30.7112L201.307 32.5249C202.266 32.1177 203.082 31.5244 203.751 30.7477C204.32 30.088 204.742 29.3373 205.067 28.5294Z" fill="#40A629"/>
<path d="M213.557 33.9652C212.569 33.6867 211.417 33.5488 210.098 33.5488C208.778 33.5488 207.593 33.688 206.607 33.9652C205.62 34.2436 204.86 34.6456 204.333 35.1725C203.803 35.6995 203.542 36.3292 203.549 37.0604C203.542 37.7837 203.803 38.4082 204.333 38.9313C204.86 39.4543 205.62 39.8576 206.607 40.1399C207.593 40.421 208.757 40.5615 210.098 40.5615C211.438 40.5615 212.569 40.4197 213.557 40.1399C214.544 39.8589 215.306 39.4556 215.842 38.9313C216.378 38.4082 216.646 37.7837 216.646 37.0604C216.646 36.337 216.378 35.6995 215.842 35.1725C215.306 34.6456 214.544 34.2436 213.557 33.9652ZM213.79 38.0036C213.458 38.2599 212.979 38.4551 212.351 38.5891C211.724 38.7231 210.973 38.7895 210.099 38.7895C209.225 38.7895 208.452 38.7231 207.824 38.5891C207.196 38.4551 206.719 38.2599 206.391 38.0036C206.062 37.7473 205.899 37.4325 205.899 37.0604C205.899 36.6883 206.062 36.3695 206.391 36.1054C206.719 35.8426 207.196 35.6435 207.824 35.5095C208.453 35.3755 209.21 35.3091 210.099 35.3091C210.988 35.3091 211.716 35.3755 212.346 35.5095C212.977 35.6435 213.459 35.8426 213.79 36.1054C214.122 36.3695 214.291 36.687 214.297 37.0604C214.291 37.4325 214.122 37.746 213.79 38.0036Z" fill="#40A629"/>
<path d="M228.294 30.1206H232.154V32.7357H234.502V21.5259H232.154V24.4259H228.294V22.9492H219.323V31.5869H228.294V30.1206ZM232.154 26.2929V28.2029H228.294V26.2929H232.154ZM225.987 29.7212H221.66V24.8162H225.987V29.7212Z" fill="#40A629"/>
<path d="M231.52 33.6803C230.54 33.3967 229.38 33.2535 228.041 33.2535C226.702 33.2535 225.532 33.3967 224.56 33.6803C223.587 33.9652 222.838 34.3855 222.313 34.941C221.788 35.4965 221.525 36.1575 221.525 36.9238C221.525 37.6901 221.787 38.3458 222.313 38.8897C222.839 39.4335 223.587 39.8499 224.56 40.1335C225.534 40.4184 226.693 40.5615 228.041 40.5615C229.389 40.5615 230.54 40.4184 231.52 40.1335C232.5 39.8499 233.253 39.4335 233.779 38.8897C234.305 38.3458 234.567 37.6901 234.567 36.9238C234.567 36.1575 234.305 35.4887 233.779 34.9358C233.254 34.3841 232.501 33.9652 231.52 33.6803ZM231.737 37.9191C231.416 38.1975 230.942 38.407 230.314 38.5475C229.686 38.688 228.93 38.7622 228.041 38.7687C227.152 38.7622 226.395 38.688 225.771 38.5475C225.147 38.407 224.674 38.1975 224.349 37.9191C224.024 37.6407 223.862 37.3102 223.862 36.9225C223.862 36.514 224.024 36.1718 224.349 35.8934C224.674 35.6149 225.145 35.4042 225.766 35.2611C226.387 35.1179 227.146 35.0451 228.041 35.0451C228.936 35.0451 229.696 35.1166 230.319 35.2611C230.945 35.4055 231.416 35.6162 231.737 35.8934C232.058 36.1718 232.218 36.514 232.218 36.9225C232.218 37.3102 232.058 37.6407 231.737 37.9191Z" fill="#40A629"/>
<path d="M242.955 34.5663C242.85 34.5702 242.732 34.5728 242.626 34.5767V28.9626H240.321V34.6456C239.135 34.6742 237.904 34.6977 236.598 34.7094L236.841 36.5868C238.927 36.5998 240.957 36.5608 242.922 36.4658C244.892 36.3721 246.767 36.1796 248.55 35.8907L248.413 34.1395C246.707 34.3503 244.886 34.4934 242.955 34.5663Z" fill="#40A629"/>
<path d="M251.777 21.5259H249.419V40.5719H251.777V31.259H254.539V29.2879H251.777V21.5259Z" fill="#40A629"/>
<path d="M245.023 28.4228C244.963 29.4702 244.824 30.6801 244.606 32.0501L246.933 32.2505C247.158 30.8441 247.303 29.5924 247.366 28.4957C247.431 27.3989 247.465 26.2318 247.473 24.9945V23.5074H237.624V25.3849H245.116C245.106 26.4725 245.076 27.4952 245.023 28.4215V28.4228Z" fill="#40A629"/>
<path d="M270.152 21.5259H267.804V33.476H270.152V28.5177H272.83V26.5883H270.152V21.5259Z" fill="#40A629"/>
<path d="M266.429 23.3617H261.943V21.4426H259.585V23.3617H255.078V25.217H266.429V23.3617Z" fill="#40A629"/>
<path d="M260.76 32.9269C261.669 32.9269 262.478 32.7799 263.187 32.4885C263.896 32.1971 264.445 31.7872 264.837 31.259C265.227 30.7334 265.427 30.1232 265.434 29.4349C265.427 28.7467 265.228 28.1378 264.837 27.6109C264.445 27.0826 263.897 26.6754 263.191 26.3879C262.485 26.099 261.676 25.9507 260.758 25.9442C259.841 25.952 259.028 26.099 258.321 26.3879C257.611 26.6754 257.06 27.0826 256.666 27.6109C256.27 28.1365 256.073 28.7467 256.073 29.4349C256.073 30.1232 256.27 30.7321 256.666 31.259C257.06 31.7872 257.615 32.1971 258.326 32.4885C259.037 32.7799 259.849 32.9269 260.758 32.9269H260.76ZM258.643 28.5242C258.841 28.2679 259.122 28.0701 259.489 27.9335C259.855 27.7956 260.279 27.724 260.758 27.7162C261.245 27.724 261.672 27.7956 262.039 27.9335C262.404 28.0701 262.691 28.2679 262.895 28.5242C263.098 28.7805 263.201 29.0849 263.201 29.4362C263.201 29.7875 263.1 30.0894 262.895 30.3379C262.691 30.5877 262.404 30.7789 262.039 30.9129C261.672 31.0469 261.245 31.1133 260.758 31.1133C260.272 31.1133 259.847 31.0469 259.485 30.9129C259.122 30.7789 258.841 30.5877 258.643 30.3379C258.445 30.0881 258.347 29.7875 258.347 29.4362C258.347 29.0849 258.445 28.7818 258.643 28.5242Z" fill="#40A629"/>
<path d="M257.406 36.2278H267.804V40.572H270.152V34.3503H257.406V36.2278Z" fill="#40A629"/>
<path d="M285.57 33.8702C284.551 33.5918 283.351 33.4539 281.968 33.4539C280.585 33.4539 279.408 33.5931 278.392 33.8702C277.377 34.1486 276.593 34.5571 276.039 35.0984C275.486 35.6409 275.209 36.2797 275.209 37.0187C275.209 37.7577 275.486 38.3887 276.039 38.917C276.593 39.4426 277.377 39.8498 278.392 40.1334C279.408 40.4184 280.6 40.5615 281.968 40.5615C283.336 40.5615 284.551 40.4184 285.57 40.1334C286.589 39.8498 287.374 39.4426 287.923 38.917C288.474 38.3887 288.752 37.7551 288.76 37.0187C288.752 36.2732 288.474 35.6318 287.923 35.0932C287.374 34.5558 286.589 34.1473 285.57 33.8702ZM285.883 37.9672C285.531 38.2274 285.023 38.4252 284.36 38.5579C283.697 38.6919 282.9 38.7621 281.969 38.7686C281.045 38.7621 280.255 38.6919 279.595 38.5579C278.936 38.4252 278.431 38.2274 278.082 37.9672C277.733 37.7083 277.558 37.3921 277.558 37.0187C277.558 36.6453 277.733 36.311 278.082 36.0377C278.431 35.7632 278.936 35.5563 279.599 35.4158C280.262 35.274 281.052 35.2051 281.969 35.2051C282.887 35.2051 283.688 35.274 284.355 35.4158C285.021 35.5563 285.531 35.7632 285.883 36.0377C286.236 36.3123 286.416 36.6388 286.424 37.0187C286.416 37.3908 286.236 37.707 285.883 37.9672Z" fill="#40A629"/>
<path d="M282.446 26.7145H280.119V30.1623H273.391V32.0605H290.759V30.1623H282.446V26.7145Z" fill="#40A629"/>
<path d="M286.195 26.5675C286.135 27.2427 285.999 28.0051 285.788 28.8547L288.104 29.0876C288.337 28.2367 288.485 27.4444 288.548 26.7145C288.611 25.9846 288.646 25.1116 288.654 24.0994V22.4327H275.389V24.2893H286.293C286.284 25.1571 286.253 25.9208 286.195 26.5675Z" fill="#40A629"/>
<path d="M303.888 34.0289C302.901 33.7583 301.72 33.6217 300.344 33.6217C298.969 33.6217 297.763 33.7583 296.769 34.0289C295.774 34.2995 295.012 34.6964 294.478 35.2194C293.946 35.7424 293.68 36.3747 293.68 37.1124C293.68 37.8501 293.946 38.4668 294.478 38.9846C295.011 39.5011 295.774 39.898 296.769 40.1751C297.763 40.4522 298.955 40.5953 300.344 40.6031C301.72 40.5953 302.905 40.4535 303.898 40.1751C304.893 39.8967 305.653 39.5024 306.178 38.9885C306.703 38.4746 306.966 37.8501 306.966 37.1111C306.966 36.3721 306.7 35.7411 306.168 35.2181C305.635 34.6951 304.876 34.2969 303.888 34.0276V34.0289ZM304.11 38.0362C303.778 38.286 303.297 38.4733 302.666 38.5995C302.036 38.7257 301.261 38.7908 300.344 38.7908C299.428 38.7908 298.632 38.7257 298.001 38.5995C297.37 38.4733 296.89 38.286 296.562 38.0362C296.235 37.7864 296.074 37.4793 296.082 37.1137C296.074 36.7481 296.235 36.4385 296.562 36.1861C296.891 35.9324 297.37 35.7437 298.001 35.6162C298.631 35.49 299.413 35.4263 300.344 35.4263C301.276 35.4263 302.025 35.49 302.661 35.6162C303.295 35.7424 303.779 35.9337 304.111 36.1913C304.442 36.4476 304.607 36.7559 304.607 37.1137C304.607 37.4715 304.441 37.7877 304.111 38.0362H304.11Z" fill="#40A629"/>
<path d="M301.518 28.8456H307.093V26.9786H296.124V24.2256H306.975V22.3911H293.806V26.9786V28.1808V28.8456H299.222V30.6684H291.658V32.525H309.103V30.6684H301.518V28.8456Z" fill="#40A629"/>
<path d="M325.91 21.5259H323.53V40.5719H325.91V21.5259Z" fill="#40A629"/>
<path d="M317.871 23.5516H311.028V25.4082H317.797C317.686 26.5636 317.448 27.6356 317.067 28.614C316.531 29.9918 315.688 31.2382 314.54 32.3519C313.39 33.4656 311.894 34.4596 310.054 35.3326L311.302 37.2087C313.46 36.19 315.197 34.9839 316.513 33.5918C317.828 32.1997 318.772 30.6762 319.342 29.0199C319.915 27.365 320.203 25.5422 320.211 23.5516H317.873H317.871Z" fill="#40A629"/>
<path d="M336.162 23.5516H329.318V25.4082H336.087C335.976 26.5636 335.739 27.6356 335.358 28.614C334.821 29.9918 333.978 31.2382 332.83 32.3519C331.68 33.4656 330.184 34.4596 328.344 35.3326L329.592 37.2087C331.751 36.19 333.488 34.9839 334.803 33.5918C336.119 32.1997 337.062 30.6762 337.632 29.0199C338.205 27.365 338.494 25.5422 338.502 23.5516H336.163H336.162Z" fill="#40A629"/>
<path d="M344.201 21.5259H341.82V40.5719H344.201V21.5259Z" fill="#40A629"/>
<path d="M356.441 32.6732V34.2969H360.207V35.9636H362.555V21.548H360.207V32.6732H356.441Z" fill="#40A629"/>
<path d="M351.333 38.3159V34.5728H348.973V38.3159V38.8324V40.2349H363V38.3159H351.333Z" fill="#40A629"/>
<path d="M350.179 28.5451C350.898 28.8235 351.727 28.9614 352.664 28.9614C353.601 28.9614 354.422 28.8222 355.145 28.5451C355.868 28.2666 356.428 27.8789 356.826 27.3793C357.224 26.881 357.425 26.2943 357.425 25.619C357.425 24.9438 357.224 24.37 356.826 23.8522C356.428 23.3357 355.865 22.9362 355.14 22.6552C354.413 22.3742 353.588 22.2376 352.663 22.2441C351.732 22.2363 350.906 22.3742 350.182 22.6552C349.459 22.9362 348.896 23.337 348.496 23.8522C348.092 24.37 347.893 24.9581 347.893 25.619C347.893 26.2799 348.094 26.881 348.496 27.3793C348.896 27.8789 349.458 28.2679 350.177 28.5451H350.179ZM350.444 24.733C350.656 24.4793 350.952 24.2906 351.333 24.1631C351.714 24.0369 352.156 23.9732 352.664 23.9732C353.172 23.9732 353.595 24.0369 353.976 24.1631C354.357 24.2893 354.653 24.4793 354.864 24.733C355.076 24.9867 355.183 25.2807 355.183 25.619C355.183 25.9573 355.076 26.25 354.864 26.4998C354.653 26.7496 354.357 26.9396 353.976 27.0697C353.595 27.1998 353.157 27.2648 352.664 27.2648C352.171 27.2648 351.713 27.1998 351.333 27.0697C350.953 26.9396 350.656 26.7509 350.444 26.505C350.233 26.2591 350.126 25.9638 350.126 25.619C350.126 25.2742 350.233 24.9867 350.444 24.733Z" fill="#40A629"/>
<path d="M351.713 35.4353H354.071V31.769C355.735 31.6571 357.353 31.4906 358.894 31.2395L358.768 29.552C356.984 29.7693 355.12 29.9137 353.177 29.984C351.234 30.0542 348.985 30.101 346.432 30.1206L346.718 31.9876C348.449 31.9928 350.101 31.955 351.711 31.8939V35.4353H351.713Z" fill="#40A629"/>
<path d="M93.0645 53.0906H92.0857L88.5269 47.9723H88.4642V53.0906H87.398V46.0923H88.3872L91.9409 51.2158H92.0035V46.0923H93.0658V53.0906H93.0645Z" fill="#676E70"/>
<path d="M97.0371 50.7345C96.9588 50.7397 96.8413 50.7476 96.686 50.7606C96.4694 50.7697 96.2658 50.784 96.0753 50.7996C95.7268 50.8243 95.4554 50.9063 95.2661 51.0416C95.0756 51.1769 94.979 51.3708 94.9751 51.6219C94.9751 51.7858 95.0182 51.925 95.1056 52.0395C95.1931 52.154 95.3105 52.2399 95.4567 52.2984C95.6028 52.3569 95.7751 52.3843 95.9735 52.3804C96.2449 52.3804 96.4824 52.3257 96.686 52.219C96.8896 52.111 97.0462 51.9666 97.1559 51.7871C97.2668 51.6075 97.3203 51.4098 97.3203 51.1977L97.3151 49.5454C97.3151 49.3463 97.2746 49.1759 97.1963 49.0354C97.118 48.8949 96.9966 48.7895 96.8348 48.7166C96.673 48.6438 96.4759 48.6073 96.2436 48.6073C95.9461 48.6073 95.7046 48.6672 95.5193 48.7882C95.334 48.9092 95.2152 49.0705 95.163 49.2735H94.1255C94.1581 48.9833 94.2678 48.7244 94.4531 48.498C94.6384 48.2704 94.8877 48.0934 95.2022 47.9659C95.5167 47.8384 95.8743 47.7747 96.2789 47.7747C96.6182 47.7747 96.9418 47.8254 97.2511 47.9269C97.5604 48.0284 97.8201 48.2157 98.0289 48.4876C98.239 48.7595 98.3434 49.133 98.3434 49.6065V53.0907H97.3399V52.37H97.3007C97.1846 52.6015 96.9953 52.7993 96.733 52.9593C96.4707 53.1207 96.1405 53.2026 95.7386 53.2052C95.3992 53.2013 95.0952 53.1389 94.8276 53.014C94.5601 52.8891 94.3474 52.7082 94.1921 52.4675C94.0368 52.2268 93.9598 51.9419 93.9598 51.6101C93.9598 51.065 94.1438 50.6773 94.5118 50.4457C94.8798 50.2141 95.3523 50.0788 95.9278 50.0398C96.0831 50.0268 96.258 50.0151 96.4511 50.0034C96.6443 49.9916 96.8335 49.9812 97.0188 49.9721C97.1389 49.9682 97.2576 49.9656 97.3777 49.963L97.3868 50.7124C97.2315 50.7215 97.1141 50.7293 97.0358 50.7345H97.0371Z" fill="#676E70"/>
<path d="M101.854 48.6632H98.9738V47.841H101.854V48.6632ZM100.788 46.5854V51.5489C100.788 51.7324 100.815 51.8755 100.87 51.977C100.925 52.0785 100.998 52.1487 101.088 52.1878C101.178 52.2268 101.286 52.2463 101.413 52.2463C101.468 52.2463 101.528 52.2463 101.594 52.2411C101.661 52.2372 101.726 52.2359 101.79 52.2359L101.931 52.2268V53.1167C101.74 53.1453 101.528 53.1596 101.292 53.1596C101.011 53.1596 100.753 53.1076 100.518 53.0022C100.284 52.8968 100.096 52.7394 99.9552 52.5312C99.8142 52.3218 99.7438 52.0642 99.7438 51.7584V46.5868H100.787L100.788 46.5854Z" fill="#676E70"/>
<path d="M102.864 46.9445C102.766 46.8872 102.687 46.8144 102.629 46.722C102.57 46.6296 102.542 46.5295 102.542 46.4202C102.542 46.3109 102.57 46.2081 102.629 46.1157C102.688 46.0221 102.766 45.9479 102.864 45.8932C102.962 45.8386 103.072 45.8113 103.192 45.8113C103.312 45.8113 103.416 45.8386 103.517 45.8932C103.617 45.9479 103.697 46.0221 103.757 46.1157C103.817 46.2094 103.847 46.3109 103.847 46.4202C103.847 46.5295 103.817 46.6309 103.757 46.722C103.698 46.8144 103.617 46.8872 103.517 46.9445C103.416 47.0017 103.308 47.0291 103.192 47.0291C103.076 47.0291 102.962 47.0017 102.864 46.9445ZM102.678 47.8422H103.71V53.0906H102.678V47.8422Z" fill="#676E70"/>
<path d="M105.7 52.8577C105.328 52.6313 105.041 52.3152 104.837 51.9079C104.634 51.5007 104.532 51.0271 104.532 50.4898C104.532 49.9524 104.634 49.4737 104.837 49.0638C105.041 48.654 105.328 48.3378 105.7 48.1115C106.072 47.8851 106.505 47.7732 107 47.7732C107.494 47.7732 107.917 47.8851 108.289 48.1115C108.661 48.3378 108.947 48.654 109.148 49.0638C109.348 49.4737 109.448 49.9485 109.448 50.4898C109.448 51.031 109.348 51.5007 109.148 51.9079C108.948 52.3152 108.662 52.6313 108.289 52.8577C107.917 53.0841 107.488 53.196 107 53.196C106.512 53.196 106.073 53.0841 105.7 52.8577ZM107.776 52.0901C107.989 51.9261 108.146 51.7037 108.249 51.4226C108.352 51.1429 108.404 50.8294 108.404 50.4846C108.404 50.1398 108.352 49.8275 108.249 49.5465C108.146 49.2668 107.988 49.043 107.776 48.8778C107.565 48.7125 107.305 48.6293 106.999 48.6293C106.692 48.6293 106.427 48.7125 106.213 48.8778C105.999 49.043 105.841 49.2668 105.735 49.5465C105.63 49.8262 105.576 50.1398 105.573 50.4846C105.577 50.8294 105.631 51.1416 105.735 51.4226C105.841 51.7024 105.999 51.9248 106.213 52.0901C106.426 52.254 106.688 52.336 106.999 52.336C107.309 52.336 107.565 52.254 107.776 52.0901Z" fill="#676E70"/>
<path d="M111.313 53.0907H110.281V47.8423H111.27V48.6984H111.338C111.464 48.4083 111.659 48.1819 111.923 48.0193C112.186 47.8566 112.51 47.7747 112.895 47.7747C113.258 47.7747 113.571 47.8501 113.838 47.9997C114.105 48.1494 114.312 48.3731 114.458 48.6711C114.604 48.969 114.679 49.3294 114.679 49.751V53.0907H113.646V49.8719C113.646 49.6247 113.603 49.4088 113.516 49.2266C113.429 49.0445 113.302 48.9066 113.135 48.8116C112.969 48.7166 112.769 48.6685 112.536 48.6685C112.302 48.6685 112.086 48.7192 111.9 48.8207C111.715 48.9222 111.571 49.0718 111.468 49.2696C111.365 49.4673 111.313 49.7028 111.313 49.9773V53.0894V53.0907Z" fill="#676E70"/>
<path d="M118.568 50.7345C118.49 50.7397 118.372 50.7476 118.217 50.7606C118 50.7697 117.797 50.784 117.606 50.7996C117.258 50.8243 116.986 50.9063 116.797 51.0416C116.606 51.1769 116.51 51.3708 116.506 51.6219C116.506 51.7858 116.549 51.925 116.636 52.0395C116.724 52.154 116.841 52.2399 116.987 52.2984C117.134 52.3569 117.306 52.3843 117.504 52.3804C117.776 52.3804 118.013 52.3257 118.217 52.219C118.42 52.111 118.577 51.9666 118.687 51.7871C118.798 51.6075 118.851 51.4098 118.851 51.1977L118.846 49.5454C118.846 49.3463 118.805 49.1759 118.727 49.0354C118.649 48.8949 118.527 48.7895 118.366 48.7166C118.204 48.6438 118.007 48.6073 117.774 48.6073C117.477 48.6073 117.235 48.6672 117.05 48.7882C116.865 48.9092 116.746 49.0705 116.694 49.2735H115.656C115.689 48.9833 115.798 48.7244 115.984 48.498C116.169 48.2704 116.418 48.0934 116.733 47.9659C117.047 47.8384 117.405 47.7747 117.81 47.7747C118.149 47.7747 118.473 47.8254 118.782 47.9269C119.091 48.0284 119.351 48.2157 119.56 48.4876C119.77 48.7595 119.874 49.133 119.874 49.6065V53.0907H118.871V52.37H118.831C118.715 52.6015 118.526 52.7993 118.264 52.9593C118.001 53.1207 117.671 53.2026 117.269 53.2052C116.93 53.2013 116.626 53.1389 116.358 53.014C116.091 52.8891 115.878 52.7082 115.723 52.4675C115.568 52.2268 115.491 51.9419 115.491 51.6101C115.491 51.065 115.675 50.6773 116.043 50.4457C116.411 50.2141 116.883 50.0788 117.459 50.0398C117.614 50.0268 117.789 50.0151 117.982 50.0034C118.175 49.9916 118.364 49.9812 118.55 49.9721C118.67 49.9682 118.788 49.9656 118.908 49.963L118.918 50.7124C118.762 50.7215 118.645 50.7293 118.567 50.7345H118.568Z" fill="#676E70"/>
<path d="M121.965 53.0906H120.933V46.0923H121.965V53.0906Z" fill="#676E70"/>
<path d="M126.401 53.0906H125.335V46.0923H126.401V53.0906Z" fill="#676E70"/>
<path d="M128.583 53.0907H127.55V47.8423H128.54V48.6984H128.608C128.734 48.4083 128.929 48.1819 129.192 48.0193C129.456 47.8566 129.78 47.7747 130.164 47.7747C130.527 47.7747 130.841 47.8501 131.108 47.9997C131.374 48.1494 131.582 48.3731 131.728 48.6711C131.874 48.969 131.949 49.3294 131.949 49.751V53.0907H130.916V49.8719C130.916 49.6247 130.873 49.4088 130.786 49.2266C130.698 49.0445 130.572 48.9066 130.405 48.8116C130.239 48.7166 130.039 48.6685 129.806 48.6685C129.572 48.6685 129.355 48.7192 129.17 48.8207C128.985 48.9222 128.841 49.0718 128.738 49.2696C128.635 49.4673 128.583 49.7028 128.583 49.9773V53.0894V53.0907Z" fill="#676E70"/>
<path d="M135.637 48.77C135.468 48.6477 135.245 48.5865 134.967 48.5865C134.773 48.5865 134.6 48.6164 134.446 48.6789C134.292 48.74 134.171 48.8246 134.082 48.9326C133.994 49.0406 133.949 49.1616 133.949 49.293C133.953 49.4478 134.021 49.5805 134.153 49.6911C134.285 49.8017 134.493 49.8902 134.778 49.9539L135.617 50.1478C136.099 50.2584 136.459 50.4288 136.698 50.6643C136.936 50.8998 137.058 51.2003 137.062 51.5685C137.058 51.8873 136.97 52.1696 136.799 52.4142C136.628 52.6601 136.38 52.85 136.056 52.9893C135.731 53.1285 135.347 53.1974 134.904 53.1974C134.488 53.1974 134.128 53.1376 133.824 53.0166C133.52 52.8956 133.278 52.7199 133.1 52.4923C132.921 52.2633 132.807 51.9862 132.763 51.6609H133.825C133.87 51.8964 133.983 52.0733 134.162 52.193C134.341 52.3127 134.586 52.3713 134.897 52.3674C135.12 52.3674 135.314 52.34 135.483 52.2828C135.651 52.2255 135.78 52.1436 135.868 52.0369C135.956 51.9289 136.001 51.8014 136.001 51.6531C136.001 51.4852 135.935 51.346 135.805 51.2354C135.674 51.1249 135.468 51.0364 135.186 50.9726L134.367 50.7892C133.896 50.6864 133.537 50.5121 133.29 50.2675C133.043 50.0216 132.922 49.7171 132.922 49.3541C132.922 49.0484 133.007 48.7752 133.177 48.5345C133.346 48.2938 133.585 48.1077 133.892 47.9763C134.198 47.8449 134.556 47.7786 134.963 47.7786C135.346 47.7786 135.681 47.8397 135.972 47.9646C136.263 48.0895 136.491 48.2626 136.658 48.4889C136.824 48.7153 136.923 48.9768 136.956 49.2774H135.967C135.915 49.0653 135.805 48.8962 135.637 48.7752V48.77Z" fill="#676E70"/>
<path d="M140.335 48.6632H137.455V47.841H140.335V48.6632ZM139.269 46.5854V51.5489C139.269 51.7324 139.296 51.8755 139.351 51.977C139.406 52.0785 139.479 52.1487 139.569 52.1878C139.659 52.2268 139.767 52.2463 139.894 52.2463C139.948 52.2463 140.009 52.2463 140.075 52.2411C140.142 52.2372 140.207 52.2359 140.271 52.2359L140.412 52.2268V53.1167C140.221 53.1453 140.009 53.1596 139.772 53.1596C139.492 53.1596 139.233 53.1076 138.998 53.0022C138.765 52.8968 138.577 52.7394 138.436 52.5312C138.295 52.3218 138.225 52.0642 138.225 51.7584V46.5868H139.267L139.269 46.5854Z" fill="#676E70"/>
<path d="M141.158 47.8422H142.157V48.6827H142.215C142.309 48.3991 142.478 48.1753 142.719 48.0114C142.961 47.8474 143.235 47.7642 143.539 47.7603C143.785 47.7668 143.933 47.7759 143.985 47.7889V48.7751C143.924 48.7595 143.843 48.7438 143.742 48.7295C143.642 48.7152 143.543 48.7074 143.442 48.7074C143.206 48.7074 142.993 48.7595 142.805 48.8622C142.616 48.965 142.467 49.1068 142.356 49.2851C142.245 49.4633 142.192 49.6663 142.192 49.8914V53.0906H141.16V47.8422H141.158Z" fill="#676E70"/>
<path d="M147.907 47.8423H148.935V53.0907H147.926V52.1826H147.868C147.738 52.4766 147.539 52.7121 147.268 52.8904C146.998 53.0686 146.675 53.1584 146.296 53.1584C145.95 53.1584 145.648 53.0816 145.387 52.9307C145.126 52.7798 144.925 52.5547 144.781 52.2567C144.636 51.9588 144.566 51.5984 144.566 51.1769V47.8423H145.598V51.0559C145.598 51.2914 145.642 51.4956 145.734 51.67C145.825 51.8443 145.949 51.9796 146.11 52.0759C146.27 52.1722 146.455 52.2203 146.664 52.2203C146.864 52.2242 147.061 52.1748 147.253 52.0733C147.446 51.9718 147.601 51.8235 147.723 51.6257C147.844 51.4293 147.904 51.1899 147.904 50.9063V47.8423H147.907Z" fill="#676E70"/>
<path d="M150.001 47.8423H150.991V48.6984H151.058C151.169 48.4083 151.348 48.1819 151.596 48.0193C151.844 47.8566 152.143 47.7747 152.489 47.7747C152.718 47.7747 152.926 47.8098 153.111 47.8813C153.297 47.9529 153.457 48.057 153.589 48.1949C153.721 48.3341 153.826 48.5006 153.903 48.6971H153.957C154.044 48.5097 154.164 48.3471 154.316 48.2066C154.467 48.0661 154.647 47.9594 154.853 47.8852C155.061 47.8111 155.289 47.7747 155.543 47.7747C155.866 47.7747 156.149 47.8423 156.393 47.9776C156.637 48.1129 156.828 48.3159 156.965 48.5865C157.102 48.8571 157.171 49.1876 157.171 49.5779V53.092H156.134V49.6755C156.13 49.3372 156.038 49.0848 155.857 48.917C155.677 48.7491 155.441 48.6659 155.15 48.6659C154.93 48.6659 154.741 48.7114 154.585 48.8038C154.428 48.8962 154.307 49.0224 154.223 49.185C154.14 49.3476 154.095 49.535 154.093 49.7483V53.0933H153.064V49.6039C153.064 49.4205 153.025 49.2565 152.948 49.1134C152.871 48.969 152.758 48.8597 152.611 48.783C152.465 48.7062 152.297 48.6672 152.11 48.6672C151.924 48.6672 151.738 48.7166 151.575 48.8168C151.412 48.917 151.28 49.0575 151.182 49.2396C151.084 49.4218 151.035 49.6274 151.035 49.8563V53.0946H150.003V47.8462L150.001 47.8423Z" fill="#676E70"/>
<path d="M159.171 52.8631C158.792 52.6406 158.501 52.327 158.298 51.9211C158.094 51.5152 157.992 51.0429 157.992 50.5056C157.992 49.9682 158.094 49.4959 158.298 49.0796C158.501 48.6633 158.786 48.3432 159.154 48.1155C159.52 47.8878 159.946 47.7747 160.431 47.7747C160.854 47.7747 161.243 47.8657 161.597 48.0479C161.95 48.23 162.234 48.5176 162.448 48.9131C162.662 49.3086 162.767 49.8056 162.767 50.4093V50.7723H158.574V50.0034H161.755C161.755 49.7418 161.7 49.5064 161.593 49.2956C161.484 49.0835 161.329 48.9196 161.129 48.7999C160.93 48.6802 160.699 48.6216 160.442 48.6216C160.161 48.6216 159.913 48.6893 159.7 48.8246C159.488 48.9599 159.321 49.1421 159.203 49.371C159.086 49.6 159.024 49.8446 159.022 50.1061V50.7059C159.022 51.0507 159.084 51.346 159.211 51.5932C159.338 51.8391 159.511 52.0278 159.734 52.1592C159.958 52.2893 160.216 52.3543 160.51 52.3543C160.698 52.3504 160.867 52.3244 161.019 52.2724C161.17 52.2203 161.299 52.1527 161.404 52.0694C161.509 51.9861 161.591 51.8899 161.653 51.7793H162.705C162.624 52.0655 162.484 52.3153 162.286 52.5287C162.087 52.7408 161.835 52.9073 161.529 53.0244C161.223 53.1415 160.882 53.2013 160.503 53.2013C159.993 53.2013 159.548 53.0907 159.169 52.8683L159.171 52.8631Z" fill="#676E70"/>
<path d="M164.628 53.0907H163.596V47.8423H164.585V48.6984H164.653C164.78 48.4083 164.974 48.1819 165.238 48.0193C165.501 47.8566 165.825 47.7747 166.21 47.7747C166.573 47.7747 166.886 47.8501 167.154 47.9997C167.42 48.1494 167.627 48.3731 167.773 48.6711C167.92 48.969 167.994 49.3294 167.994 49.751V53.0907H166.962V49.8719C166.962 49.6247 166.919 49.4088 166.831 49.2266C166.744 49.0445 166.617 48.9066 166.45 48.8116C166.284 48.7166 166.085 48.6685 165.851 48.6685C165.618 48.6685 165.401 48.7192 165.216 48.8207C165.03 48.9222 164.887 49.0718 164.784 49.2696C164.681 49.4673 164.628 49.7028 164.628 49.9773V53.0894V53.0907Z" fill="#676E70"/>
<path d="M171.512 48.6632H168.632V47.841H171.512V48.6632ZM170.446 46.5854V51.5489C170.446 51.7324 170.474 51.8755 170.528 51.977C170.583 52.0785 170.656 52.1487 170.746 52.1878C170.838 52.2268 170.945 52.2463 171.071 52.2463C171.126 52.2463 171.186 52.2463 171.253 52.2411C171.319 52.2372 171.385 52.2359 171.448 52.2359L171.589 52.2268V53.1167C171.399 53.1453 171.186 53.1596 170.95 53.1596C170.669 53.1596 170.411 53.1076 170.176 53.0022C169.942 52.8968 169.755 52.7394 169.614 52.5312C169.473 52.3218 169.402 52.0642 169.402 51.7584V46.5868H170.445L170.446 46.5854Z" fill="#676E70"/>
<path d="M175.161 50.7345C175.083 50.7397 174.966 50.7476 174.81 50.7606C174.594 50.7697 174.39 50.784 174.2 50.7996C173.851 50.8243 173.58 50.9063 173.39 51.0416C173.2 51.1769 173.103 51.3708 173.099 51.6219C173.099 51.7858 173.142 51.925 173.23 52.0395C173.317 52.154 173.435 52.2399 173.581 52.2984C173.727 52.3569 173.899 52.3843 174.098 52.3804C174.369 52.3804 174.607 52.3257 174.81 52.219C175.014 52.111 175.171 51.9666 175.28 51.7871C175.391 51.6075 175.445 51.4098 175.445 51.1977L175.439 49.5454C175.439 49.3463 175.399 49.1759 175.321 49.0354C175.242 48.8949 175.121 48.7895 174.959 48.7166C174.797 48.6438 174.6 48.6073 174.368 48.6073C174.07 48.6073 173.829 48.6672 173.644 48.7882C173.458 48.9092 173.34 49.0705 173.287 49.2735H172.25C172.282 48.9833 172.392 48.7244 172.577 48.498C172.763 48.2704 173.012 48.0934 173.326 47.9659C173.641 47.8384 173.999 47.7747 174.403 47.7747C174.742 47.7747 175.066 47.8254 175.375 47.9269C175.685 48.0284 175.944 48.2157 176.153 48.4876C176.363 48.7595 176.468 49.133 176.468 49.6065V53.0907H175.464V52.37H175.425C175.309 52.6015 175.12 52.7993 174.857 52.9593C174.595 53.1207 174.265 53.2026 173.863 53.2052C173.524 53.2013 173.219 53.1389 172.952 53.014C172.684 52.8891 172.472 52.7082 172.316 52.4675C172.161 52.2268 172.084 51.9419 172.084 51.6101C172.084 51.065 172.268 50.6773 172.636 50.4457C173.004 50.2141 173.477 50.0788 174.052 50.0398C174.207 50.0268 174.382 50.0151 174.575 50.0034C174.769 49.9916 174.958 49.9812 175.143 49.9721C175.263 49.9682 175.382 49.9656 175.502 49.963L175.511 50.7124C175.356 50.7215 175.238 50.7293 175.16 50.7345H175.161Z" fill="#676E70"/>
<path d="M179.977 48.6632H177.097V47.841H179.977V48.6632ZM178.911 46.5854V51.5489C178.911 51.7324 178.938 51.8755 178.993 51.977C179.048 52.0785 179.121 52.1487 179.211 52.1878C179.301 52.2268 179.409 52.2463 179.536 52.2463C179.591 52.2463 179.651 52.2463 179.717 52.2411C179.784 52.2372 179.849 52.2359 179.913 52.2359L180.054 52.2268V53.1167C179.863 53.1453 179.651 53.1596 179.415 53.1596C179.134 53.1596 178.876 53.1076 178.641 53.0022C178.407 52.8968 178.219 52.7394 178.078 52.5312C177.937 52.3218 177.867 52.0642 177.867 51.7584V46.5868H178.909L178.911 46.5854Z" fill="#676E70"/>
<path d="M180.988 46.9445C180.891 46.8872 180.811 46.8144 180.754 46.722C180.696 46.6296 180.666 46.5295 180.666 46.4202C180.666 46.3109 180.695 46.2081 180.754 46.1157C180.812 46.0234 180.891 45.9479 180.988 45.8932C181.086 45.8386 181.196 45.8113 181.316 45.8113C181.436 45.8113 181.54 45.8386 181.641 45.8932C181.741 45.9479 181.821 46.0221 181.881 46.1157C181.941 46.2094 181.971 46.3109 181.971 46.4202C181.971 46.5295 181.941 46.6309 181.881 46.722C181.822 46.8144 181.741 46.8872 181.641 46.9445C181.54 47.0017 181.432 47.0291 181.316 47.0291C181.2 47.0291 181.086 47.0017 180.988 46.9445ZM180.802 47.8422H181.834V53.0906H180.802V47.8422Z" fill="#676E70"/>
<path d="M183.823 52.8577C183.451 52.6313 183.164 52.3152 182.96 51.9079C182.757 51.5007 182.655 51.0271 182.655 50.4898C182.655 49.9524 182.757 49.4737 182.96 49.0638C183.164 48.654 183.451 48.3378 183.823 48.1115C184.195 47.8851 184.628 47.7732 185.123 47.7732C185.617 47.7732 186.04 47.8851 186.412 48.1115C186.784 48.3378 187.07 48.654 187.271 49.0638C187.471 49.4737 187.571 49.9485 187.571 50.4898C187.571 51.031 187.471 51.5007 187.271 51.9079C187.071 52.3152 186.785 52.6313 186.412 52.8577C186.04 53.0841 185.611 53.196 185.123 53.196C184.635 53.196 184.196 53.0841 183.823 52.8577ZM185.901 52.0901C186.113 51.9261 186.27 51.7037 186.373 51.4226C186.476 51.1429 186.528 50.8294 186.528 50.4846C186.528 50.1398 186.476 49.8275 186.373 49.5465C186.27 49.2668 186.112 49.043 185.901 48.8778C185.689 48.7125 185.43 48.6293 185.123 48.6293C184.816 48.6293 184.551 48.7125 184.337 48.8778C184.124 49.043 183.965 49.2668 183.86 49.5465C183.754 49.8262 183.7 50.1398 183.698 50.4846C183.702 50.8294 183.755 51.1416 183.86 51.4226C183.965 51.7024 184.123 51.9248 184.337 52.0901C184.55 52.254 184.812 52.336 185.123 52.336C185.433 52.336 185.689 52.254 185.901 52.0901Z" fill="#676E70"/>
<path d="M189.437 53.0907H188.405V47.8423H189.394V48.6984H189.462C189.589 48.4083 189.783 48.1819 190.047 48.0193C190.31 47.8566 190.634 47.7747 191.019 47.7747C191.382 47.7747 191.695 47.8501 191.963 47.9997C192.229 48.1494 192.436 48.3731 192.582 48.6711C192.729 48.969 192.803 49.3294 192.803 49.751V53.0907H191.771V49.8719C191.771 49.6247 191.728 49.4088 191.64 49.2266C191.553 49.0445 191.426 48.9066 191.259 48.8116C191.093 48.7166 190.894 48.6685 190.66 48.6685C190.427 48.6685 190.21 48.7192 190.025 48.8207C189.839 48.9222 189.696 49.0718 189.593 49.2696C189.49 49.4673 189.437 49.7028 189.437 49.9773V53.0894V53.0907Z" fill="#676E70"/>
<path d="M200.585 47.6147C200.412 47.4026 200.199 47.2413 199.946 47.132C199.692 47.0214 199.414 46.9681 199.114 46.9681C198.707 46.9681 198.344 47.0708 198.026 47.2751C197.707 47.4794 197.457 47.7786 197.274 48.1741C197.091 48.5697 197 49.0419 197 49.5923C197 50.1426 197.091 50.6188 197.274 51.0104C197.457 51.402 197.707 51.7 198.023 51.9042C198.339 52.1085 198.702 52.2126 199.109 52.2165C199.409 52.2126 199.687 52.1566 199.94 52.05C200.194 51.942 200.408 51.7845 200.58 51.5764C200.753 51.3682 200.87 51.121 200.931 50.8348L202.002 50.84C201.928 51.298 201.758 51.7039 201.496 52.0604C201.232 52.4169 200.894 52.694 200.483 52.8917C200.071 53.0895 199.612 53.1884 199.104 53.1884C198.493 53.1884 197.949 53.044 197.473 52.7538C196.996 52.4637 196.623 52.0474 196.353 51.5048C196.083 50.9623 195.948 50.3248 195.948 49.5936C195.948 48.8624 196.084 48.2249 196.355 47.6823C196.627 47.1398 197.001 46.7235 197.478 46.4333C197.954 46.1432 198.497 45.9988 199.104 45.9988C199.602 45.9988 200.055 46.0925 200.466 46.2785C200.877 46.4659 201.217 46.7391 201.484 47.0982C201.752 47.4573 201.925 47.884 202.002 48.3771H200.931C200.872 48.0831 200.757 47.8307 200.584 47.6186L200.585 47.6147Z" fill="#676E70"/>
<path d="M203.816 52.8631C203.438 52.6406 203.147 52.327 202.943 51.9211C202.74 51.5152 202.638 51.0429 202.638 50.5056C202.638 49.9682 202.74 49.4959 202.943 49.0796C203.147 48.6633 203.431 48.3432 203.799 48.1155C204.166 47.8878 204.592 47.7747 205.077 47.7747C205.5 47.7747 205.889 47.8657 206.242 48.0479C206.596 48.23 206.879 48.5176 207.093 48.9131C207.307 49.3086 207.413 49.8056 207.413 50.4093V50.7723H203.22V50.0034H206.4C206.4 49.7418 206.346 49.5064 206.239 49.2956C206.13 49.0835 205.975 48.9196 205.775 48.7999C205.576 48.6802 205.345 48.6216 205.086 48.6216C204.806 48.6216 204.558 48.6893 204.345 48.8246C204.132 48.9599 203.965 49.1421 203.848 49.371C203.73 49.6 203.669 49.8446 203.666 50.1061V50.7059C203.666 51.0507 203.729 51.346 203.856 51.5932C203.982 51.8391 204.156 52.0278 204.379 52.1592C204.602 52.2893 204.86 52.3543 205.154 52.3543C205.342 52.3504 205.512 52.3244 205.663 52.2724C205.814 52.2203 205.944 52.1527 206.048 52.0694C206.152 51.9861 206.236 51.8899 206.297 51.7793H207.349C207.268 52.0655 207.129 52.3153 206.93 52.5287C206.732 52.7408 206.48 52.9073 206.173 53.0244C205.868 53.1415 205.526 53.2013 205.148 53.2013C204.637 53.2013 204.192 53.0907 203.814 52.8683L203.816 52.8631Z" fill="#676E70"/>
<path d="M209.274 53.0907H208.242V47.8423H209.231V48.6984H209.299C209.425 48.4083 209.62 48.1819 209.884 48.0193C210.147 47.8566 210.471 47.7747 210.856 47.7747C211.219 47.7747 211.532 47.8501 211.799 47.9997C212.066 48.1494 212.273 48.3731 212.419 48.6711C212.565 48.969 212.64 49.3294 212.64 49.751V53.0907H211.608V49.8719C211.608 49.6247 211.564 49.4088 211.477 49.2266C211.39 49.0445 211.263 48.9066 211.096 48.8116C210.93 48.7166 210.731 48.6685 210.497 48.6685C210.263 48.6685 210.047 48.7192 209.861 48.8207C209.676 48.9222 209.533 49.0718 209.429 49.2696C209.326 49.4673 209.274 49.7028 209.274 49.9773V53.0894V53.0907Z" fill="#676E70"/>
<path d="M216.158 48.6632H213.278V47.841H216.158V48.6632ZM215.092 46.5854V51.5489C215.092 51.7324 215.119 51.8755 215.174 51.977C215.229 52.0785 215.302 52.1487 215.392 52.1878C215.482 52.2268 215.591 52.2463 215.717 52.2463C215.772 52.2463 215.832 52.2463 215.899 52.2411C215.965 52.2372 216.03 52.2359 216.094 52.2359L216.235 52.2268V53.1167C216.045 53.1453 215.832 53.1596 215.596 53.1596C215.315 53.1596 215.057 53.1076 214.822 53.0022C214.588 52.8968 214.4 52.7394 214.259 52.5312C214.118 52.3218 214.048 52.0642 214.048 51.7584V46.5868H215.091L215.092 46.5854Z" fill="#676E70"/>
<path d="M217.867 52.8631C217.488 52.6406 217.197 52.327 216.993 51.9211C216.79 51.5152 216.688 51.0429 216.688 50.5056C216.688 49.9682 216.79 49.4959 216.993 49.0796C217.197 48.6633 217.482 48.3432 217.85 48.1155C218.216 47.8878 218.642 47.7747 219.127 47.7747C219.55 47.7747 219.939 47.8657 220.293 48.0479C220.646 48.23 220.93 48.5176 221.144 48.9131C221.358 49.3086 221.463 49.8056 221.463 50.4093V50.7723H217.27V50.0034H220.451C220.451 49.7418 220.396 49.5064 220.289 49.2956C220.18 49.0835 220.025 48.9196 219.825 48.7999C219.626 48.6802 219.395 48.6216 219.136 48.6216C218.856 48.6216 218.608 48.6893 218.395 48.8246C218.182 48.9599 218.015 49.1421 217.898 49.371C217.78 49.6 217.719 49.8446 217.716 50.1061V50.7059C217.716 51.0507 217.779 51.346 217.906 51.5932C218.032 51.8391 218.206 52.0278 218.429 52.1592C218.652 52.2893 218.911 52.3543 219.204 52.3543C219.392 52.3504 219.562 52.3244 219.713 52.2724C219.865 52.2203 219.994 52.1527 220.098 52.0694C220.204 51.9861 220.286 51.8899 220.347 51.7793H221.399C221.318 52.0655 221.179 52.3153 220.98 52.5287C220.782 52.7408 220.53 52.9073 220.223 53.0244C219.918 53.1415 219.576 53.2013 219.198 53.2013C218.687 53.2013 218.242 53.0907 217.864 52.8683L217.867 52.8631Z" fill="#676E70"/>
<path d="M222.293 47.8422H223.292V48.6827H223.35C223.444 48.3991 223.613 48.1753 223.854 48.0114C224.096 47.8474 224.37 47.7642 224.674 47.7603C224.92 47.7668 225.068 47.7759 225.12 47.7889V48.7751C225.059 48.7595 224.978 48.7438 224.877 48.7295C224.777 48.7152 224.678 48.7074 224.577 48.7074C224.341 48.7074 224.128 48.7595 223.94 48.8622C223.751 48.965 223.602 49.1068 223.491 49.2851C223.38 49.4633 223.327 49.6663 223.327 49.8914V53.0906H222.295V47.8422H222.293Z" fill="#676E70"/>
<path d="M230.433 48.6632H227.451V47.841H230.433V48.6632ZM228.46 46.4423C228.589 46.2212 228.772 46.0533 229.005 45.9375C229.239 45.8217 229.518 45.7632 229.842 45.7632C229.962 45.7632 230.082 45.7697 230.203 45.7827C230.325 45.7957 230.438 45.8113 230.545 45.8308V46.6908C230.454 46.6817 230.341 46.6674 230.206 46.6518H230.104C229.829 46.6518 229.628 46.7103 229.498 46.8261C229.369 46.9419 229.305 47.1254 229.309 47.3765V53.0894H228.266V47.2321C228.266 46.9263 228.33 46.6635 228.461 46.4423H228.46Z" fill="#676E70"/>
<path d="M231.892 52.8577C231.52 52.6313 231.233 52.3152 231.029 51.9079C230.826 51.5007 230.724 51.0271 230.724 50.4898C230.724 49.9524 230.826 49.4737 231.029 49.0638C231.233 48.654 231.52 48.3378 231.892 48.1115C232.264 47.8851 232.697 47.7732 233.192 47.7732C233.686 47.7732 234.109 47.8851 234.481 48.1115C234.853 48.3378 235.139 48.654 235.34 49.0638C235.54 49.4737 235.64 49.9485 235.64 50.4898C235.64 51.031 235.54 51.5007 235.34 51.9079C235.14 52.3152 234.854 52.6313 234.481 52.8577C234.109 53.0841 233.68 53.196 233.192 53.196C232.704 53.196 232.265 53.0841 231.892 52.8577ZM233.97 52.0901C234.182 51.9261 234.339 51.7037 234.442 51.4226C234.545 51.1429 234.597 50.8294 234.597 50.4846C234.597 50.1398 234.545 49.8275 234.442 49.5465C234.339 49.2668 234.181 49.043 233.97 48.8778C233.758 48.7125 233.498 48.6293 233.192 48.6293C232.885 48.6293 232.62 48.7125 232.406 48.8778C232.192 49.043 232.034 49.2668 231.928 49.5465C231.823 49.8262 231.769 50.1398 231.767 50.4846C231.771 50.8294 231.824 51.1416 231.928 51.4226C232.034 51.7024 232.192 51.9248 232.406 52.0901C232.619 52.254 232.881 52.336 233.192 52.336C233.502 52.336 233.758 52.254 233.97 52.0901Z" fill="#676E70"/>
<path d="M236.473 47.8422H237.471V48.6827H237.53C237.624 48.3991 237.792 48.1753 238.033 48.0114C238.275 47.8474 238.549 47.7642 238.853 47.7603C239.1 47.7668 239.247 47.7759 239.299 47.7889V48.7751C239.238 48.7595 239.157 48.7438 239.057 48.7295C238.956 48.7152 238.857 48.7074 238.756 48.7074C238.52 48.7074 238.308 48.7595 238.12 48.8622C237.93 48.965 237.782 49.1068 237.671 49.2851C237.56 49.4633 237.506 49.6663 237.506 49.8914V53.0906H236.474V47.8422H236.473Z" fill="#676E70"/>
<path d="M242.19 46.0924H246.597V47.0057H243.258V49.1316H246.365V50.0397H243.258V52.1761H246.631V53.0894H242.19V46.0911V46.0924Z" fill="#676E70"/>
<path d="M248.642 53.0907H247.61V47.8423H248.599V48.6984H248.667C248.794 48.4083 248.988 48.1819 249.252 48.0193C249.515 47.8566 249.839 47.7747 250.224 47.7747C250.587 47.7747 250.9 47.8501 251.168 47.9997C251.434 48.1494 251.641 48.3731 251.787 48.6711C251.934 48.969 252.008 49.3294 252.008 49.751V53.0907H250.976V49.8719C250.976 49.6247 250.933 49.4088 250.845 49.2266C250.758 49.0445 250.631 48.9066 250.464 48.8116C250.298 48.7166 250.099 48.6685 249.865 48.6685C249.632 48.6685 249.415 48.7192 249.23 48.8207C249.044 48.9222 248.901 49.0718 248.798 49.2696C248.694 49.4673 248.642 49.7028 248.642 49.9773V53.0894V53.0907Z" fill="#676E70"/>
<path d="M255.478 53.0907H254.368L252.457 47.8423H253.571L254.895 51.8781H254.954L256.282 47.8423H257.397L255.477 53.0907H255.478Z" fill="#676E70"/>
<path d="M258.234 46.9445C258.137 46.8872 258.057 46.8144 257.999 46.722C257.941 46.6296 257.912 46.5295 257.912 46.4202C257.912 46.3109 257.941 46.2081 257.999 46.1157C258.058 46.0221 258.137 45.9479 258.234 45.8932C258.332 45.8386 258.442 45.8113 258.562 45.8113C258.682 45.8113 258.786 45.8386 258.887 45.8932C258.987 45.9479 259.067 46.0221 259.127 46.1157C259.186 46.2094 259.217 46.3109 259.217 46.4202C259.217 46.5295 259.187 46.6309 259.127 46.722C259.067 46.8144 258.987 46.8872 258.887 46.9445C258.786 47.0017 258.678 47.0291 258.562 47.0291C258.446 47.0291 258.332 47.0017 258.234 46.9445ZM258.048 47.8422H259.08V53.0906H258.048V47.8422Z" fill="#676E70"/>
<path d="M260.142 47.8422H261.141V48.6827H261.199C261.293 48.3991 261.462 48.1753 261.703 48.0114C261.945 47.8474 262.219 47.7642 262.523 47.7603C262.769 47.7668 262.917 47.7759 262.969 47.7889V48.7751C262.908 48.7595 262.827 48.7438 262.726 48.7295C262.626 48.7152 262.527 48.7074 262.426 48.7074C262.19 48.7074 261.977 48.7595 261.789 48.8622C261.6 48.965 261.451 49.1068 261.34 49.2851C261.23 49.4633 261.176 49.6663 261.176 49.8914V53.0906H260.144V47.8422H260.142Z" fill="#676E70"/>
<path d="M264.307 52.8577C263.935 52.6313 263.648 52.3152 263.444 51.9079C263.241 51.5007 263.139 51.0271 263.139 50.4898C263.139 49.9524 263.241 49.4737 263.444 49.0638C263.648 48.654 263.935 48.3378 264.307 48.1115C264.679 47.8851 265.112 47.7732 265.607 47.7732C266.101 47.7732 266.524 47.8851 266.896 48.1115C267.268 48.3378 267.554 48.654 267.755 49.0638C267.954 49.4737 268.055 49.9485 268.055 50.4898C268.055 51.031 267.954 51.5007 267.755 51.9079C267.555 52.3152 267.269 52.6313 266.896 52.8577C266.524 53.0841 266.095 53.196 265.607 53.196C265.119 53.196 264.68 53.0841 264.307 52.8577ZM266.384 52.0901C266.597 51.9261 266.754 51.7037 266.857 51.4226C266.96 51.1429 267.012 50.8294 267.012 50.4846C267.012 50.1398 266.96 49.8275 266.857 49.5465C266.754 49.2668 266.596 49.043 266.384 48.8778C266.173 48.7125 265.913 48.6293 265.607 48.6293C265.3 48.6293 265.035 48.7125 264.821 48.8778C264.607 49.043 264.449 49.2668 264.343 49.5465C264.238 49.8262 264.184 50.1398 264.182 50.4846C264.185 50.8294 264.239 51.1416 264.343 51.4226C264.449 51.7024 264.607 51.9248 264.821 52.0901C265.034 52.254 265.296 52.336 265.607 52.336C265.917 52.336 266.173 52.254 266.384 52.0901Z" fill="#676E70"/>
<path d="M269.921 53.0907H268.889V47.8423H269.878V48.6984H269.946C270.073 48.4083 270.267 48.1819 270.531 48.0193C270.794 47.8566 271.118 47.7747 271.503 47.7747C271.866 47.7747 272.179 47.8501 272.446 47.9997C272.713 48.1494 272.92 48.3731 273.066 48.6711C273.212 48.969 273.287 49.3294 273.287 49.751V53.0907H272.255V49.8719C272.255 49.6247 272.211 49.4088 272.124 49.2266C272.037 49.0445 271.91 48.9066 271.743 48.8116C271.577 48.7166 271.378 48.6685 271.144 48.6685C270.91 48.6685 270.694 48.7192 270.508 48.8207C270.323 48.9222 270.18 49.0718 270.076 49.2696C269.973 49.4673 269.921 49.7028 269.921 49.9773V53.0894V53.0907Z" fill="#676E70"/>
<path d="M274.352 47.8423H275.341V48.6984H275.409C275.52 48.4083 275.699 48.1819 275.947 48.0193C276.195 47.8566 276.493 47.7747 276.839 47.7747C277.069 47.7747 277.276 47.8098 277.462 47.8813C277.647 47.9529 277.808 48.057 277.939 48.1949C278.071 48.3328 278.177 48.5006 278.254 48.6971H278.307C278.395 48.5097 278.515 48.3471 278.666 48.2066C278.818 48.0661 278.998 47.9594 279.204 47.8852C279.41 47.8111 279.64 47.7747 279.892 47.7747C280.215 47.7747 280.499 47.8423 280.743 47.9776C280.987 48.1129 281.177 48.3159 281.314 48.5865C281.451 48.8571 281.52 49.1876 281.52 49.5779V53.092H280.483V49.6755C280.479 49.3372 280.388 49.0848 280.206 48.917C280.026 48.7491 279.79 48.6659 279.499 48.6659C279.28 48.6659 279.09 48.7114 278.934 48.8038C278.777 48.8962 278.656 49.0224 278.572 49.185C278.489 49.3476 278.444 49.535 278.442 49.7483V53.0933H277.413V49.6039C277.413 49.4205 277.374 49.2565 277.297 49.1134C277.22 48.969 277.107 48.8597 276.961 48.783C276.814 48.7062 276.646 48.6672 276.459 48.6672C276.273 48.6672 276.088 48.7166 275.924 48.8168C275.761 48.917 275.629 49.0575 275.532 49.2396C275.434 49.4218 275.384 49.6274 275.384 49.8563V53.0946H274.352V47.8462V47.8423Z" fill="#676E70"/>
<path d="M283.52 52.8631C283.141 52.6406 282.85 52.327 282.647 51.9211C282.443 51.5152 282.341 51.0429 282.341 50.5056C282.341 49.9682 282.443 49.4959 282.647 49.0796C282.85 48.6633 283.135 48.3432 283.503 48.1155C283.87 47.8878 284.295 47.7747 284.78 47.7747C285.203 47.7747 285.592 47.8657 285.946 48.0479C286.3 48.23 286.583 48.5176 286.797 48.9131C287.011 49.3086 287.117 49.8056 287.117 50.4093V50.7723H282.923V50.0034H286.104C286.104 49.7418 286.049 49.5064 285.942 49.2956C285.834 49.0835 285.678 48.9196 285.479 48.7999C285.279 48.6802 285.048 48.6216 284.791 48.6216C284.51 48.6216 284.262 48.6893 284.05 48.8246C283.837 48.9599 283.67 49.1421 283.552 49.371C283.435 49.6 283.374 49.8446 283.371 50.1061V50.7059C283.371 51.0507 283.434 51.346 283.56 51.5932C283.687 51.8404 283.86 52.0278 284.084 52.1592C284.307 52.2893 284.565 52.3543 284.859 52.3543C285.047 52.3504 285.216 52.3244 285.368 52.2724C285.519 52.2203 285.648 52.1527 285.753 52.0694C285.858 51.9861 285.941 51.8899 286.002 51.7793H287.054C286.973 52.0655 286.833 52.3153 286.635 52.5287C286.437 52.7408 286.185 52.9073 285.878 53.0244C285.573 53.1415 285.231 53.2013 284.852 53.2013C284.342 53.2013 283.897 53.0907 283.518 52.8683L283.52 52.8631Z" fill="#676E70"/>
<path d="M288.979 53.0907H287.947V47.8423H288.936V48.6984H289.004C289.13 48.4083 289.325 48.1819 289.588 48.0193C289.852 47.8566 290.176 47.7747 290.561 47.7747C290.923 47.7747 291.237 47.8501 291.504 47.9997C291.77 48.1494 291.978 48.3731 292.124 48.6711C292.27 48.969 292.345 49.3294 292.345 49.751V53.0907H291.312V49.8719C291.312 49.6247 291.269 49.4088 291.182 49.2266C291.094 49.0445 290.968 48.9066 290.801 48.8116C290.635 48.7166 290.435 48.6685 290.202 48.6685C289.968 48.6685 289.751 48.7192 289.566 48.8207C289.381 48.9222 289.237 49.0718 289.134 49.2696C289.031 49.4673 288.979 49.7028 288.979 49.9773V53.0894V53.0907Z" fill="#676E70"/>
<path d="M295.863 48.6632H292.983V47.841H295.863V48.6632ZM294.797 46.5854V51.5489C294.797 51.7324 294.824 51.8755 294.879 51.977C294.934 52.0785 295.007 52.1487 295.097 52.1878C295.187 52.2268 295.295 52.2463 295.422 52.2463C295.477 52.2463 295.537 52.2463 295.603 52.2411C295.67 52.2372 295.735 52.2359 295.799 52.2359L295.94 52.2268V53.1167C295.749 53.1453 295.537 53.1596 295.3 53.1596C295.02 53.1596 294.761 53.1076 294.527 53.0022C294.293 52.8968 294.105 52.7394 293.964 52.5312C293.823 52.3218 293.753 52.0642 293.753 51.7584V46.5868H294.795L294.797 46.5854Z" fill="#676E70"/>
<path d="M299.512 50.7345C299.434 50.7397 299.316 50.7476 299.161 50.7606C298.944 50.7697 298.741 50.784 298.55 50.7996C298.202 50.8243 297.93 50.9063 297.741 51.0416C297.55 51.1769 297.454 51.3708 297.45 51.6219C297.45 51.7858 297.493 51.925 297.58 52.0395C297.668 52.154 297.785 52.2399 297.931 52.2984C298.078 52.3569 298.25 52.3843 298.448 52.3804C298.72 52.3804 298.957 52.3257 299.161 52.219C299.364 52.111 299.521 51.9666 299.631 51.7871C299.742 51.6075 299.795 51.4098 299.795 51.1977L299.79 49.5454C299.79 49.3463 299.749 49.1759 299.671 49.0354C299.593 48.8949 299.471 48.7895 299.31 48.7166C299.148 48.6438 298.951 48.6073 298.718 48.6073C298.421 48.6073 298.179 48.6672 297.994 48.7882C297.809 48.9092 297.69 49.0705 297.638 49.2735H296.6C296.633 48.9833 296.743 48.7244 296.928 48.498C297.113 48.2704 297.362 48.0934 297.677 47.9659C297.991 47.8384 298.349 47.7747 298.754 47.7747C299.093 47.7747 299.417 47.8254 299.726 47.9269C300.035 48.0284 300.295 48.2157 300.504 48.4876C300.714 48.7595 300.818 49.133 300.818 49.6065V53.0907H299.815V52.37H299.776C299.659 52.6015 299.47 52.7993 299.208 52.9593C298.945 53.1207 298.615 53.2026 298.213 53.2052C297.874 53.2013 297.57 53.1389 297.302 53.014C297.035 52.8891 296.822 52.7082 296.667 52.4675C296.512 52.2268 296.435 51.9419 296.435 51.6101C296.435 51.065 296.619 50.6773 296.987 50.4457C297.355 50.2141 297.827 50.0788 298.403 50.0398C298.558 50.0268 298.733 50.0151 298.926 50.0034C299.119 49.9916 299.308 49.9812 299.494 49.9721C299.614 49.9682 299.732 49.9656 299.852 49.963L299.862 50.7124C299.706 50.7215 299.589 50.7293 299.511 50.7345H299.512Z" fill="#676E70"/>
<path d="M302.908 53.0906H301.875V46.0923H302.908V53.0906Z" fill="#676E70"/>
<path d="M307.572 46.0923L309.802 51.5151H309.884L312.115 46.0923H313.409V53.0906H312.391V48.0348H312.324L310.259 53.0802H309.42L307.355 48.0348H307.296V53.0906H306.279V46.0923H307.573H307.572Z" fill="#676E70"/>
<path d="M317.386 50.7345C317.308 50.7397 317.19 50.7476 317.035 50.7606C316.818 50.7697 316.615 50.784 316.424 50.7996C316.076 50.8243 315.804 50.9063 315.615 51.0416C315.424 51.1769 315.328 51.3708 315.324 51.6219C315.324 51.7858 315.367 51.925 315.454 52.0395C315.542 52.154 315.659 52.2399 315.805 52.2984C315.952 52.3569 316.124 52.3843 316.322 52.3804C316.594 52.3804 316.831 52.3257 317.035 52.219C317.238 52.111 317.395 51.9666 317.505 51.7871C317.616 51.6075 317.669 51.4098 317.669 51.1977L317.664 49.5454C317.664 49.3463 317.623 49.1759 317.545 49.0354C317.467 48.8949 317.345 48.7895 317.184 48.7166C317.022 48.6438 316.825 48.6073 316.592 48.6073C316.295 48.6073 316.053 48.6672 315.868 48.7882C315.683 48.9092 315.564 49.0705 315.512 49.2735H314.474C314.507 48.9833 314.617 48.7244 314.802 48.498C314.987 48.2704 315.236 48.0934 315.551 47.9659C315.865 47.8384 316.223 47.7747 316.628 47.7747C316.967 47.7747 317.291 47.8254 317.6 47.9269C317.909 48.0284 318.169 48.2157 318.378 48.4876C318.588 48.7595 318.692 49.133 318.692 49.6065V53.0907H317.689V52.37H317.649C317.533 52.6015 317.344 52.7993 317.082 52.9593C316.819 53.1207 316.489 53.2026 316.087 53.2052C315.748 53.2013 315.444 53.1389 315.176 53.014C314.909 52.8891 314.696 52.7082 314.541 52.4675C314.386 52.2268 314.309 51.9419 314.309 51.6101C314.309 51.065 314.493 50.6773 314.861 50.4457C315.229 50.2141 315.701 50.0788 316.277 50.0398C316.432 50.0268 316.607 50.0151 316.8 50.0034C316.993 49.9916 317.182 49.9812 317.368 49.9721C317.488 49.9682 317.606 49.9656 317.726 49.963L317.736 50.7124C317.58 50.7215 317.463 50.7293 317.385 50.7345H317.386Z" fill="#676E70"/>
<path d="M320.783 53.0907H319.751V47.8423H320.74V48.6984H320.808C320.934 48.4083 321.129 48.1819 321.392 48.0193C321.656 47.8566 321.98 47.7747 322.365 47.7747C322.727 47.7747 323.041 47.8501 323.308 47.9997C323.574 48.1494 323.782 48.3731 323.928 48.6711C324.074 48.969 324.149 49.3294 324.149 49.751V53.0907H323.116V49.8719C323.116 49.6247 323.073 49.4088 322.986 49.2266C322.898 49.0445 322.772 48.9066 322.605 48.8116C322.439 48.7166 322.239 48.6685 322.006 48.6685C321.772 48.6685 321.555 48.7192 321.37 48.8207C321.185 48.9222 321.041 49.0718 320.938 49.2696C320.835 49.4673 320.783 49.7028 320.783 49.9773V53.0894V53.0907Z" fill="#676E70"/>
<path d="M328.038 50.7345C327.959 50.7397 327.842 50.7476 327.687 50.7606C327.47 50.7697 327.266 50.784 327.076 50.7996C326.727 50.8243 326.456 50.9063 326.267 51.0416C326.076 51.1769 325.98 51.3708 325.976 51.6219C325.976 51.7858 326.019 51.925 326.106 52.0395C326.194 52.154 326.311 52.2399 326.457 52.2984C326.603 52.3569 326.776 52.3843 326.974 52.3804C327.246 52.3804 327.483 52.3257 327.687 52.219C327.89 52.111 328.047 51.9666 328.156 51.7871C328.267 51.6075 328.321 51.4098 328.321 51.1977L328.316 49.5454C328.316 49.3463 328.275 49.1759 328.197 49.0354C328.119 48.8949 327.997 48.7895 327.835 48.7166C327.674 48.6438 327.477 48.6073 327.244 48.6073C326.947 48.6073 326.705 48.6672 326.52 48.7882C326.335 48.9092 326.216 49.0705 326.164 49.2735H325.126C325.159 48.9833 325.268 48.7244 325.454 48.498C325.639 48.2704 325.888 48.0934 326.203 47.9659C326.517 47.8384 326.875 47.7747 327.279 47.7747C327.619 47.7747 327.942 47.8254 328.252 47.9269C328.561 48.0284 328.821 48.2157 329.03 48.4876C329.24 48.7595 329.344 49.133 329.344 49.6065V53.0907H328.34V52.37H328.301C328.185 52.6015 327.996 52.7993 327.734 52.9593C327.471 53.1207 327.141 53.2026 326.739 53.2052C326.4 53.2013 326.096 53.1389 325.828 53.014C325.561 52.8891 325.348 52.7082 325.193 52.4675C325.037 52.2268 324.96 51.9419 324.96 51.6101C324.96 51.065 325.144 50.6773 325.512 50.4457C325.88 50.2141 326.353 50.0788 326.928 50.0398C327.084 50.0268 327.259 50.0151 327.452 50.0034C327.645 49.9916 327.834 49.9812 328.019 49.9721C328.139 49.9682 328.258 49.9656 328.378 49.963L328.387 50.7124C328.232 50.7215 328.115 50.7293 328.036 50.7345H328.038Z" fill="#676E70"/>
<path d="M331.447 54.9824C331.112 54.8575 330.846 54.6779 330.652 54.4411C330.456 54.2044 330.344 53.9246 330.315 53.602H331.367C331.415 53.8479 331.548 54.0313 331.766 54.1549C331.984 54.2798 332.269 54.3397 332.622 54.3358C333.045 54.3397 333.375 54.2434 333.609 54.0508C333.843 53.857 333.96 53.5629 333.96 53.1661V52.137H333.897L333.878 52.1656C333.786 52.3204 333.687 52.4557 333.578 52.5715C333.468 52.6873 333.311 52.7901 333.108 52.8786C332.904 52.9671 332.658 53.0113 332.37 53.0113C331.95 53.0113 331.574 52.9098 331.24 52.7068C330.908 52.5039 330.645 52.2059 330.452 51.813C330.259 51.4201 330.164 50.9517 330.164 50.4066C330.164 49.8615 330.259 49.3905 330.449 48.9924C330.64 48.5942 330.902 48.2911 331.238 48.0842C331.573 47.8774 331.953 47.772 332.38 47.772C332.658 47.772 332.895 47.8149 333.092 47.9021C333.289 47.9892 333.442 48.0907 333.55 48.2065C333.659 48.3223 333.764 48.4615 333.867 48.6216C333.88 48.6411 333.893 48.6619 333.907 48.684H333.969V47.8383H334.987V53.2025C334.987 53.6371 334.885 54.0014 334.682 54.2954C334.478 54.5895 334.198 54.8067 333.84 54.9499C333.482 55.0943 333.071 55.1645 332.607 55.1645C332.167 55.1645 331.781 55.1034 331.445 54.9785L331.447 54.9824ZM333.347 51.9496C333.552 51.8104 333.708 51.6127 333.814 51.3551C333.92 51.0975 333.974 50.7891 333.974 50.4313C333.974 50.0735 333.921 49.7613 333.814 49.4907C333.707 49.2213 333.55 49.0145 333.347 48.8701C333.142 48.7256 332.893 48.6528 332.598 48.6528C332.303 48.6528 332.048 48.7295 331.841 48.8805C331.633 49.0314 331.478 49.2435 331.373 49.5141C331.269 49.7847 331.216 50.0904 331.216 50.4326C331.216 50.7748 331.269 51.0792 331.376 51.3394C331.483 51.5997 331.64 51.8 331.843 51.9431C332.048 52.0875 332.3 52.1578 332.598 52.1578C332.895 52.1578 333.142 52.0889 333.347 51.9496Z" fill="#676E70"/>
<path d="M336.985 52.8631C336.607 52.6406 336.316 52.327 336.112 51.9211C335.908 51.5152 335.807 51.0429 335.807 50.5056C335.807 49.9682 335.908 49.4959 336.112 49.0796C336.316 48.6633 336.6 48.3432 336.968 48.1155C337.335 47.8878 337.76 47.7747 338.246 47.7747C338.669 47.7747 339.058 47.8657 339.411 48.0479C339.765 48.23 340.048 48.5176 340.262 48.9131C340.476 49.3086 340.582 49.8056 340.582 50.4093V50.7723H336.389V50.0034H339.569C339.569 49.7418 339.514 49.5064 339.407 49.2956C339.3 49.0848 339.144 48.9196 338.944 48.7999C338.744 48.6802 338.513 48.6216 338.256 48.6216C337.976 48.6216 337.728 48.6893 337.515 48.8246C337.302 48.9599 337.135 49.1421 337.018 49.371C336.9 49.6 336.839 49.8446 336.836 50.1061V50.7059C336.836 51.0507 336.899 51.346 337.026 51.5932C337.152 51.8404 337.326 52.0278 337.549 52.1592C337.772 52.2893 338.03 52.3543 338.324 52.3543C338.512 52.3504 338.682 52.3244 338.833 52.2724C338.984 52.2203 339.114 52.1527 339.218 52.0694C339.324 51.9861 339.406 51.8899 339.467 51.7793H340.519C340.438 52.0655 340.299 52.3153 340.1 52.5287C339.902 52.7408 339.65 52.9073 339.345 53.0244C339.039 53.1415 338.697 53.2013 338.319 53.2013C337.809 53.2013 337.364 53.0907 336.985 52.8683V52.8631Z" fill="#676E70"/>
<path d="M341.412 47.8423H342.401V48.6984H342.469C342.58 48.4083 342.759 48.1819 343.007 48.0193C343.255 47.8566 343.553 47.7747 343.899 47.7747C344.129 47.7747 344.336 47.8098 344.522 47.8813C344.707 47.9529 344.868 48.057 344.999 48.1949C345.131 48.3341 345.237 48.5006 345.314 48.6971H345.367C345.455 48.5097 345.575 48.3471 345.726 48.2066C345.878 48.0661 346.058 47.9594 346.264 47.8852C346.472 47.8111 346.7 47.7747 346.952 47.7747C347.275 47.7747 347.559 47.8423 347.803 47.9776C348.047 48.1129 348.237 48.3159 348.374 48.5865C348.511 48.8571 348.581 49.1876 348.581 49.5779V53.092H347.543V49.6755C347.539 49.3372 347.448 49.0848 347.266 48.917C347.086 48.7491 346.85 48.6659 346.559 48.6659C346.34 48.6659 346.15 48.7114 345.994 48.8038C345.837 48.8962 345.716 49.0224 345.632 49.185C345.549 49.3476 345.504 49.535 345.502 49.7483V53.0933H344.474V49.6039C344.474 49.4205 344.434 49.2565 344.357 49.1134C344.28 48.969 344.167 48.8597 344.021 48.783C343.874 48.7062 343.706 48.6672 343.52 48.6672C343.333 48.6672 343.148 48.7166 342.984 48.8168C342.821 48.917 342.69 49.0575 342.592 49.2396C342.494 49.4218 342.444 49.6274 342.444 49.8563V53.0946H341.412V47.8462V47.8423Z" fill="#676E70"/>
<path d="M350.579 52.8631C350.2 52.6406 349.909 52.327 349.705 51.9211C349.502 51.5152 349.4 51.0429 349.4 50.5056C349.4 49.9682 349.502 49.4959 349.705 49.0796C349.909 48.6633 350.194 48.3432 350.562 48.1155C350.928 47.8878 351.354 47.7747 351.839 47.7747C352.262 47.7747 352.651 47.8657 353.005 48.0479C353.358 48.23 353.641 48.5176 353.856 48.9131C354.07 49.3086 354.175 49.8056 354.175 50.4093V50.7723H349.982V50.0034H353.163C353.163 49.7418 353.108 49.5064 353.001 49.2956C352.892 49.0835 352.737 48.9196 352.537 48.7999C352.338 48.6802 352.107 48.6216 351.85 48.6216C351.569 48.6216 351.321 48.6893 351.108 48.8246C350.896 48.9599 350.729 49.1421 350.611 49.371C350.494 49.6 350.432 49.8446 350.43 50.1061V50.7059C350.43 51.0507 350.492 51.346 350.619 51.5932C350.746 51.8391 350.919 52.0278 351.142 52.1592C351.365 52.2893 351.624 52.3543 351.918 52.3543C352.105 52.3504 352.275 52.3244 352.426 52.2724C352.578 52.2203 352.707 52.1527 352.811 52.0694C352.917 51.9861 352.999 51.8899 353.061 51.7793H354.113C354.032 52.0655 353.892 52.3153 353.694 52.5287C353.495 52.7408 353.243 52.9073 352.937 53.0244C352.631 53.1415 352.289 53.2013 351.911 53.2013C351.401 53.2013 350.956 53.0907 350.577 52.8683L350.579 52.8631Z" fill="#676E70"/>
<path d="M356.038 53.0907H355.005V47.8423H355.994V48.6984H356.062C356.189 48.4083 356.383 48.1819 356.647 48.0193C356.911 47.8566 357.234 47.7747 357.619 47.7747C357.982 47.7747 358.295 47.8501 358.563 47.9997C358.829 48.1494 359.037 48.3731 359.183 48.6711C359.329 48.969 359.403 49.3294 359.403 49.751V53.0907H358.371V49.8719C358.371 49.6247 358.328 49.4088 358.24 49.2266C358.153 49.0445 358.026 48.9066 357.859 48.8116C357.694 48.7166 357.494 48.6685 357.26 48.6685C357.027 48.6685 356.81 48.7192 356.625 48.8207C356.439 48.9222 356.296 49.0718 356.193 49.2696C356.09 49.4673 356.038 49.7028 356.038 49.9773V53.0894V53.0907Z" fill="#676E70"/>
<path d="M362.922 48.6632H360.042V47.841H362.922V48.6632ZM361.856 46.5854V51.5489C361.856 51.7324 361.883 51.8755 361.938 51.977C361.993 52.0785 362.066 52.1487 362.156 52.1878C362.247 52.2268 362.354 52.2463 362.481 52.2463C362.535 52.2463 362.595 52.2463 362.662 52.2411C362.729 52.2372 362.794 52.2359 362.858 52.2359L362.999 52.2268V53.1167C362.808 53.1453 362.595 53.1596 362.359 53.1596C362.079 53.1596 361.82 53.1076 361.585 53.0022C361.352 52.8968 361.164 52.7394 361.023 52.5312C360.882 52.3218 360.811 52.0642 360.811 51.7584V46.5868H361.854L361.856 46.5854Z" fill="#676E70"/>
</g>
<defs>
<linearGradient id="paint0_linear_419_9541" x1="0" y1="11.4974" x2="69.3635" y2="11.4974" gradientUnits="userSpaceOnUse">
<stop stop-color="#B3DB11"/>
<stop offset="1" stop-color="#018837"/>
</linearGradient>
<clipPath id="clip0_419_9541">
<rect width="363" height="72" fill="white"/>
</clipPath>
</defs>
</svg>
