<svg width="498" height="440" viewBox="0 0 498 440" fill="none" xmlns="http://www.w3.org/2000/svg">
<rect width="498" height="440" fill="white"/>
<path d="M148 1H225V127H148V1Z" fill="#F7F8F9"/>
<path d="M225 1H357V127H225V1Z" fill="#E2F7ED"/>
<path d="M253 331H361V437H253V331Z" fill="#E7EFFF"/>
<path d="M361 331H494V437H361V331Z" fill="#F9F6E0"/>
<path d="M356 1H494V127H356V1Z" fill="#FFF5E7"/>
<path d="M359.649 6V123.923H492V6H359.649ZM255.147 434H358.384V334.016H255.147V434ZM151.321 308.97H133.059V434H249.147V328.016H492V129.923H151.321V308.97ZM6 302.97H145.321V155.984H6V302.97ZM228.43 123.923H353.649V6H228.43V123.923ZM151.321 123.923H222.43V6H151.321V123.923ZM6 149.984H145.321V6H6V149.984ZM498 434C498 437.314 495.314 440 492 440V334.016H364.384V434H492V440H6V434H127.059V308.97H6V440L5.69141 439.992C2.52111 439.832 0 437.21 0 434V6C4.12323e-06 2.6863 2.68629 0 6 0H492C495.314 0 498 2.68629 498 6V434Z" fill="#B7B7B7"/>
<path d="M429 166V172H384V214H432V244H384V286H429V292H249V286H294V244H249V238H294V220H249V214H294V172H249V166H429ZM300 286H378V238H426V220H378V172H300V286Z" fill="#B7B7B7"/>
<path opacity="0.6" d="M195.32 72V69.2109L202.492 58.0312H206.922V69.1641H209.078V72H206.922V75H203.57V72H195.32ZM198.883 69.1641H203.617V61.8984H203.453L198.883 69.0234V69.1641Z" fill="#666666"/>
<path opacity="0.6" d="M186.344 75.2344C182.102 75.2344 179.523 72.0703 179.523 66.5156C179.523 60.9609 182.102 57.7969 186.344 57.7969C190.586 57.7969 193.164 60.9844 193.164 66.5156C193.164 72.0938 190.586 75.2344 186.344 75.2344ZM186.344 72.3281C188.312 72.3281 189.578 70.4297 189.555 66.5156C189.555 62.6484 188.312 60.6797 186.344 60.6797C184.375 60.6797 183.133 62.6484 183.133 66.5156C183.109 70.4297 184.375 72.3281 186.344 72.3281Z" fill="#666666"/>
<path opacity="0.6" d="M170.898 75.2344C167.383 75.2109 164.055 73.125 164.055 66.9141C164.055 61.1953 166.797 57.7969 171.039 57.7969C174.461 57.7969 176.781 59.9531 177.133 62.7422H173.664C173.383 61.5469 172.398 60.8203 171.039 60.8203C168.742 60.8203 167.523 62.9062 167.5 66.2344H167.664C168.438 64.7344 170.125 63.8438 172 63.8438C175.047 63.8438 177.32 66.1406 177.32 69.3281C177.32 72.7734 174.719 75.2578 170.898 75.2344ZM170.875 72.4453C172.609 72.4453 173.898 71.1328 173.898 69.4219C173.898 67.7344 172.656 66.3984 170.922 66.3984C169.188 66.3984 167.875 67.7578 167.852 69.4219C167.875 71.0859 169.141 72.4453 170.875 72.4453Z" fill="#666666"/>
<rect x="274.5" y="32" width="32" height="32" rx="16" fill="#39B54A"/>
<g clip-path="url(#clip0_419_9060)">
<path d="M290.992 55.5664C290.71 55.8116 290.29 55.8116 290.008 55.5664L290.5 55L290.992 55.5664ZM283.75 45.7354C283.75 42.122 286.804 39.25 290.5 39.25C290.526 39.25 290.552 39.2523 290.577 39.2549C294.238 39.2945 297.25 42.1493 297.25 45.7373C297.25 46.925 297.037 47.6011 296.727 48.5332C296.467 49.3156 295.956 50.1453 295.381 50.9219C294.798 51.7084 294.114 52.486 293.469 53.1689C292.822 53.8533 292.204 54.4507 291.749 54.877C291.521 55.0902 291.334 55.2617 291.202 55.3799C291.136 55.439 291.084 55.4851 291.049 55.5166C291.031 55.5323 291.017 55.5444 291.008 55.5527C291.003 55.5569 290.999 55.5602 290.996 55.5625C290.995 55.5634 290.994 55.5639 290.993 55.5645L290.992 55.5654C290.989 55.5623 290.954 55.5218 290.5 55C290.046 55.5218 290.011 55.5623 290.008 55.5654L290.007 55.5645C290.006 55.5639 290.005 55.5634 290.004 55.5625C290.001 55.5602 289.997 55.5569 289.992 55.5527C289.983 55.5444 289.969 55.5323 289.951 55.5166C289.916 55.4851 289.864 55.439 289.798 55.3799C289.666 55.2615 289.478 55.0896 289.25 54.876C288.794 54.4492 288.176 53.8505 287.528 53.165C286.882 52.481 286.198 51.7013 285.615 50.9131C285.039 50.1346 284.527 49.3035 284.268 48.5186V48.5176C283.963 47.5907 283.75 46.921 283.75 45.7354ZM285.25 45.7354C285.25 46.6764 285.401 47.1618 285.692 48.0479L285.771 48.2627C285.98 48.7784 286.346 49.38 286.82 50.0215C287.355 50.7448 287.997 51.4769 288.619 52.1357C289.24 52.793 289.835 53.3691 290.275 53.7812C290.355 53.8561 290.431 53.924 290.5 53.9873C290.568 53.9242 290.644 53.8567 290.724 53.7822C291.163 53.3705 291.758 52.795 292.379 52.1387C293.001 51.4809 293.641 50.7501 294.176 50.0283C294.718 49.297 295.119 48.6185 295.304 48.0605V48.0596C295.599 47.174 295.75 46.6809 295.75 45.7373C295.75 43.0155 293.432 40.752 290.5 40.752C290.491 40.752 290.482 40.7503 290.474 40.75C287.554 40.7635 285.25 43.0216 285.25 45.7354Z" fill="white"/>
<path d="M292.75 46C292.75 44.7574 291.743 43.75 290.5 43.75C289.257 43.75 288.25 44.7574 288.25 46C288.25 47.2426 289.257 48.25 290.5 48.25C291.743 48.25 292.75 47.2426 292.75 46ZM294.25 46C294.25 48.0711 292.571 49.75 290.5 49.75C288.429 49.75 286.75 48.0711 286.75 46C286.75 43.9289 288.429 42.25 290.5 42.25C292.571 42.25 294.25 43.9289 294.25 46Z" fill="white"/>
</g>
<path d="M306.18 89.4375C302.641 89.4375 300.062 87.3516 299.992 84.4219H303.414C303.484 85.7578 304.703 86.6484 306.18 86.6484C307.938 86.6484 309.18 85.4062 309.18 83.6484C309.18 81.8438 307.914 80.6016 306.133 80.5781C304.867 80.5781 303.977 81.0469 303.461 82.0078H300.273L301.188 72.2344H311.641V75.1172H304.094L303.625 79.4062H303.766C304.398 78.5625 305.664 77.9766 307.164 77.9766C310.281 77.9766 312.602 80.2969 312.602 83.5547C312.602 86.9766 310 89.4375 306.18 89.4375Z" fill="#39B54A"/>
<path d="M290.688 89.4375C286.445 89.4375 283.867 86.2734 283.867 80.7188C283.867 75.1641 286.445 72 290.688 72C294.93 72 297.508 75.1875 297.508 80.7188C297.508 86.2969 294.93 89.4375 290.688 89.4375ZM290.688 86.5312C292.656 86.5312 293.922 84.6328 293.898 80.7188C293.898 76.8516 292.656 74.8828 290.688 74.8828C288.719 74.8828 287.477 76.8516 287.477 80.7188C287.453 84.6328 288.719 86.5312 290.688 86.5312Z" fill="#39B54A"/>
<path d="M275.242 89.4375C271.727 89.4141 268.398 87.3281 268.398 81.1172C268.398 75.3984 271.141 72 275.383 72C278.805 72 281.125 74.1562 281.477 76.9453H278.008C277.727 75.75 276.742 75.0234 275.383 75.0234C273.086 75.0234 271.867 77.1094 271.844 80.4375H272.008C272.781 78.9375 274.469 78.0469 276.344 78.0469C279.391 78.0469 281.664 80.3438 281.664 83.5312C281.664 86.9766 279.062 89.4609 275.242 89.4375ZM275.219 86.6484C276.953 86.6484 278.242 85.3359 278.242 83.625C278.242 81.9375 277 80.6016 275.266 80.6016C273.531 80.6016 272.219 81.9609 272.195 83.625C272.219 85.2891 273.484 86.6484 275.219 86.6484Z" fill="#39B54A"/>
<rect x="409.5" y="32" width="32" height="32" rx="16" fill="#F37500"/>
<g clip-path="url(#clip1_419_9060)">
<path d="M425.992 55.5664C425.71 55.8116 425.29 55.8116 425.008 55.5664L425.5 55L425.992 55.5664ZM418.75 45.7354C418.75 42.122 421.804 39.25 425.5 39.25C425.526 39.25 425.552 39.2523 425.577 39.2549C429.238 39.2945 432.25 42.1493 432.25 45.7373C432.25 46.925 432.037 47.6011 431.727 48.5332C431.467 49.3156 430.956 50.1453 430.381 50.9219C429.798 51.7084 429.114 52.486 428.469 53.1689C427.822 53.8533 427.204 54.4507 426.749 54.877C426.521 55.0902 426.334 55.2617 426.202 55.3799C426.136 55.439 426.084 55.4851 426.049 55.5166C426.031 55.5323 426.017 55.5444 426.008 55.5527C426.003 55.5569 425.999 55.5602 425.996 55.5625C425.995 55.5634 425.994 55.5639 425.993 55.5645L425.992 55.5654C425.989 55.5623 425.954 55.5218 425.5 55C425.046 55.5218 425.011 55.5623 425.008 55.5654L425.007 55.5645C425.006 55.5639 425.005 55.5634 425.004 55.5625C425.001 55.5602 424.997 55.5569 424.992 55.5527C424.983 55.5444 424.969 55.5323 424.951 55.5166C424.916 55.4851 424.864 55.439 424.798 55.3799C424.666 55.2615 424.478 55.0896 424.25 54.876C423.794 54.4492 423.176 53.8505 422.528 53.165C421.882 52.481 421.198 51.7013 420.615 50.9131C420.039 50.1346 419.527 49.3035 419.268 48.5186V48.5176C418.963 47.5907 418.75 46.921 418.75 45.7354ZM420.25 45.7354C420.25 46.6764 420.401 47.1618 420.692 48.0479L420.771 48.2627C420.98 48.7784 421.346 49.38 421.82 50.0215C422.355 50.7448 422.997 51.4769 423.619 52.1357C424.24 52.793 424.835 53.3691 425.275 53.7812C425.355 53.8561 425.431 53.924 425.5 53.9873C425.568 53.9242 425.644 53.8567 425.724 53.7822C426.163 53.3705 426.758 52.795 427.379 52.1387C428.001 51.4809 428.641 50.7501 429.176 50.0283C429.718 49.297 430.119 48.6185 430.304 48.0605V48.0596C430.599 47.174 430.75 46.6809 430.75 45.7373C430.75 43.0155 428.432 40.752 425.5 40.752C425.491 40.752 425.482 40.7503 425.474 40.75C422.554 40.7635 420.25 43.0216 420.25 45.7354Z" fill="white"/>
<path d="M427.75 46C427.75 44.7574 426.743 43.75 425.5 43.75C424.257 43.75 423.25 44.7574 423.25 46C423.25 47.2426 424.257 48.25 425.5 48.25C426.743 48.25 427.75 47.2426 427.75 46ZM429.25 46C429.25 48.0711 427.571 49.75 425.5 49.75C423.429 49.75 421.75 48.0711 421.75 46C421.75 43.9289 423.429 42.25 425.5 42.25C427.571 42.25 429.25 43.9289 429.25 46Z" fill="white"/>
</g>
<path d="M441.344 89.4375C437.828 89.4141 434.5 87.3281 434.5 81.1172C434.5 75.3984 437.242 72 441.484 72C444.906 72 447.227 74.1562 447.578 76.9453H444.109C443.828 75.75 442.844 75.0234 441.484 75.0234C439.188 75.0234 437.969 77.1094 437.945 80.4375H438.109C438.883 78.9375 440.57 78.0469 442.445 78.0469C445.492 78.0469 447.766 80.3438 447.766 83.5312C447.766 86.9766 445.164 89.4609 441.344 89.4375ZM441.32 86.6484C443.055 86.6484 444.344 85.3359 444.344 83.625C444.344 81.9375 443.102 80.6016 441.367 80.6016C439.633 80.6016 438.32 81.9609 438.297 83.625C438.32 85.2891 439.586 86.6484 441.32 86.6484Z" fill="#F37500"/>
<path d="M425.523 89.4375C421.281 89.4375 418.703 86.2734 418.703 80.7188C418.703 75.1641 421.281 72 425.523 72C429.766 72 432.344 75.1875 432.344 80.7188C432.344 86.2969 429.766 89.4375 425.523 89.4375ZM425.523 86.5312C427.492 86.5312 428.758 84.6328 428.734 80.7188C428.734 76.8516 427.492 74.8828 425.523 74.8828C423.555 74.8828 422.312 76.8516 422.312 80.7188C422.289 84.6328 423.555 86.5312 425.523 86.5312Z" fill="#F37500"/>
<path d="M410.078 89.4375C406.562 89.4141 403.234 87.3281 403.234 81.1172C403.234 75.3984 405.977 72 410.219 72C413.641 72 415.961 74.1562 416.312 76.9453H412.844C412.562 75.75 411.578 75.0234 410.219 75.0234C407.922 75.0234 406.703 77.1094 406.68 80.4375H406.844C407.617 78.9375 409.305 78.0469 411.18 78.0469C414.227 78.0469 416.5 80.3438 416.5 83.5312C416.5 86.9766 413.898 89.4609 410.078 89.4375ZM410.055 86.6484C411.789 86.6484 413.078 85.3359 413.078 83.625C413.078 81.9375 411.836 80.6016 410.102 80.6016C408.367 80.6016 407.055 81.9609 407.031 83.625C407.055 85.2891 408.32 86.6484 410.055 86.6484Z" fill="#F37500"/>
<rect x="411.5" y="352" width="32" height="32" rx="16" fill="#FFA600"/>
<g clip-path="url(#clip2_419_9060)">
<path d="M427.992 375.566C427.71 375.812 427.29 375.812 427.008 375.566L427.5 375L427.992 375.566ZM420.75 365.735C420.75 362.122 423.804 359.25 427.5 359.25C427.526 359.25 427.552 359.252 427.577 359.255C431.238 359.295 434.25 362.149 434.25 365.737C434.25 366.925 434.037 367.601 433.727 368.533C433.467 369.316 432.956 370.145 432.381 370.922C431.798 371.708 431.114 372.486 430.469 373.169C429.822 373.853 429.204 374.451 428.749 374.877C428.521 375.09 428.334 375.262 428.202 375.38C428.136 375.439 428.084 375.485 428.049 375.517C428.031 375.532 428.017 375.544 428.008 375.553C428.003 375.557 427.999 375.56 427.996 375.562C427.995 375.563 427.994 375.564 427.993 375.564L427.992 375.565C427.989 375.562 427.954 375.522 427.5 375C427.046 375.522 427.011 375.562 427.008 375.565L427.007 375.564C427.006 375.564 427.005 375.563 427.004 375.562C427.001 375.56 426.997 375.557 426.992 375.553C426.983 375.544 426.969 375.532 426.951 375.517C426.916 375.485 426.864 375.439 426.798 375.38C426.666 375.262 426.478 375.09 426.25 374.876C425.794 374.449 425.176 373.851 424.528 373.165C423.882 372.481 423.198 371.701 422.615 370.913C422.039 370.135 421.527 369.303 421.268 368.519V368.518C420.963 367.591 420.75 366.921 420.75 365.735ZM422.25 365.735C422.25 366.676 422.401 367.162 422.692 368.048L422.771 368.263C422.98 368.778 423.346 369.38 423.82 370.021C424.355 370.745 424.997 371.477 425.619 372.136C426.24 372.793 426.835 373.369 427.275 373.781C427.355 373.856 427.431 373.924 427.5 373.987C427.568 373.924 427.644 373.857 427.724 373.782C428.163 373.371 428.758 372.795 429.379 372.139C430.001 371.481 430.641 370.75 431.176 370.028C431.718 369.297 432.119 368.619 432.304 368.061V368.06C432.599 367.174 432.75 366.681 432.75 365.737C432.75 363.016 430.432 360.752 427.5 360.752C427.491 360.752 427.482 360.75 427.474 360.75C424.554 360.764 422.25 363.022 422.25 365.735Z" fill="white"/>
<path d="M429.75 366C429.75 364.757 428.743 363.75 427.5 363.75C426.257 363.75 425.25 364.757 425.25 366C425.25 367.243 426.257 368.25 427.5 368.25C428.743 368.25 429.75 367.243 429.75 366ZM431.25 366C431.25 368.071 429.571 369.75 427.5 369.75C425.429 369.75 423.75 368.071 423.75 366C423.75 363.929 425.429 362.25 427.5 362.25C429.571 362.25 431.25 363.929 431.25 366Z" fill="white"/>
</g>
<path d="M437.965 409.203L445.113 395.234V395.117H436.793V392.234H448.77V395.164L441.621 409.203H437.965Z" fill="#FFA600"/>
<path d="M428.52 409.438C424.277 409.438 421.699 406.273 421.699 400.719C421.699 395.164 424.277 392 428.52 392C432.762 392 435.34 395.188 435.34 400.719C435.34 406.297 432.762 409.438 428.52 409.438ZM428.52 406.531C430.488 406.531 431.754 404.633 431.73 400.719C431.73 396.852 430.488 394.883 428.52 394.883C426.551 394.883 425.309 396.852 425.309 400.719C425.285 404.633 426.551 406.531 428.52 406.531Z" fill="#FFA600"/>
<path d="M413.074 409.438C409.559 409.414 406.23 407.328 406.23 401.117C406.23 395.398 408.973 392 413.215 392C416.637 392 418.957 394.156 419.309 396.945H415.84C415.559 395.75 414.574 395.023 413.215 395.023C410.918 395.023 409.699 397.109 409.676 400.438H409.84C410.613 398.938 412.301 398.047 414.176 398.047C417.223 398.047 419.496 400.344 419.496 403.531C419.496 406.977 416.895 409.461 413.074 409.438ZM413.051 406.648C414.785 406.648 416.074 405.336 416.074 403.625C416.074 401.938 414.832 400.602 413.098 400.602C411.363 400.602 410.051 401.961 410.027 403.625C410.051 405.289 411.316 406.648 413.051 406.648Z" fill="#FFA600"/>
<rect x="290.5" y="352" width="32" height="32" rx="16" fill="#110B79"/>
<g clip-path="url(#clip3_419_9060)">
<path d="M306.992 375.566C306.71 375.812 306.29 375.812 306.008 375.566L306.5 375L306.992 375.566ZM299.75 365.735C299.75 362.122 302.804 359.25 306.5 359.25C306.526 359.25 306.552 359.252 306.577 359.255C310.238 359.295 313.25 362.149 313.25 365.737C313.25 366.925 313.037 367.601 312.727 368.533C312.467 369.316 311.956 370.145 311.381 370.922C310.798 371.708 310.114 372.486 309.469 373.169C308.822 373.853 308.204 374.451 307.749 374.877C307.521 375.09 307.334 375.262 307.202 375.38C307.136 375.439 307.084 375.485 307.049 375.517C307.031 375.532 307.017 375.544 307.008 375.553C307.003 375.557 306.999 375.56 306.996 375.562C306.995 375.563 306.994 375.564 306.993 375.564L306.992 375.565C306.989 375.562 306.954 375.522 306.5 375C306.046 375.522 306.011 375.562 306.008 375.565L306.007 375.564C306.006 375.564 306.005 375.563 306.004 375.562C306.001 375.56 305.997 375.557 305.992 375.553C305.983 375.544 305.969 375.532 305.951 375.517C305.916 375.485 305.864 375.439 305.798 375.38C305.666 375.262 305.478 375.09 305.25 374.876C304.794 374.449 304.176 373.851 303.528 373.165C302.882 372.481 302.198 371.701 301.615 370.913C301.039 370.135 300.527 369.303 300.268 368.519V368.518C299.963 367.591 299.75 366.921 299.75 365.735ZM301.25 365.735C301.25 366.676 301.401 367.162 301.692 368.048L301.771 368.263C301.98 368.778 302.346 369.38 302.82 370.021C303.355 370.745 303.997 371.477 304.619 372.136C305.24 372.793 305.835 373.369 306.275 373.781C306.355 373.856 306.431 373.924 306.5 373.987C306.568 373.924 306.644 373.857 306.724 373.782C307.163 373.371 307.758 372.795 308.379 372.139C309.001 371.481 309.641 370.75 310.176 370.028C310.718 369.297 311.119 368.619 311.304 368.061V368.06C311.599 367.174 311.75 366.681 311.75 365.737C311.75 363.016 309.432 360.752 306.5 360.752C306.491 360.752 306.482 360.75 306.474 360.75C303.554 360.764 301.25 363.022 301.25 365.735Z" fill="white"/>
<path d="M308.75 366C308.75 364.757 307.743 363.75 306.5 363.75C305.257 363.75 304.25 364.757 304.25 366C304.25 367.243 305.257 368.25 306.5 368.25C307.743 368.25 308.75 367.243 308.75 366ZM310.25 366C310.25 368.071 308.571 369.75 306.5 369.75C304.429 369.75 302.75 368.071 302.75 366C302.75 363.929 304.429 362.25 306.5 362.25C308.571 362.25 310.25 363.929 310.25 366Z" fill="white"/>
</g>
<path d="M322.133 409.438C318.266 409.438 315.477 407.398 315.477 404.633C315.477 402.5 317.117 400.766 319.227 400.438V400.32C317.398 399.969 316.133 398.422 316.133 396.57C316.133 393.922 318.664 392 322.133 392C325.602 392 328.133 393.922 328.156 396.57C328.133 398.445 326.844 399.969 325.062 400.32V400.438C327.125 400.766 328.789 402.5 328.789 404.633C328.789 407.398 326 409.438 322.133 409.438ZM322.133 406.742C323.914 406.742 325.109 405.734 325.109 404.281C325.109 402.805 323.867 401.727 322.133 401.727C320.398 401.727 319.133 402.805 319.156 404.281C319.133 405.734 320.328 406.742 322.133 406.742ZM322.133 399.242C323.633 399.242 324.711 398.281 324.711 396.922C324.711 395.609 323.656 394.672 322.133 394.672C320.609 394.672 319.578 395.586 319.578 396.922C319.578 398.281 320.633 399.242 322.133 399.242Z" fill="#110B79"/>
<path d="M306.5 409.438C302.258 409.438 299.68 406.273 299.68 400.719C299.68 395.164 302.258 392 306.5 392C310.742 392 313.32 395.188 313.32 400.719C313.32 406.297 310.742 409.438 306.5 409.438ZM306.5 406.531C308.469 406.531 309.734 404.633 309.711 400.719C309.711 396.852 308.469 394.883 306.5 394.883C304.531 394.883 303.289 396.852 303.289 400.719C303.266 404.633 304.531 406.531 306.5 406.531Z" fill="#110B79"/>
<path d="M291.055 409.438C287.539 409.414 284.211 407.328 284.211 401.117C284.211 395.398 286.953 392 291.195 392C294.617 392 296.938 394.156 297.289 396.945H293.82C293.539 395.75 292.555 395.023 291.195 395.023C288.898 395.023 287.68 397.109 287.656 400.438H287.82C288.594 398.938 290.281 398.047 292.156 398.047C295.203 398.047 297.477 400.344 297.477 403.531C297.477 406.977 294.875 409.461 291.055 409.438ZM291.031 406.648C292.766 406.648 294.055 405.336 294.055 403.625C294.055 401.938 292.812 400.602 291.078 400.602C289.344 400.602 288.031 401.961 288.008 403.625C288.031 405.289 289.297 406.648 291.031 406.648Z" fill="#110B79"/>
<path d="M394 180H420V206H394V180Z" fill="#333333" fill-opacity="0.4"/>
<path fill-rule="evenodd" clip-rule="evenodd" d="M418 182H396V204H418V182ZM394 180V206H420V180H394Z" fill="#333333"/>
<path fill-rule="evenodd" clip-rule="evenodd" d="M418 205L395 182L396.414 180.586L419.414 203.586L418 205Z" fill="#333333"/>
<path fill-rule="evenodd" clip-rule="evenodd" d="M396 205L419 182L417.586 180.586L394.586 203.586L396 205Z" fill="#333333"/>
<path d="M259 252H285V278H259V252Z" fill="#333333" fill-opacity="0.4"/>
<path fill-rule="evenodd" clip-rule="evenodd" d="M283 254H261V276H283V254ZM259 252V278H285V252H259Z" fill="#333333"/>
<path fill-rule="evenodd" clip-rule="evenodd" d="M283 277L260 254L261.414 252.586L284.414 275.586L283 277Z" fill="#333333"/>
<path fill-rule="evenodd" clip-rule="evenodd" d="M261 277L284 254L282.586 252.586L259.586 275.586L261 277Z" fill="#333333"/>
<path d="M265.259 206.835H261.361C259.044 206.835 257.165 204.976 257.165 202.683C257.165 200.389 259.044 198.53 261.361 198.53H263.521L275.613 186.566C276.4 185.787 277.467 185.35 278.58 185.35H282.479C284.796 185.35 286.675 187.209 286.675 189.502C286.675 191.795 284.796 193.654 282.479 193.654H280.318L268.227 205.619C267.44 206.397 266.372 206.835 265.259 206.835Z" fill="white"/>
<path fill-rule="evenodd" clip-rule="evenodd" d="M276.432 187.394C276.432 187.394 276.432 187.394 276.432 187.394L264.341 199.359C264.123 199.575 263.828 199.696 263.522 199.696H261.361C259.675 199.696 258.33 201.045 258.33 202.683C258.33 204.321 259.675 205.67 261.361 205.67H265.26C266.067 205.67 266.84 205.353 267.407 204.791C267.407 204.791 267.407 204.791 267.407 204.791L279.499 192.826C279.717 192.611 280.011 192.489 280.318 192.489H282.479C284.164 192.489 285.51 191.14 285.51 189.502C285.51 187.864 284.164 186.515 282.479 186.515H278.58C277.772 186.515 277 186.832 276.432 187.394ZM274.794 185.738C275.8 184.742 277.162 184.185 278.58 184.185H282.479C285.428 184.185 287.84 186.554 287.84 189.502C287.84 192.45 285.428 194.819 282.479 194.819H280.797L269.046 206.447L269.046 206.447C268.039 207.443 266.677 208 265.26 208H261.361C258.412 208 256 205.631 256 202.683C256 199.735 258.412 197.366 261.361 197.366H263.043L274.794 185.738L274.794 185.738Z" fill="#333333"/>
<path fill-rule="evenodd" clip-rule="evenodd" d="M267.322 186.515C267.029 186.515 266.872 186.731 266.872 186.901V193.023C266.872 193.667 266.351 194.188 265.707 194.188C265.064 194.188 264.542 193.667 264.542 193.023V186.901C264.542 185.358 265.831 184.185 267.322 184.185H268.753C270.243 184.185 271.532 185.358 271.532 186.901V188.524C271.532 189.167 271.01 189.689 270.367 189.689C269.723 189.689 269.202 189.167 269.202 188.524V186.901C269.202 186.731 269.045 186.515 268.753 186.515H267.322Z" fill="#333333"/>
<path fill-rule="evenodd" clip-rule="evenodd" d="M266.623 179.879C266.52 180.546 266.984 181.192 267.691 181.298C268.398 181.405 269.035 180.925 269.138 180.258C269.241 179.592 268.777 178.946 268.07 178.839C267.363 178.733 266.726 179.213 266.623 179.879ZM267.335 183.601C265.381 183.306 264.016 181.495 264.319 179.532C264.622 177.569 266.471 176.242 268.425 176.537C270.38 176.831 271.745 178.642 271.442 180.605C271.139 182.568 269.29 183.895 267.335 183.601Z" fill="#333333"/>
<path d="M400.259 278.835H396.361C394.044 278.835 392.165 276.976 392.165 274.683C392.165 272.389 394.044 270.53 396.361 270.53H398.521L410.613 258.566C411.4 257.787 412.467 257.35 413.58 257.35H417.479C419.796 257.35 421.675 259.209 421.675 261.502C421.675 263.795 419.796 265.654 417.479 265.654H415.318L403.227 277.619C402.44 278.397 401.372 278.835 400.259 278.835Z" fill="white"/>
<path fill-rule="evenodd" clip-rule="evenodd" d="M411.432 259.394C411.432 259.394 411.432 259.394 411.432 259.394L399.341 271.359C399.123 271.575 398.828 271.696 398.522 271.696H396.361C394.675 271.696 393.33 273.045 393.33 274.683C393.33 276.321 394.675 277.67 396.361 277.67H400.26C401.067 277.67 401.84 277.353 402.407 276.791C402.407 276.791 402.407 276.791 402.407 276.791L414.499 264.826C414.717 264.611 415.011 264.489 415.318 264.489H417.479C419.164 264.489 420.51 263.14 420.51 261.502C420.51 259.864 419.164 258.515 417.479 258.515H413.58C412.772 258.515 412 258.832 411.432 259.394ZM409.794 257.738C410.8 256.742 412.162 256.185 413.58 256.185H417.479C420.428 256.185 422.84 258.554 422.84 261.502C422.84 264.45 420.428 266.819 417.479 266.819H415.797L404.046 278.447L404.046 278.447C403.039 279.443 401.677 280 400.26 280H396.361C393.412 280 391 277.631 391 274.683C391 271.735 393.412 269.366 396.361 269.366H398.043L409.794 257.738L409.794 257.738Z" fill="#333333"/>
<path fill-rule="evenodd" clip-rule="evenodd" d="M402.322 258.515C402.029 258.515 401.872 258.731 401.872 258.901V265.023C401.872 265.667 401.351 266.188 400.707 266.188C400.064 266.188 399.542 265.667 399.542 265.023V258.901C399.542 257.358 400.831 256.185 402.322 256.185H403.753C405.243 256.185 406.532 257.358 406.532 258.901V260.524C406.532 261.167 406.01 261.689 405.367 261.689C404.723 261.689 404.202 261.167 404.202 260.524V258.901C404.202 258.731 404.045 258.515 403.753 258.515H402.322Z" fill="#333333"/>
<path fill-rule="evenodd" clip-rule="evenodd" d="M401.623 251.879C401.52 252.546 401.984 253.192 402.691 253.298C403.398 253.405 404.035 252.925 404.138 252.258C404.241 251.592 403.777 250.946 403.07 250.839C402.363 250.733 401.726 251.213 401.623 251.879ZM402.335 255.601C400.381 255.306 399.016 253.495 399.319 251.532C399.622 249.569 401.471 248.242 403.425 248.537C405.38 248.831 406.745 250.642 406.442 252.605C406.139 254.568 404.29 255.895 402.335 255.601Z" fill="#333333"/>
<defs>
<clipPath id="clip0_419_9060">
<rect width="14" height="17" fill="white" transform="translate(283.5 39)"/>
</clipPath>
<clipPath id="clip1_419_9060">
<rect width="14" height="17" fill="white" transform="translate(418.5 39)"/>
</clipPath>
<clipPath id="clip2_419_9060">
<rect width="14" height="17" fill="white" transform="translate(420.5 359)"/>
</clipPath>
<clipPath id="clip3_419_9060">
<rect width="14" height="17" fill="white" transform="translate(299.5 359)"/>
</clipPath>
</defs>
</svg>
