<svg width="430" height="160" viewBox="0 0 430 160" fill="none" xmlns="http://www.w3.org/2000/svg">
<g clip-path="url(#clip0_434_6892)">
<path d="M398.853 107.031L391.8 118.514L382.537 122.5C380.505 123.373 378.169 123.183 376.305 121.995L372.411 119.513L374.737 99.2071L376.453 95.1059C377.537 92.54 379.811 90.6577 382.547 90.1003L391.621 88.2285L400.358 96.8095L398.853 107.042V107.031Z" fill="#FFC6BB"/>
<path d="M358.863 97.7033L377.569 94.3066V121.417L362.074 126.128L358.863 97.7033Z" fill="#FFC6BB"/>
<path d="M190.474 27.752C187.379 40.4657 176.032 53.2531 161.716 62.8857C153.632 68.3224 156.568 80.8363 166.242 81.9826L245.126 91.3733L240.358 31.7375L190.474 27.752Z" fill="#464647"/>
<path d="M280.147 95.4842L270.6 74.589C265.958 67.0386 257.716 62.4326 248.842 62.4326H185.747C177.032 62.4326 168.926 66.8703 164.232 74.1999L145.821 102.971L136.284 70.4983C135.495 67.8063 132.674 66.2709 129.979 67.0596L108.821 73.264L127.758 138.021C131.884 152.133 150.253 155.667 159.337 144.099L177.621 120.796L184.653 141.933L182.863 161.85L250.779 160.294L255.358 114.476L280.147 95.4947V95.4842Z" fill="white"/>
<path d="M215.168 0C203.158 0 192.947 8.74925 191.126 20.6007L190.632 24.5547C190.632 27.6253 214.442 22.3884 214.442 22.3884V22.462L215.179 22.4305L215.916 22.462V22.3884L239.337 24.5021L239.221 20.6007C237.389 8.74925 227.179 0 215.179 0L215.168 0Z" fill="#464647"/>
<path d="M227.905 27.8781C227.979 32.0634 231.6 35.397 235.989 35.3234C240.389 35.2497 243.895 31.79 243.821 27.6047C243.747 23.4193 240.126 20.0858 235.737 20.1594C231.337 20.233 227.832 23.6927 227.905 27.8781Z" fill="#FCB3A9"/>
<path d="M240.221 25.2702C239.516 24.187 238.358 23.3983 237.084 23.1565C235.81 22.9041 234.442 23.188 233.379 23.9346" stroke="#D68080" stroke-width="0.56" stroke-linecap="round" stroke-linejoin="round"/>
<path d="M236.947 26.3011C236.853 25.0287 236.063 23.8299 234.937 23.2305" stroke="#D68080" stroke-width="0.56" stroke-linecap="round" stroke-linejoin="round"/>
<path d="M231.874 68.5325L217.842 71.5085L203.547 68.5325V31.7373H231.874V68.5325Z" fill="#FFC6BB"/>
<path d="M237.526 33.5984L236.284 18.5396C235.989 14.9327 233.989 11.7043 230.937 10.0007C229.389 9.13839 227.716 8.44434 226.295 8.44434H209.389C209.389 8.44434 209.316 8.44434 209.274 8.44434C204.095 8.49692 199.874 12.8505 199.421 18.2662L198.158 33.5984C197.842 37.4052 198.937 41.254 201.389 44.0723C201.41 44.0933 201.421 44.1038 201.442 44.1249C201.474 44.1669 201.516 44.209 201.558 44.2616C205.937 49.1094 211.895 51.5281 217.842 51.4965C223.789 51.5281 229.747 49.1199 234.126 44.2616C234.168 44.2195 234.21 44.1774 234.242 44.1249C234.263 44.1038 234.274 44.0933 234.295 44.0723C236.747 41.254 237.842 37.4052 237.526 33.5984Z" fill="#FFC6BB"/>
<path d="M206.084 48.1C209.663 50.382 213.758 51.5177 217.842 51.4967C222.232 51.5177 226.632 50.2137 230.389 47.5742" fill="#FFC6BB"/>
<path d="M206.084 48.1C209.663 50.382 213.758 51.5177 217.842 51.4967C222.232 51.5177 226.632 50.2137 230.389 47.5742" stroke="#D68080" stroke-width="0.75" stroke-linecap="round" stroke-linejoin="round"/>
<path d="M227.747 34.7656C228.484 34.7656 229.031 35.5017 228.768 36.1958C227.916 38.4988 225.063 40.1813 221.684 40.1813C218.305 40.1813 215.442 38.4883 214.6 36.1958C214.347 35.5017 214.884 34.7656 215.621 34.7656H227.758H227.747Z" fill="#D68080"/>
<path d="M216.832 27.6987C216.853 28.9712 215.842 30.0122 214.568 30.0333C213.295 30.0543 212.253 29.0448 212.232 27.7724C212.21 26.4999 213.221 25.4589 214.495 25.4378C215.768 25.4168 216.81 26.4263 216.832 27.6987Z" fill="#251E1C"/>
<path d="M232.21 27.6987C232.231 28.9712 231.221 30.0122 229.947 30.0333C228.674 30.0543 227.631 29.0448 227.61 27.7724C227.589 26.4999 228.6 25.4589 229.874 25.4378C231.147 25.4168 232.189 26.4263 232.21 27.6987Z" fill="#251E1C"/>
<path d="M214.537 33.062C217.478 33.062 219.863 30.6797 219.863 27.741C219.863 24.8022 217.478 22.4199 214.537 22.4199C211.595 22.4199 209.21 24.8022 209.21 27.741C209.21 30.6797 211.595 33.062 214.537 33.062Z" stroke="white" stroke-width="1.17" stroke-miterlimit="10"/>
<path d="M229.905 33.062C232.847 33.062 235.231 30.6797 235.231 27.741C235.231 24.8022 232.847 22.4199 229.905 22.4199C226.964 22.4199 224.579 24.8022 224.579 27.741C224.579 30.6797 226.964 33.062 229.905 33.062Z" stroke="white" stroke-width="1.17" stroke-miterlimit="10"/>
<path d="M223.21 26.0166C223.063 27.1523 223.568 28.3617 224.484 29.1188C224.968 29.5184 225.631 29.9075 225.621 30.5174C225.621 31.1168 224.958 31.4638 224.358 31.6111C223.074 31.9265 221.663 31.8424 220.421 31.3482" fill="#FFC6BB"/>
<path d="M223.21 26.0166C223.063 27.1523 223.568 28.3617 224.484 29.1188C224.968 29.5184 225.631 29.9075 225.621 30.5174C225.621 31.1168 224.958 31.4638 224.358 31.6111C223.074 31.9265 221.663 31.8424 220.421 31.3482" stroke="#D68080" stroke-width="0.75" stroke-linecap="round" stroke-linejoin="round"/>
<path d="M219.853 27.7412H224.589" stroke="white" stroke-width="1.17" stroke-miterlimit="10"/>
<path d="M227.21 20.2641C228.484 19.4754 230.137 19.3387 231.526 19.8961" stroke="#2B3551" stroke-width="0.87" stroke-miterlimit="10" stroke-linecap="round"/>
<path d="M214.81 20.7694C213.41 20.2225 211.758 20.3803 210.495 21.1795" stroke="#2B3551" stroke-width="0.87" stroke-miterlimit="10" stroke-linecap="round"/>
<path d="M203.547 57.375L217.842 71.5084L211.884 79.6477L197.01 62.6855L203.547 57.375Z" fill="white"/>
<path d="M231.979 56.6279L217.842 71.508L223.926 79.6473L237.874 62.4853L231.979 56.6279Z" fill="white"/>
<path d="M129.716 64.441C131.505 63.6629 132.505 61.749 132.147 59.8351L131.358 51.6957L134.368 45.8279C135.316 43.9665 134.516 41.6846 132.579 40.8223C130.768 40.0231 128.642 40.9274 127.747 42.6836L126.032 46.0066L123.453 42.3576L123.316 31.2843C123.316 30.8111 123.211 30.3694 123.032 29.9698C123.011 29.9278 122.989 29.8857 122.968 29.8436C122.895 29.6964 122.821 29.5492 122.726 29.4125C122.684 29.3494 122.621 29.2863 122.568 29.2232C122.484 29.1181 122.411 29.0234 122.316 28.9288C122.242 28.8552 122.168 28.7921 122.095 28.729C122.011 28.6554 121.926 28.5817 121.832 28.5186C121.747 28.4555 121.653 28.4135 121.558 28.3609C121.463 28.3083 121.368 28.2452 121.263 28.2032C121.168 28.1611 121.074 28.1296 120.979 28.098C120.863 28.0559 120.747 28.0244 120.621 27.9928C120.537 27.9718 120.453 27.9613 120.358 27.9508C120.263 27.9403 120.179 27.9087 120.084 27.9087V26.9307C120.063 24.8065 118.105 23.145 115.905 23.6182C114.305 23.9652 113.211 25.469 113.221 27.1095V28.2873H113.232C111.337 28.098 109.8 29.5071 109.821 31.4L109.842 33.703C109.263 34.1657 108.811 34.7967 108.621 35.5748L106.6 41.327C106.253 42.7782 106.189 44.282 106.421 45.7648L108.053 56.1755V56.2071L108.695 63.5261C108.842 65.1877 109.779 66.6809 111.221 67.5327L113.537 75.8087L130.768 71.0345L129.726 64.441H129.716Z" fill="#FFC6BB"/>
<path d="M108.032 56.1962V56.1647L106.474 46.1851C106.2 44.4289 106.274 42.6412 106.684 40.9166L108.6 35.585C109.053 33.7447 110.905 32.609 112.747 33.0612C114.589 33.5029 115.716 35.3537 115.274 37.2045L113.042 43.8295L113.537 46.9527" stroke="#D68080" stroke-width="0.59" stroke-linecap="round" stroke-linejoin="round"/>
<path d="M109.832 33.6714L109.811 31.7364C109.789 29.8436 111.305 28.2872 113.211 28.2767H113.221C114.758 28.2557 116.063 29.2652 116.505 30.6533C116.611 30.9793 116.674 31.3053 116.674 31.6628L117.474 45.3861" stroke="#D68080" stroke-width="0.59" stroke-linecap="round" stroke-linejoin="round"/>
<path d="M113.221 28.2768V26.9939C113.189 25.101 114.705 23.5447 116.6 23.5237C118.495 23.5026 120.042 25.0379 120.063 26.9203V27.8878L120.263 44.6712" stroke="#D68080" stroke-width="0.59" stroke-linecap="round" stroke-linejoin="round"/>
<path d="M125.189 47.6572C118.421 48.7299 113.926 54.1666 116.379 61.8222" stroke="#D68080" stroke-width="0.59" stroke-linecap="round" stroke-linejoin="round"/>
<path d="M195.737 62.4326L213.2 142.532L210.232 210.739C210.179 212.011 209.126 213.01 207.853 213.01H165.568C163.674 213.01 162.263 211.254 162.674 209.403L177.832 141.239L177.632 120.796L159.347 144.099C150.274 155.656 131.905 152.133 127.768 138.011L108.832 73.264L132.632 66.292C133.863 65.9344 135.147 66.639 135.505 67.8588L145.821 102.971L164.232 74.2105C168.916 66.8809 177.032 62.4431 185.747 62.4431H195.726L195.737 62.4326Z" fill="#EFD875"/>
<path d="M159.989 80.8464L148.926 102.646L135.642 68.2799C135.21 66.8181 133.684 65.9874 132.221 66.408L108.926 73.2328C107.695 73.5904 107 74.9049 107.4 76.1247L127.768 138.021C131.895 152.134 150.263 155.667 159.347 144.1L190.558 104.328L159.979 80.8464H159.989Z" fill="#EFD875"/>
<path d="M290.01 145.951L368.989 129.967C370.579 129.641 371.642 128.137 371.41 126.538L367.031 95.8845C366.831 94.4859 365.547 93.4974 364.147 93.6657L289.537 102.467L271.442 74.1902C266.758 66.8606 258.642 62.4229 249.926 62.4229H239.947L222.221 142.523L225.453 210.729C225.505 212.001 226.558 213 227.831 213H270.116C272.01 213 273.421 211.244 273.01 209.393L257.853 141.229L258.053 120.786L274.821 140.651C278.537 145.057 284.368 147.087 290.021 145.94L290.01 145.951Z" fill="#EFD875"/>
<path d="M235.179 143.627C235.179 145.94 233.305 147.812 230.99 147.812C228.674 147.812 226.8 145.94 226.8 143.627C226.8 141.313 228.674 139.441 230.99 139.441C233.305 139.441 235.179 141.313 235.179 143.627Z" stroke="#D8B00B" stroke-width="1.09" stroke-linecap="round" stroke-linejoin="round"/>
<path d="M216.705 73.065L213.411 77.5659C212.632 78.628 211.063 78.7016 210.189 77.7131L199.01 64.9678" stroke="#B7B7B7" stroke-width="0.63" stroke-linecap="round" stroke-linejoin="round"/>
<path d="M218.916 72.9386L222.347 77.5236C223.147 78.5962 224.758 78.6382 225.611 77.5867L235.874 64.957" stroke="#B7B7B7" stroke-width="0.63" stroke-linecap="round" stroke-linejoin="round"/>
<path d="M217.705 76.0195V159.39" stroke="#B7B7B7" stroke-width="0.63" stroke-linecap="round" stroke-linejoin="round"/>
<path d="M177.726 129.177V104.791" stroke="#D8B00B" stroke-width="1.09" stroke-linecap="round" stroke-linejoin="round"/>
<path d="M146.316 95.9053L151.126 107.767" stroke="#D8B00B" stroke-width="1.09" stroke-linecap="round" stroke-linejoin="round"/>
<path d="M257.695 129.177V104.791" stroke="#D8B00B" stroke-width="1.09" stroke-linecap="round" stroke-linejoin="round"/>
<path d="M213.2 142.523L196.368 65.3146L203.558 57.3751V55.0195L186.084 61.8444C185.295 62.1493 184.979 63.0852 185.4 63.8108L190.568 72.5706L181.905 76.2827C181.179 76.5877 180.874 77.4395 181.221 78.144L213.21 142.512L213.2 142.523Z" fill="#F4E398"/>
<path d="M231.874 54.6514V57.0805L239.116 65.0832L222.232 142.533L254.2 78.1965C254.558 77.4814 254.232 76.6086 253.495 76.2931L244.863 72.5915L249.99 63.9054C250.421 63.1693 250.105 62.2333 249.316 61.9074L231.874 54.6724V54.6514Z" fill="#F4E398"/>
<path d="M202.958 27.6144C203.032 31.7998 199.526 35.2595 195.126 35.3331C190.726 35.4067 187.105 32.0732 187.042 27.8879C186.968 23.7025 190.474 20.2428 194.874 20.1692C199.274 20.0956 202.895 23.4291 202.958 27.6144Z" fill="#FFC6BB"/>
<path d="M190.568 25.4276C191.232 24.3234 192.368 23.5032 193.632 23.2087C194.895 22.9143 196.274 23.1562 197.358 23.8607" stroke="#D68080" stroke-width="0.56" stroke-linecap="round" stroke-linejoin="round"/>
<path d="M193.874 26.3415C193.926 25.0691 194.674 23.8387 195.769 23.1973" stroke="#D68080" stroke-width="0.56" stroke-linecap="round" stroke-linejoin="round"/>
<path d="M235.968 11.7672L230.884 5.689L211.505 3.08105L197.358 12.7662L199.2 21.179C199.2 21.179 198.811 28.2457 200.126 28.2457C200.958 28.2457 202.116 25.2486 202.853 23.0613C203.621 20.7794 205.274 18.876 207.484 17.919C207.495 17.919 207.505 17.9085 207.526 17.898C208.274 17.5825 209.063 17.4458 209.863 17.4143C218.295 17.1303 221.937 13.2184 223.495 10.1793C223.958 9.28545 224.8 8.74914 225.726 8.74914C226.842 8.74914 227.842 9.53783 228.179 10.7366C228.632 12.3456 229.916 13.7863 232.484 15.1323C233.579 15.7107 234.358 16.7412 234.621 17.9401L235.326 21.1684C235.579 22.1254 236 23.156 236.6 23.156C237.716 23.156 235.989 11.7672 235.989 11.7672H235.968Z" fill="#464647"/>
<path d="M368.99 129.966L300.653 143.795L277.158 103.939L364.147 93.6759C365.547 93.5076 366.832 94.4961 367.032 95.8947L371.411 126.549C371.642 128.147 370.579 129.651 368.99 129.977V129.966Z" fill="#EFD875"/>
<path d="M401.525 84.5232L401.8 84.8552C403.023 86.3288 402.819 88.5055 401.344 89.7267L391.488 97.8863C390.013 99.1075 387.834 98.9037 386.612 97.4301L386.337 97.0981C385.114 95.6245 385.318 93.4478 386.793 92.2266L396.649 84.067C398.124 82.8458 400.303 83.0496 401.525 84.5232Z" fill="#FFC6BB"/>
<path d="M487.983 33.92L486.362 31.626L352.9 125.715L354.521 128.009L487.983 33.92Z" fill="white"/>
<path d="M406.541 100.32L406.745 99.9879C407.663 98.4931 407.195 96.5375 405.698 95.62L398.145 90.9883C396.648 90.0708 394.691 90.5389 393.772 92.0337L393.569 92.3653C392.65 93.8602 393.119 95.8158 394.615 96.7333L402.169 101.365C403.665 102.282 405.623 101.814 406.541 100.32Z" fill="#FFC6BB" stroke="#D68080" stroke-width="0.75" stroke-linecap="round" stroke-linejoin="round"/>
<path d="M403.4 106.105L403.604 105.773C404.522 104.278 404.054 102.323 402.557 101.405L395.003 96.7735C393.507 95.856 391.55 96.324 390.631 97.8189L390.427 98.1505C389.509 99.6453 389.978 101.601 391.474 102.518L399.028 107.15C400.524 108.068 402.482 107.6 403.4 106.105Z" fill="#FFC6BB" stroke="#D68080" stroke-width="0.75" stroke-linecap="round" stroke-linejoin="round"/>
<path d="M400.069 111.538L399.86 111.878C398.946 113.366 396.986 113.842 395.488 112.924L387.934 108.292C386.436 107.373 385.968 105.421 386.888 103.924L387.091 103.592C388.005 102.105 389.965 101.628 391.464 102.547L399.017 107.179C400.507 108.092 400.983 110.05 400.064 111.547L400.069 111.538Z" fill="#FFC6BB" stroke="#D68080" stroke-width="0.75" stroke-linecap="round" stroke-linejoin="round"/>
<path d="M396.543 117.246L396.339 117.577C395.425 119.065 393.465 119.541 391.967 118.622L384.414 113.989C382.925 113.075 382.448 111.117 383.368 109.621L383.577 109.28C384.492 107.793 386.452 107.317 387.95 108.236L395.503 112.869C396.992 113.782 397.468 115.74 396.549 117.237L396.543 117.246Z" fill="#FFC6BB" stroke="#D68080" stroke-width="0.75" stroke-linecap="round" stroke-linejoin="round"/>
</g>
<defs>
<clipPath id="clip0_434_6892">
<rect width="382" height="213" fill="white" transform="translate(106)"/>
</clipPath>
</defs>
</svg>
