<svg width="430" height="160" viewBox="0 0 430 160" fill="none" xmlns="http://www.w3.org/2000/svg">
<g clip-path="url(#clip0_434_6893)">
<g clip-path="url(#clip1_434_6893)">
<path d="M285.246 178.242H148.084L157.207 61.9088C157.207 58.6322 159.862 55.9854 163.128 55.9854H270.193C273.468 55.9854 276.114 58.6413 276.114 61.9088L285.237 178.242H285.246Z" fill="white"/>
<path d="M247.961 26.9983C250.278 56.9168 264.181 77.2884 282.4 102.525C292.863 117.019 284.16 137.783 266.772 139.663L181.455 148.908C186.245 92.9048 192.266 42.779 203.168 15.8906L247.961 26.9983Z" fill="#2B3551"/>
<path d="M191.91 60.7863L220.884 57.1172L238.656 59.1343L266.298 84.5166L257.23 139.261L270.503 173.679L173.847 171.972V151.911" fill="white"/>
<path d="M204.317 62.9953L208.304 53.5488L203.423 59.3263L191.91 60.7866L183.617 102.625L171.949 144.728L164.122 193.403C163.721 195.885 165.636 198.14 168.154 198.14L206.662 198.122C208.213 198.122 209.481 196.889 209.535 195.338L211.761 149.903L204.317 62.9953Z" fill="#209CEF"/>
<path d="M227.717 197.492L228.055 149.073L239.413 63.4244L236.959 54.6807L243.335 59.8648L243.29 59.9105L254.164 62.3839L264.957 64.8391C265.02 64.8573 265.084 64.8665 265.148 64.8847C265.623 65.0034 266.097 65.1403 266.562 65.3046C273.669 67.6867 278.732 74.1304 279.27 81.7333L284.115 150.113L275.804 144.911L281.195 197.154C281.396 198.158 280.621 199.098 279.599 199.098L229.341 199.126C228.438 199.126 227.708 198.395 227.708 197.492H227.717Z" fill="#209CEF"/>
<path d="M237.542 53.5488L252.039 67.5771L246.364 70.5252L254.794 75.2256L228.055 149.073L239.413 63.4243L237.542 53.5488Z" fill="#0083DB"/>
<path d="M223.94 0C235.152 0 244.686 8.40603 246.392 19.7966L246.857 23.5935C246.857 26.5506 224.634 21.5125 224.634 21.5125V21.5764L223.95 21.5399L223.265 21.5764V21.5125L201.398 23.5387L201.507 19.7966C203.213 8.40603 212.747 0 223.959 0L223.94 0Z" fill="#2B3551"/>
<path d="M208.304 60.64L222.928 65.7329L237.543 63.6702V31.2234L208.304 30.1738V60.64Z" fill="#FFC6BB"/>
<path d="M203.724 32.9483L204.937 17.6696C205.229 14.0097 207.182 10.733 210.147 8.9989C211.652 8.12271 213.285 7.41992 214.681 7.41992H231.166C231.166 7.41992 231.239 7.41992 231.275 7.41992C236.329 7.47468 240.453 11.8922 240.881 17.3867L242.113 32.9392C242.423 36.7999 241.356 40.7063 238.966 43.5722C238.947 43.5905 238.929 43.6087 238.92 43.627C238.884 43.6726 238.847 43.7183 238.801 43.7639C234.532 48.6834 228.721 51.1386 222.919 51.1021C217.116 51.1386 211.305 48.6834 207.036 43.7639C206.999 43.7183 206.954 43.6726 206.917 43.627C206.899 43.6087 206.881 43.5905 206.871 43.5722C204.481 40.7063 203.414 36.7999 203.724 32.9392V32.9483Z" fill="#FFC6BB"/>
<path d="M235.344 46.9951C231.64 49.7606 227.279 51.1297 222.928 51.1023C218.64 51.1297 214.343 49.7971 210.676 47.1138" fill="#FFC6BB"/>
<path d="M235.344 46.9951C231.64 49.7606 227.279 51.1297 222.928 51.1023C218.64 51.1297 214.343 49.7971 210.676 47.1138" stroke="#D68080" stroke-width="0.98" stroke-linecap="round" stroke-linejoin="round"/>
<path d="M237.543 53.5488L222.928 65.7335L229.131 74.2216L239.413 63.4243L237.543 53.5488Z" fill="white"/>
<path d="M208.304 53.5488L222.928 65.7335L216.724 74.2216L204.636 62.11L208.304 53.5488Z" fill="white"/>
<path d="M219.762 70.0589L217.782 72.7697C217.226 73.5363 216.113 73.6185 215.447 72.9522L207.109 64.5918" stroke="#B7B7B7" stroke-width="0.75" stroke-miterlimit="10" stroke-linecap="round"/>
<path d="M209.982 29.3986C209.909 33.4875 206.379 36.7458 202.091 36.6728C197.803 36.5998 194.382 33.2228 194.455 29.1339C194.528 25.0449 198.059 21.7866 202.347 21.8596C206.634 21.9326 210.055 25.3096 209.982 29.3986Z" fill="#FFC6BB"/>
<path d="M197.968 26.8524C198.652 25.7937 199.783 25.027 201.024 24.7806C202.264 24.5342 203.596 24.8171 204.636 25.5381" stroke="#D68080" stroke-width="0.82" stroke-linecap="round" stroke-linejoin="round"/>
<path d="M201.161 27.8466C201.261 26.6053 202.018 25.437 203.113 24.8438" stroke="#D68080" stroke-width="0.82" stroke-linecap="round" stroke-linejoin="round"/>
<path d="M235.873 29.1339C235.8 33.2228 239.221 36.5998 243.509 36.6728C247.797 36.7458 251.327 33.4875 251.4 29.3986C251.473 25.3096 248.052 21.9326 243.764 21.8596C239.476 21.7866 235.946 25.0449 235.873 29.1339Z" fill="#FFC6BB"/>
<path d="M247.961 26.998C247.313 25.9119 246.209 25.1178 244.978 24.8258C243.746 24.5337 242.405 24.771 241.347 25.4555" stroke="#D68080" stroke-width="0.82" stroke-linecap="round" stroke-linejoin="round"/>
<path d="M244.731 27.8831C244.677 26.6418 243.956 25.4462 242.879 24.8164" stroke="#D68080" stroke-width="0.82" stroke-linecap="round" stroke-linejoin="round"/>
<path d="M238.145 66.582L229.898 73.8746C229.368 74.34 228.547 74.2579 228.137 73.6829L224.25 68.3618" stroke="#B7B7B7" stroke-width="0.75" stroke-miterlimit="10"/>
<path d="M222.928 69.1467H215.821C213.878 69.1467 212.3 67.5677 212.3 65.6236C212.3 64.3824 212.929 63.2506 213.996 62.6117C215.064 61.9637 216.35 61.9272 217.454 62.5022C217.509 62.5296 217.563 62.5661 217.618 62.6117L223.502 67.5677C223.794 67.8141 223.895 68.2066 223.767 68.5626C223.639 68.9185 223.302 69.1558 222.928 69.1558V69.1467ZM215.821 63.8895C215.511 63.8895 215.201 63.9716 214.927 64.1451C214.407 64.4645 214.097 65.0121 214.097 65.6236C214.097 66.582 214.872 67.3578 215.83 67.3578H220.483L216.56 64.0538C216.332 63.9443 216.086 63.8986 215.839 63.8986L215.821 63.8895Z" fill="#0055AA"/>
<path d="M230.025 69.1468H222.919C222.545 69.1468 222.207 68.9095 222.079 68.5535C221.952 68.1975 222.052 67.8051 222.344 67.5586L228.228 62.6027C228.283 62.557 228.338 62.5205 228.392 62.4931C229.496 61.9181 230.783 61.9638 231.85 62.6027C232.908 63.2507 233.547 64.3733 233.547 65.6146C233.547 67.5587 231.969 69.1376 230.025 69.1376V69.1468ZM225.382 67.3579H230.034C230.992 67.3579 231.768 66.5821 231.768 65.6237C231.768 65.0122 231.458 64.4554 230.938 64.1451C230.436 63.8439 229.843 63.8074 229.314 64.0539L225.391 67.3579H225.382Z" fill="#0055AA"/>
<path d="M217.801 81.7599C217.691 81.7599 217.573 81.7417 217.463 81.696C217.007 81.5135 216.788 80.9841 216.971 80.5278L222.098 67.9142C222.234 67.5856 222.545 67.3665 222.9 67.3574C223.265 67.3574 223.585 67.5491 223.731 67.8685L229.67 80.4821C229.879 80.9294 229.688 81.4679 229.241 81.6778C228.794 81.8877 228.255 81.696 228.046 81.2488L222.973 70.488L218.613 81.2123C218.476 81.5591 218.138 81.7691 217.782 81.7691L217.801 81.7599Z" fill="#0055AA"/>
<path d="M203.615 58.9064L186.774 61.7084C183.937 62.1922 181.309 63.2874 179.056 64.8938C175.89 67.1299 173.482 70.3427 172.196 74.103H172.177L158.904 104.423L141.953 141.981L158.21 153.034L180.935 168.842L182.45 144.737L203.058 63.1505L204.427 58.806L204.445 58.7695L203.633 58.9064H203.615Z" fill="#209CEF"/>
<path d="M208.304 53.5488L204.317 62.9953L211.761 149.903L192.202 81.5689C191.992 80.5923 192.603 79.6249 193.58 79.4058L198.451 78.3106L192.01 72.67C191.198 71.9581 191.18 70.6986 191.974 69.9684L208.313 53.5488H208.304Z" fill="#0083DB"/>
<path d="M178.354 137.5L189.319 106.13" stroke="#117DCE" stroke-width="0.75" stroke-miterlimit="10" stroke-linecap="round"/>
<path d="M222.928 74.167V158.784" stroke="#B7B7B7" stroke-width="0.75" stroke-linecap="round" stroke-linejoin="round"/>
<path d="M227.608 32.8115C227.59 34.0528 228.575 35.0751 229.816 35.0933C231.056 35.1116 232.078 34.1258 232.096 32.8846C232.115 31.6433 231.129 30.621 229.889 30.6028C228.648 30.5845 227.626 31.5703 227.608 32.8115Z" fill="#251E1C"/>
<path d="M212.61 32.8115C212.592 34.0528 213.577 35.0751 214.818 35.0933C216.058 35.1116 217.08 34.1258 217.098 32.8846C217.117 31.6433 216.131 30.621 214.891 30.6028C213.65 30.5845 212.628 31.5703 212.61 32.8115Z" fill="#251E1C"/>
<path d="M221.395 31.1592C221.532 32.2727 221.049 33.4501 220.154 34.1894C219.68 34.5818 219.042 34.956 219.042 35.5493C219.042 36.1334 219.689 36.4803 220.273 36.6172C221.532 36.9275 222.9 36.8362 224.123 36.3616" fill="#FFC6BB"/>
<path d="M221.395 31.1592C221.532 32.2727 221.049 33.4501 220.154 34.1894C219.68 34.5818 219.042 34.956 219.042 35.5493C219.042 36.1334 219.689 36.4803 220.273 36.6172C221.532 36.9275 222.9 36.8362 224.123 36.3616" stroke="#D68080" stroke-width="0.98" stroke-linecap="round" stroke-linejoin="round"/>
<path d="M217.482 25.5465C216.241 24.7798 214.626 24.6338 213.267 25.1814" stroke="#2B3551" stroke-width="0.98" stroke-miterlimit="10" stroke-linecap="round"/>
<path d="M229.587 26.0391C230.947 25.5006 232.561 25.6557 233.793 26.4406" stroke="#2B3551" stroke-width="0.98" stroke-miterlimit="10" stroke-linecap="round"/>
<path d="M219.416 40.2683C222.335 41.0532 225.601 40.3961 227.991 38.5615L219.416 40.2683Z" fill="#FFC6BB"/>
<path d="M219.416 40.2683C222.335 41.0532 225.601 40.3961 227.991 38.5615" stroke="#D68080" stroke-width="0.98" stroke-linecap="round" stroke-linejoin="round"/>
<path d="M238.145 10.7337L233.793 4.55469L211.433 5.41263L205.631 11.6373L202.575 21.2846H203.669C203.669 21.2846 203.359 27.8926 205.001 27.8926C205.996 27.8926 206.342 25.8846 206.498 25.2001C206.689 24.3513 206.826 23.4842 206.926 22.6172C207.027 21.8231 206.954 20.956 207.337 20.2167C207.848 19.2401 209.143 18.9663 210.037 18.4461C211.871 17.36 213.577 15.6715 214.097 13.5448C214.434 12.1667 215.438 11.254 216.56 11.254C217.481 11.254 218.339 11.8746 218.795 12.906C220.364 16.4016 224.023 20.9104 232.498 21.2298C233.3 21.2572 234.094 21.4215 234.842 21.7866C235.116 21.9235 235.417 22.0878 235.736 22.2795C237.059 23.11 237.907 23.6485 238.117 25.2001C238.373 27.1442 238.938 29.9006 240.051 29.9006C241.776 29.9006 242.177 14.056 242.177 14.056L238.145 10.7246V10.7337Z" fill="#2B3551"/>
<path d="M118.152 149.191V158.455C118.152 159.012 117.705 159.459 117.148 159.459H42.0035C41.4561 159.459 41 159.012 41 158.455V149.191H118.152Z" fill="#F7DB63"/>
<path d="M118.152 149.191V158.455C118.152 159.012 117.705 159.459 117.148 159.459H97.7075V149.191H118.152Z" fill="#E5C333"/>
<path d="M95.947 149.191H93.5659V159.459H95.947V149.191Z" fill="#E5C333"/>
<path d="M91.8051 149.191H89.4241V159.459H91.8051V149.191Z" fill="#E5C333"/>
<path d="M124.346 149.337H47.1943V146.572H49.2652V139.307H47.1943V136.541H124.346V139.307H123.516V146.572H124.346V149.337Z" fill="#4596D8"/>
<path d="M123.516 139.307H49.2651V146.572H123.516V139.307Z" fill="white"/>
<path d="M61.8547 141.972H121.199" stroke="#999999" stroke-width="0.27" stroke-miterlimit="10"/>
<path d="M51.2085 144.601H110.553" stroke="#999999" stroke-width="0.27" stroke-miterlimit="10"/>
<path d="M119.457 136.541H42.3047V133.776H44.3756V122.166H42.3047V119.4H119.457V122.166H118.626V133.776H119.457V136.541Z" fill="#E5C333"/>
<path d="M118.626 122.166H44.3755V133.776H118.626V122.166Z" fill="white"/>
<path d="M56.9651 124.831H116.309" stroke="#999999" stroke-width="0.27" stroke-miterlimit="10"/>
<path d="M46.3188 127.46H105.663" stroke="#999999" stroke-width="0.27" stroke-miterlimit="10"/>
<path d="M87.0706 130.298H117.559" stroke="#999999" stroke-width="0.27" stroke-miterlimit="10"/>
<path d="M49.8857 131.768H80.3743" stroke="#999999" stroke-width="0.27" stroke-miterlimit="10"/>
<path d="M218.558 122.458C217.29 122.932 216.651 124.338 217.126 125.606L229.25 157.478L233.839 155.762L221.714 123.89C221.24 122.622 219.835 121.983 218.567 122.458H218.558Z" fill="#EDC82E"/>
<path d="M229.241 157.478L232.644 160.572C232.881 160.782 233.255 160.645 233.292 160.335L233.83 155.771L229.241 157.487V157.478Z" fill="#F2D5C9"/>
<path d="M232.644 160.572L231.448 159.486L233.483 158.729L233.291 160.335C233.255 160.645 232.881 160.791 232.644 160.572Z" fill="#2B3551"/>
<path d="M230.783 156.903L229.952 156.265C229.779 156.128 229.514 156.228 229.469 156.447L229.259 157.478L230.308 157.953L230.783 156.903Z" fill="#F2D5C9"/>
<path d="M231.832 157.378L232.306 156.328L231.476 155.689C231.302 155.552 231.038 155.653 230.992 155.872L230.782 156.903L231.832 157.378Z" fill="#F2D5C9"/>
<path d="M233.83 155.763L232.999 155.124C232.826 154.987 232.562 155.087 232.516 155.307L232.306 156.338L233.355 156.812L233.83 155.763Z" fill="#F2D5C9"/>
<path d="M217.705 122.769L219.415 122.13C220.209 121.833 221.09 122.234 221.387 123.03L222.578 126.219L217.997 127.931L216.806 124.742C216.509 123.947 216.911 123.066 217.705 122.769Z" fill="#FF7373"/>
<path d="M230.509 156.174L219.671 127.752" stroke="#D8B00B" stroke-width="0.6" stroke-linecap="round" stroke-linejoin="round"/>
<path d="M232.032 155.607L221.204 127.186" stroke="#D8B00B" stroke-width="0.6" stroke-linecap="round" stroke-linejoin="round"/>
<path d="M205.184 142.792L216.077 138.758C217.098 138.183 218.284 137.973 219.443 138.165L224.433 139.005L230.983 140.127C232.489 140.319 233.684 141.615 233.592 143.121C233.529 144.207 232.872 145.092 231.969 145.521C231.494 145.74 230.965 145.832 230.409 145.768L230.764 145.539C231.813 146.188 232.361 147.456 232.014 148.707C231.768 149.583 231.129 150.24 230.345 150.559C231.339 151.217 231.85 152.458 231.512 153.672C231.248 154.621 230.518 155.296 229.651 155.579C230.938 156.127 231.649 157.551 231.266 158.929C230.947 160.07 229.98 160.846 228.876 160.973L221.486 163.036C220.127 163.41 218.713 163.538 217.317 163.401L199.044 162.105L199.391 142.801H205.184V142.792Z" fill="#FFC6BB"/>
<path d="M230.801 145.531L224.488 144.637" stroke="#D68080" stroke-width="0.81" stroke-linecap="round" stroke-linejoin="round"/>
<path d="M230.427 150.578L224.907 150.679" stroke="#D68080" stroke-width="0.81" stroke-linecap="round" stroke-linejoin="round"/>
<path d="M229.697 155.635L224.178 155.735" stroke="#D68080" stroke-width="0.81" stroke-linecap="round" stroke-linejoin="round"/>
<path d="M202.109 163.438H152.919C145.447 163.438 139.39 157.378 139.39 149.903C139.39 141.898 146.296 135.637 154.26 136.431L202.109 141.196V163.438Z" fill="#209CEF"/>
<path d="M244.266 66.518L240.626 50.5183C240.453 49.7516 240.133 49.0214 239.686 48.3734L236.21 43.3444C235.517 42.3404 234.34 41.8019 233.127 41.9297L228.748 42.386C227.598 42.4408 226.586 43.3353 226.595 44.4853C226.595 45.6809 227.58 46.6301 228.784 46.5754L231.749 46.1738L232.671 49.0853L228.675 47.8349C227.279 47.3968 225.756 47.9079 224.916 49.1036L221.559 53.8405C220.902 54.7624 221.112 56.031 221.997 56.7155L220.893 58.6048C220.309 59.5997 220.647 60.8866 221.65 61.4707C221.678 61.489 221.696 61.4981 221.723 61.5073C221.641 61.9819 221.659 62.4747 221.796 62.9402L222.736 64.7474C223.229 65.7057 224.369 66.1255 225.372 65.724C225.984 65.4775 226.394 64.9573 226.568 64.364L227.389 67.4764C227.982 69.749 229.596 71.62 231.749 72.551L241.602 101.466L260.933 93.306L244.293 66.518H244.266ZM227.972 52.006L228.219 52.079H227.918L227.972 52.006Z" fill="#F9A9A0"/>
<path d="M221.696 61.4985C221.696 61.4985 221.651 61.4711 221.623 61.462C220.62 60.887 220.282 59.6001 220.866 58.6053L223.658 53.8135C224.251 52.7913 225.364 52.1433 226.55 52.1159L230.637 52.0977" stroke="#D68080" stroke-width="0.62" stroke-linecap="round" stroke-linejoin="round"/>
<path d="M236.63 50.5276L228.666 47.826C227.27 47.3879 225.756 47.899 224.907 49.0946L221.55 53.8316C220.893 54.7443 221.094 56.0221 221.988 56.7066" stroke="#D68080" stroke-width="0.62" stroke-linecap="round" stroke-linejoin="round"/>
<path d="M231.321 59.3984L227.298 59.7361L225.92 62.1731L226.276 63.1953C226.623 64.1901 226.103 65.2671 225.117 65.6322C224.232 65.9517 223.238 65.5774 222.782 64.756L221.787 62.9397C221.55 62.1274 221.651 61.2421 222.07 60.5028L223.849 57.354C224.433 56.3135 225.51 55.6472 226.705 55.5833L230.929 55.3643" stroke="#D68080" stroke-width="0.62" stroke-linecap="round" stroke-linejoin="round"/>
<path d="M232.379 48.2179L231.385 45.2881" stroke="#D68080" stroke-width="0.62" stroke-linecap="round" stroke-linejoin="round"/>
<path d="M268.934 161.02C261.6 161.02 255.095 156.329 252.778 149.365L232.042 81.788C231.704 80.6745 232.297 79.488 233.392 79.1047L251.063 72.8435C252.103 72.4784 253.252 72.9439 253.745 73.9387L284.416 136.833C289.625 148.124 281.378 161.02 268.953 161.02H268.934Z" fill="#209CEF"/>
<path d="M387.139 159.45H44.7585V178.206H387.139V159.45Z" fill="white"/>
<path d="M166.001 136.367L200.504 139.525" stroke="#117DCE" stroke-width="0.75" stroke-miterlimit="10" stroke-linecap="round"/>
<path d="M254.794 75.2256L277.738 123.161" stroke="#117DCE" stroke-width="0.75" stroke-miterlimit="10" stroke-linecap="round"/>
<path d="M243.308 118.515L252.285 147.767C252.285 147.767 254.274 153.371 257.293 156.41" stroke="#117DCE" stroke-width="0.75" stroke-miterlimit="10" stroke-linecap="round"/>
<path d="M387.54 109.735H387.522C387.175 109.251 386.628 108.913 385.953 108.913H314.612C313.864 108.913 313.189 109.342 312.87 110.017L294.059 149.556L289.981 158.126L291.085 159.45L291.769 158.126H362.644C363.547 158.126 364.387 157.615 364.797 156.803L387.677 111.724C387.787 111.514 387.832 111.295 387.86 111.076H388.644L387.531 109.735H387.54Z" fill="#388BD6"/>
<path d="M291.094 159.449L313.974 111.341C314.293 110.665 314.977 110.236 315.716 110.236H387.057C388.498 110.236 389.438 111.761 388.781 113.047L365.901 158.126C365.49 158.938 364.66 159.449 363.748 159.449H291.084H291.094Z" fill="#DEF0FF"/>
<path d="M341.753 131.913C338.532 133.775 336.963 137.07 338.241 139.279C339.518 141.488 343.158 141.78 346.378 139.918C349.598 138.056 351.168 134.761 349.89 132.552C348.613 130.344 344.973 130.052 341.753 131.913Z" fill="#AEBCFF"/>
<path d="M297.963 159.449L308.719 136.851L313.6 159.449H297.963Z" fill="#4363D6"/>
<path d="M300.271 157.998L308.199 141.332L311.793 157.998H300.271Z" fill="#264499"/>
<path d="M366.147 159.449L376.894 136.851L381.775 159.449H366.147Z" fill="#6D6262"/>
<path d="M313.6 159.449H388.653L383.773 136.851H308.719L313.6 159.449Z" fill="#5F7EF2"/>
</g>
</g>
<defs>
<clipPath id="clip0_434_6893">
<rect width="430" height="160" fill="white"/>
</clipPath>
<clipPath id="clip1_434_6893">
<rect width="348" height="397" fill="white" transform="translate(41)"/>
</clipPath>
</defs>
</svg>
