<svg width="74" height="32" viewBox="0 0 74 32" fill="none" xmlns="http://www.w3.org/2000/svg">
<path d="M60.756 9.59958C60.756 9.23691 60.6174 8.94891 60.34 8.73558C60.0627 8.50091 59.7 8.31958 59.252 8.19158C58.8254 8.06358 58.3454 7.97824 57.812 7.93558C57.3 7.89291 56.7987 7.87158 56.308 7.87158C55.8174 7.87158 55.3694 7.89291 54.964 7.93558C54.5587 7.97824 54.26 8.01024 54.068 8.03158C53.8974 8.05291 53.7267 8.08491 53.556 8.12758C53.3854 8.14891 53.2147 8.15958 53.044 8.15958C52.8094 8.15958 52.5854 8.09558 52.372 7.96758C52.1587 7.83958 52.052 7.64758 52.052 7.39158C52.052 7.09291 52.1374 6.85824 52.308 6.68758C52.4787 6.49558 52.6814 6.34624 52.916 6.23958C53.172 6.13291 53.428 6.05824 53.684 6.01558C53.9614 5.97291 54.2067 5.94091 54.42 5.91958C55.508 5.74891 56.66 5.70624 57.876 5.79158C59.092 5.85558 60.244 6.11158 61.332 6.55958C61.8867 6.81558 62.3454 7.15691 62.708 7.58358C63.0707 8.01024 63.252 8.55424 63.252 9.21558C63.252 9.72758 63.1134 10.2929 62.836 10.9116C62.5587 11.5302 62.26 12.1062 61.94 12.6396C62.5587 13.2582 63.2307 13.8662 63.956 14.4636C64.7027 15.0396 65.4174 15.5409 66.1 15.9676C66.3347 16.0742 66.452 16.2342 66.452 16.4476C66.452 16.7036 66.3347 16.9169 66.1 17.0876C65.8867 17.2582 65.6627 17.3436 65.428 17.3436C65.236 17.3436 64.948 17.2689 64.564 17.1196C64.18 16.9489 63.7534 16.7356 63.284 16.4796C62.836 16.2236 62.3667 15.9356 61.876 15.6156C61.3854 15.2956 60.9374 14.9756 60.532 14.6556C59.9987 15.3596 59.38 16.1382 58.676 16.9916C57.972 17.8236 57.2467 18.6556 56.5 19.4876C55.7534 20.3196 55.0067 21.1196 54.26 21.8876C53.5347 22.6342 52.8734 23.2742 52.276 23.8076C52.084 23.9782 51.8707 24.0636 51.636 24.0636C51.4014 24.0849 51.1987 24.0422 51.028 23.9356C50.8787 23.8289 50.7827 23.6796 50.74 23.4876C50.6974 23.2956 50.7827 23.0822 50.996 22.8476C51.7854 22.0156 52.5747 21.1836 53.364 20.3516C54.1747 19.4982 54.964 18.6236 55.732 17.7276C56.5214 16.8316 57.268 15.9036 57.972 14.9436C58.6974 13.9622 59.38 12.9276 60.02 11.8396C60.1907 11.5409 60.3507 11.1889 60.5 10.7836C60.6707 10.3569 60.756 9.96224 60.756 9.59958ZM69.3 19.1996C69.4067 18.4742 69.524 17.6209 69.652 16.6396C69.78 15.6582 69.8867 14.6449 69.972 13.5996C70.0574 12.5329 70.1107 11.4662 70.132 10.3996C70.1747 9.33291 70.1534 8.33024 70.068 7.39158C70.004 6.45291 69.876 5.63158 69.684 4.92758C69.492 4.20224 69.2147 3.65824 68.852 3.29558C68.6814 3.12491 68.468 2.92224 68.212 2.68758C67.9774 2.45291 67.86 2.21824 67.86 1.98358C67.86 1.64224 68.0094 1.35424 68.308 1.11958C68.6067 0.884911 68.916 0.767578 69.236 0.767578C69.428 0.767578 69.62 0.831578 69.812 0.959578C70.0254 1.08758 70.228 1.24758 70.42 1.43958C70.612 1.61024 70.7827 1.80224 70.932 2.01558C71.1027 2.22891 71.2414 2.42091 71.348 2.59158C71.668 3.08224 71.9027 3.74358 72.052 4.57558C72.2227 5.40758 72.3187 6.32491 72.34 7.32758C72.3614 8.33024 72.3294 9.38624 72.244 10.4956C72.18 11.6049 72.0734 12.6929 71.924 13.7596C71.796 14.8262 71.636 15.8289 71.444 16.7676C71.2734 17.7062 71.1027 18.4956 70.932 19.1356C70.7827 19.6049 70.4627 19.8396 69.972 19.8396C69.8014 19.8396 69.6307 19.7969 69.46 19.7116C69.3107 19.6049 69.2574 19.4342 69.3 19.1996ZM66.004 25.5996C64.5534 25.5996 63.4227 25.1196 62.612 24.1596C61.8227 23.1996 61.2574 21.8342 60.916 20.0636C60.8734 19.8716 60.8947 19.7009 60.98 19.5516C61.0867 19.3809 61.2147 19.2316 61.364 19.1036C61.5134 18.9756 61.684 18.8796 61.876 18.8156C62.068 18.7302 62.2494 18.6876 62.42 18.6876C62.932 18.6876 63.2627 18.9009 63.412 19.3276C63.54 19.7329 63.6787 20.1916 63.828 20.7036C63.9987 21.1942 64.2014 21.6636 64.436 22.1116C64.692 22.5596 65.0014 22.9436 65.364 23.2636C65.7267 23.5622 66.1747 23.7116 66.708 23.7116C67.2627 23.7116 67.764 23.6476 68.212 23.5196C68.6814 23.3916 69.1187 23.2316 69.524 23.0396C69.9507 22.8476 70.3454 22.6342 70.708 22.3996C71.0707 22.1649 71.4334 21.9409 71.796 21.7276C71.8814 21.6636 71.9987 21.6209 72.148 21.5996C72.2974 21.5782 72.436 21.5782 72.564 21.5996C72.692 21.5996 72.7987 21.6422 72.884 21.7276C72.9907 21.8129 73.044 21.9409 73.044 22.1116C73.044 22.3889 72.916 22.6342 72.66 22.8476C72.404 23.0609 72.1907 23.2209 72.02 23.3276C71.124 23.9462 70.1747 24.4796 69.172 24.9276C68.1694 25.3756 67.1134 25.5996 66.004 25.5996Z" fill="#222222"/>
<path d="M33.098 9.888C32.7353 9.97334 32.2553 10.0907 31.658 10.24C31.0607 10.368 30.442 10.5067 29.802 10.656C29.162 10.784 28.5433 10.9013 27.946 11.008C27.3487 11.1147 26.8793 11.1787 26.538 11.2C26.3033 11.2213 26.0687 11.168 25.834 11.04C25.5993 10.8907 25.482 10.6773 25.482 10.4C25.482 9.97333 25.6313 9.64267 25.93 9.408C26.25 9.17333 26.6447 9.01333 27.114 8.928C27.6047 8.864 28.138 8.77867 28.714 8.672C29.29 8.544 29.8767 8.42667 30.474 8.32C31.0713 8.192 31.658 8.07467 32.234 7.968C32.8313 7.86133 33.3967 7.76533 33.93 7.68C34.3993 7.616 34.8153 7.744 35.178 8.064C35.5407 8.36267 35.722 8.74667 35.722 9.216C35.722 9.472 35.6367 9.792 35.466 10.176C35.2953 10.56 35.0927 10.8373 34.858 11.008C35.434 11.328 35.8607 11.744 36.138 12.256C36.4153 12.7467 36.554 13.2373 36.554 13.728C36.554 14.3893 36.3087 15.072 35.818 15.776C35.3487 16.48 34.7407 17.1307 33.994 17.728C33.2473 18.304 32.426 18.7947 31.53 19.2C30.634 19.584 29.77 19.7973 28.938 19.84C28.3833 19.8613 27.8607 19.7227 27.37 19.424C26.9007 19.104 26.666 18.624 26.666 17.984C26.666 17.1947 26.9007 16.4267 27.37 15.68C27.8393 14.9333 28.4047 14.2187 29.066 13.536C29.7487 12.832 30.4527 12.1813 31.178 11.584C31.9247 10.9653 32.5647 10.4 33.098 9.888ZM50.25 9.6C50.25 9.87733 50.1327 10.1013 49.898 10.272C49.6847 10.4427 49.4607 10.528 49.226 10.528C48.5007 10.528 47.786 10.6027 47.082 10.752C46.3993 10.9013 45.7167 11.0827 45.034 11.296C44.9273 12.448 44.7993 13.536 44.65 14.56C44.522 15.5627 44.3727 16.4373 44.202 17.184C44.1593 17.4187 44.0313 17.6 43.818 17.728C43.6047 17.856 43.3807 17.92 43.146 17.92C42.9753 17.92 42.8047 17.8667 42.634 17.76C42.4633 17.6533 42.3993 17.4827 42.442 17.248C42.5273 16.672 42.6127 15.9787 42.698 15.168C42.7833 14.3573 42.8367 13.4933 42.858 12.576C42.9007 11.6587 42.9113 10.72 42.89 9.76C42.89 8.77867 42.8367 7.84 42.73 6.944C42.6447 6.048 42.4953 5.216 42.282 4.448C42.0687 3.68 41.7913 3.04 41.45 2.528C41.3433 2.35733 41.1727 2.16533 40.938 1.952C40.7247 1.73867 40.618 1.51467 40.618 1.28C40.618 0.917334 40.7887 0.618667 41.13 0.384001C41.4713 0.128 41.8127 0 42.154 0C42.4313 0 42.6553 0.0853335 42.826 0.256001C43.018 0.405334 43.1993 0.565334 43.37 0.736C43.7327 1.16267 44.0313 1.68533 44.266 2.304C44.5007 2.92267 44.682 3.60533 44.81 4.352C44.9593 5.07733 45.0553 5.856 45.098 6.688C45.1407 7.52 45.1513 8.36267 45.13 9.216C45.77 9.06667 46.41 8.98133 47.05 8.96C47.7113 8.93867 48.202 8.928 48.522 8.928C48.65 8.928 48.81 8.93867 49.002 8.96C49.194 8.96 49.386 8.98133 49.578 9.024C49.77 9.06667 49.93 9.14133 50.058 9.248C50.186 9.33333 50.25 9.45067 50.25 9.6ZM34.506 22.72C34.2073 22.72 33.898 22.6667 33.578 22.56C33.2793 22.4533 33.13 22.208 33.13 21.824C33.13 21.44 33.3007 21.12 33.642 20.864C34.0047 20.608 34.3673 20.48 34.73 20.48C35.3487 20.48 35.9567 20.4267 36.554 20.32C37.1727 20.192 37.77 20.0533 38.346 19.904C38.9433 19.7547 39.53 19.616 40.106 19.488C40.682 19.3387 41.258 19.2427 41.834 19.2C42.5807 19.1573 43.146 19.3173 43.53 19.68C43.914 20.0213 44.0953 20.544 44.074 21.248C44.0527 22.016 43.9993 22.8373 43.914 23.712C43.85 24.5867 43.754 25.4507 43.626 26.304C43.5193 27.1573 43.3913 27.968 43.242 28.736C43.114 29.504 42.9753 30.1653 42.826 30.72C42.762 30.9547 42.6233 31.1467 42.41 31.296C42.1967 31.4667 41.962 31.552 41.706 31.552C41.5353 31.552 41.3647 31.4987 41.194 31.392C41.0233 31.3067 40.9487 31.1573 40.97 30.944C41.1407 29.4293 41.3007 27.968 41.45 26.56C41.6207 25.152 41.6953 23.648 41.674 22.048C41.674 21.472 41.4287 21.2587 40.938 21.408C39.9353 21.7067 38.8793 22.0053 37.77 22.304C36.6607 22.5813 35.5727 22.72 34.506 22.72ZM34.442 14.656C34.634 14.208 34.6233 13.7493 34.41 13.28C34.218 12.7893 33.898 12.3947 33.45 12.096C32.9593 12.5013 32.4473 12.9493 31.914 13.44C31.3807 13.9093 30.89 14.3893 30.442 14.88C30.0153 15.3707 29.6527 15.8507 29.354 16.32C29.0767 16.768 28.938 17.152 28.938 17.472C28.938 17.6427 28.9913 17.7707 29.098 17.856C29.2047 17.92 29.3327 17.9413 29.482 17.92C30.0153 17.8773 30.5487 17.7493 31.082 17.536C31.6153 17.3013 32.106 17.024 32.554 16.704C33.002 16.384 33.386 16.0427 33.706 15.68C34.0473 15.3173 34.2927 14.976 34.442 14.656ZM33.098 6.592C33.1407 6.42133 33.1727 6.272 33.194 6.144C33.2367 6.016 33.1727 5.86667 33.002 5.696C32.9167 5.632 32.7353 5.54667 32.458 5.44C32.202 5.33333 31.914 5.22667 31.594 5.12C31.2953 4.992 30.9967 4.87467 30.698 4.768C30.4207 4.66133 30.218 4.58667 30.09 4.544C29.8553 4.45867 29.61 4.36267 29.354 4.256C29.1193 4.14933 29.002 3.94667 29.002 3.648C29.002 3.28533 29.162 2.98667 29.482 2.752C29.8233 2.496 30.1753 2.368 30.538 2.368C30.7727 2.368 31.0927 2.44267 31.498 2.592C31.9033 2.74133 32.3193 2.93333 32.746 3.168C33.1727 3.38133 33.5567 3.616 33.898 3.872C34.2607 4.128 34.506 4.352 34.634 4.544C34.8473 4.90667 34.9433 5.28 34.922 5.664C34.9007 6.02667 34.794 6.34667 34.602 6.624C34.3673 7.008 34.0153 7.2 33.546 7.2C33.3753 7.2 33.2473 7.14667 33.162 7.04C33.0767 6.93333 33.0553 6.784 33.098 6.592Z" fill="#222222"/>
<path d="M3.328 7.52C3.15733 7.52 2.93333 7.53067 2.656 7.552C2.4 7.57333 2.144 7.57333 1.888 7.552C1.632 7.50933 1.408 7.43467 1.216 7.328C1.04533 7.2 0.96 6.99733 0.96 6.72C0.96 6.37867 1.056 6.12267 1.248 5.952C1.44 5.76 1.67467 5.62133 1.952 5.536C2.25067 5.42933 2.56 5.36533 2.88 5.344C3.22133 5.32267 3.52 5.312 3.776 5.312C4.45867 5.312 5.26933 5.344 6.208 5.408C7.14667 5.45067 8.04267 5.6 8.896 5.856C9.77067 6.112 10.5067 6.50667 11.104 7.04C11.7013 7.552 12 8.288 12 9.248C12 9.78133 11.8293 10.432 11.488 11.2C11.1467 11.968 10.688 12.8 10.112 13.696C9.55733 14.5707 8.91733 15.4773 8.192 16.416C7.46667 17.3547 6.72 18.272 5.952 19.168C5.184 20.064 4.42667 20.9173 3.68 21.728C2.95467 22.5173 2.29333 23.2 1.696 23.776C1.44 24.032 1.13067 24.16 0.768 24.16C0.448 24.16 0.213333 24.0427 0.064 23.808C-0.064 23.5947 0 23.3387 0.256 23.04C0.704 22.5493 1.23733 21.9413 1.856 21.216C2.496 20.4693 3.14667 19.6693 3.808 18.816C4.49067 17.9413 5.16267 17.056 5.824 16.16C6.48533 15.2427 7.072 14.368 7.584 13.536C8.11733 12.704 8.544 11.9573 8.864 11.296C9.20533 10.6133 9.376 10.08 9.376 9.696C9.376 9.16267 9.13067 8.74667 8.64 8.448C8.14933 8.14933 7.57333 7.936 6.912 7.808C6.25067 7.65867 5.57867 7.57333 4.896 7.552C4.23467 7.53067 3.712 7.52 3.328 7.52ZM21.696 23.232C21.696 23.4027 21.6427 23.552 21.536 23.68C21.4507 23.8293 21.3227 23.9253 21.152 23.968C20 24.2667 18.752 24.6293 17.408 25.056C16.064 25.4827 14.8267 25.9093 13.696 26.336L13.056 26.56C13.056 26.624 13.056 26.6773 13.056 26.72C13.0773 26.784 13.088 26.8373 13.088 26.88C13.088 27.136 12.9707 27.3493 12.736 27.52C12.5227 27.712 12.2987 27.808 12.064 27.808C11.68 27.808 11.4347 27.6267 11.328 27.264C11.0933 26.24 10.8053 25.28 10.464 24.384C10.1227 23.488 9.64267 22.5493 9.024 21.568C8.91733 21.376 8.74667 21.152 8.512 20.896C8.27733 20.64 8.16 20.4267 8.16 20.256C8.16 19.872 8.33067 19.5627 8.672 19.328C9.01333 19.072 9.35467 18.944 9.696 18.944C10.08 18.944 10.432 19.1253 10.752 19.488C11.0933 19.8293 11.392 20.2773 11.648 20.832C11.904 21.3653 12.1173 21.9627 12.288 22.624C12.48 23.2853 12.64 23.9147 12.768 24.512C13.2373 24.3413 13.8133 24.1493 14.496 23.936C15.1787 23.744 15.8827 23.5627 16.608 23.392C16.736 23.1573 16.864 22.8907 16.992 22.592C17.1413 22.2933 17.2693 21.9947 17.376 21.696C17.504 21.3973 17.6 21.1093 17.664 20.832C17.728 20.5333 17.76 20.2773 17.76 20.064C17.76 19.936 17.6747 19.8827 17.504 19.904C17.2693 19.9253 16.9493 19.9893 16.544 20.096C16.16 20.1813 15.744 20.2773 15.296 20.384C14.8693 20.4693 14.464 20.5653 14.08 20.672C13.7173 20.7573 13.44 20.8107 13.248 20.832C13.0133 20.8747 12.7787 20.8213 12.544 20.672C12.3307 20.5227 12.224 20.3093 12.224 20.032C12.224 19.7333 12.3307 19.488 12.544 19.296C12.7573 19.104 13.0133 18.944 13.312 18.816C13.6107 18.688 13.92 18.592 14.24 18.528C14.56 18.464 14.8373 18.4107 15.072 18.368C15.5627 18.2613 16.0533 18.1653 16.544 18.08C17.056 17.9733 17.5573 17.92 18.048 17.92C18.5813 17.92 19.04 18.0587 19.424 18.336C19.808 18.6133 20 19.0293 20 19.584C20 19.9893 19.872 20.512 19.616 21.152C19.36 21.7707 19.072 22.368 18.752 22.944C19.2427 22.8373 19.68 22.7627 20.064 22.72C20.448 22.656 20.7573 22.624 20.992 22.624C21.1627 22.624 21.3227 22.6773 21.472 22.784C21.6213 22.8693 21.696 23.0187 21.696 23.232ZM18.496 16.608C18.624 15.4987 18.7627 14.2933 18.912 12.992C19.0827 11.6693 19.1467 10.3467 19.104 9.024C19.0827 7.68 18.912 6.38933 18.592 5.152C18.2933 3.89333 17.7493 2.77333 16.96 1.792C16.832 1.57867 16.7787 1.36533 16.8 1.152C16.8427 0.938667 16.928 0.746667 17.056 0.576C17.2053 0.405333 17.3867 0.266666 17.6 0.16C17.8347 0.0533333 18.0693 0 18.304 0C18.5813 0 18.8053 0.074667 18.976 0.224001C19.168 0.373334 19.3493 0.554667 19.52 0.768002C20.2453 1.64267 20.7467 2.76267 21.024 4.128C21.3013 5.472 21.4187 6.89067 21.376 8.384C21.3547 9.856 21.2267 11.3173 20.992 12.768C20.7573 14.2187 20.512 15.4773 20.256 16.544C20.192 16.7787 20.0533 16.96 19.84 17.088C19.648 17.216 19.4347 17.28 19.2 17.28C19.0293 17.28 18.8587 17.2373 18.688 17.152C18.5173 17.0453 18.4533 16.864 18.496 16.608Z" fill="#222222"/>
</svg>
