<svg width="165" height="40" viewBox="0 0 165 40" fill="none" xmlns="http://www.w3.org/2000/svg">
<g clip-path="url(#clip0_16_4617)">
<path d="M58.7463 1.25391V7.70562H52.8544V1.25391H49.6455V17.0448H52.8589V10.4937H58.7509V17.0448H61.9613V1.25391H58.7463Z" fill="#14306F"/>
<path d="M76.3003 15.0993C75.6655 15.7948 74.8754 16.3313 73.994 16.6654C73.1126 16.9995 72.1647 17.1218 71.2272 17.0223C70.2895 17.122 69.3416 16.9999 68.4601 16.6658C67.5787 16.3317 66.7886 15.795 66.154 15.0993C65.031 13.2936 64.5145 11.1776 64.6795 9.05902C64.522 6.92098 65.0375 4.78723 66.154 2.95545C66.776 2.23948 67.5623 1.68412 68.4459 1.33669C69.3295 0.989267 70.2842 0.860067 71.2287 0.960102C72.1729 0.860317 73.1273 0.989641 74.0106 1.33706C74.8939 1.68448 75.6799 2.2397 76.3018 2.95545C77.4183 4.78723 77.9338 6.92098 77.7763 9.05902C77.9413 11.1776 77.4233 13.2936 76.3003 15.0993ZM68.6619 13.0844C68.9348 13.5041 69.3199 13.8395 69.7737 14.0525C70.2275 14.2656 70.732 14.3478 71.2302 14.29C71.7284 14.3478 72.2328 14.2656 72.6867 14.0525C73.1405 13.8395 73.5256 13.5041 73.7985 13.0844C74.3446 11.8209 74.5793 10.4452 74.4829 9.07259C74.5728 7.67119 74.3322 6.26826 73.7803 4.97641C73.4839 4.58007 73.0988 4.25825 72.6556 4.03655C72.2125 3.81486 71.7236 3.69941 71.2279 3.69941C70.7322 3.69941 70.2433 3.81486 69.8002 4.03655C69.3571 4.25825 68.9719 4.58007 68.6755 4.97641C68.1262 6.26949 67.8867 7.67253 67.976 9.0741C67.8798 10.4468 68.115 11.8225 68.6619 13.0859" fill="#14306F"/>
<path d="M80.5176 16.754V1.23438H85.9729L88.7588 12.5554L91.5446 1.23438H97V16.7571H93.7957V4.74883H93.4482L90.3602 16.0668H87.1574L84.0694 4.74883H83.7204V16.7525L80.5176 16.754Z" fill="#14306F"/>
<path d="M100.433 16.754V1.23438H110.647V3.96516H103.637V7.59566H109.255V10.2948H103.637V14.0142H110.648V16.754H100.433Z" fill="#14306F"/>
<path d="M119.098 12.2344H116.497V16.7556H113.294V1.23438H119.098C122.844 1.23438 124.717 3.02978 124.717 6.6206C124.768 7.37434 124.668 8.13066 124.422 8.84537C124.177 9.56007 123.791 10.2188 123.288 10.7831C122.725 11.2961 122.063 11.6894 121.343 11.9389C120.622 12.1884 119.859 12.2889 119.098 12.2344ZM116.497 9.54127H119.082C120.676 9.54127 121.473 8.57374 121.473 6.62512C121.542 5.88832 121.335 5.15214 120.892 4.55894C120.651 4.33255 120.365 4.15952 120.053 4.05121C119.74 3.94289 119.408 3.90176 119.079 3.9305H116.497V9.54127Z" fill="#14306F"/>
<path d="M125.2 16.754L128.757 1.23438H134.839L138.391 16.7571H135.182L134.553 13.9479H129.033L128.408 16.7571L125.2 16.754ZM131.243 3.83405L129.636 11.199H133.955L132.354 3.83103L131.243 3.83405Z" fill="#14306F"/>
<path d="M146.843 11.1827V8.44284H151.44V16.4981C149.661 16.8096 147.86 16.9855 146.054 17.024C143.592 17.024 141.9 16.378 140.979 15.0859C139.916 13.2149 139.435 11.0699 139.6 8.9251C139.422 6.79347 139.925 4.66025 141.038 2.83206C141.65 2.15823 142.413 1.63773 143.264 1.31279C144.115 0.987843 145.031 0.867599 145.938 0.961807C147.505 0.975536 149.066 1.13599 150.603 1.44105L151.442 1.59176L151.348 4.04223C149.833 3.86264 148.309 3.76204 146.784 3.74082C145.932 3.6803 145.078 3.8202 144.291 4.14923C143.754 4.50036 143.375 5.04624 143.234 5.67136C142.958 6.91293 142.845 8.185 142.898 9.45558C142.797 10.7448 143.029 12.0385 143.572 13.2127C143.906 13.614 144.337 13.9233 144.825 14.1109C145.313 14.2985 145.84 14.3582 146.358 14.2842L148.286 14.1938V11.1797L146.843 11.1827Z" fill="#14306F"/>
<path d="M154.458 16.754V1.23438H164.672V3.96516H157.661V7.59566H163.279V10.2948H157.661V14.0142H164.672V16.754H154.458Z" fill="#14306F"/>
<path d="M52.861 38.2612H49.6582V22.7491H52.861V29.57L54.9972 29.3379L57.5988 22.7476H61.2427L57.8073 30.53L61.3349 38.2612H57.6426L54.9972 32.0823L52.861 32.3098V38.2612Z" fill="#14306F"/>
<path d="M74.1854 36.6008C73.5518 37.2986 72.7619 37.8372 71.88 38.1727C70.9981 38.5082 70.0493 38.6311 69.1108 38.5313C68.1727 38.6311 67.2243 38.5082 66.3429 38.1727C65.4615 37.8372 64.6721 37.2985 64.0391 36.6008C62.9175 34.7989 62.4015 32.6871 62.5661 30.5725C62.4089 28.4347 62.9238 26.3012 64.0391 24.4689C64.6607 23.7527 65.4466 23.1969 66.3299 22.8489C67.2133 22.501 68.1678 22.3712 69.1123 22.4706C70.057 22.3709 71.0118 22.5006 71.8954 22.8485C72.7791 23.1965 73.5652 23.7524 74.1869 24.4689C75.3022 26.3012 75.8171 28.4347 75.6599 30.5725C75.8246 32.6871 75.307 34.7989 74.1854 36.6008ZM66.5455 34.5934C66.8189 35.0126 67.2041 35.3476 67.6578 35.5605C68.1114 35.7735 68.6157 35.8561 69.1138 35.799C69.6119 35.8561 70.1161 35.7735 70.5698 35.5605C71.0235 35.3476 71.4087 35.0126 71.6821 34.5934C72.229 33.3301 72.4637 31.9542 72.3665 30.5816C72.4582 29.18 72.2191 27.7766 71.6685 26.4839C71.3719 26.0872 70.9866 25.7652 70.5432 25.5433C70.0998 25.3214 69.6106 25.2059 69.1145 25.2059C68.6185 25.2059 68.1293 25.3214 67.6859 25.5433C67.2425 25.7652 66.8572 26.0872 66.5606 26.4839C66.0108 27.7768 65.7718 29.1801 65.8626 30.5816C65.7662 31.9542 65.9993 33.3298 66.5455 34.5934Z" fill="#14306F"/>
<path d="M81.6062 33.0573V38.2597H78.4004V22.749H84.5311C88.2435 22.749 90.1002 24.453 90.1013 27.861C90.1569 28.7458 89.9702 29.6291 89.5612 30.4163C89.1521 31.2034 88.5362 31.8647 87.7792 32.3294L90.0318 38.2612H86.5268L84.6942 33.0573H81.6062ZM86.273 29.683C86.6648 29.1637 86.8616 28.5237 86.8289 27.8745C86.8642 27.2274 86.6514 26.5911 86.2337 26.0947C86.0164 25.866 85.751 25.6881 85.4566 25.5737C85.1623 25.4593 84.8462 25.4113 84.5311 25.4331H81.6062V30.3597H84.5779C84.8942 30.3835 85.2117 30.3342 85.5058 30.2155C85.7998 30.0969 86.0623 29.912 86.273 29.6755" fill="#14306F"/>
<path d="M92.7949 38.2612V22.749H103.011V25.4919H95.9977V29.1088H101.615V31.8064H95.9977V35.5289H103.011V38.2612H92.7949Z" fill="#14306F"/>
<path d="M104.335 38.2612L107.887 22.749H113.969L117.522 38.2612H114.318L113.69 35.458H108.165L107.539 38.2612H104.335ZM110.378 25.3487L108.777 32.7167H113.093L111.485 25.3412L110.378 25.3487Z" fill="#14306F"/>
<path d="M0 7.50993V31.6786C0.0155679 33.6842 0.82899 35.6015 2.2614 37.0089C3.6938 38.4163 5.62792 39.1986 7.63842 39.1837C9.64933 39.199 11.584 38.4169 13.017 37.0095C14.4499 35.6021 15.2639 33.6846 15.2799 31.6786V29.2191H15.2693C15.2564 28.7974 15.0794 28.3972 14.7758 28.1035C14.4722 27.8097 14.0659 27.6454 13.643 27.6454C13.22 27.6454 12.8137 27.8097 12.5101 28.1035C12.2065 28.3972 12.0295 28.7974 12.0166 29.2191V29.2372V29.2522V31.6786C11.9953 32.8211 11.5254 33.9096 10.7079 34.7101C9.89045 35.5105 8.79071 35.959 7.64522 35.959C6.49973 35.959 5.39999 35.5105 4.58251 34.7101C3.76503 33.9096 3.29512 32.8211 3.27383 31.6786V7.50993C3.30379 6.37306 3.77757 5.29279 4.59424 4.49926C5.41091 3.70573 6.50591 3.26167 7.64598 3.26167C8.78604 3.26167 9.88104 3.70573 10.6977 4.49926C11.5144 5.29279 11.9882 6.37306 12.0181 7.50993V17.3525L12.0378 18.0141V20.023C12.0541 22.0289 12.8682 23.9462 14.3011 25.3535C15.734 26.7608 17.6684 27.543 19.6792 27.5282C20.7573 27.5316 21.8219 27.2887 22.7914 26.8183L22.7672 23.0658C22.5777 23.2519 22.3719 23.4209 22.1523 23.5706C21.4221 24.0629 20.5606 24.3254 19.6792 24.3242C18.5294 24.3326 17.4232 23.8852 16.6039 23.0804C15.7846 22.2755 15.3193 21.1791 15.3101 20.0321V17.9629L15.2889 17.2968V7.50993C15.2812 6.51564 15.0772 5.5326 14.6885 4.617C14.2998 3.7014 13.734 2.87118 13.0235 2.17377C12.3131 1.47637 11.4718 0.925461 10.5478 0.552521C9.62377 0.17958 8.63516 -0.00807884 7.63842 0.000266601C5.62738 -0.0137749 3.69305 0.769401 2.26068 2.17762C0.828321 3.58584 0.0151711 5.50383 0 7.50993Z" fill="#14306F"/>
<path d="M33.1126 0.000229919C31.1015 -0.0142119 29.1669 0.768834 27.7345 2.17714C26.302 3.58544 25.489 5.50366 25.4742 7.50989V9.96941C25.4923 10.3878 25.6716 10.783 25.9748 11.0727C26.278 11.3624 26.6815 11.5241 27.1013 11.5241C27.5211 11.5241 27.9247 11.3624 28.2278 11.0727C28.531 10.783 28.7103 10.3878 28.7284 9.96941V9.94681V9.93174V7.50989C28.7584 6.37302 29.2322 5.29275 30.0488 4.49922C30.8655 3.7057 31.9605 3.26163 33.1006 3.26163C34.2406 3.26163 35.3356 3.7057 36.1523 4.49922C36.969 5.29275 37.4428 6.37302 37.4727 7.50989V31.674C37.4428 32.8109 36.969 33.8912 36.1523 34.6847C35.3356 35.4782 34.2406 35.9223 33.1006 35.9223C31.9605 35.9223 30.8655 35.4782 30.0488 34.6847C29.2322 33.8912 28.7584 32.8109 28.7284 31.674V21.8345L28.7088 21.1729V19.1655C28.6932 17.1601 27.8806 15.2429 26.4493 13.8347C25.0181 12.4264 23.0852 11.6423 21.0749 11.6543C19.9984 11.6546 18.9362 11.8994 17.9688 12.3702L17.9884 16.1257C18.1802 15.9404 18.3875 15.7715 18.6078 15.6209C19.3382 15.13 20.1987 14.8677 21.0794 14.8673C22.2309 14.8593 23.3385 15.3074 24.1591 16.1133C24.9796 16.9191 25.4461 18.0168 25.4561 19.1655V21.2286L25.4803 21.8902V31.674C25.5085 33.6762 26.3256 35.5867 27.7549 36.9926C29.1841 38.3984 31.1107 39.1866 33.1179 39.1866C35.1252 39.1866 37.0517 38.3984 38.481 36.9926C39.9103 35.5867 40.7274 33.6762 40.7556 31.674V7.50989C40.7483 6.51612 40.5448 5.53353 40.1567 4.61824C39.7686 3.70296 39.2035 2.87291 38.4938 2.17553C37.784 1.47815 36.9435 0.927094 36.0201 0.55385C35.0968 0.180605 34.1089 -0.00751758 33.1126 0.000229919Z" fill="#14306F"/>
</g>
<defs>
<clipPath id="clip0_16_4617">
<rect width="165" height="40" fill="white"/>
</clipPath>
</defs>
</svg>
